<svg version="1.2" xmlns="http://www.w3.org/2000/svg" viewBox="0 0 876 386" width="876" height="386"><style>.a{fill:#fbfafa}.b{fill:#dda800}</style><path class="a" d="m462 157.4v-27.6h-99.2v126.4h35.8v-43.3h55.8v-27.7h-55.8v-27.8h63.4z"/><path fill-rule="evenodd" class="a" d="m533.5 222.6h-19.5v33.6h-35.8v-126.4h57.8q17.4 0 29.9 5.6 12.6 5.6 19.4 16.2 6.9 10.5 6.9 25 0 14.2-6.9 24.6-6.4 9.8-17.9 15.2l27.3 39.8h-38.3zm0.4-64.6h-19.9v37h19.9q11.2 0 16.7-4.9 5.5-4.9 5.5-13.5 0-8.9-5.5-13.8-5.5-4.8-16.7-4.8z"/><path fill-rule="evenodd" class="a" d="m741.6 193q0 19.3-8.9 33.5-9 14.2-24.9 21.9-15.9 7.8-36.8 7.8h-59.8v-126.4h59.8q20.9 0 36.8 7.8 15.9 7.7 24.9 21.8 8.9 14.1 8.9 33.6zm-36.1 0q0-11-4.5-18.8-4.5-7.7-12.6-11.8-8-4.1-18.8-4.1h-22.6v69.4h22.6q10.8 0 18.8-4.1 8.1-4.1 12.6-11.9 4.5-7.9 4.5-18.7z"/><path fill-rule="evenodd" class="a" d="m814.6 222.6h-19.6v33.6h-35.7v-126.4h57.8q17.3 0 29.9 5.6 12.5 5.6 19.4 16.2 6.8 10.5 6.8 25 0 14.2-6.8 24.6-6.5 9.8-18 15.2l27.4 39.8h-38.3zm0.3-64.6h-19.8v37h19.8q11.2 0 16.7-4.9 5.5-4.9 5.5-13.5 0-8.9-5.5-13.8-5.5-4.8-16.7-4.8z"/><path class="b" d="m236.9 195.8l30.1 30.1-30.1 30.1-30.1-30.1z"/><path class="b" d="m35.5 80.7l-35.3 35.2 31.4 31.4-26.2 26.2 22.5 22.5-27.7 27.7 35.3 35.3 35.2-35.3-27.6-27.7 22.5-22.5-26.2-26.2 31.3-31.4-35.2-35.2z"/><path class="b" d="m106 262.7l21.2 21.2-21.2 21.2-21.1-21.2z"/><path class="b" d="m170.4 251.8l26-25.9-28.5-28.5 19.5-19.5-21.1-21.2-21.2 21.2 19.5 19.5-28.4 28.5 25.9 25.9-31.1 31.1 35.3 35.3 35.2-35.3-31.1-31.1z"/><path class="b" d="m110.2 199.9l31.1-31.1-26.5-26.4 26.5-26.5-35.3-35.2-35.2 35.2 26.4 26.5-26.4 26.4 31.1 31.1-26 26 30.1 30.1 30.1-30.1-25.9-26z"/><path class="b" d="m236.9 146.6l21.2 21.2-21.2 21.2-21.1-21.2z"/><path class="b" d="m106 321.9l13.4 13.4-13.4 13.4-13.4-13.4z"/><path class="b" d="m106 0.1l13.4 13.4-13.4 13.4-13.4-13.4z"/><path class="b" d="m106 359.1l13.4 13.4-13.4 13.4-13.4-13.4z"/><path class="b" d="m236.9 281.8l13.4 13.4-13.4 13.4-13.4-13.4z"/><path class="b" d="m35.5 38l13.4 13.4-13.4 13.4-13.4-13.4z"/><path class="b" d="m166.3 356.1l-13.5-13.4 13.5-13.4 13.4 13.4z"/><path class="b" d="m35.5 266.7l13.4 13.4-13.4 13.4-13.4-13.4z"/><path class="b" d="m106 32.6l21.2 21.2-21.2 21.2-21.1-21.2z"/><path class="b" d="m236.9 94.3l21.2 21.1-21.2 21.2-21.1-21.2z"/></svg>