<?xml version="1.0" encoding="UTF-8" standalone="no"?>
<svg
   xmlns:dc="http://purl.org/dc/elements/1.1/"
   xmlns:cc="http://creativecommons.org/ns#"
   xmlns:rdf="http://www.w3.org/1999/02/22-rdf-syntax-ns#"
   xmlns:svg="http://www.w3.org/2000/svg"
   xmlns="http://www.w3.org/2000/svg"
   xmlns:sodipodi="http://sodipodi.sourceforge.net/DTD/sodipodi-0.dtd"
   xmlns:inkscape="http://www.inkscape.org/namespaces/inkscape"
   data-name="Layer 1"
   width="1000"
   height="600"
   viewBox="0 0 999.99997 600.00003"
   version="1.1"
   id="svg60"
   sodipodi:docname="data.svg"
   inkscape:version="0.92.5 (2060ec1f9f, 2020-04-08)">
  <metadata
     id="metadata66">
    <rdf:RDF>
      <cc:Work
         rdf:about="">
        <dc:format>image/svg+xml</dc:format>
        <dc:type
           rdf:resource="http://purl.org/dc/dcmitype/StillImage" />
        <dc:title></dc:title>
      </cc:Work>
    </rdf:RDF>
  </metadata>
  <defs
     id="defs64" />
  <sodipodi:namedview
     pagecolor="#ffffff"
     bordercolor="#666666"
     borderopacity="1"
     objecttolerance="10"
     gridtolerance="10"
     guidetolerance="10"
     inkscape:pageopacity="0"
     inkscape:pageshadow="2"
     inkscape:window-width="2560"
     inkscape:window-height="1403"
     id="namedview62"
     showgrid="false"
     inkscape:zoom="0.43966143"
     inkscape:cx="-882.82704"
     inkscape:cy="-743.75412"
     inkscape:window-x="0"
     inkscape:window-y="0"
     inkscape:window-maximized="1"
     inkscape:current-layer="svg60" />
  <path
     d="M 898.46492,399.28716 H 344.33761 a 7.4998597,7.6972034 0 0 1 -7.4915,-7.68863 V 39.360235 H 905.9564 V 391.59856 a 7.4998597,7.6972034 0 0 1 -7.49148,7.6886 z"
     id="path2"
     inkscape:connector-curvature="0"
     style="fill:#e6e6e6;stroke-width:1" />
  <path
     d="M 882.21668,377.27487 H 360.58599 a 7.5813345,7.780822 0 0 1 -7.57298,-7.77224 V 79.421662 a 7.5817001,7.7811973 0 0 1 7.57298,-7.772246 h 521.63069 a 7.5813345,7.780822 0 0 1 7.57298,7.772246 V 369.50263 a 7.581042,7.7805219 0 0 1 -7.57298,7.77224 z"
     id="path4"
     inkscape:connector-curvature="0"
     style="fill:#ffffff;stroke-width:1" />
  <path
     d="M 905.71369,50.237284 H 336.60358 V 32.245822 a 7.4998597,7.6972034 0 0 1 7.49151,-7.688628 h 554.12712 a 7.4998597,7.6972034 0 0 1 7.4915,7.688628 z"
     id="path6"
     inkscape:connector-curvature="0"
     style="fill:#f50057;stroke-width:1" />
  <ellipse
     cx="354.98352"
     cy="37.675964"
     id="circle8"
     style="fill:#ffffff;stroke-width:1"
     rx="4.4742408"
     ry="4.5919714" />
  <ellipse
     cx="371.96661"
     cy="37.675964"
     id="circle10"
     style="fill:#ffffff;stroke-width:1"
     rx="4.4742408"
     ry="4.5919714" />
  <ellipse
     cx="388.94974"
     cy="37.675964"
     id="circle12"
     style="fill:#ffffff;stroke-width:1"
     rx="4.4742408"
     ry="4.5919714" />
  <rect
     x="406.62442"
     y="123.66568"
     width="53.762409"
     height="24.422636"
     id="rect14"
     style="fill:#e6e6e6;stroke-width:1" />
  <rect
     x="514.14923"
     y="174.32005"
     width="53.762409"
     height="24.422636"
     id="rect16"
     style="fill:#e6e6e6;stroke-width:1" />
  <rect
     x="406.62442"
     y="250.30159"
     width="53.762409"
     height="24.422649"
     id="rect18"
     style="fill:#f50057;stroke-width:1" />
  <rect
     x="514.14923"
     y="300.9559"
     width="53.762409"
     height="24.422636"
     id="rect20"
     style="fill:#f50057;stroke-width:1" />
  <rect
     x="782.07996"
     y="326.28311"
     width="53.762409"
     height="24.422636"
     id="rect22"
     style="fill:#f50057;stroke-width:1" />
  <rect
     x="728.31757"
     y="224.97441"
     width="53.762409"
     height="24.422636"
     id="rect24"
     style="fill:#e6e6e6;stroke-width:1" />
  <rect
     x="567.91162"
     y="224.97441"
     width="107.52483"
     height="24.422636"
     id="rect26"
     style="fill:#f50057;stroke-width:1" />
  <rect
     x="567.91162"
     y="97.43396"
     width="107.52483"
     height="24.422636"
     id="rect28"
     style="fill:#f50057;stroke-width:1" />
  <path
     d="M 352.86198,71.20226 V 377.84199 H 890.48616 V 71.202238 Z m 535.86147,25.402701 h -51.82326 v -23.59358 h 51.82327 z M 568.96947,274.42254 v -23.59317 h 105.40919 v 23.59317 z m 105.40924,1.80909 v 23.59361 H 568.96942 v -23.59361 z m 0,-101.60994 v 23.59318 H 568.96942 v -23.59318 z m -105.40924,-1.80908 v -23.59362 h 105.40919 v 23.59362 z m 0,50.80497 v -23.59363 h 105.40919 v 23.59363 z m 105.40924,1.80907 v 23.59363 H 568.96942 V 225.42665 Z M 567.20677,198.21487 H 515.3835 v -23.59318 h 51.82327 z m 0,1.80908 v 23.59363 H 515.3835 v -23.59363 z m 0,25.4027 v 23.59363 H 515.3835 v -23.59363 z m 0,25.40272 v 23.59317 H 515.3835 v -23.59317 z m 108.93465,0 h 51.82322 v 23.59317 h -51.82319 z m 0,-1.80909 v -23.59363 h 51.82322 v 23.59363 z m 0,-25.4027 v -23.59363 h 51.82322 v 23.59363 z m 0,-25.40271 v -23.59318 h 51.82322 v 23.59318 z m 0,-25.40226 v -23.59362 h 51.82322 v 23.59362 z m 0,-25.4027 v -23.59362 h 51.82322 v 23.59362 z m -1.76271,0 H 568.96942 v -23.59362 h 105.40924 z m -107.17194,0 H 515.3835 v -23.59362 h 51.82327 z m 0,1.80908 v 23.59362 H 515.3835 v -23.59362 z m -53.58597,23.59362 h -51.82419 v -23.59362 h 51.82413 z m 0,1.80908 v 23.59318 h -51.82419 v -23.59318 z m 0,25.40226 v 23.59363 h -51.82419 v -23.59363 z m 0,25.4027 v 23.59363 h -51.82419 v -23.59363 z m 0,25.40272 v 23.59317 h -51.82419 v -23.59317 z m 0,25.40226 v 23.59361 h -51.82419 v -23.59361 z m 1.7627,0 h 51.82327 v 23.59361 H 515.3835 Z m 51.82327,25.4027 V 325.2275 H 515.3835 v -23.59317 z m 1.7627,0 H 674.37866 V 325.2275 H 568.96942 Z m 107.17195,0 h 51.82322 v 23.59317 h -51.82319 z m 0,-1.80909 v -23.59361 h 51.82322 v 23.59361 z m 53.58596,-23.59361 h 51.82414 v 23.59361 h -51.82424 z m 0,-1.80909 v -23.59317 h 51.82414 v 23.59317 z m 0,-25.40226 v -23.59363 h 51.82414 v 23.59363 z m 0,-25.4027 v -23.59363 h 51.82414 v 23.59363 z m 0,-25.40271 v -23.59318 h 51.82414 v 23.59318 z m 0,-25.40226 v -23.59362 h 51.82414 v 23.59362 z m 0,-25.4027 v -23.59362 h 51.82414 v 23.59362 z m 0,-25.4027 V 98.414029 h 51.82414 v 23.593181 z m -1.76269,0 H 676.14145 V 98.414029 h 51.82319 z m -53.58598,0 H 568.96942 V 98.414029 h 105.40924 z m -107.17194,0 H 515.3835 V 98.414029 h 51.82327 z m -53.58597,0 H 461.79661 V 98.414029 h 51.82413 z m 0,1.80908 v 23.59362 h -51.82419 v -23.59362 z m -53.58684,23.59362 H 408.2107 v -23.59362 h 51.82326 z m 0,1.80908 v 23.59362 H 408.2107 v -23.59362 z m 0,25.4027 v 23.59318 H 408.2107 v -23.59318 z m 0,25.40226 v 23.59363 H 408.2107 v -23.59363 z m 0,25.4027 v 23.59363 H 408.2107 v -23.59363 z m 0,25.40272 v 23.59317 H 408.2107 v -23.59317 z m 0,25.40226 v 23.59361 H 408.2107 v -23.59361 z m 0,25.4027 V 325.2275 H 408.2107 v -23.59317 z m 1.7627,0 h 51.82414 v 23.59317 h -51.82419 z m 51.82414,25.40226 v 23.59405 h -51.82419 v -23.59405 z m 1.7627,0 h 51.82327 v 23.59405 H 515.3835 Z m 53.58597,0 h 105.40919 v 23.59405 H 568.96942 Z m 107.17195,0 h 51.82322 v 23.59405 h -51.82319 z m 53.58596,0 h 51.82414 v 23.59405 h -51.82424 z m 0,-1.80909 v -23.59317 h 51.82414 v 23.59317 z m 53.58686,-23.59317 h 51.82327 v 23.59317 h -51.82327 z m 0,-1.80909 v -23.59361 h 51.82327 v 23.59361 z m 0,-25.4027 v -23.59317 h 51.82327 v 23.59317 z m 0,-25.40226 v -23.59363 h 51.82327 v 23.59363 z m 0,-25.4027 v -23.59363 h 51.82327 v 23.59363 z m 0,-25.40271 v -23.59318 h 51.82327 v 23.59318 z m 0,-25.40226 v -23.59362 h 51.82327 v 23.59362 z m 0,-25.4027 v -23.59362 h 51.82327 v 23.59362 z m 0,-25.4027 V 98.414029 h 51.82327 v 23.593181 z m 0,-25.40226 V 73.011381 h 51.82327 v 23.593623 z m -1.7627,0 H 729.7273 V 73.011381 h 51.82413 z m -53.58683,0 H 676.14145 V 73.011381 h 51.82319 z m -53.58598,0 H 568.96942 V 73.011381 h 105.40924 z m -107.17194,0 H 515.3835 V 73.011381 h 51.82327 z m -53.58597,0 H 461.79661 V 73.011381 h 51.82413 z m -53.58683,0 H 408.2107 V 73.011381 h 51.82326 z m 0,1.809079 V 122.00721 H 408.2107 V 98.414029 Z M 406.44801,122.00721 H 354.62472 V 98.414029 h 51.82327 z m 0,1.80908 v 23.59362 h -51.82329 v -23.59362 z m 0,25.4027 v 23.59362 h -51.82329 v -23.59362 z m 0,25.4027 v 23.59318 h -51.82329 v -23.59318 z m 0,25.40226 v 23.59363 h -51.82329 v -23.59363 z m 0,25.4027 v 23.59363 h -51.82329 v -23.59363 z m 0,25.40272 v 23.59317 h -51.82329 v -23.59317 z m 0,25.40226 v 23.59361 h -51.82329 v -23.59361 z m 0,25.4027 v 23.59317 h -51.82329 v -23.59317 z m 0,25.40226 v 23.59405 h -51.82329 v -23.59405 z m 1.76271,0 h 51.82327 v 23.59405 H 408.2107 Z m 51.82327,25.40314 v 23.59318 H 408.2107 v -23.59318 z m 1.76269,0 h 51.82414 v 23.59318 h -51.82421 z m 53.58684,0 h 51.82327 v 23.59318 H 515.3835 Z m 53.58597,0 h 105.40917 v 23.59318 H 568.96942 Z m 107.17195,0 h 51.8232 v 23.59318 h -51.82319 z m 53.58596,0 h 51.82414 v 23.59318 H 729.7273 Z m 53.58684,0 h 51.82327 v 23.59318 h -51.82327 z m 0,-1.80908 v -23.59406 h 51.82327 v 23.59405 z m 53.58597,-23.59406 h 51.82327 v 23.59405 h -51.82329 z m 0,-1.80909 v -23.59317 h 51.82327 v 23.59317 z m 0,-25.40226 v -23.59361 h 51.82327 v 23.59361 z m 0,-25.4027 v -23.59317 h 51.82327 v 23.59317 z m 0,-25.40226 v -23.59363 h 51.82327 v 23.59363 z m 0,-25.4027 v -23.59363 h 51.82327 v 23.59363 z m 0,-25.40271 v -23.59318 h 51.82327 v 23.59318 z m 0,-25.40226 v -23.59362 h 51.82327 v 23.59362 z m 0,-25.4027 v -23.59362 h 51.82327 v 23.59362 z m 0,-25.4027 V 98.414029 h 51.82327 V 122.00721 Z M 406.44799,73.011381 V 96.605004 H 354.62472 V 73.011381 Z M 354.62472,352.43973 h 51.82327 v 23.59318 h -51.82327 z m 482.27545,23.59318 v -23.59318 h 51.82327 v 23.59318 z"
     id="path30"
     inkscape:connector-curvature="0"
     style="fill:#e6e6e6;stroke-width:1" />
  <path
     d="m 206.51258,237.34746 c 0,0 -27.19811,-6.43221 -42.15708,5.36017 -14.95897,11.79237 19.03868,38.59322 19.03868,38.59322 z"
     id="path32"
     inkscape:connector-curvature="0"
     style="fill:#2f2e41;stroke-width:1" />
  <path
     d="m 234.63927,391.16624 a 10.503752,10.780137 0 0 1 7.87571,-14.41903 l 5.49656,-37.89135 14.44402,13.28722 -7.43405,33.94518 a 10.56068,10.838563 0 0 1 -20.38222,5.07798 z"
     id="path34"
     inkscape:connector-curvature="0"
     style="fill:#ffb8b8;stroke-width:1" />
  <polygon
     points="80.881,524.652 83.571,477.082 65.517,478.28 68.648,525.464 "
     id="polygon36"
     style="fill:#ffb8b8;stroke-width:0.9449991"
     transform="matrix(1.0445487,0,0,1.0720339,106,24.557213)" />
  <path
     d="M 215.44382,598.88643 H 175.19661 V 582.9272 h 24.69716 a 15.55005,15.959219 0 0 1 15.55005,15.95922 v 0 z"
     id="path38"
     inkscape:connector-curvature="0"
     style="fill:#2f2e41;stroke-width:1" />
  <polygon
     points="101.29,512.775 123.139,470.433 106.164,464.168 89.789,508.53 "
     id="polygon40"
     style="fill:#ffb8b8;stroke-width:0.9449991"
     transform="matrix(1.0445487,0,0,1.0720339,106,24.557213)" />
  <path
     d="m 230.85412,594.49576 -37.75703,-14.30391 5.38483,-14.9718 23.16909,8.77741 a 15.55005,15.959219 0 0 1 9.20311,20.49829 v 0 z"
     id="path42"
     inkscape:connector-curvature="0"
     style="fill:#2f2e41;stroke-width:1" />
  <path
     d="m 234.7206,373.80379 c 0,0 12.9405,7.1513 8.9588,35.75654 l -3.98173,108.29125 -21.99756,49.36656 -18.91304,-5.10808 12.04333,-40.17202 -15.92676,-70.49147 -2.0891,128.03095 -17.91754,3.06485 -25.78279,-212.82505 32.84897,-15.32423 z"
     id="path44"
     inkscape:connector-curvature="0"
     style="fill:#2f2e41;stroke-width:1" />
  <ellipse
     cx="188.46739"
     cy="198.86397"
     id="circle46"
     style="fill:#ffb8b8;stroke-width:1"
     rx="25.655191"
     ry="26.330256" />
  <path
     d="m 203.36477,232.31003 -12.94049,21.45393 -18.91304,-19.41069 -35.35767,25.40161 a 6.6878171,6.8637935 0 0 0 -2.37454,8.19405 c 5.4388,13.80258 19.36653,54.60184 15.33518,101.76839 0,0 26.87643,-7.15131 54.74827,1.02165 27.87184,8.17296 34.8398,5.10808 34.8398,5.10808 0,0 -6.96795,-52.1024 -2.98626,-63.34016 3.30276,-9.3216 10.03003,-40.43378 12.22817,-50.77278 a 4.5401727,4.6596382 0 0 0 -2.22195,-5.06062 z"
     id="path48"
     inkscape:connector-curvature="0"
     style="fill:#f50057;stroke-width:1" />
  <path
     d="m 244.69681,256.79772 v 0 a 4.5488634,4.6685575 0 0 1 5.02719,3.37571 l 16.85012,62.44875 -3.98169,37.79977 -18.91304,-3.06483 1.99085,-26.56201 -13.93592,-33.71332 9.19947,-36.82199 a 4.5488634,4.6685575 0 0 1 3.76302,-3.46208 z"
     id="path50"
     inkscape:connector-curvature="0"
     style="fill:#f50057;stroke-width:1" />
  <path
     d="m 168.629,161.90261 a 18.28587,18.767025 0 0 1 16.8603,-9.20669 35.834194,36.777098 0 0 1 10.18936,2.92727 l 16.77134,6.71433 c 4.33979,1.73742 9.09279,3.86562 10.97597,8.23839 1.74785,4.05854 0.44382,8.74573 -0.87624,12.97114 l -6.27479,20.08523 a 59.571521,61.139026 0 0 0 -3.5558,-13.26779 c -1.82268,-4.19948 -4.70541,-8.07174 -8.69096,-10.17014 -4.35637,-2.29363 -9.491,-2.24614 -14.3815,-2.00459 -6.92621,0.3421 -14.45697,1.24649 -19.37811,6.26033 a 20.128004,20.657632 0 0 0 -5.10727,10.23718 60.039186,61.618997 0 0 0 -1.07101,11.58783 93.60507,96.068099 0 0 1 -7.14833,-15.72831 37.917118,38.914831 0 0 1 -2.65597,-12.73148 17.446763,17.905839 0 0 1 3.99888,-12.10986 c 2.83343,-3.25006 7.45019,-5.00468 11.51032,-3.718"
     id="path52"
     inkscape:connector-curvature="0"
     style="fill:#2f2e41;stroke-width:1" />
  <path
     d="m 154.36128,406.17471 a 10.503752,10.780137 0 0 0 -7.87571,-14.41903 l -5.49657,-37.89135 -14.44401,13.28722 7.43405,33.94518 a 10.56068,10.838563 0 0 0 20.38221,5.07798 z"
     id="path54"
     inkscape:connector-curvature="0"
     style="fill:#ffb8b8;stroke-width:1" />
  <path
     d="m 136.51645,259.39365 v 0 a 6.6987953,6.8750606 0 0 0 -5.58916,6.43819 l -5.70324,117.06565 h 20.90387 l 6.96797,-62.31854 -8.86765,-55.51601 a 6.6987848,6.8750499 0 0 0 -7.71179,-5.66929 z"
     id="path56"
     inkscape:connector-curvature="0"
     style="fill:#f50057;stroke-width:1" />
  <polygon
     points="0,536.777 0,534.671 172.12,534.671 171.738,536.777 "
     id="polygon58"
     style="fill:#cccccc;stroke-width:0.9449991"
     transform="matrix(1.0445487,0,0,1.0720339,106,24.557213)" />
</svg>
