<?xml version="1.0" encoding="UTF-8" standalone="no"?>
<svg
   xmlns:dc="http://purl.org/dc/elements/1.1/"
   xmlns:cc="http://creativecommons.org/ns#"
   xmlns:rdf="http://www.w3.org/1999/02/22-rdf-syntax-ns#"
   xmlns:svg="http://www.w3.org/2000/svg"
   xmlns="http://www.w3.org/2000/svg"
   xmlns:sodipodi="http://sodipodi.sourceforge.net/DTD/sodipodi-0.dtd"
   xmlns:inkscape="http://www.inkscape.org/namespaces/inkscape"
   data-name="Layer 1"
   width="1000"
   height="600"
   viewBox="0 0 1000 600"
   version="1.1"
   id="svg306"
   sodipodi:docname="helpers.svg"
   inkscape:version="0.92.5 (2060ec1f9f, 2020-04-08)">
  <metadata
     id="metadata312">
    <rdf:RDF>
      <cc:Work
         rdf:about="">
        <dc:format>image/svg+xml</dc:format>
        <dc:type
           rdf:resource="http://purl.org/dc/dcmitype/StillImage" />
        <dc:title></dc:title>
      </cc:Work>
    </rdf:RDF>
  </metadata>
  <defs
     id="defs310" />
  <sodipodi:namedview
     pagecolor="#ffffff"
     bordercolor="#666666"
     borderopacity="1"
     objecttolerance="10"
     gridtolerance="10"
     guidetolerance="10"
     inkscape:pageopacity="0"
     inkscape:pageshadow="2"
     inkscape:window-width="2560"
     inkscape:window-height="1403"
     id="namedview308"
     showgrid="false"
     inkscape:zoom="0.4670531"
     inkscape:cx="-723.44766"
     inkscape:cy="-186.27433"
     inkscape:window-x="0"
     inkscape:window-y="0"
     inkscape:window-maximized="1"
     inkscape:current-layer="svg306" />
  <path
     d="m 70.685373,505.41825 -3.086965,16.63644 c -0.232579,1.27187 -0.475731,2.56644 -0.740025,3.84966 a 15.104683,16.225039 0 0 0 -7.759697,0.4656 72.428419,77.800634 0 0 1 5.328184,9.57305 c -1.94521,6.43881 -4.799594,12.38931 -9.578046,16.69321 a 24.018736,25.800271 0 0 1 -23.205088,4.3834 l 0.137434,-0.65864 c -5.137892,-10.70866 -2.346938,-24.21086 4.038425,-34.10187 a 61.722997,66.301161 0 0 1 11.470397,-13.02526 c 4.313239,-3.86102 8.975453,-7.32458 13.595328,-10.74271 a 6.3325787,6.8022835 0 0 1 9.800053,6.92712 z"
     id="path2"
     inkscape:connector-curvature="0"
     style="fill:#e4e4e4;stroke-width:1" />
  <path
     id="b311a411-101b-4365-a37b-2cdfec47a637-2285"
     data-name="a4b268fa-75d0-4ac1-9d87-14bdca948464-2189"
     d="m 32.743066,597.04909 c -1.299273,-10.16697 -2.635548,-20.46339 -1.72426,-30.73937 0.8098,-9.12564 3.400946,-18.0389 8.678386,-25.34759 a 39.254901,42.166544 0 0 1 10.071748,-9.80357 c 1.007492,-0.68136 1.933581,1.03226 0.931375,1.71134 a 37.318296,40.086296 0 0 0 -14.761396,19.13134 c -3.213825,8.7804 -3.729729,18.35232 -3.171538,27.67896 0.335126,5.64049 1.044493,11.24236 1.760203,16.84084 a 0.95146147,1.022034 0 0 1 -0.644879,1.21963 0.92820353,0.99705093 0 0 1 -1.135411,-0.69272 z"
     inkscape:connector-curvature="0"
     style="fill:#f2f2f2;stroke-width:1" />
  <path
     d="m 43.893518,87.095786 q 67.930022,-1.268799 135.874672,-0.364525 67.93481,0.90961 135.82401,4.002 38.09546,1.735415 76.16008,4.157991 c 2.03879,0.129581 2.03177,-3.277644 0,-3.406784 Q 323.93063,87.173494 256.00998,85.033049 188.09897,82.898361 120.14877,82.946645 82.019046,82.9739 43.893518,83.68904 c -2.038591,0.03805 -2.045029,3.44497 0,3.406779 z"
     id="path5"
     inkscape:connector-curvature="0"
     style="fill:#e6e6e6;stroke-width:1" />
  <path
     d="m 359.499,65.734367 19.80255,-1.583153 c 2.02298,-0.161732 2.03939,-3.569817 0,-3.40678 L 359.499,62.327587 c -2.02297,0.161731 -2.03937,3.569829 0,3.40678 z"
     id="path7"
     inkscape:connector-curvature="0"
     style="fill:#e6e6e6;stroke-width:1" />
  <path
     d="m 359.499,86.175046 19.80255,-1.583153 c 2.02298,-0.161731 2.03939,-3.569816 0,-3.406779 L 359.499,82.768267 c -2.02297,0.161731 -2.03937,3.569828 0,3.406779 z"
     id="path9"
     inkscape:connector-curvature="0"
     style="fill:#e6e6e6;stroke-width:1" />
  <path
     d="m 358.00947,76.840243 28.15471,2.747567 c 2.03195,0.198287 2.01942,-3.209708 0,-3.406779 l -28.15471,-2.747568 c -2.03189,-0.198287 -2.01942,3.209709 0,3.40678 z"
     id="path11"
     inkscape:connector-curvature="0"
     style="fill:#e6e6e6;stroke-width:1" />
  <path
     d="m 55.612912,61.152759 a 7.0150197,7.535343 0 0 0 -6.48384,4.548664 6.315315,6.7837392 0 0 0 1.453241,8.057955 7.5082996,8.0652109 0 0 0 7.113517,1.552356 6.3458357,6.8165238 0 0 0 4.253414,-6.407767 7.0907772,7.6167196 0 0 0 -4.417467,-7.346153 1.592165,1.7102603 0 0 0 -1.950687,1.189716 1.6307415,1.7516981 0 0 0 1.107565,2.095374 c 0.276368,0.114695 -0.252465,-0.145924 0.0053,0.0046 0.106099,0.06212 0.214196,0.118193 0.318381,0.184489 0.08859,0.05633 0.173377,0.118033 0.259537,0.178435 0.29601,0.207541 -0.144506,-0.152351 0.04471,0.03418 0.164095,0.161799 0.326668,0.319658 0.475794,0.498196 0.05635,0.06746 0.27734,0.255168 0.105612,0.123996 -0.131365,-0.100384 -0.05064,-0.07677 -5.3e-5,0.0034 0.03837,0.06121 0.07908,0.120657 0.116987,0.182195 a 5.6514697,6.0706548 0 0 1 0.336565,0.624985 c 0.02336,0.04986 0.04461,0.100839 0.06829,0.150386 0.0444,0.09289 0.108773,0.11724 0.0043,8.75e-4 -0.0997,-0.111174 -0.03626,-0.103566 -5.5e-4,0.0034 0.02347,0.0703 0.04905,0.139768 0.07188,0.210345 a 6.1126113,6.5660006 0 0 1 0.186962,0.701002 c 0.02326,0.109698 0.04197,0.21993 0.06195,0.330253 0.07083,0.391189 -0.01057,-0.243187 0.0063,0.04735 0.01427,0.242609 0.03098,0.482628 0.02696,0.726201 q -0.0032,0.167194 -0.01353,0.333967 c -0.0032,0.05542 -0.0095,0.110833 -0.01279,0.16624 -0.01638,0.267295 -0.01702,-0.09766 0.01787,-0.122645 a 2.9285244,3.1457412 0 0 0 -0.1433,0.700661 c -0.02844,0.105951 -0.06217,0.209494 -0.09377,0.314242 -0.110318,0.365457 0.103603,-0.199217 -0.01395,0.05053 a 5.8005425,6.2307848 0 0 1 -0.323983,0.624236 c -0.0517,0.08426 -0.246493,0.274655 -0.08722,0.142177 0.17288,-0.143767 -0.0906,0.103793 -0.146874,0.167511 q -0.108339,0.122746 -0.224893,0.236964 a 1.8010849,1.9346763 0 0 1 -0.157278,0.146832 c -0.01057,-0.0057 0.264941,-0.197298 0.116714,-0.09573 -0.188432,0.129095 -0.366842,0.267183 -0.565423,0.379572 -0.02315,0.01306 -0.276981,0.139418 -0.275923,0.143892 -0.01099,-0.04599 0.326361,-0.127573 0.09483,-0.04724 -0.04863,0.01692 -0.09631,0.03725 -0.144781,0.05485 a 5.1804328,5.5646798 0 0 1 -0.644161,0.184308 c -0.05,0.01022 -0.102757,0.01613 -0.152001,0.02975 -0.163926,0.04554 0.156653,-0.02669 0.166284,-0.02078 a 1.3830444,1.4856286 0 0 0 -0.360868,0.03429 5.8999069,6.3375192 0 0 1 -0.675537,-6.8e-5 c -0.05201,-0.0034 -0.104027,-0.0091 -0.156051,-0.01203 -0.120836,-0.008 -0.209501,-0.101071 -0.04873,4.54e-4 0.12406,0.07836 0.113742,0.02124 0.0043,-6.13e-4 -0.05138,-0.01023 -0.103075,-0.01885 -0.154433,-0.02919 a 6.1543065,6.6107884 0 0 1 -0.659679,-0.173564 c -0.116639,-0.03816 -0.23092,-0.08255 -0.345983,-0.125778 a 0.9188052,0.9869555 0 0 1 -0.145892,-0.06029 c -6.97e-4,-0.01397 0.296561,0.152578 0.139623,0.06177 -0.198084,-0.114695 -0.402924,-0.210811 -0.596344,-0.336135 -0.103181,-0.06689 -0.202356,-0.13961 -0.302714,-0.211221 a 0.97545944,1.047812 0 0 1 -0.125508,-0.09652 c 0.0032,-0.01442 0.245857,0.227005 0.118542,0.09664 -0.161009,-0.164831 -0.333244,-0.312379 -0.485732,-0.487897 -0.03488,-0.04009 -0.06788,-0.08222 -0.102652,-0.122405 l -0.03362,-0.04133 q -0.128922,-0.169272 -0.0053,0.0011 c 0.08404,0.02657 0.08024,0.125676 4.65e-4,-0.0034 -0.02844,-0.04587 -0.05856,-0.09039 -0.08701,-0.136271 a 3.3128515,3.5585747 0 0 1 -0.327789,-0.628732 c 0.0074,-0.0068 0.13737,0.409869 0.03827,0.09573 -0.01871,-0.0594 -0.03975,-0.11775 -0.05815,-0.177255 q -0.05466,-0.177016 -0.09621,-0.357984 c -0.02738,-0.119499 -0.04144,-0.242779 -0.06914,-0.361789 -0.04663,-0.200614 0.02717,0.158268 0.01882,0.149331 -0.02643,-0.02804 -0.01522,-0.202034 -0.01713,-0.243664 -0.01269,-0.267285 0.01565,-0.526723 0.02009,-0.792395 0.0032,-0.205815 -0.01586,0.160402 -0.01987,0.149671 a 0.53715286,0.57699496 0 0 1 0.03013,-0.180922 c 0.02876,-0.140122 0.0554,-0.280094 0.0906,-0.418659 q 0.06037,-0.237987 0.138978,-0.470136 c 0.01956,-0.05792 0.04345,-0.114979 0.06164,-0.173371 0.0667,-0.213911 -0.132149,0.258325 -0.02252,0.06541 0.150869,-0.265376 0.263237,-0.552557 0.423421,-0.814641 0.03796,-0.06212 0.268746,-0.408188 0.146261,-0.233466 -0.121989,0.17403 0.125349,-0.155815 0.172172,-0.211811 0.19452,-0.232672 0.423262,-0.42369 0.624655,-0.646471 0.119208,-0.131876 -0.0832,0.06496 -0.09515,0.07415 0.06237,-0.0478 0.123447,-0.09755 0.186593,-0.144289 q 0.165141,-0.122269 0.338381,-0.231195 c 0.130097,-0.08188 0.277203,-0.142926 0.403293,-0.229594 0.148957,-0.102431 -0.113921,0.04497 -0.118626,0.04804 a 1.1802562,1.2677991 0 0 1 0.212419,-0.08698 c 0.122791,-0.04678 0.656847,-0.294312 0.768876,-0.216899 -0.0053,-0.0034 -0.405513,0.03464 -0.08183,0.01227 0.07655,-0.0057 0.152679,-0.01329 0.229303,-0.0167 0.154961,-0.0068 0.309394,-0.0022 0.464197,0.0057 a 1.5962669,1.7146664 0 0 0 1.585769,-1.70339 1.6209732,1.7412053 0 0 0 -1.585769,-1.703391 z"
     id="path13"
     inkscape:connector-curvature="0"
     style="fill:#e6e6e6;stroke-width:1" />
  <path
     d="m 77.813681,61.152759 a 7.0150197,7.535343 0 0 0 -6.483841,4.548664 6.315315,6.7837392 0 0 0 1.453242,8.057955 7.5082996,8.0652109 0 0 0 7.113519,1.552356 6.3458357,6.8165238 0 0 0 4.253407,-6.407767 7.0907772,7.6167196 0 0 0 -4.417466,-7.346153 1.592165,1.7102603 0 0 0 -1.950682,1.189716 1.6307415,1.7516981 0 0 0 1.107559,2.095374 c 0.276374,0.114695 -0.252459,-0.145924 0.0051,0.0046 0.106097,0.06212 0.214198,0.118193 0.318381,0.184489 0.08863,0.05633 0.173371,0.118033 0.259532,0.178435 0.296013,0.207541 -0.144501,-0.152351 0.04467,0.03418 0.16409,0.161799 0.326664,0.319658 0.475795,0.498196 0.05638,0.06746 0.27734,0.255168 0.105608,0.123996 -0.131364,-0.100384 -0.05068,-0.07677 -5.1e-5,0.0034 0.03836,0.06121 0.07907,0.120657 0.116985,0.182195 a 5.6514697,6.0706548 0 0 1 0.336565,0.624985 c 0.0234,0.04986 0.04457,0.100839 0.06828,0.150386 0.04437,0.09289 0.108772,0.11724 0.0041,8.75e-4 -0.09973,-0.111174 -0.03623,-0.103566 -5.49e-4,0.0034 0.02351,0.0703 0.04905,0.139768 0.07184,0.210345 a 6.1126113,6.5660006 0 0 1 0.186966,0.701002 c 0.0233,0.109698 0.04193,0.21993 0.06197,0.330253 0.07082,0.391189 -0.01058,-0.243187 0.0061,0.04735 0.01425,0.242609 0.03094,0.482628 0.02697,0.726201 q -0.0031,0.167194 -0.01353,0.333967 c -0.0031,0.05542 -0.0092,0.110833 -0.01282,0.16624 -0.01638,0.267295 -0.01699,-0.09766 0.01791,-0.122645 a 2.9285244,3.1457412 0 0 0 -0.1433,0.700661 c -0.02839,0.105951 -0.06218,0.209494 -0.09372,0.314242 -0.11032,0.365457 0.103603,-0.199217 -0.01394,0.05053 a 5.8005425,6.2307848 0 0 1 -0.323987,0.624236 c -0.05169,0.08426 -0.246486,0.274655 -0.08721,0.142177 0.172883,-0.143767 -0.09057,0.103793 -0.146872,0.167511 q -0.108335,0.122746 -0.224892,0.236964 a 1.8010849,1.9346763 0 0 1 -0.157272,0.146832 c -0.01058,-0.0057 0.264935,-0.197298 0.11671,-0.09573 -0.188431,0.129095 -0.366839,0.267183 -0.565426,0.379572 -0.0232,0.01306 -0.276974,0.139418 -0.275916,0.143892 -0.01099,-0.04599 0.326359,-0.127573 0.09484,-0.04724 -0.04864,0.01692 -0.09627,0.03725 -0.144776,0.05485 a 5.1804328,5.5646798 0 0 1 -0.644159,0.184308 c -0.04997,0.01022 -0.102759,0.01613 -0.152001,0.02975 -0.163927,0.04554 0.156651,-0.02669 0.166278,-0.02078 a 1.3830444,1.4856286 0 0 0 -0.360866,0.03429 5.8999069,6.3375192 0 0 1 -0.675542,-6.8e-5 c -0.052,-0.0034 -0.10402,-0.0091 -0.156051,-0.01203 -0.120831,-0.008 -0.209496,-0.101071 -0.04874,4.54e-4 0.124057,0.07836 0.113748,0.02124 0.0041,-6.13e-4 -0.05139,-0.01023 -0.103074,-0.01885 -0.154433,-0.02919 A 6.1543065,6.6107884 0 0 1 76.322389,72.055808 C 76.20575,72.017648 76.091462,71.973258 75.9764,71.93003 a 0.9188052,0.9869555 0 0 1 -0.145895,-0.06029 c -6.92e-4,-0.01397 0.296563,0.152578 0.139627,0.06177 -0.198089,-0.114695 -0.402924,-0.210811 -0.596341,-0.336135 -0.103186,-0.06689 -0.202363,-0.13961 -0.30272,-0.211221 a 0.97545944,1.047812 0 0 1 -0.125502,-0.09652 c 0.0031,-0.01442 0.245855,0.227005 0.118542,0.09664 -0.161007,-0.164831 -0.333248,-0.312379 -0.485737,-0.487897 -0.0349,-0.04009 -0.06788,-0.08222 -0.102647,-0.122405 l -0.03358,-0.04133 q -0.128922,-0.169272 -0.0051,0.0011 c 0.08406,0.02657 0.08029,0.125676 4.58e-4,-0.0034 -0.02839,-0.04587 -0.05861,-0.09039 -0.08701,-0.136271 a 3.3128515,3.5585747 0 0 1 -0.327783,-0.628732 c 0.0071,-0.0068 0.137367,0.409869 0.03826,0.09573 -0.01872,-0.0594 -0.03979,-0.11775 -0.05811,-0.177255 q -0.05465,-0.177016 -0.09616,-0.357984 c -0.02737,-0.119499 -0.04142,-0.242779 -0.0691,-0.361789 -0.04661,-0.200614 0.02717,0.158268 0.01883,0.149331 -0.02646,-0.02804 -0.01526,-0.202034 -0.0171,-0.243664 -0.01272,-0.267285 0.01567,-0.526723 0.02005,-0.792395 0.0031,-0.205815 -0.01587,0.160402 -0.01984,0.149671 a 0.53715286,0.57699496 0 0 1 0.03012,-0.180922 c 0.0288,-0.140122 0.05536,-0.280094 0.09057,-0.418659 q 0.06034,-0.237987 0.138976,-0.470136 c 0.01954,-0.05792 0.04345,-0.114979 0.06167,-0.173371 0.06676,-0.213911 -0.132147,0.258325 -0.02249,0.06541 0.150861,-0.265376 0.263236,-0.552557 0.423418,-0.814641 0.03796,-0.06212 0.268741,-0.408188 0.146262,-0.233466 -0.121992,0.17403 0.125349,-0.155815 0.172169,-0.211811 0.194517,-0.232672 0.423266,-0.42369 0.624652,-0.646471 0.119213,-0.131876 -0.08324,0.06496 -0.09515,0.07415 0.06238,-0.0478 0.123447,-0.09755 0.186589,-0.144289 q 0.165139,-0.122269 0.338377,-0.231195 c 0.130102,-0.08188 0.277208,-0.142926 0.4033,-0.229594 0.148948,-0.102431 -0.113922,0.04497 -0.118633,0.04804 a 1.1802562,1.2677991 0 0 1 0.212427,-0.08698 c 0.122785,-0.04678 0.656838,-0.294312 0.768867,-0.216899 -0.0051,-0.0034 -0.405509,0.03464 -0.08182,0.01227 0.07652,-0.0057 0.152682,-0.01329 0.229309,-0.0167 0.154962,-0.0068 0.309395,-0.0022 0.464194,0.0057 a 1.5962669,1.7146664 0 0 0 1.585766,-1.70339 1.6209732,1.7412053 0 0 0 -1.585766,-1.703391 z"
     id="path15"
     inkscape:connector-curvature="0"
     style="fill:#e6e6e6;stroke-width:1" />
  <path
     d="m 100.01445,61.152759 a 7.0150197,7.535343 0 0 0 -6.483844,4.548664 6.315315,6.7837392 0 0 0 1.453242,8.057955 7.5082996,8.0652109 0 0 0 7.113522,1.552356 6.3458357,6.8165238 0 0 0 4.2534,-6.407767 7.0907772,7.6167196 0 0 0 -4.41746,-7.346153 1.592165,1.7102603 0 0 0 -1.950684,1.189716 1.6307415,1.7516981 0 0 0 1.107574,2.095374 c 0.27636,0.114695 -0.25247,-0.145924 0.005,0.0046 0.1061,0.06212 0.2142,0.118193 0.31838,0.184489 0.0886,0.05633 0.17338,0.118033 0.25955,0.178435 0.296,0.207541 -0.14452,-0.152351 0.0447,0.03418 0.1641,0.161799 0.32666,0.319658 0.47579,0.498196 0.0564,0.06746 0.27734,0.255168 0.10561,0.123996 -0.13136,-0.100384 -0.0507,-0.07677 -5e-5,0.0034 0.0384,0.06121 0.0791,0.120657 0.11699,0.182195 a 5.6514697,6.0706548 0 0 1 0.33656,0.624985 c 0.0234,0.04986 0.0446,0.100839 0.0683,0.150386 0.0444,0.09289 0.10878,0.11724 0.004,8.75e-4 -0.0997,-0.111174 -0.0362,-0.103566 -5.5e-4,0.0034 0.0235,0.0703 0.0491,0.139768 0.0718,0.210345 a 6.1126113,6.5660006 0 0 1 0.18696,0.701002 c 0.0233,0.109698 0.0419,0.21993 0.062,0.330253 0.0708,0.391189 -0.0106,-0.243187 0.006,0.04735 0.0142,0.242609 0.0309,0.482628 0.027,0.726201 q -0.003,0.167194 -0.0135,0.333967 c -0.003,0.05542 -0.009,0.110833 -0.0128,0.16624 -0.0164,0.267295 -0.017,-0.09766 0.0178,-0.122645 a 2.9285244,3.1457412 0 0 0 -0.1433,0.700661 c -0.0284,0.105951 -0.0622,0.209494 -0.0938,0.314242 -0.11031,0.365457 0.1036,-0.199217 -0.014,0.05053 a 5.8005425,6.2307848 0 0 1 -0.32398,0.624236 c -0.0517,0.08426 -0.24649,0.274655 -0.0872,0.142177 0.17287,-0.143767 -0.0906,0.103793 -0.14688,0.167511 q -0.10834,0.122746 -0.2249,0.236964 a 1.8010849,1.9346763 0 0 1 -0.15727,0.146832 c -0.0106,-0.0057 0.26494,-0.197298 0.11671,-0.09573 -0.18843,0.129095 -0.36684,0.267183 -0.56541,0.379572 -0.0232,0.01306 -0.27699,0.139418 -0.27593,0.143892 -0.011,-0.04599 0.32636,-0.127573 0.0948,-0.04724 -0.0486,0.01692 -0.0963,0.03725 -0.14477,0.05485 a 5.1804328,5.5646798 0 0 1 -0.64416,0.184308 c -0.05,0.01022 -0.10276,0.01613 -0.152,0.02975 -0.16393,0.04554 0.15665,-0.02669 0.16627,-0.02078 a 1.3830444,1.4856286 0 0 0 -0.36086,0.03429 5.8999069,6.3375192 0 0 1 -0.675534,-6.8e-5 c -0.052,-0.0034 -0.104031,-0.0091 -0.156051,-0.01203 -0.120842,-0.008 -0.209506,-0.101071 -0.04874,4.54e-4 0.124067,0.07836 0.113749,0.02124 0.0041,-6.13e-4 -0.05139,-0.01023 -0.103074,-0.01885 -0.154433,-0.02919 a 6.1543065,6.6107884 0 0 1 -0.659678,-0.173564 c -0.116639,-0.03816 -0.230927,-0.08255 -0.345988,-0.125778 a 0.9188052,0.9869555 0 0 1 -0.145885,-0.06029 c -7.02e-4,-0.01397 0.296553,0.152578 0.139616,0.06177 -0.198078,-0.114695 -0.402923,-0.210811 -0.596341,-0.336135 -0.103186,-0.06689 -0.202352,-0.13961 -0.302709,-0.211221 a 0.97545944,1.047812 0 0 1 -0.125513,-0.09652 c 0.0031,-0.01442 0.245856,0.227005 0.118542,0.09664 -0.161007,-0.164831 -0.333248,-0.312379 -0.485737,-0.487897 -0.0349,-0.04009 -0.06788,-0.08222 -0.102646,-0.122405 l -0.03358,-0.04133 q -0.128921,-0.169272 -0.0051,0.0011 c 0.08406,0.02657 0.08029,0.125676 4.68e-4,-0.0034 -0.02849,-0.04587 -0.05861,-0.09039 -0.08701,-0.136271 a 3.3128515,3.5585747 0 0 1 -0.327793,-0.628732 c 0.0071,-0.0068 0.137368,0.409869 0.03826,0.09573 -0.01872,-0.0594 -0.03979,-0.11775 -0.0581,-0.177255 q -0.05465,-0.177016 -0.09616,-0.357984 c -0.02737,-0.119499 -0.04142,-0.242779 -0.0691,-0.361789 -0.04661,-0.200614 0.02717,0.158268 0.01883,0.149331 -0.02646,-0.02804 -0.01526,-0.202034 -0.0171,-0.243664 -0.01272,-0.267285 0.01567,-0.526723 0.02005,-0.792395 0.0031,-0.205815 -0.01587,0.160402 -0.01984,0.149671 a 0.53715286,0.57699496 0 0 1 0.03012,-0.180922 c 0.0287,-0.140122 0.05536,-0.280094 0.09057,-0.418659 q 0.06034,-0.237987 0.138975,-0.470136 c 0.01954,-0.05792 0.04345,-0.114979 0.06167,-0.173371 0.06676,-0.213911 -0.132147,0.258325 -0.02249,0.06541 0.150871,-0.265376 0.263236,-0.552557 0.423419,-0.814641 0.03796,-0.06212 0.268741,-0.408188 0.146261,-0.233466 -0.121991,0.17403 0.12535,-0.155815 0.17217,-0.211811 0.194527,-0.232672 0.423266,-0.42369 0.624661,-0.646471 0.119204,-0.131876 -0.08324,0.06496 -0.09515,0.07415 0.06238,-0.0478 0.123446,-0.09755 0.186589,-0.144289 q 0.165138,-0.122269 0.338387,-0.231195 c 0.130091,-0.08188 0.277197,-0.142926 0.40329,-0.229594 0.148958,-0.102431 -0.113922,0.04497 -0.118633,0.04804 a 1.1802562,1.2677991 0 0 1 0.212426,-0.08698 c 0.122785,-0.04678 0.656849,-0.294312 0.768878,-0.216899 -0.0051,-0.0034 -0.405519,0.03464 -0.08182,0.01227 0.07652,-0.0057 0.152672,-0.01329 0.229298,-0.0167 0.154962,-0.0068 0.309395,-0.0022 0.464191,0.0057 a 1.5962669,1.7146664 0 0 0 1.58578,-1.70339 1.6209732,1.7412053 0 0 0 -1.58578,-1.703391 z"
     id="path17"
     inkscape:connector-curvature="0"
     style="fill:#e6e6e6;stroke-width:1" />
  <path
     d="M 420.73451,438.40981 H 31.79264 A 18.5711,19.948571 0 0 1 13.241922,418.48371 V 46.116118 A 18.571555,19.949058 0 0 1 31.79264,26.189444 h 388.94187 a 18.571545,19.949047 0 0 1 18.55072,19.926674 V 418.48371 a 18.57109,19.948559 0 0 1 -18.55072,19.9261 z M 31.79264,28.460631 A 16.455093,17.675612 0 0 0 15.356281,46.116118 V 418.48371 a 16.454997,17.67551 0 0 0 16.436359,17.65492 h 388.94187 a 16.454997,17.67551 0 0 0 16.43636,-17.65492 V 46.116118 A 16.455093,17.675612 0 0 0 420.73451,28.460631 Z"
     id="path19"
     inkscape:connector-curvature="0"
     style="fill:#e6e6e6;stroke-width:1" />
  <path
     d="m 31.148236,279.54705 136.777014,-0.4469 136.07918,-0.44463 76.76261,-0.25081 a 1.5867206,1.704412 0 0 0 0,-3.40678 l -136.77702,0.44691 -136.07917,0.44462 -76.762614,0.25082 a 1.5867206,1.704412 0 0 0 0,3.40677 z"
     id="path21"
     inkscape:connector-curvature="0"
     style="fill:#e6e6e6;stroke-width:1" />
  <path
     d="m 100.15003,276.78514 0.84574,-53.64203 c 0.0346,-2.19307 -3.136943,-2.1935 -3.171531,0 l -0.845748,53.64203 c -0.0346,2.19307 3.136949,2.19348 3.171539,0 z"
     id="path23"
     inkscape:connector-curvature="0"
     style="fill:#e6e6e6;stroke-width:1" />
  <path
     d="m 165.52105,277.36558 2.06104,-67.42526 0.58885,-19.26437 c 0.0671,-2.19282 -3.10459,-2.19024 -3.17154,0 l -2.06104,67.42527 -0.58885,19.26436 c -0.0671,2.19283 3.10459,2.19025 3.17154,0 z"
     id="path25"
     inkscape:connector-curvature="0"
     style="fill:#e6e6e6;stroke-width:1" />
  <path
     d="m 230.71564,158.71463 c -1.24317,23.88152 -3.54354,94.32232 -4.78672,118.20381 -0.11404,2.19056 3.05787,2.1836 3.17155,0 1.24317,-23.88152 3.54353,-94.32231 4.78671,-118.20381 0.11404,-2.19057 -3.05786,-2.18361 -3.17154,0 z"
     id="path27"
     inkscape:connector-curvature="0"
     style="fill:#e6e6e6;stroke-width:1" />
  <path
     d="m 295.59642,252.95503 -0.38877,22.95395 c -0.0371,2.19309 3.13439,2.19328 3.17155,0 0.45914,-27.11024 1.63665,-26.22653 1.76625,-33.87787 0.0371,-2.19309 -3.1344,-2.19329 -3.17155,0 0,0 -0.91832,-16.18626 -1.37748,10.92392 z"
     id="path29"
     inkscape:connector-curvature="0"
     style="fill:#e6e6e6;stroke-width:1" />
  <path
     d="m 359.14555,192.65451 0.35867,64.39796 0.10266,18.43992 a 1.5867206,1.704412 0 0 0 3.17154,0 l -0.35868,-64.39794 -0.10265,-18.43994 a 1.5867206,1.704412 0 0 0 -3.17154,0 z"
     id="path31"
     inkscape:connector-curvature="0"
     style="fill:#e6e6e6;stroke-width:1" />
  <path
     d="m 31.40325,277.63051 c -2.62522,-7.74922 3.292595,-15.20241 9.373269,-18.55147 7.285024,-4.01236 15.665539,-4.92181 23.027789,-8.78983 10.975931,-5.76654 18.970448,-16.11579 26.084089,-26.47506 7.321804,-10.66238 14.021143,-22.10578 23.324753,-30.96493 a 46.72124,50.186683 0 0 1 16.9875,-10.56004 c 7.93123,-2.65874 16.34273,-2.84113 24.53804,-1.76964 16.93457,2.2141 32.63302,9.72732 48.97278,14.50253 15.40528,4.50213 32.37891,7.03387 47.49982,0.0329 7.68241,-3.55701 13.96468,-9.52267 20.71232,-14.68508 a 69.029386,74.149486 0 0 1 21.5752,-11.17951 c 15.17892,-4.53393 31.7555,-3.32328 45.88706,4.34138 a 61.57309,66.140135 0 0 1 29.04048,32.92364 c 6.69951,17.19116 5.82727,36.40222 3.63881,54.49701 -0.56569,4.67721 -1.23892,9.33879 -1.91947,13.99802 -0.31328,2.14482 2.74233,3.06869 3.05826,0.90566 2.7254,-18.65868 5.44206,-37.9083 2.05122,-56.68439 a 63.912669,68.653248 0 0 0 -23.6079,-41.309 65.591175,70.456253 0 0 0 -43.25061,-14.66206 70.914041,76.173931 0 0 0 -23.75923,5.67607 c -7.84359,3.48501 -14.48547,8.65041 -21.23198,14.08564 -6.9365,5.58825 -14.08691,10.2106 -22.69879,12.03316 -8.35331,1.76783 -17.04318,1.10514 -25.3599,-0.564 -17.16052,-3.44407 -33.15586,-11.33906 -50.17074,-15.38427 -15.76428,-3.74788 -32.77532,-4.12238 -46.89167,5.44391 -10.85874,7.35864 -18.531654,18.78263 -25.895373,29.81381 -7.299163,10.93446 -14.690622,22.62703 -25.363941,30.09647 -6.510882,4.55648 -13.829862,6.23774 -21.1133,8.80012 -7.302244,2.569 -14.312486,6.90294 -17.289915,14.93926 a 13.525247,14.528452 0 0 0 -0.276811,10.39548 c 0.692451,2.04401 3.758525,1.16146 3.05824,-0.90566 z"
     id="path33"
     inkscape:connector-curvature="0"
     style="fill:#e6e6e6;stroke-width:1" />
  <polygon
     points="86.175,166.905 86.171,166.905 86.167,166.907 "
     id="polygon35"
     style="fill:#e6e6e6;stroke-width:0.91267103"
     transform="matrix(1.0571794,0,0,1.1355933,7.9998149,26.189438)" />
  <path
     d="m 104.59696,212.59198 a 6.3025759,6.7700553 0 0 0 -7.636155,-3.03582 5.5468512,5.9582764 0 0 0 -3.159993,3.16052 c -0.06065,0.15449 -0.09616,0.31696 -0.145752,0.47526 -0.06869,0.11935 -0.151319,0.22712 -0.212875,0.35197 a 6.2983472,6.765513 0 0 0 9.822075,8.08306 6.78299,7.286103 0 0 0 1.3327,-9.03499 z m -3.9721,2.89306 c 0.013,0.086 0.008,0.16502 0,0 z m -0.40374,-0.98616 c -0.0156,-0.0192 -0.0136,-0.0172 0,0 z m -1.779597,0.76865 c -0.02381,-0.0394 -0.02615,-0.046 0,0 z m 0.42181,0.38413 c 0.100439,0.0368 0.06065,0.029 0,0 z m 0.18835,0.0964 0.04172,-0.0205 a 0.05301755,0.05695 0 0 1 -0.02961,-0.007 l 10e-4,-2.1e-4 0.03267,0.004 0.0061,-0.003 -0.01893,-0.004 c 0.01638,-6.2e-4 0.01832,0.002 0.01933,0.004 0.188666,-0.0927 0.06085,-0.0481 -0.04844,-0.0118 l -0.0071,-0.002 a 0.72031977,0.77374786 0 0 0 -0.217434,-0.0749 c -0.0071,-0.004 -0.01537,-0.007 -0.02117,-0.0118 -0.06065,-0.0464 -0.367602,-0.30394 -0.08293,-0.034 -0.06197,-0.0589 -0.123182,-0.11652 -0.181451,-0.17994 a 0.82767634,0.88906737 0 0 1 -0.09301,-0.12281 q -0.05607,-0.10323 -0.10866,-0.2083 l -0.0051,-0.0378 c -0.0041,-0.0314 -0.0081,-0.0444 -0.01191,-0.0632 0.002,-0.0195 0.0041,-0.0404 0.0071,-0.0608 a 0.68327619,0.73395668 0 0 0 0.0403,-0.1904 l 0.01231,-0.0166 c 0.04559,-0.0683 0.08538,-0.14791 0.128912,-0.21888 -0.229828,0.37496 0.08986,-0.0414 0.113769,-0.0942 0.0041,-0.009 -0.0031,-0.004 -0.001,-0.0102 0.0092,-0.006 0.0061,-0.002 0.01771,-0.009 0.07123,-0.0451 0.138731,-0.0953 0.211063,-0.13835 0.08619,-0.0513 0.425474,-0.15477 0.07357,-0.0467 0.07988,-0.0245 0.156661,-0.0555 0.23745,-0.0781 0.01455,-0.004 0.133103,-0.022 0.196928,-0.0342 0.05607,-0.001 0.110401,-0.003 0.11614,-0.003 0.02636,3.6e-4 0.05261,0.003 0.07897,0.004 -0.05831,0.008 0.200409,0.0685 0.277269,0.0812 0.01109,0.009 0.01679,0.0155 0.03195,0.0272 0.06502,0.051 0.144031,0.0963 0.212611,0.14396 -0.306689,-0.21292 0.004,0.0169 0.0626,0.0798 0.035,0.0376 0.0674,0.0778 0.10023,0.11734 a 0.85515243,0.91858143 0 0 1 0.0817,0.12038 c 0.0504,0.099 0.10381,0.19914 0.1566,0.29651 l 0.0147,0.025 a 0.08756617,0.0940612 0 0 0 -4.5e-4,0.009 2.5078622,2.6938772 0 0 0 0.12143,0.46306 0.35219932,0.37832291 0 0 1 0.006,0.0385 c 0.005,0.0866 0.0116,0.17273 0.0118,0.25971 l -7.1e-4,0.0176 a 1.7369457,1.8657798 0 0 0 -1.583948,-0.0121 z"
     id="path37"
     inkscape:connector-curvature="0"
     style="fill:#e6e6e6;stroke-width:1" />
  <path
     d="m 99.107815,215.72353 c 0.0041,10e-4 1.93e-4,10e-4 -8.45e-4,10e-4 z"
     id="path39"
     inkscape:connector-curvature="0"
     style="fill:#e6e6e6;stroke-width:1" />
  <path
     d="m 99.106644,215.72312 10e-4,4.1e-4 z"
     id="path41"
     inkscape:connector-curvature="0"
     style="fill:#e6e6e6;stroke-width:1" />
  <path
     d="m 99.10697,215.72521 -0.0051,8.2e-4 c 0.0061,6.8e-4 0.0041,-4.5e-4 0.0051,-8.2e-4 z"
     id="path43"
     inkscape:connector-curvature="0"
     style="fill:#e6e6e6;stroke-width:1" />
  <polygon
     points="86.179,166.903 86.177,166.902 "
     id="polygon45"
     style="fill:#e6e6e6;stroke-width:0.91267103"
     transform="matrix(1.0571794,0,0,1.1355933,7.9998149,26.189438)" />
  <polygon
     points="150.175,138.905 150.171,138.905 150.167,138.907 "
     id="polygon47"
     style="fill:#e6e6e6;stroke-width:0.91267103"
     transform="matrix(1.0571794,0,0,1.1355933,7.9998149,26.189438)" />
  <path
     d="m 172.25644,180.79537 a 6.3025759,6.7700553 0 0 0 -7.63615,-3.03582 5.5468512,5.9582764 0 0 0 -3.15999,3.16052 c -0.0606,0.15448 -0.0962,0.31695 -0.14576,0.47526 -0.0687,0.11935 -0.15131,0.22712 -0.21287,0.35197 a 6.2983472,6.765513 0 0 0 9.82207,8.08306 6.78299,7.286103 0 0 0 1.3327,-9.03499 z m -3.97209,2.89305 c 0.013,0.086 0.008,0.16502 0,0 z m -0.40374,-0.98615 c -0.0156,-0.0192 -0.0136,-0.0172 0,0 z m -1.7796,0.76865 c -0.0238,-0.0394 -0.0262,-0.046 0,0 z m 0.42181,0.38413 c 0.10044,0.0368 0.0607,0.029 0,0 z m 0.18835,0.0964 0.0417,-0.0205 a 0.05301755,0.05695 0 0 1 -0.0296,-0.007 l 10e-4,-2.1e-4 0.0327,0.004 0.006,-0.003 -0.0189,-0.004 c 0.0164,-6.1e-4 0.0183,0.002 0.0193,0.004 0.18866,-0.0927 0.0609,-0.0481 -0.0484,-0.0118 l -0.007,-0.002 a 0.72031977,0.77374786 0 0 0 -0.21743,-0.0749 c -0.007,-0.005 -0.0154,-0.007 -0.0212,-0.0118 -0.0607,-0.0464 -0.3676,-0.30393 -0.0828,-0.034 -0.062,-0.0589 -0.12318,-0.1165 -0.18145,-0.17993 a 0.82767634,0.88906737 0 0 1 -0.093,-0.12282 q -0.0561,-0.10322 -0.10865,-0.20829 l -0.005,-0.0378 c -0.004,-0.0314 -0.008,-0.0444 -0.0119,-0.0632 0.002,-0.0195 0.004,-0.0404 0.007,-0.0608 a 0.68327619,0.73395668 0 0 0 0.0403,-0.1904 l 0.0123,-0.0166 c 0.0456,-0.0683 0.0854,-0.14791 0.12891,-0.21889 -0.22983,0.37498 0.0899,-0.0414 0.11376,-0.0942 0.004,-0.009 -0.003,-0.004 -0.001,-0.0102 0.009,-0.006 0.006,-0.002 0.0176,-0.009 0.0712,-0.0451 0.13875,-0.0953 0.21108,-0.13835 0.0862,-0.0513 0.42547,-0.15476 0.0736,-0.0466 0.0799,-0.0245 0.15667,-0.0555 0.23746,-0.0781 0.0146,-0.004 0.1331,-0.022 0.19693,-0.0342 0.0561,-10e-4 0.1104,-0.003 0.11614,-0.003 0.0264,3.5e-4 0.0526,0.003 0.079,0.004 -0.0584,0.008 0.2004,0.0685 0.27725,0.0812 0.0111,0.009 0.0168,0.0155 0.0319,0.0272 0.065,0.051 0.14402,0.0963 0.21261,0.14396 -0.30669,-0.21292 0.004,0.0169 0.0626,0.0798 0.035,0.0376 0.0674,0.0778 0.10034,0.11735 a 0.85515243,0.91858143 0 0 1 0.0817,0.12038 c 0.0504,0.099 0.1037,0.19913 0.1566,0.2965 l 0.0146,0.025 a 0.08756617,0.0940612 0 0 0 -4.5e-4,0.009 2.5078622,2.6938772 0 0 0 0.12144,0.46306 0.35219932,0.37832291 0 0 1 0.006,0.0385 c 0.005,0.0866 0.0116,0.17272 0.0118,0.25972 l -7.1e-4,0.0176 a 1.7369457,1.8657798 0 0 0 -1.5839,-0.0121 z"
     id="path49"
     inkscape:connector-curvature="0"
     style="fill:#e6e6e6;stroke-width:1" />
  <path
     d="m 166.76645,183.92859 -0.005,8.3e-4 c 0.006,6.8e-4 0.004,-4.5e-4 0.005,-8.3e-4 z"
     id="path51"
     inkscape:connector-curvature="0"
     style="fill:#e6e6e6;stroke-width:1" />
  <polygon
     points="150.179,138.903 150.177,138.902 "
     id="polygon53"
     style="fill:#e6e6e6;stroke-width:0.91267103"
     transform="matrix(1.0571794,0,0,1.1355933,7.9998149,26.189438)" />
  <path
     d="m 166.76729,183.92692 c 0.004,0.001 2e-4,0.001 -8.4e-4,0.001 z"
     id="path55"
     inkscape:connector-curvature="0"
     style="fill:#e6e6e6;stroke-width:1" />
  <path
     d="m 166.76613,183.92651 0.001,4.1e-4 z"
     id="path57"
     inkscape:connector-curvature="0"
     style="fill:#e6e6e6;stroke-width:1" />
  <polygon
     points="212.179,152.903 212.177,152.902 "
     id="polygon59"
     style="fill:#e6e6e6;stroke-width:0.91267103"
     transform="matrix(1.0571794,0,0,1.1355933,7.9998149,26.189438)" />
  <path
     d="m 237.80156,148.99876 a 6.3025759,6.7700553 0 0 0 -7.63615,-3.03583 5.5468512,5.9582764 0 0 0 -3.15999,3.16052 c -0.0606,0.1545 -0.0962,0.31697 -0.14576,0.47527 -0.0687,0.11935 -0.15131,0.22711 -0.21287,0.35196 a 6.2983472,6.765513 0 0 0 9.82208,8.08306 6.78299,7.286103 0 0 0 1.33269,-9.03498 z m -3.97209,2.89305 c 0.013,0.086 0.008,0.16503 0,0 z m -0.40374,-0.98616 c -0.0156,-0.0192 -0.0136,-0.0172 0,0 z m -1.7796,0.76866 c -0.0238,-0.0394 -0.0262,-0.046 0,0 z m 0.42182,0.38413 c 0.10044,0.0368 0.0607,0.029 0,0 z m 0.18834,0.0964 0.0417,-0.0205 a 0.05301755,0.05695 0 0 1 -0.0296,-0.007 l 10e-4,-2.2e-4 0.0327,0.004 0.006,-0.003 -0.0189,-0.004 c 0.0164,-6.2e-4 0.0183,0.002 0.0193,0.004 0.18867,-0.0927 0.0609,-0.0481 -0.0484,-0.0118 l -0.007,-0.002 a 0.72031977,0.77374786 0 0 0 -0.21744,-0.0749 c -0.007,-0.005 -0.0154,-0.007 -0.0212,-0.0118 -0.0607,-0.0464 -0.3676,-0.30393 -0.0828,-0.034 -0.062,-0.0589 -0.12318,-0.11651 -0.18145,-0.17994 a 0.82767634,0.88906737 0 0 1 -0.093,-0.12281 q -0.0561,-0.10323 -0.10866,-0.20829 l -0.005,-0.0378 c -0.004,-0.0313 -0.008,-0.0444 -0.0119,-0.0632 0.002,-0.0195 0.004,-0.0405 0.007,-0.0608 a 0.68327619,0.73395668 0 0 0 0.0403,-0.19041 l 0.0123,-0.0166 c 0.0456,-0.0683 0.0854,-0.14792 0.12891,-0.21889 -0.22983,0.37498 0.0898,-0.0414 0.11377,-0.0942 0.004,-0.009 -0.003,-0.004 -0.001,-0.0102 0.009,-0.006 0.006,-0.002 0.0176,-0.009 0.0712,-0.0451 0.13873,-0.0953 0.21107,-0.13836 0.0862,-0.0513 0.42547,-0.15476 0.0736,-0.0467 0.0799,-0.0245 0.15666,-0.0555 0.23745,-0.0781 0.0147,-0.004 0.13311,-0.0219 0.19693,-0.0342 0.0561,-10e-4 0.1104,-0.003 0.11615,-0.003 0.0263,3.5e-4 0.0526,0.003 0.079,0.004 -0.0583,0.008 0.20041,0.0685 0.27727,0.0812 0.0111,0.009 0.0168,0.0155 0.0319,0.0272 0.065,0.051 0.14401,0.0963 0.2126,0.14397 -0.30668,-0.21293 0.004,0.0169 0.0626,0.0798 0.035,0.0376 0.0674,0.0778 0.10033,0.11733 a 0.85515243,0.91858143 0 0 1 0.0817,0.12038 c 0.0504,0.099 0.10371,0.19914 0.1566,0.29651 l 0.0147,0.025 a 0.08756617,0.0940612 0 0 0 -4.4e-4,0.009 2.5078622,2.6938772 0 0 0 0.12143,0.46306 0.35219932,0.37832291 0 0 1 0.006,0.0385 c 0.005,0.0866 0.0116,0.17272 0.0118,0.25971 l -7.1e-4,0.0176 a 1.7369457,1.8657798 0 0 0 -1.5839,-0.0121 z"
     id="path61"
     inkscape:connector-curvature="0"
     style="fill:#e6e6e6;stroke-width:1" />
  <polygon
     points="212.175,152.905 212.171,152.905 212.167,152.907 "
     id="polygon63"
     style="fill:#e6e6e6;stroke-width:0.91267103"
     transform="matrix(1.0571794,0,0,1.1355933,7.9998149,26.189438)" />
  <path
     d="m 232.31125,199.82482 0.001,4e-4 z"
     id="path65"
     inkscape:connector-curvature="0"
     style="fill:#e6e6e6;stroke-width:1" />
  <path
     d="m 232.31158,199.8269 -0.005,8.3e-4 c 0.006,6.8e-4 0.004,-4.6e-4 0.005,-8.3e-4 z"
     id="path67"
     inkscape:connector-curvature="0"
     style="fill:#e6e6e6;stroke-width:1" />
  <path
     d="m 232.31242,199.82522 c 0.004,0.001 1.9e-4,0.001 -8.4e-4,0.001 z"
     id="path69"
     inkscape:connector-curvature="0"
     style="fill:#e6e6e6;stroke-width:1" />
  <path
     d="m 304.40387,236.43944 a 6.3025759,6.7700553 0 0 0 -7.63615,-3.03582 5.5468512,5.9582764 0 0 0 -3.16,3.16051 c -0.0606,0.1545 -0.0962,0.31697 -0.14575,0.47527 -0.0687,0.11936 -0.15132,0.22712 -0.21287,0.35197 a 6.2983472,6.765513 0 0 0 9.82206,8.08306 6.78299,7.286103 0 0 0 1.33271,-9.03499 z m -3.9721,2.89306 c 0.013,0.086 0.008,0.16502 0,0 z m -0.40374,-0.98617 c -0.0156,-0.0192 -0.0136,-0.0171 0,0 z m -1.7796,0.76866 c -0.0238,-0.0394 -0.0261,-0.046 0,0 z m 0.42181,0.38413 c 0.10044,0.0368 0.0607,0.029 0,0 z m 0.18835,0.0964 0.0417,-0.0205 a 0.05301755,0.05695 0 0 1 -0.0296,-0.007 l 10e-4,-2.2e-4 0.0327,0.005 0.006,-0.003 -0.0189,-0.004 c 0.0164,-6.2e-4 0.0183,0.002 0.0193,0.004 0.18865,-0.0927 0.0608,-0.0481 -0.0484,-0.0118 l -0.007,-0.002 a 0.72031977,0.77374786 0 0 0 -0.21744,-0.0749 c -0.007,-0.004 -0.0154,-0.007 -0.0212,-0.0118 -0.0607,-0.0464 -0.3676,-0.30394 -0.0828,-0.034 -0.062,-0.0589 -0.12318,-0.11652 -0.18145,-0.17994 a 0.82767634,0.88906737 0 0 1 -0.093,-0.12281 q -0.0561,-0.10323 -0.10865,-0.20829 l -0.005,-0.0378 c -0.004,-0.0314 -0.008,-0.0444 -0.0119,-0.0632 0.002,-0.0195 0.004,-0.0405 0.007,-0.0608 a 0.68327619,0.73395668 0 0 0 0.0403,-0.1904 l 0.0122,-0.0166 c 0.0456,-0.0683 0.0854,-0.14791 0.12891,-0.21888 -0.22982,0.37496 0.0899,-0.0414 0.11376,-0.0942 0.004,-0.009 -0.003,-0.004 -0.001,-0.0102 0.009,-0.006 0.006,-0.002 0.0176,-0.009 0.0712,-0.0451 0.13874,-0.0953 0.21107,-0.13835 0.0862,-0.0513 0.42548,-0.15477 0.0736,-0.0467 0.0799,-0.0245 0.15667,-0.0555 0.23746,-0.0781 0.0146,-0.004 0.1331,-0.0219 0.19692,-0.0342 0.0561,-0.001 0.1104,-0.003 0.11614,-0.003 0.0264,3.6e-4 0.0526,0.003 0.079,0.004 -0.0583,0.008 0.20041,0.0685 0.27726,0.0812 0.0111,0.009 0.0168,0.0155 0.0319,0.0272 0.065,0.051 0.14402,0.0963 0.21261,0.14396 -0.30669,-0.21293 0.004,0.0169 0.0626,0.0798 0.035,0.0376 0.0674,0.0778 0.10034,0.11734 a 0.85515243,0.91858143 0 0 1 0.0817,0.12038 c 0.0504,0.099 0.10371,0.19913 0.1566,0.29651 l 0.0147,0.025 a 0.08756617,0.0940612 0 0 0 -4.6e-4,0.009 2.5078622,2.6938772 0 0 0 0.12144,0.46306 0.35219932,0.37832291 0 0 1 0.006,0.0385 c 0.005,0.0866 0.0116,0.17272 0.0118,0.2597 l -7.1e-4,0.0176 a 1.7369457,1.8657798 0 0 0 -1.58389,-0.0121 z"
     id="path71"
     inkscape:connector-curvature="0"
     style="fill:#e6e6e6;stroke-width:1" />
  <polygon
     points="275.175,121.905 275.171,121.905 275.167,121.907 "
     id="polygon73"
     style="fill:#e6e6e6;stroke-width:0.91267103"
     transform="matrix(1.0571794,0,0,1.1355933,7.9998149,26.189438)" />
  <path
     d="m 298.91356,164.62143 10e-4,4e-4 z"
     id="path75"
     inkscape:connector-curvature="0"
     style="fill:#e6e6e6;stroke-width:1" />
  <path
     d="m 298.91388,164.6235 -0.005,8.3e-4 c 0.006,6.9e-4 0.004,-4.6e-4 0.005,-8.3e-4 z"
     id="path77"
     inkscape:connector-curvature="0"
     style="fill:#e6e6e6;stroke-width:1" />
  <path
     d="m 298.91472,164.62183 c 0.004,0.001 2e-4,0.001 -8.4e-4,0.001 z"
     id="path79"
     inkscape:connector-curvature="0"
     style="fill:#e6e6e6;stroke-width:1" />
  <polygon
     points="275.179,121.903 275.177,121.902 "
     id="polygon81"
     style="fill:#e6e6e6;stroke-width:0.91267103"
     transform="matrix(1.0571794,0,0,1.1355933,7.9998149,26.189438)" />
  <path
     d="m 361.28714,187.3333 10e-4,4e-4 z"
     id="path83"
     inkscape:connector-curvature="0"
     style="fill:#e6e6e6;stroke-width:1" />
  <path
     d="m 366.77746,184.20215 a 6.3025759,6.7700553 0 0 0 -7.63616,-3.03583 5.5468512,5.9582764 0 0 0 -3.15999,3.16052 c -0.0607,0.1545 -0.0962,0.31697 -0.14576,0.47527 -0.0687,0.11935 -0.15131,0.22712 -0.21287,0.35196 a 6.2983472,6.765513 0 0 0 9.82207,8.08306 6.78299,7.286103 0 0 0 1.33271,-9.03498 z m -3.9721,2.89305 c 0.013,0.086 0.008,0.16503 0,0 z m -0.40374,-0.98616 c -0.0156,-0.0192 -0.0136,-0.0172 0,0 z m -1.7796,0.76867 c -0.0238,-0.0395 -0.0262,-0.046 0,0 z m 0.42181,0.38412 c 0.10044,0.0368 0.0607,0.0291 0,0 z m 0.18835,0.0964 0.0417,-0.0205 a 0.05301755,0.05695 0 0 1 -0.0296,-0.007 l 10e-4,-2.1e-4 0.0327,0.004 0.006,-0.003 -0.0189,-0.004 c 0.0164,-6.1e-4 0.0183,0.002 0.0193,0.004 0.18866,-0.0927 0.0609,-0.0481 -0.0484,-0.0118 l -0.007,-0.002 a 0.72031977,0.77374786 0 0 0 -0.21745,-0.0749 c -0.007,-0.004 -0.0154,-0.007 -0.0212,-0.0118 -0.0607,-0.0464 -0.36761,-0.30393 -0.0828,-0.034 -0.062,-0.0589 -0.12318,-0.11652 -0.18146,-0.17994 a 0.82767634,0.88906737 0 0 1 -0.093,-0.12281 q -0.0561,-0.10323 -0.10865,-0.20829 l -0.005,-0.0378 c -0.004,-0.0314 -0.008,-0.0444 -0.0119,-0.0632 0.002,-0.0195 0.004,-0.0405 0.007,-0.0608 a 0.68327619,0.73395668 0 0 0 0.0403,-0.19042 l 0.0122,-0.0166 c 0.0456,-0.0683 0.0854,-0.14792 0.12891,-0.21889 -0.22984,0.37498 0.0899,-0.0414 0.11376,-0.0942 0.004,-0.009 -0.003,-0.004 -10e-4,-0.0102 0.009,-0.006 0.006,-0.002 0.0176,-0.009 0.0712,-0.0451 0.13873,-0.0953 0.21107,-0.13835 0.0862,-0.0514 0.42546,-0.15477 0.0736,-0.0466 0.0799,-0.0246 0.15666,-0.0555 0.23745,-0.0782 0.0148,-0.004 0.13312,-0.0219 0.19694,-0.0342 0.0561,-0.001 0.1104,-0.003 0.11614,-0.003 0.0264,3.4e-4 0.0526,0.003 0.079,0.004 -0.0583,0.008 0.20041,0.0685 0.27727,0.0812 0.0111,0.009 0.0168,0.0155 0.0318,0.0272 0.065,0.051 0.14402,0.0963 0.21261,0.14397 -0.30669,-0.21293 0.004,0.0169 0.0626,0.0798 0.035,0.0376 0.0674,0.0778 0.10034,0.11734 a 0.85515243,0.91858143 0 0 1 0.0817,0.12037 c 0.0504,0.099 0.10371,0.19914 0.1566,0.29652 l 0.0147,0.025 a 0.08756617,0.0940612 0 0 0 -4.6e-4,0.009 2.5078622,2.6938772 0 0 0 0.12144,0.46306 0.35219932,0.37832291 0 0 1 0.006,0.0385 c 0.005,0.0866 0.0116,0.17272 0.0118,0.2597 l -7.1e-4,0.0176 a 1.7369457,1.8657798 0 0 0 -1.5839,-0.0121 z"
     id="path85"
     inkscape:connector-curvature="0"
     style="fill:#e6e6e6;stroke-width:1" />
  <polygon
     points="334.175,141.905 334.171,141.905 334.167,141.907 "
     id="polygon87"
     style="fill:#e6e6e6;stroke-width:0.91267103"
     transform="matrix(1.0571794,0,0,1.1355933,7.9998149,26.189438)" />
  <polygon
     points="334.179,141.903 334.177,141.902 "
     id="polygon89"
     style="fill:#e6e6e6;stroke-width:0.91267103"
     transform="matrix(1.0571794,0,0,1.1355933,7.9998149,26.189438)" />
  <path
     d="m 361.2883,187.3337 c 0.004,0.001 2.1e-4,0.001 -8.3e-4,0.001 z"
     id="path91"
     inkscape:connector-curvature="0"
     style="fill:#e6e6e6;stroke-width:1" />
  <path
     d="m 361.28747,187.33537 -0.005,8.3e-4 c 0.006,6.8e-4 0.004,-4.6e-4 0.005,-8.3e-4 z"
     id="path93"
     inkscape:connector-curvature="0"
     style="fill:#e6e6e6;stroke-width:1" />
  <path
     d="m 344.18634,239.37803 -49.15549,2.93474 a 1.0837887,1.1641762 0 0 1 -0.23437,-2.31143 l 50.24198,-8.78193 z"
     id="path95"
     inkscape:connector-curvature="0"
     style="fill:#3f3d56;stroke-width:1" />
  <path
     d="m 406.65573,356.93034 18.52349,-33.47525 13.69105,6.94588 c 0,0 -23.59132,31.6508 -24.34292,32.56138 a 7.2490793,7.7867634 0 1 1 -7.87162,-6.03201 z"
     id="path97"
     inkscape:connector-curvature="0"
     style="fill:#ffb6b6;stroke-width:1" />
  <path
     d="m 414.36096,279.16992 30.01078,16.81883 a 16.61442,17.846758 0 0 1 2.81237,26.20789 l -20.6891,25.49327 -9.01309,-13.1192 6.94697,-15.60287 -13.45136,-3.8101 z"
     id="path99"
     inkscape:connector-curvature="0"
     style="fill:#536dfe;stroke-width:1" />
  <path
     d="m 328.83849,239.92494 -3.38022,38.77269 -15.14124,0.0271 c 0,0 8.68698,-39.45724 9.00275,-40.62596 a 7.2490793,7.7867634 0 1 1 9.51871,1.82618 z"
     id="path101"
     inkscape:connector-curvature="0"
     style="fill:#ffb6b6;stroke-width:1" />
  <path
     d="m 358.97788,319.21417 -34.84941,-6.86508 c -14.67515,-1.89564 -20.69761,-12.26762 -18.0497,-22.38434 l 8.52151,-32.55781 13.37767,7.70405 -0.0515,17.29543 18.7259,-2.75001 z"
     id="path103"
     inkscape:connector-curvature="0"
     style="fill:#536dfe;stroke-width:1" />
  <polygon
     points="318.501,493.992 309.437,493.992 305.125,459.03 318.503,459.03 "
     id="polygon105"
     style="fill:#ffb6b6;stroke-width:0.91267103"
     transform="matrix(1.0571794,0,0,1.1355933,7.9998149,26.189438)" />
  <path
     d="m 345.05031,597.90173 -29.4672,-0.001 v -0.4003 a 11.47009,12.320859 0 0 1 11.46946,-12.31998 h 7.1e-4 l 5.38256,-4.38639 10.04268,4.38705 2.57229,9e-5 z"
     id="path107"
     inkscape:connector-curvature="0"
     style="fill:#2f2e41;stroke-width:1" />
  <polygon
     points="382.636,493.992 391.7,493.992 396.012,459.03 382.634,459.03 "
     id="polygon109"
     style="fill:#ffb6b6;stroke-width:0.91267103"
     transform="matrix(1.0571794,0,0,1.1355933,7.9998149,26.189438)" />
  <path
     d="m 412.17713,597.90173 29.46722,-0.001 v -0.4003 a 11.470079,12.320846 0 0 0 -11.46946,-12.31998 h -7.2e-4 l -5.38256,-4.38639 -10.04267,4.38705 -2.5723,9e-5 z"
     id="path111"
     inkscape:connector-curvature="0"
     style="fill:#2f2e41;stroke-width:1" />
  <path
     d="m 330.15016,518.28511 c 0.14152,-2.26545 1.26676,-14.79413 1.26676,-14.79413 l 2.69522,-26.57013 4.75032,-70.43139 4.23421,-18.51281 20.95941,8.77065 17.00684,-8.75776 20.21418,6.94111 15.74009,6.34035 c 0,0 0.027,2.71419 0.14822,5.99296 0.16174,4.29207 0.44469,9.55394 1.11849,10.92191 1.12526,2.41746 0.84227,15.39489 0.84227,15.39489 0,0 1.1185,26.40362 2.52676,29.29875 1.40827,2.89513 1.69122,8.92428 1.26676,10.13298 -0.42445,1.2087 1.40828,32.91767 1.40828,32.91767 0,0 4.70387,56.11308 1.7526,64.57415 -2.95128,8.46108 -14.10348,2.91869 -14.10348,2.91869 0,0 0.53904,-2.25821 -2.69522,-3.32219 -3.23426,-1.06398 -13.08534,-80.62953 -13.08534,-80.62953 0,0 -1.83272,-16.31411 -3.51724,-20.98973 -1.6845,-4.67561 -3.23425,-17.81231 -3.23425,-17.81231 0,0 -10.40356,-21.74249 -10.53833,-26.57736 0,0 -1.36111,-4.52365 -2.64805,0.45598 -1.28696,4.97964 -5.08049,16.90759 -5.08049,16.90759 l -3.69918,14.64933 -4.35281,21.88721 -2.8165,18.42756 c 0,0 -4.21804,24.45663 -4.89184,25.51337 -0.6738,1.05674 0,23.39995 0,23.39995 0,0 -3.2612,19.02825 -7.87005,22.35045 -4.60886,3.32219 -16.81948,0.0528 -16.81948,0.0528 0,0 -0.71966,-47.18557 -0.57815,-49.45097 z"
     id="path113"
     inkscape:connector-curvature="0"
     style="fill:#2f2e41;stroke-width:1" />
  <path
     d="m 345.81841,328.40755 -2.67812,37.26797 -4.02373,4.4731 a 3.8803453,4.1681612 0 0 0 0.20325,6.00275 v 0 l -2.21681,4.08338 -0.78487,12.86643 a 6.5103646,6.9932562 0 0 0 6.02477,8.61896 l 69.38488,3.50154 a 6.510354,6.9932448 0 0 0 6.75919,-7.9064 l -5.89996,-47.71066 v -3.56744 l -2.64132,-6.88954 1.35755,-23.07996 3.15771,-36.63282 -18.35522,-5.09286 -9.95212,-7.35514 -17.28983,0.29569 -10.49116,9.25528 -13.98818,2.35316 -10.57874,2.25877 -1.34762,3.14592 2.69522,-0.62919 9.76899,40.92822 z"
     id="path115"
     inkscape:connector-curvature="0"
     style="fill:#536dfe;stroke-width:1" />
  <ellipse
     cx="377.12213"
     cy="240.11467"
     id="circle117"
     style="fill:#ffb6b6;stroke-width:1"
     rx="20.367563"
     ry="21.878283" />
  <path
     d="m 372.21153,260.58158 14.71561,-0.80627 c 1.88556,-0.10334 3.94352,-0.28219 5.31499,-1.67598 a 8.0519541,8.6491897 0 0 0 1.66808,-2.97659 c 1.36045,-3.39447 2.72095,-6.78902 4.04664,-10.19934 1.83374,-4.71718 3.63467,-9.69789 3.16661,-14.78502 a 8.7590591,9.4087427 0 0 0 -2.54609,-6.16731 4.8624227,5.223082 0 0 0 -5.90974,-0.64324 9.992851,10.734048 0 0 0 -4.96028,-7.73624 15.314512,16.450432 0 0 0 -8.73465,-1.98925 21.080982,22.644617 0 0 0 -12.00561,5.08275 26.059325,27.992216 0 0 1 -3.06276,2.60704 4.8079462,5.1645648 0 0 1 -3.73802,0.74293 2.7052481,2.9059038 0 0 1 -1.98587,-3.16736 5.2049488,5.5910142 0 0 0 -1.33136,7.38111 4.8030198,5.159273 0 0 1 -4.69414,-0.59653 5.7388562,6.1645229 0 1 0 6.01833,10.43419 c 0.89312,1.34373 0.56052,3.1698 0.44416,4.81613 -0.11637,1.64632 0.29468,3.69236 1.7722,4.14739 1.99748,0.61516 3.61544,-2.27391 5.69321,-2.24314 a 3.1245466,3.3563028 0 0 1 2.47782,1.71516 9.2231503,9.9072568 0 0 1 0.99189,3.11051 l 2.65917,12.85946"
     id="path119"
     inkscape:connector-curvature="0"
     style="fill:#2f2e41;stroke-width:1" />
  <path
     d="m 945.98984,457.30251 c 0,-3.38788 -1.05919,-6.1374 -2.35963,-6.14369 H 589.11065 c -1.30632,0.007 -2.35963,2.75581 -2.36547,6.14369 v 139.4616 a 1.178385,1.2657891 0 0 1 -1.06429,1.26013 q -1.42731,0.14715 -2.8546,0.27392 c -0.0236,0 -0.047,0.007 -0.0706,0.007 -0.51777,0.0506 -1.0356,0.0885 -1.55341,0.1327 h -0.006 q -0.39954,-0.7935 -0.78982,-1.60084 a 1.1835124,1.2712967 0 0 1 -0.134,-0.58724 V 449.33213 c 0,-0.93548 0.0353,-1.87726 0.0941,-2.80639 a 33.471357,35.95402 0 0 1 0.44131,-3.80506 c 0.99444,-5.87191 3.24222,-9.84765 5.796,-9.86027 h 359.52705 a 2.755221,2.9595833 0 0 1 1.08266,0.24642 4.2209157,4.5339925 0 0 1 1.33575,1.005 8.2792688,8.893365 0 0 1 1.31217,1.9278 23.620115,25.372085 0 0 1 2.47728,10.06886 c 0,0.0379 0.0106,0.0759 0.0106,0.11377 0.0824,1.02398 0.12359,2.06687 0.11766,3.10981 l 0.0824,13.54523 0.0529,8.07783 0.15889,25.34598 0.0592,9.00072 0.2589,92.4085 v 0 a 1.1768521,1.2641425 0 0 1 -1.17685,1.26414 h -4.73088 a 1.1768521,1.2641425 0 0 1 -1.17685,-1.26414 z"
     id="path121"
     inkscape:connector-curvature="0"
     style="fill:#e6e6e6;stroke-width:1" />
  <path
     d="m 849.65545,369.47923 h -38.20013 a 2.0382419,2.1894239 0 0 0 -2.03506,2.19169 v 64.82086 h 42.27554 v -64.82086 a 2.0392991,2.1905595 0 0 0 -2.04035,-2.19169 z m -18.97154,36.83043 a 4.5319696,4.8681182 0 0 1 -4.5108,-4.84537 v -7.47651 a 4.510789,4.8453666 0 0 1 9.02157,0 v 7.47651 a 4.5319062,4.8680501 0 0 1 -4.51077,4.84537 z"
     id="path123"
     inkscape:connector-curvature="0"
     style="fill:#cccccc;stroke-width:1" />
  <path
     d="m 809.28912,434.41842 v 6.25393 a 1.1405169,1.2251121 0 0 0 1.1382,1.2226 h 40.26142 a 1.143921,1.2287687 0 0 0 1.13818,-1.2226 v -6.25393 z"
     id="path125"
     inkscape:connector-curvature="0"
     style="fill:#3f3d56;stroke-width:1" />
  <path
     d="M 912.91139,268.31896 H 749.62084 a 5.3007716,5.6939443 0 0 0 -5.29232,5.68484 v 118.36218 a 5.2973886,5.6903105 0 0 0 5.29232,5.68478 h 163.29055 a 5.2973781,5.6902991 0 0 0 5.2923,-5.68478 V 274.0038 a 5.300761,5.693933 0 0 0 -5.2923,-5.68484 z"
     id="path127"
     inkscape:connector-curvature="0"
     style="fill:#e6e6e6;stroke-width:1" />
  <path
     d="M 911.54838,272.42505 H 750.98516 a 2.8364758,3.046865 0 0 0 -2.83031,3.04656 v 115.42846 a 2.8351966,3.045491 0 0 0 2.83031,3.04024 h 160.56322 a 2.835186,3.0454796 0 0 0 2.8303,-3.04024 V 275.47161 a 2.8364758,3.046865 0 0 0 -2.8303,-3.04656 z"
     id="path129"
     inkscape:connector-curvature="0"
     style="fill:#ffffff;stroke-width:1" />
  <path
     d="m 880.27336,444.07114 h -95.52637 a 1.7572753,1.8876172 0 0 1 -1.71961,-2.27643 l 1.48228,-7.562 a 1.7648553,1.8957595 0 0 1 1.7193,-1.49869 h 92.5624 a 1.7648765,1.8957822 0 0 1 1.7193,1.49869 l 1.48227,7.562 a 1.7572647,1.8876059 0 0 1 -1.7196,2.27643 z"
     id="path131"
     inkscape:connector-curvature="0"
     style="fill:#cccccc;stroke-width:1" />
  <rect
     x="786.90729"
     y="434.0957"
     width="2.9421196"
     height="1.8962024"
     rx="0.48818997"
     id="rect133"
     style="fill:#e6e6e6;stroke-width:1"
     ry="0.48819003" />
  <rect
     x="792.79156"
     y="434.0957"
     width="2.9421196"
     height="1.8962024"
     rx="0.48818997"
     id="rect135"
     style="fill:#e6e6e6;stroke-width:1"
     ry="0.48819003" />
  <rect
     x="798.67578"
     y="434.0957"
     width="2.9421196"
     height="1.8962024"
     rx="0.48818997"
     id="rect137"
     style="fill:#e6e6e6;stroke-width:1"
     ry="0.48819003" />
  <rect
     x="804.56006"
     y="434.0957"
     width="2.9421196"
     height="1.8962024"
     rx="0.48818997"
     id="rect139"
     style="fill:#e6e6e6;stroke-width:1"
     ry="0.48819003" />
  <rect
     x="810.44427"
     y="434.0957"
     width="2.9421196"
     height="1.8962024"
     rx="0.48818997"
     id="rect141"
     style="fill:#e6e6e6;stroke-width:1"
     ry="0.48819003" />
  <rect
     x="816.32849"
     y="434.0957"
     width="2.9421196"
     height="1.8962024"
     rx="0.48818997"
     id="rect143"
     style="fill:#e6e6e6;stroke-width:1"
     ry="0.48819003" />
  <rect
     x="822.21277"
     y="434.0957"
     width="2.9421196"
     height="1.8962024"
     rx="0.48818997"
     id="rect145"
     style="fill:#e6e6e6;stroke-width:1"
     ry="0.48819003" />
  <rect
     x="828.09698"
     y="434.0957"
     width="2.9421196"
     height="1.8962024"
     rx="0.48818997"
     id="rect147"
     style="fill:#e6e6e6;stroke-width:1"
     ry="0.48819003" />
  <rect
     x="833.98126"
     y="434.0957"
     width="2.9421196"
     height="1.8962024"
     rx="0.48818997"
     id="rect149"
     style="fill:#e6e6e6;stroke-width:1"
     ry="0.48819003" />
  <rect
     x="839.86548"
     y="434.0957"
     width="2.9421196"
     height="1.8962024"
     rx="0.48818997"
     id="rect151"
     style="fill:#e6e6e6;stroke-width:1"
     ry="0.48819003" />
  <rect
     x="845.74969"
     y="434.0957"
     width="2.9421196"
     height="1.8962024"
     rx="0.48818997"
     id="rect153"
     style="fill:#e6e6e6;stroke-width:1"
     ry="0.48819003" />
  <rect
     x="851.63397"
     y="434.0957"
     width="2.9421196"
     height="1.8962024"
     rx="0.48818997"
     id="rect155"
     style="fill:#e6e6e6;stroke-width:1"
     ry="0.48819003" />
  <rect
     x="857.51819"
     y="434.0957"
     width="2.9421196"
     height="1.8962024"
     rx="0.48818997"
     id="rect157"
     style="fill:#e6e6e6;stroke-width:1"
     ry="0.48819003" />
  <rect
     x="863.4024"
     y="434.0957"
     width="2.9421196"
     height="1.8962024"
     rx="0.48818997"
     id="rect159"
     style="fill:#e6e6e6;stroke-width:1"
     ry="0.48819003" />
  <rect
     x="869.28668"
     y="434.0957"
     width="2.9421196"
     height="1.8962024"
     rx="0.48818997"
     id="rect161"
     style="fill:#e6e6e6;stroke-width:1"
     ry="0.48819003" />
  <rect
     x="875.1709"
     y="434.0957"
     width="2.9421196"
     height="1.8962024"
     rx="0.48818997"
     id="rect163"
     style="fill:#e6e6e6;stroke-width:1"
     ry="0.48819003" />
  <rect
     x="786.83777"
     y="437.25601"
     width="2.9421196"
     height="1.8962024"
     rx="0.48818997"
     id="rect165"
     style="fill:#e6e6e6;stroke-width:1"
     ry="0.48819003" />
  <rect
     x="792.72198"
     y="437.25601"
     width="2.9421196"
     height="1.8962024"
     rx="0.48818997"
     id="rect167"
     style="fill:#e6e6e6;stroke-width:1"
     ry="0.48819003" />
  <rect
     x="798.60626"
     y="437.25601"
     width="2.9421196"
     height="1.8962024"
     rx="0.48818997"
     id="rect169"
     style="fill:#e6e6e6;stroke-width:1"
     ry="0.48819003" />
  <rect
     x="804.49048"
     y="437.25601"
     width="2.9421196"
     height="1.8962024"
     rx="0.48818997"
     id="rect171"
     style="fill:#e6e6e6;stroke-width:1"
     ry="0.48819003" />
  <rect
     x="810.37476"
     y="437.25601"
     width="2.9421196"
     height="1.8962024"
     rx="0.48818997"
     id="rect173"
     style="fill:#e6e6e6;stroke-width:1"
     ry="0.48819003" />
  <rect
     x="816.25897"
     y="437.25601"
     width="2.9421196"
     height="1.8962024"
     rx="0.48818997"
     id="rect175"
     style="fill:#e6e6e6;stroke-width:1"
     ry="0.48819003" />
  <rect
     x="822.14319"
     y="437.25601"
     width="2.9421196"
     height="1.8962024"
     rx="0.48818997"
     id="rect177"
     style="fill:#e6e6e6;stroke-width:1"
     ry="0.48819003" />
  <rect
     x="828.02747"
     y="437.25601"
     width="2.9421196"
     height="1.8962024"
     rx="0.48818997"
     id="rect179"
     style="fill:#e6e6e6;stroke-width:1"
     ry="0.48819003" />
  <rect
     x="833.91168"
     y="437.25601"
     width="2.9421196"
     height="1.8962024"
     rx="0.48818997"
     id="rect181"
     style="fill:#e6e6e6;stroke-width:1"
     ry="0.48819003" />
  <rect
     x="839.7959"
     y="437.25601"
     width="2.9421196"
     height="1.8962024"
     rx="0.48818997"
     id="rect183"
     style="fill:#e6e6e6;stroke-width:1"
     ry="0.48819003" />
  <rect
     x="845.68018"
     y="437.25601"
     width="2.9421196"
     height="1.8962024"
     rx="0.48818997"
     id="rect185"
     style="fill:#e6e6e6;stroke-width:1"
     ry="0.48819003" />
  <rect
     x="851.56439"
     y="437.25601"
     width="2.9421196"
     height="1.8962024"
     rx="0.48818997"
     id="rect187"
     style="fill:#e6e6e6;stroke-width:1"
     ry="0.48819003" />
  <rect
     x="857.44873"
     y="437.25601"
     width="2.9421196"
     height="1.8962024"
     rx="0.48818997"
     id="rect189"
     style="fill:#e6e6e6;stroke-width:1"
     ry="0.48819003" />
  <rect
     x="863.33289"
     y="437.25601"
     width="2.9421196"
     height="1.8962024"
     rx="0.48818997"
     id="rect191"
     style="fill:#e6e6e6;stroke-width:1"
     ry="0.48819003" />
  <rect
     x="869.21716"
     y="437.25601"
     width="2.9421196"
     height="1.8962024"
     rx="0.48818997"
     id="rect193"
     style="fill:#e6e6e6;stroke-width:1"
     ry="0.48819003" />
  <rect
     x="875.10144"
     y="437.25601"
     width="2.9421196"
     height="1.8962024"
     rx="0.48818997"
     id="rect195"
     style="fill:#e6e6e6;stroke-width:1"
     ry="0.48819003" />
  <rect
     x="815.08215"
     y="441.0484"
     width="23.536957"
     height="1.8962024"
     rx="0.48818997"
     id="rect197"
     style="fill:#e6e6e6;stroke-width:1"
     ry="0.48819003" />
  <path
     d="M 903.47712,288.32851 H 753.23874 a 0.59760238,0.64192819 0 0 1 0,-1.28354 h 150.23838 a 0.59760238,0.64192819 0 0 1 0,1.28354 z"
     id="path199"
     inkscape:connector-curvature="0"
     style="fill:#cacaca;stroke-width:1" />
  <ellipse
     cx="763.4657"
     cy="279.92331"
     rx="3.5013783"
     ry="3.844903"
     id="ellipse201"
     style="fill:#cccccc;stroke-width:1" />
  <ellipse
     cx="775.56128"
     cy="279.92331"
     rx="3.5013783"
     ry="3.844903"
     id="ellipse203"
     style="fill:#cccccc;stroke-width:1" />
  <ellipse
     cx="787.65698"
     cy="279.92331"
     rx="3.5013783"
     ry="3.844903"
     id="ellipse205"
     style="fill:#cccccc;stroke-width:1" />
  <path
     d="m 896.19452,277.03142 h -8.59218 a 0.6507045,0.69896904 0 0 0 0,1.39767 h 8.59213 a 0.6507045,0.69896904 0 0 0 0,-1.39767 z"
     id="path207"
     inkscape:connector-curvature="0"
     style="fill:#cccccc;stroke-width:1" />
  <path
     d="m 896.19452,279.65462 h -8.59218 a 0.65071507,0.6989804 0 0 0 0,1.39767 h 8.59213 a 0.65071507,0.6989804 0 0 0 0,-1.39767 z"
     id="path209"
     inkscape:connector-curvature="0"
     style="fill:#cccccc;stroke-width:1" />
  <path
     d="m 896.19452,282.27439 h -8.59218 a 0.6507045,0.69896904 0 0 0 0,1.39767 h 8.59213 a 0.6507045,0.69896904 0 0 0 0,-1.39767 z"
     id="path211"
     inkscape:connector-curvature="0"
     style="fill:#cccccc;stroke-width:1" />
  <rect
     x="819.16199"
     y="323.29321"
     width="23.879379"
     height="5.485075"
     rx="2.4150701"
     id="rect213"
     style="fill:#536dfe;stroke-width:1"
     ry="2.4150705" />
  <rect
     x="807.03448"
     y="334.26337"
     width="48.134415"
     height="5.485075"
     rx="2.4150701"
     id="rect215"
     style="fill:#e6e6e6;stroke-width:1"
     ry="2.4150705" />
  <rect
     x="807.03448"
     y="345.23352"
     width="48.134415"
     height="5.485075"
     rx="2.4150701"
     id="rect217"
     style="fill:#e6e6e6;stroke-width:1"
     ry="2.4150705" />
  <polygon
     points="524.726,431.447 516.54,427.531 527.785,393.314 539.867,399.092 "
     id="polygon219"
     style="fill:#ffb6b6;stroke-width:0.91267103"
     transform="matrix(1.0571794,0,0,1.1355933,7.9998149,26.189438)" />
  <path
     d="m 620.74977,509.87297 c -0.62932,0.42344 -1.25865,0.83987 -1.89435,1.25648 -1.26506,0.83304 -2.54276,1.65243 -3.8205,2.45813 -0.64206,0.40293 -1.29047,0.80587 -1.93253,1.20196 v 0.0203 l -0.0382,0.007 -0.0127,0.007 -0.97894,0.25958 -1.40486,-3.98787 -0.64841,-1.8368 -0.9154,-2.60164 -1.67823,-4.7594 -8.83608,-25.06027 13.73727,-3.63958 0.51491,2.26024 h 0.006 l 0.25425,1.11978 4.7995,20.90871 0.97895,4.2746 0.0318,0.1297 0.59118,2.55382 0.5086,2.21241 0.56572,2.47195 z"
     id="path221"
     inkscape:connector-curvature="0"
     style="fill:#ffb6b6;stroke-width:1" />
  <path
     d="m 702.69806,421.86691 c -0.87089,1.50226 -1.76087,2.99769 -2.65719,4.47945 q -2.49831,4.13798 -5.13003,8.15312 c 0,0.007 -0.006,0.007 -0.0127,0.0136 a 17.947122,19.278309 0 0 1 -3.36916,2.6426 c -0.0509,0.041 -0.10805,0.0683 -0.15891,0.10243 a 12.420939,13.342234 0 0 1 -2.8352,1.22231 c -0.35598,0.0956 -0.71833,0.19118 -1.07432,0.28679 -1.28407,0.32774 -2.55545,0.60774 -3.82051,0.85355 -2.25034,0.4302 -4.47525,0.73748 -6.68744,0.92866 -0.17801,0.0205 -0.35599,0.0342 -0.534,0.0478 -9.09674,0.71698 -17.95196,-0.43702 -27.19488,-2.32846 -4.5643,-0.9287 -9.22389,-2.04173 -14.04879,-3.19575 -1.57651,-0.38239 -3.15937,-0.75793 -4.76133,-1.13349 -0.12078,-0.0272 -0.24793,-0.0614 -0.37507,-0.0888 -2.28847,-0.53941 -4.61509,-1.07207 -6.99893,-1.59786 -3.00048,-0.66235 -6.09629,-1.30422 -9.31289,-1.91196 l 0.22884,4.86867 a 34.113298,36.643575 0 0 0 2.14865,10.94598 c 1.37311,4.31556 2.46012,7.72977 0.16528,14.83814 l -1.10611,3.44158 a 10.942029,11.753629 0 0 1 -1.12517,10.3997 l -0.22248,0.36189 9.22388,25.0671 0.59755,1.62516 h -4.72322 l -5.81018,0.007 h -9.84685 l -14.20772,-30.61866 -0.6802,-1.4613 v -0.075 l 1.46843,-58.84048 c 0.0191,-0.51897 0.0572,-1.04475 0.12078,-1.56372 a 16.653959,17.889228 0 0 1 6.33785,-12.04529 16.038289,17.227893 0 0 1 11.94463,-3.50982 l 4.86302,0.676 9.93586,1.37937 6.99892,0.97645 0.13988,0.0204 20.64087,2.86796 1.48117,-6.487 0.27334,-0.10924 8.68993,-3.42105 30.05544,-11.83366 0.0763,-0.0272 1.97699,-0.77844 0.2352,0.40968 c 0.07,0.12295 0.13987,0.24586 0.20343,0.36876 a 58.91497,63.284855 0 0 1 4.74863,11.84047 173.04185,185.87683 0 0 1 4.99015,20.46479 q 0.0859,0.45068 0.15257,0.81942 l 0.0191,0.075 c 0.019,0.11607 0.0318,0.19118 0.0382,0.21169 a 17.780066,19.098863 0 0 1 -1.06155,10.63187 z"
     id="path223"
     inkscape:connector-curvature="0"
     style="fill:#2f2e41;stroke-width:1" />
  <path
     d="m 703.96662,400.18246 c -0.0954,-0.43703 -0.21616,-0.88085 -0.34327,-1.31104 a 86.974023,93.425126 0 0 0 -3.52171,-9.57346 c -1.50022,-3.55079 -3.29925,-7.35422 -5.44152,-11.47176 q -1.55427,-2.99088 -3.34374,-6.22068 -0.89632,-1.61834 -1.86257,-3.29814 a 1.6178862,1.7378893 0 0 0 -0.0826,-0.15021 l -0.18433,-0.32774 -29.73764,4.27459 -11.07373,1.59103 -0.66111,5.92708 -0.15891,1.46811 c -0.006,0 -0.006,0 0,0.007 l -0.445,4.00145 v 0.007 l -0.59119,5.28518 -0.0509,-0.007 -16.43261,-2.28749 -16.9348,-2.35583 -9.09675,-1.26323 a 16.028574,17.217457 0 0 0 -11.94461,3.50981 16.662385,17.89828 0 0 0 -6.33779,12.04535 c -0.0572,0.478 -0.0953,0.96962 -0.11447,1.45445 l -8.58182,21.84411 a 131.20402,140.93579 0 0 0 -9.70067,40.99781 l -6.2934,21.61197 0.89631,0.0888 13.33678,1.33156 3.52173,0.3551 7.75547,-12.16142 c 0.88362,-1.38619 1.72273,-2.81331 2.50463,-4.2746 a 60.436083,64.918793 0 0 0 3.42637,-7.40203 l 16.77589,-42.88247 q 1.94522,0.35861 3.8523,0.68284 8.82027,1.53646 16.93481,2.50603 c 17.58957,2.11 32.82073,2.27387 46.38003,0.4849 q 5.71168,-0.7477 11.04196,-1.96659 1.95478,-0.4405 3.85864,-0.94916 c 0.29875,-0.075 0.59119,-0.15022 0.88362,-0.23219 a 16.222418,17.425679 0 0 0 11.34708,-11.38981 16.552194,17.779917 0 0 0 0.41953,-9.9491 z"
     id="path225"
     inkscape:connector-curvature="0"
     style="fill:#2f2e41;stroke-width:1" />
  <path
     d="m 565.49406,509.79226 -9.36371,-4.82086 -1.46842,-0.75793 -2.3457,6.18654 -16.37541,3.87174 a 3.8855044,4.1737029 0 0 0 -0.63569,7.94146 l 16.00033,7.0128 5.07916,-4.90964 -1.24597,6.58945 6.02634,2.64259 6.6048,-22.58159 z"
     id="path227"
     inkscape:connector-curvature="0"
     style="fill:#2f2e41;stroke-width:1" />
  <polygon
     points="581.774,418.9 581.774,417.469 582.34,418.9 "
     id="polygon229"
     style="fill:#2f2e41;stroke-width:0.91267103"
     transform="matrix(1.0571794,0,0,1.1355933,7.9998149,26.189438)" />
  <path
     d="m 619.77848,502.23642 -9.81146,3.65161 -1.53993,0.57129 2.3856,6.16891 -9.09985,15.12786 a 3.8855044,4.1737029 0 0 0 4.75022,6.12348 l 15.96309,-7.11008 0.39315,-7.32755 3.43096,5.62401 6.01316,-2.677 -10.09851,-21.03791 z"
     id="path231"
     inkscape:connector-curvature="0"
     style="fill:#2f2e41;stroke-width:1" />
  <path
     d="m 560.22798,276.30281 a 6.968525,7.4853996 0 0 0 10.42101,2.53745 l 20.63149,14.71207 0.0393,-13.82297 -19.59806,-11.85166 a 7.0062768,7.5259517 0 0 0 -11.49379,8.42506 z"
     id="path233"
     inkscape:connector-curvature="0"
     style="fill:#ffb6b6;stroke-width:1" />
  <path
     d="m 575.64126,282.69184 9.6259,-11.76316 39.19404,24.99377 51.9559,-5.11096 a 17.569265,18.872425 0 0 1 19.09629,20.53265 v 0 a 17.587955,18.892503 0 0 1 -19.11354,17.05219 l -58.51496,-5.81783 z"
     id="path235"
     inkscape:connector-curvature="0"
     style="fill:#cccccc;stroke-width:1" />
  <path
     d="m 696.22994,282.87336 -0.0902,-0.12178 v 0 A 37.960268,40.775885 0 0 0 659.4005,303.1998 l -4.40935,8.34321 c -14.26236,18.72948 -3.89843,31.64584 -3.278,33.56662 l -4.95062,24.51912 1.10958,8.2058 0.55415,2.43756 56.51052,31.71806 c 3.21735,-16.60493 0.1064,-30.75473 -11.61492,-41.56401 l 11.3409,-37.90398 a 49.708418,53.395427 0 0 0 -8.4328,-49.64882 z"
     id="path237"
     inkscape:connector-curvature="0"
     style="fill:#cccccc;stroke-width:1" />
  <path
     d="m 651.2972,467.01752 h -18.12651 a 4.1409718,4.448119 0 0 1 -4.09692,-3.82365 92.164668,99.000775 0 0 1 0,-26.66318 4.1412466,4.4484143 0 0 1 4.0274,-3.82298 c 5.70321,-2.74603 11.84501,-2.7457 18.25841,-3.3e-4 a 4.0930287,4.3966199 0 0 1 3.11451,1.61341 4.1874137,4.4980056 0 0 1 0.86415,3.7493 55.724054,59.85726 0 0 0 0,23.58439 4.1874137,4.4980056 0 0 1 -0.86415,3.7493 4.0923415,4.3958817 0 0 1 -3.17689,1.61374 z"
     id="path239"
     inkscape:connector-curvature="0"
     style="fill:#536dfe;stroke-width:1" />
  <path
     d="m 649.39881,442.873 h -15.25658 a 0.95357583,1.0243051 0 1 1 0,-2.04854 h 15.25658 a 0.95357583,1.0243051 0 1 1 0,2.04854 z"
     id="path241"
     inkscape:connector-curvature="0"
     style="fill:#ffffff;stroke-width:1" />
  <path
     d="m 649.39881,451.06707 h -15.25658 a 0.95357583,1.0243051 0 1 1 0,-2.04853 h 15.25658 a 0.95357583,1.0243051 0 1 1 0,2.04853 z"
     id="path243"
     inkscape:connector-curvature="0"
     style="fill:#ffffff;stroke-width:1" />
  <path
     d="m 649.39881,459.2612 h -15.25658 a 0.95357583,1.0243051 0 1 1 0,-2.04853 h 15.25658 a 0.95357583,1.0243051 0 1 1 0,2.04853 z"
     id="path245"
     inkscape:connector-curvature="0"
     style="fill:#ffffff;stroke-width:1" />
  <path
     d="m 563.5513,283.05141 h -18.1265 a 4.1409718,4.448119 0 0 1 -4.09691,-3.82366 92.164668,99.000775 0 0 1 0,-26.66317 4.1412466,4.4484143 0 0 1 4.02738,-3.82298 c 5.70322,-2.74605 11.84502,-2.7457 18.25842,-3.4e-4 a 4.0930287,4.3966199 0 0 1 3.11452,1.61342 4.1874137,4.4980056 0 0 1 0.86415,3.74929 55.724054,59.85726 0 0 0 0,23.5844 4.1874137,4.4980056 0 0 1 -0.86415,3.74929 4.0923415,4.3958817 0 0 1 -3.17691,1.61375 z"
     id="path247"
     inkscape:connector-curvature="0"
     style="fill:#536dfe;stroke-width:1" />
  <path
     d="m 561.65292,258.90688 h -15.25658 a 0.95357583,1.0243051 0 1 1 0,-2.04854 h 15.25658 a 0.95357583,1.0243051 0 1 1 0,2.04854 z"
     id="path249"
     inkscape:connector-curvature="0"
     style="fill:#ffffff;stroke-width:1" />
  <path
     d="m 561.65292,267.10095 h -15.25658 a 0.95357583,1.0243051 0 1 1 0,-2.04853 h 15.25658 a 0.95357583,1.0243051 0 1 1 0,2.04853 z"
     id="path251"
     inkscape:connector-curvature="0"
     style="fill:#ffffff;stroke-width:1" />
  <path
     d="m 561.65292,275.29508 h -15.25658 a 0.95357583,1.0243051 0 1 1 0,-2.04853 h 15.25658 a 0.95357583,1.0243051 0 1 1 0,2.04853 z"
     id="path253"
     inkscape:connector-curvature="0"
     style="fill:#ffffff;stroke-width:1" />
  <path
     d="m 245.3403,333.01752 h -18.1265 a 4.1409718,4.448119 0 0 1 -4.09693,-3.82367 92.164668,99.000775 0 0 1 0,-26.66317 4.1412466,4.4484143 0 0 1 4.0274,-3.82297 c 5.70322,-2.74605 11.84502,-2.74571 18.25841,-3.5e-4 a 4.0930287,4.3966199 0 0 1 3.11452,1.61343 4.1874137,4.4980056 0 0 1 0.86415,3.74929 55.724054,59.85726 0 0 0 0,23.58439 4.1874137,4.4980056 0 0 1 -0.86415,3.7493 4.0923415,4.3958817 0 0 1 -3.1769,1.61375 z"
     id="path255"
     inkscape:connector-curvature="0"
     style="fill:#536dfe;stroke-width:1" />
  <path
     d="m 243.44192,308.87298 h -15.25658 a 0.95357583,1.0243051 0 1 1 0,-2.04853 h 15.25658 a 0.95357583,1.0243051 0 1 1 0,2.04853 z"
     id="path257"
     inkscape:connector-curvature="0"
     style="fill:#ffffff;stroke-width:1" />
  <path
     d="m 243.44192,317.06705 h -15.25658 a 0.95357583,1.0243051 0 1 1 0,-2.04852 h 15.25658 a 0.95357583,1.0243051 0 1 1 0,2.04852 z"
     id="path259"
     inkscape:connector-curvature="0"
     style="fill:#ffffff;stroke-width:1" />
  <path
     d="m 243.44192,325.26118 h -15.25658 a 0.95357583,1.0243051 0 1 1 0,-2.04852 h 15.25658 a 0.95357583,1.0243051 0 1 1 0,2.04852 z"
     id="path261"
     inkscape:connector-curvature="0"
     style="fill:#ffffff;stroke-width:1" />
  <path
     d="m 656.60823,442.12761 a 6.9685038,7.4853769 0 0 0 1.73985,-11.32476 l 12.44805,-22.99557 -12.84815,0.77789 -9.85111,21.71771 a 7.0062768,7.5259517 0 0 0 8.51135,11.82474 z"
     id="path263"
     inkscape:connector-curvature="0"
     style="fill:#ffb6b6;stroke-width:1" />
  <path
     d="m 661.63121,425.22123 -11.50267,-9.62382 20.90172,-43.50979 -7.83198,-55.40809 a 17.569265,18.872425 0 0 1 17.94823,-21.6947 v 0 a 17.587945,18.892491 0 0 1 16.98067,19.48344 l -1.9351,63.08963 z"
     id="path265"
     inkscape:connector-curvature="0"
     style="fill:#cccccc;stroke-width:1" />
  <path
     d="m 105.66769,413.3335 a 7.0261941,7.5473463 0 0 0 -0.9771,-11.52536 l 11.18707,-59.68704 -12.35402,4.26075 -8.954734,57.73232 a 7.0643371,7.5883184 0 0 0 11.098744,9.21936 z"
     id="path267"
     inkscape:connector-curvature="0"
     style="fill:#9e616a;stroke-width:1" />
  <path
     d="m 122.18604,287.05137 -7.66511,-6.21518 c 0,0 -6.76181,-0.51435 -7.95939,12.58423 -1.19759,13.09858 -3.65661,38.62559 -3.65661,38.62559 l -11.729131,58.35413 16.236291,3.82809 12.56274,-62.97444 7.53641,-18.70104 z"
     id="path269"
     inkscape:connector-curvature="0"
     style="fill:#cccccc;stroke-width:1" />
  <polygon
     points="96.057,313.623 136.914,312.942 140.319,285.023 96.057,285.023 "
     id="polygon271"
     style="fill:#9e616a;stroke-width:0.91267103"
     transform="matrix(1.0571794,0,0,1.1355933,7.9998149,26.189438)" />
  <polygon
     points="132.828,485.427 142.26,485.427 146.747,449.046 132.826,449.047 "
     id="polygon273"
     style="fill:#9e616a;stroke-width:0.91267103"
     transform="matrix(1.0571794,0,0,1.1355933,7.9998149,26.189438)" />
  <polygon
     points="73.738,486.301 83.17,486.234 87.402,449.823 75.135,452.637 "
     id="polygon275"
     style="fill:#9e616a;stroke-width:0.91267103"
     transform="matrix(1.0571794,0,0,1.1355933,7.9998149,26.189438)" />
  <polygon
     points="101.528,272.093 143.355,286.58 141.28,262.262 136.578,256.705 103.238,260.98 101.101,266.536 "
     id="polygon277"
     style="fill:#ffb6b6;stroke-width:0.91267103"
     transform="matrix(1.0571794,0,0,1.1355933,7.9998149,26.189438)" />
  <ellipse
     cx="136.11116"
     cy="248.80714"
     id="circle279"
     style="fill:#9e616a;stroke-width:1"
     rx="15.793129"
     ry="16.96455" />
  <path
     d="m 145.94969,572.1536 15.7627,-1.0106 v 7.25435 l 14.98602,11.11757 a 4.2184419,4.5313353 0 0 1 -2.39705,8.2602 h -18.76608 l -3.23461,-7.17565 -1.26295,7.17565 h -7.07558 z"
     id="path281"
     inkscape:connector-curvature="0"
     style="fill:#2f2e41;stroke-width:1" />
  <path
     d="m 82.543096,573.17068 15.755727,-1.1291 0.04722,7.25416 15.058107,11.00462 a 4.2184419,4.5313353 0 0 1 -2.34317,8.27803 l -18.765611,0.1411 -3.281302,-7.15116 -1.216159,7.18498 -7.075399,0.0531 z"
     id="path283"
     inkscape:connector-curvature="0"
     style="fill:#2f2e41;stroke-width:1" />
  <path
     d="m 82.851331,546.75301 7.260809,-62.34167 8.638645,-65.72905 c -6.326253,-12.62023 7.918755,-51.80996 7.918755,-51.80996 l 2.01075,0.10368 45.51158,9.22281 -0.009,-0.047 c 9.30861,27.27224 12.39266,40.7453 11.88254,69.78759 l -1.83386,104.40077 h 0.57529 a 3.5994369,3.8664171 0 0 1 0,7.73283 h -17.99716 a 3.5994422,3.8664227 0 1 1 0,-7.73283 h 0.46404 l -16.51921,-124.31027 -14.00574,52.19528 -15.8375,68.04886 c 5.75908,-1.54656 4.86487,2.03679 4.86487,4.06619 a 3.5994422,3.8664227 0 0 1 -3.59944,3.86641 H 84.179122 a 3.5956891,3.8623913 0 0 1 -1.327384,-7.45355 z"
     id="path285"
     inkscape:connector-curvature="0"
     style="fill:#2f2e41;stroke-width:1" />
  <path
     d="m 103.12583,368.90235 1.43982,-15.46564 a 2.8700096,3.0828861 0 0 1 2.59527,-2.31584 c 0.59989,-7.36728 3.12384,-39.15033 3.27464,-40.53647 l 0.006,-0.0586 1.14771,-26.33626 a 3.6257448,3.8946763 0 0 1 3.38528,-3.7043 l 6.06201,-0.42563 a 0.32077995,0.34457308 0 0 0 0.30999,-0.34435 5.0977931,5.4759104 0 0 1 5.09777,-5.47594 h 17.94761 a 4.7728373,5.1268518 0 0 1 4.7337,4.488 0.31684724,0.34034867 0 0 0 0.32252,0.30632 h 0.002 a 8.5267757,9.1592301 0 0 1 8.57779,7.59699 c 2.45366,15.33497 7.37098,50.13954 4.93978,69.48888 -0.84634,6.73583 0.97811,1.40087 1.29821,7.03672 a 3.862035,4.1484927 0 0 1 -0.9615,3.00775 2.7842828,2.9908007 0 0 1 1.67597,3.80157 l 0.31544,-0.0839 a 2.8795135,3.093095 0 0 1 -3.49609,2.24319 l -46.95583,6.83434 c -1.54211,-0.41756 -12.10726,-8.40039 -11.71854,-10.05682 z"
     id="path287"
     inkscape:connector-curvature="0"
     style="fill:#cccccc;stroke-width:1" />
  <path
     d="m 228.59676,306.02228 a 7.0261941,7.5473463 0 0 1 -9.89511,4.57805 l -18.15267,17.79516 -2.4102,-13.69501 17.61894,-14.75505 a 7.0643371,7.5883184 0 0 1 12.83908,6.07685 z"
     id="path289"
     inkscape:connector-curvature="0"
     style="fill:#9e616a;stroke-width:1" />
  <path
     d="m 165.41517,292.42021 c 0,0 -6.32971,-15.36531 -14.32418,-12.3111 -7.99447,3.05423 -3.86676,17.96266 -3.86676,17.96266 l 30.03553,48.61645 c 0,0 43.32228,-29.85199 38.05427,-30.06285 -5.26799,-0.21086 -6.8438,-10.50294 -6.8438,-10.50294 l -22.8966,12.28918 -0.77469,-4.37481 -1.24171,1.33381 -3.20422,-2.70905 z"
     id="path291"
     inkscape:connector-curvature="0"
     style="fill:#cccccc;stroke-width:1" />
  <ellipse
     cx="683.20221"
     cy="251.85587"
     id="circle293"
     style="fill:#ffb6b6;stroke-width:1"
     rx="22.0494"
     ry="23.684866" />
  <path
     d="m 753.9662,286.70786 a 19.122071,20.540408 0 0 1 -10.51106,7.94928 21.98616,23.616934 0 0 1 -5.23284,0.95469 19.785113,21.252628 0 0 0 -1.55535,-6.24447 16.334268,17.545825 0 0 1 -0.80715,6.22987 19.438918,20.880756 0 0 1 -7.64975,-2.20162 16.856725,18.107035 0 0 1 -9.0192,-12.9955 c -0.93412,-6.47829 1.80022,-12.83965 2.78875,-19.30815 0.99306,-6.46854 -0.87063,-14.66133 -6.76552,-16.36129 -4.48921,-1.29565 -3.98588,-0.73549 -7.7178,2.24061 3.88197,6.16566 -10.45647,28.76009 -16.32434,26.78978 -3.31757,-1.11395 -5.44145,-4.38379 -6.12616,-4.38379 -4.61162,8.53376 4.072,22.9126 -4.67965,25.89845 l 0.721,-0.77448 c 5.28273,-6.97994 -5.75887,-21.75334 -0.47612,-28.7333 1.4737,-1.95323 3.04266,-4.2669 2.60735,-6.7364 -0.41266,-2.34777 -3.88156,-3.58983 -4.89732,-1.66098 1.82743,-4.49582 -0.87062,-10.49675 -5.33713,-11.6512 -3.96773,-1.0277 -3.89519,0.23867 -7.8765,0.78909 a 19.758684,21.224239 0 0 0 -1.44651,-5.36285 16.199688,17.401264 0 0 1 -0.59403,5.46514 6.3884718,6.8623222 0 0 1 -3.86343,-1.50023 c -3.24672,-2.81051 -2.58924,-8.71401 0.30835,-11.93366 2.90211,-3.21964 7.21446,-4.37892 11.32726,-5.12904 1.19561,-8.94334 24.16692,-9.87626 27.2118,-0.94008 1.2969,-6.67311 9.07361,-10.1363 15.11816,-8.06612 6.04455,2.07018 10.239,8.13438 12.44732,14.52496 2.20831,6.38572 2.825,13.25855 4.18538,19.91216 1.36036,6.65361 3.65937,13.429 8.39343,17.96379 4.73404,4.52988 12.44731,6.03015 17.4353,1.8217 a 13.962898,14.998564 0 0 1 -1.66424,13.44364 z"
     id="path295"
     inkscape:connector-curvature="0"
     style="fill:#2f2e41;stroke-width:1" />
  <path
     d="m 960.83042,340.75721 -3.08697,16.63645 c -0.23258,1.27186 -0.47562,2.56644 -0.73992,3.84966 a 15.104683,16.225039 0 0 0 -7.75969,0.46559 72.428419,77.800634 0 0 1 5.32818,9.57305 c -1.94521,6.43882 -4.79959,12.38933 -9.57805,16.69323 a 24.018736,25.800271 0 0 1 -23.20512,4.38338 l 0.13744,-0.65864 c -5.13789,-10.70864 -2.34694,-24.21085 4.03846,-34.10187 a 61.722997,66.301161 0 0 1 11.4704,-13.02525 c 4.31318,-3.86101 8.97544,-7.32458 13.59532,-10.74271 a 6.3325787,6.8022835 0 0 1 9.79995,6.92711 z"
     id="path297"
     inkscape:connector-curvature="0"
     style="fill:#e4e4e4;stroke-width:1" />
  <path
     id="a7585634-9c2c-4d81-a429-c019b32aabf2-2286"
     data-name="a4b268fa-75d0-4ac1-9d87-14bdca948464-2189"
     d="m 922.88813,432.38806 c -1.29928,-10.16696 -2.63554,-20.46339 -1.72426,-30.73937 0.8098,-9.12564 3.40095,-18.0389 8.6784,-25.34759 a 39.254901,42.166544 0 0 1 10.07175,-9.80357 c 1.00749,-0.68135 1.93358,1.03225 0.93137,1.71134 a 37.318296,40.086296 0 0 0 -14.7614,19.13134 c -3.21383,8.78041 -3.72973,18.35232 -3.17155,27.67895 0.33513,5.64049 1.0445,11.24238 1.76021,16.84085 a 0.95146147,1.022034 0 0 1 -0.64487,1.21963 0.92820353,0.99705093 0 0 1 -1.13542,-0.69272 z"
     inkscape:connector-curvature="0"
     style="fill:#f2f2f2;stroke-width:1" />
  <path
     d="M 996.39984,599.65105 9.2585761,600.00007 a 1.2587729,1.3521397 0 0 1 0,-2.70427 L 996.39984,596.94679 a 1.2587729,1.3521397 0 0 1 0,2.70426 z"
     id="path300"
     inkscape:connector-curvature="0"
     style="fill:#cacaca;stroke-width:1" />
  <path
     d="m 117.52343,238.41982 c -2.42215,1.24865 -5.13352,-0.62984 -7.2247,-2.49127 l 0.74805,0.69396 c -3.6959,3.86257 -5.42384,9.41975 -6.26818,14.89013 -0.84516,5.4647 -0.93941,11.05328 -2.00354,16.47914 -1.06496,5.42012 -3.274081,10.86593 -7.400439,14.18568 -5.527987,4.44642 -13.152246,4.16102 -19.93618,2.79798 -0.09036,-0.0197 -0.174602,-0.0346 -0.264987,-0.0544 a 41.416388,44.488356 0 0 0 2.181507,-17.63698 37.65727,40.450413 0 0 1 -9.040292,15.91687 86.446808,92.858805 0 0 1 -13.127801,-5.13837 c -2.743232,-1.35632 -5.697055,-3.21091 -6.458393,-6.35112 -0.763284,-3.11646 1.009172,-6.38532 3.37921,-8.35319 2.370039,-1.96786 5.278867,-2.99456 7.978882,-4.39647 2.695586,-1.39532 5.363072,-3.38476 6.442377,-6.38812 2.489363,-6.90895 -4.602123,-14.83686 -1.838434,-21.62838 1.362873,-3.33968 4.701044,-5.15627 7.838607,-6.55681 a 115.04777,123.58118 0 0 1 14.721954,-5.33412 c 4.401225,-1.24707 8.996754,-2.2162 13.480299,-1.3987 4.48356,0.81749 8.87608,3.74682 10.48977,8.32062 2.69247,0.97746 5.55095,2.07917 7.27892,4.51362 1.72716,2.42875 1.58792,6.6099 -0.97663,7.92994 z"
     id="path302"
     inkscape:connector-curvature="0"
     style="fill:#2f2e41;stroke-width:1" />
  <path
     d="m 139.07549,230.41387 c -6.92929,-5.87605 -12.53186,-4.87299 -16.85388,-1.22234 -0.72657,-0.86823 -3.81865,1.52056 -4.86558,1.17721 l -3.78666,7.63597 c -1.94857,3.69354 -2.748,7.46385 -2.43302,9.58591 -3.58425,10.79697 4.91539,18.08808 14.96701,21.93799 a 19.180068,20.602706 0 0 0 12.4378,0.1935 l 0.12355,-1.83979 0.76116,1.50786 c 0,0 9.18911,20.32413 11.36052,21.23681 -1.31755,-3.67137 -4.79262,-21.12038 -5.7626,-24.7576 -1.33004,-4.94872 -0.42148,-12.81092 0.36023,-17.63134 a 25.432459,27.318855 0 0 0 0.0755,-8.99064 l -0.0193,-0.1303 2.14995,4.66198 4.8239,-3.25831 c -1.84362,-5.76813 -1.88043,-12.66841 -13.33847,-10.10691 z"
     id="path304"
     inkscape:connector-curvature="0"
     style="fill:#2f2e41;stroke-width:1" />
</svg>
