<?xml version="1.0" encoding="UTF-8" standalone="no"?>
<svg
   xmlns:dc="http://purl.org/dc/elements/1.1/"
   xmlns:cc="http://creativecommons.org/ns#"
   xmlns:rdf="http://www.w3.org/1999/02/22-rdf-syntax-ns#"
   xmlns:svg="http://www.w3.org/2000/svg"
   xmlns="http://www.w3.org/2000/svg"
   xmlns:sodipodi="http://sodipodi.sourceforge.net/DTD/sodipodi-0.dtd"
   xmlns:inkscape="http://www.inkscape.org/namespaces/inkscape"
   width="1000"
   height="600"
   viewBox="0 0 1000 600"
   version="1.1"
   id="svg102"
   sodipodi:docname="helpers2.svg"
   inkscape:version="0.92.5 (2060ec1f9f, 2020-04-08)">
  <metadata
     id="metadata108">
    <rdf:RDF>
      <cc:Work
         rdf:about="">
        <dc:format>image/svg+xml</dc:format>
        <dc:type
           rdf:resource="http://purl.org/dc/dcmitype/StillImage" />
        <dc:title></dc:title>
      </cc:Work>
    </rdf:RDF>
  </metadata>
  <defs
     id="defs106" />
  <sodipodi:namedview
     pagecolor="#ffffff"
     bordercolor="#666666"
     borderopacity="1"
     objecttolerance="10"
     gridtolerance="10"
     guidetolerance="10"
     inkscape:pageopacity="0"
     inkscape:pageshadow="2"
     inkscape:window-width="2560"
     inkscape:window-height="1403"
     id="namedview104"
     showgrid="false"
     inkscape:zoom="0.44559481"
     inkscape:cx="-957.37244"
     inkscape:cy="-700.83004"
     inkscape:window-x="0"
     inkscape:window-y="0"
     inkscape:window-maximized="1"
     inkscape:current-layer="svg102" />
  <path
     id="uuid-f8ba9176-caa4-4aaa-aa33-5402b823e72a-1086"
     d="m 492.09498,129.83918 c 6.96565,-7.33333 16.26946,-9.55948 20.78002,-4.97272 4.51056,4.58674 2.51953,14.24804 -4.44955,21.58303 -2.74503,2.96953 -6.13753,5.21582 -9.89375,6.55091 l -29.89306,30.68607 -13.62067,-14.81901 30.91535,-28.67771 c 1.22536,-3.90975 3.3382,-7.45899 6.16165,-10.35056 z"
     inkscape:connector-curvature="0"
     style="fill:#ffb6b6;stroke-width:1" />
  <path
     d="m 396.49317,104.50953 31.34221,71.93044 50.04869,-28.02611 17.91151,9.83439 c 0,0 -40.91372,70.76094 -68.92734,62.70573 -28.01361,-8.05521 -77.75853,-81.09436 -68.79573,-103.63646 8.96279,-22.542087 38.42066,-12.80799 38.42066,-12.80799 z"
     id="path3"
     inkscape:connector-curvature="0"
     style="fill:#e6e6e6;stroke-width:1" />
  <g
     id="g8"
     transform="matrix(1.0731333,0,0,1.1101695,191.36037,12.021877)"
     style="stroke-width:0.91617519">
    <path
       id="uuid-070545a9-7559-45f6-9b62-076b2f028fa8-1087"
       d="m 326.53975,119.88304 c -6.78007,-6.30849 -9.02085,-14.92038 -5.00538,-19.2346 4.01547,-4.31422 12.76536,-2.69677 19.547,3.61488 2.74357,2.48409 4.85236,5.58908 6.14991,9.05523 l 28.38986,27.09213 -12.99751,13.05154 -26.60745,-28.0937 c -3.55158,-1.04544 -6.80107,-2.92641 -9.47643,-5.48548 z"
       inkscape:connector-curvature="0"
       style="fill:#a0616a;stroke-width:0.91617519" />
    <path
       d="m 469.54555,124.05918 -54.79823,58.34112 c 0,0 -12.30572,12.17584 -32.55166,-5.38303 -20.24594,-17.55886 -42.75488,-46.36646 -42.75488,-46.36646 l 12.62792,-13.7435 22.36758,19.95557 c 0,0 13.27995,5.34356 14.20323,8.80108 0.92328,3.45752 -1.65808,4.88765 2.49095,3.77972 4.14903,-1.10793 4.22986,-3.57946 4.48999,0.1689 0.26013,3.74836 -2.27411,8.12916 2.5193,3.88589 4.79341,-4.24327 6.22354,-1.66191 6.22354,-1.66191 l 35.02349,-46.39323 c 0,0 22.63117,-17.89636 29.13744,-1.85421 6.50626,16.04214 1.02135,20.47007 1.02135,20.47007 z"
       id="path6"
       inkscape:connector-curvature="0"
       style="fill:#536dfe;stroke-width:0.91617519" />
  </g>
  <g
     id="g14"
     transform="matrix(1.0731333,0,0,1.1101695,191.36037,12.021877)"
     style="stroke-width:0.91617519">
    <polygon
       points="178.34658,515.12397 199.64263,515.1219 209.77329,432.97905 178.34231,432.98125 "
       id="polygon10"
       style="fill:#ffb6b6;stroke-width:0.91617519" />
    <path
       d="m 251.30953,514.64088 v 0 c 0.66308,1.11676 1.01296,4.72115 1.01296,6.01985 v 0 c 0,3.99185 -3.23598,7.22797 -7.22797,7.22797 h -65.95139 c -2.72322,0 -4.93095,-2.2076 -4.93095,-4.93095 v -2.74577 c 0,0 -3.26255,-8.25246 3.45446,-18.42407 0,0 8.34835,7.96452 20.82294,-4.51006 l 3.67865,-6.66414 26.62832,19.47461 14.75968,1.81677 c 3.22912,0.39744 6.09203,-0.0617 7.75304,2.73579 z"
       id="path12"
       inkscape:connector-curvature="0"
       style="fill:#2f2e41;stroke-width:0.91617519" />
  </g>
  <rect
     x="-702.78247"
     y="-163.06783"
     width="56.635983"
     height="86.574188"
     transform="scale(-1)"
     id="rect16"
     style="fill:#2f2e41;stroke-width:1" />
  <polygon
     points="432.85138,113.60704 464.72245,112.27854 462.87423,89.94297 438.29928,89.94297 "
     id="polygon18"
     style="fill:#a0616a;stroke-width:0.91617519"
     transform="matrix(1.0731333,0,0,1.1101695,191.36037,12.021877)" />
  <polygon
     points="432.85138,113.60704 464.72245,112.27854 462.87423,89.94297 438.29928,89.94297 "
     id="polygon20"
     style="opacity:0.1;stroke-width:0.91617519"
     transform="matrix(1.0731333,0,0,1.1101695,191.36037,12.021877)" />
  <polygon
     points="157.91851,71.26224 194.46134,87.46728 194.89207,58.74385 177.17918,47.70229 "
     id="polygon22"
     style="fill:#ffb6b6;stroke-width:0.91617519"
     transform="matrix(1.0731333,0,0,1.1101695,191.36037,12.021877)" />
  <polygon
     points="183.44031,82.3631 194.46134,87.46728 195.60781,59.45958 177.17918,47.70229 "
     id="polygon24"
     style="opacity:0.1;stroke-width:0.91617519"
     transform="matrix(1.0731333,0,0,1.1101695,191.36037,12.021877)" />
  <ellipse
     cx="670.74713"
     cy="89.941444"
     id="circle26"
     style="fill:#a0616a;stroke-width:1"
     rx="28.827171"
     ry="29.822062" />
  <path
     d="m 663.47542,58.566644 c 0,0 0,-12.242816 10.98906,-9.619352 10.98907,2.623463 14.37033,6.995888 14.37033,6.995888 0,0 4.22657,6.995889 10.98907,7.87038 6.7625,0.874492 12.67969,20.987677 11.83438,25.360113 -0.8453,4.372436 -5.07187,15.740757 0.84532,20.987677 5.91719,5.24692 14.37033,13.1173 11.83439,20.98768 -2.53595,7.87038 -10.14376,27.98357 -10.14376,27.98357 0,0 21.21935,3.20875 19.48546,16.9079 0,0 -10.18702,-8.16303 -23.71203,-8.16303 -13.52501,0 -11.83439,-25.38421 -11.83439,-25.38421 0,0 -0.84531,-15.71666 -3.38125,-20.08909 -2.53594,-4.37244 0.84532,-28.858072 -11.83438,-41.975369 -12.67969,-13.117296 -19.4422,-21.862168 -19.4422,-21.862168 z"
     id="path28"
     inkscape:connector-curvature="0"
     style="fill:#2f2e41;stroke-width:1" />
  <path
     d="m 666.85667,55.943191 c 0,0 -16.06096,3.497945 -21.97815,20.113197 -5.91719,16.615251 -2.92865,19.70694 -2.92865,19.70694 0,0 -1.30828,10.004962 -8.48827,13.513232 -7.17998,3.50828 -1.26278,18.37454 -1.26278,18.37454 0,0 -1.69063,14.86628 -24.51408,20.1132 -22.82345,5.24692 28.62107,45.48293 28.62107,45.48293 0,0 -3.69872,-18.99019 19.97005,-19.86468 23.66877,-0.87449 -4.63484,-45.73146 -4.63484,-45.73146 l -2.53594,-28.858065 c 0,0 5.07187,-33.230492 20.28751,-37.602928 15.21563,-4.372436 -2.53595,-5.246917 -2.53595,-5.246917 z"
     id="path30"
     inkscape:connector-curvature="0"
     style="fill:#2f2e41;stroke-width:1" />
  <ellipse
     cx="400.10257"
     cy="52.188286"
     id="circle32"
     style="fill:#ffb6b6;stroke-width:1"
     rx="33.805428"
     ry="34.972126" />
  <path
     d="M 446.20625,319.9839 414.715,541.67372 h -39.50998 l 5.25368,-126.54597 2.76507,-66.53872 -8.01875,-31.67223 c 0,0 -3.65607,-7.04009 -6.73607,-15.57394 -3.47169,-9.63039 -6.21373,-21.17572 -2.14292,-26.65044 1.49776,-2.01828 5.39192,-3.51211 10.68395,-4.6245 3.23363,-0.68333 6.99724,-1.21574 11.06036,-1.62889 23.36495,-2.39172 56.59975,-0.89789 56.59975,-0.89789 l 0.84487,28.84351 0.46856,16.10629 z"
     id="path34"
     inkscape:connector-curvature="0"
     style="fill:#2f2e41;stroke-width:1" />
  <g
     id="g40"
     transform="matrix(1.0731333,0,0,1.1101695,191.36037,12.021877)"
     style="stroke-width:0.91617519">
    <polygon
       points="57.09417,483.30825 75.85506,493.38549 123.65611,425.81969 95.9672,410.94587 "
       id="polygon36"
       style="fill:#ffb6b6;stroke-width:0.91617519" />
    <path
       d="m 121.59661,517.41485 v 0 c 0.0556,1.29759 -1.34212,4.63833 -1.95677,5.78236 v 0 c -1.88928,3.51646 -6.27149,4.83565 -9.78806,2.94631 L 51.75453,494.92981 c -2.39891,-1.28885 -3.2989,-4.27844 -2.00999,-6.67746 l 1.29953,-2.41877 c 0,0 1.03174,-8.81379 11.76288,-14.59501 0,0 3.58467,10.96717 20.47767,5.88219 l 6.39458,-4.12947 14.24015,29.75813 12.1421,8.58593 c 2.65646,1.87839 5.39572,2.82892 5.53493,6.07937 l 2.3e-4,1.2e-4 z"
       id="path38"
       inkscape:connector-curvature="0"
       style="fill:#2f2e41;stroke-width:0.91617519" />
  </g>
  <path
     d="m 445.98352,312.49094 -16.71341,34.66784 -48.81141,67.96897 -80.35643,111.90174 -34.80171,-19.34028 95.39544,-166.16406 7.435,-31.83116 c 0,0 0,-3.44057 0.33796,-8.35112 0.66059,-9.71779 2.64219,-25.20427 8.54103,-31.27494 0.79883,-0.82635 1.66677,-1.47792 2.61149,-1.91498 1.77427,-0.82636 4.72371,-0.6277 8.44888,0.28609 15.56129,3.84577 44.60236,20.36527 57.44462,27.94562 l 0.46856,16.10629 z"
     id="path42"
     inkscape:connector-curvature="0"
     style="fill:#2f2e41;stroke-width:1" />
  <g
     id="g48"
     transform="matrix(1.0731333,0,0,1.1101695,191.36037,12.021877)"
     style="stroke-width:0.91617519">
    <polygon
       points="462.72147,517.62917 444.41088,517.62739 435.70042,447 462.72515,447.00189 "
       id="polygon44"
       style="fill:#a0616a;stroke-width:0.91617519" />
    <path
       d="m 399.98707,517.2138 v 0 c -0.57013,0.9602 -0.87096,4.0593 -0.87096,5.17594 v 0 c 0,3.43224 2.78234,6.21469 6.21469,6.21469 h 56.70578 c 2.34146,0 4.23969,-1.89812 4.23969,-4.23969 v -2.36084 c 0,0 2.80518,-7.09556 -2.97019,-15.84123 0,0 -7.17801,6.84799 -17.9038,-3.8778 l -3.16294,-5.72991 -22.89534,16.7445 -12.69054,1.56208 c -2.77643,0.34172 -5.238,-0.053 -6.66616,2.35226 h -2.2e-4 z"
       id="path46"
       inkscape:connector-curvature="0"
       style="fill:#2f2e41;stroke-width:0.91617519" />
  </g>
  <g
     id="g54"
     transform="matrix(1.0731333,0,0,1.1101695,191.36037,12.021877)"
     style="stroke-width:0.91617519">
    <polygon
       points="534.85443,496.05084 517.9276,503.03371 482.93516,441.06897 507.91729,430.76223 "
       id="polygon50"
       style="fill:#a0616a;stroke-width:0.91617519" />
    <path
       d="m 476.70488,519.5967 v 0 c -0.16075,1.10508 0.7433,4.08461 1.16924,5.11681 v 0 c 1.30922,3.17273 4.94254,4.68349 8.11537,3.37423 l 52.41831,-21.63023 c 2.16442,-0.89314 3.1951,-3.37182 2.30191,-5.53634 l -0.90054,-2.18234 c 0,0 -0.1135,-7.6291 -8.7882,-13.51052 0,0 -4.02315,9.06825 -18.02929,3.24474 l -5.10945,-4.09018 -14.77712,24.21181 -11.13517,6.28474 c -2.43616,1.37494 -4.86219,1.94899 -5.26487,4.71719 l -2.1e-4,9e-5 z"
       id="path52"
       inkscape:connector-curvature="0"
       style="fill:#2f2e41;stroke-width:0.91617519" />
  </g>
  <path
     d="m 696.93799,317.71138 -8.01876,31.67224 2.13528,51.39389 3.54084,85.3625 0.0999,2.40763 0.39936,9.59858 1.84341,44.32209 H 657.42803 L 639.839,418.64778 l -13.90222,-97.86929 1.45937,-49.83653 0.0768,-2.60622 c 0,0 70.66327,-3.17835 78.34406,7.15129 7.68079,10.32963 -8.879,42.22437 -8.879,42.22437 z"
     id="path56"
     inkscape:connector-curvature="0"
     style="fill:#2f2e41;stroke-width:1" />
  <path
     d="m 751.90941,510.60533 -6.69767,3.58359 -24.77055,13.26166 -3.62531,1.9388 -21.7213,-31.24317 -55.25561,-79.49844 -13.90222,-97.86929 1.45937,-49.83653 c 6.25212,-2.05796 11.25232,-2.90022 13.78698,-1.67657 11.4137,5.52239 10.86834,41.72378 10.86834,41.72378 l 6.9511,31.94242 32.05197,57.84593 60.85489,109.82782 z"
     id="path58"
     inkscape:connector-curvature="0"
     style="fill:#2f2e41;stroke-width:1" />
  <g
     id="g74"
     transform="matrix(1.0731333,0,0,1.1101695,191.36037,12.021877)"
     style="stroke-width:0.91617519">
    <path
       d="m 389.22568,457.90927 c -0.47377,-1.44977 -4.06457,-0.81151 -4.40934,-2.10824 -0.34356,-1.29205 3.10208,-2.37546 5.74471,-6.0166 0.47659,-0.65663 3.47971,-4.79454 2.32792,-6.53493 -2.1832,-3.29889 -17.37315,4.91735 -21.01925,0.30668 -0.80021,-1.01185 -1.12945,-2.74897 -3.51323,-5.98179 -0.94834,-1.28608 -1.55674,-1.90695 -2.28368,-1.88858 -1.03148,0.026 -1.40054,1.31645 -3.02171,3.6539 -2.43126,3.50548 -3.30863,3.06537 -4.91026,5.93759 -1.18896,2.13218 -1.32986,3.49456 -2.18725,3.57485 -1.21329,0.11366 -1.71462,-2.541 -3.19716,-2.64399 -1.51285,-0.10505 -3.02669,2.51801 -3.77715,4.56737 -1.40831,3.84577 -0.53624,6.78524 -0.34288,9.71471 0.21009,3.18358 -0.28322,7.84383 -3.74231,13.82532 l -32.62657,51.98212 c 7.00688,-10.59699 26.89671,-39.49402 34.91025,-50.09355 2.31337,-3.05985 4.79938,-6.13237 8.62575,-6.7104 3.68391,-0.55655 8.16629,1.26605 14.42272,1.15995 0.73067,-0.0124 2.76413,-0.0728 3.25876,-1.15056 0.40895,-0.89103 -0.60642,-1.66577 -0.23705,-2.50334 0.49543,-1.12348 2.72444,-0.64148 5.76213,-1.3876 2.142,-0.52616 3.59724,-1.39546 4.84866,-2.14304 0.37729,-0.22538 5.99771,-3.62994 5.36699,-5.55987 z"
       id="path60"
       inkscape:connector-curvature="0"
       style="fill:#f2f2f2;stroke-width:0.91617519" />
    <path
       d="m 303.77069,470.04589 c -0.84826,-0.1858 -1.57104,1.76077 -2.30695,1.55583 -0.73329,-0.20418 -0.27085,-2.20792 -1.29544,-4.55554 -0.18477,-0.42335 -1.34918,-3.09126 -2.53573,-3.02808 -2.24903,0.11969 -2.59924,9.94565 -5.91422,10.40488 -0.72749,0.1008 -1.6751,-0.23883 -3.94957,-0.002 -0.90484,0.0944 -1.38511,0.21384 -1.58585,0.57593 -0.28481,0.51376 0.242,1.06725 0.92149,2.53732 1.01901,2.20471 0.54984,2.50836 1.49742,4.12317 0.70344,1.19875 1.33145,1.66101 1.12346,2.10497 -0.29428,0.62828 -1.74186,0.1084 -2.22016,0.8063 -0.48806,0.71221 0.36256,2.21204 1.15186,3.17166 1.48121,1.80084 3.17552,2.22095 4.66911,2.97131 1.62314,0.81545 3.7681,2.40221 5.70578,5.82582 l 16.09936,31.01183 c -3.17937,-6.4966 -11.62337,-24.59637 -14.51351,-31.58779 -0.83433,-2.01827 -1.62503,-4.12495 -0.80468,-6.16976 0.78977,-1.96868 2.97762,-3.64276 4.73073,-6.74407 0.20476,-0.3622 0.76182,-1.37766 0.37558,-1.9314 -0.31933,-0.4578 -0.99255,-0.18297 -1.29706,-0.60594 -0.40845,-0.56734 0.47126,-1.52227 0.98149,-3.22847 0.35979,-1.20312 0.35301,-2.16817 0.34718,-2.99809 -0.002,-0.2502 -0.0511,-3.99105 -1.18026,-4.23835 l -2e-5,8e-5 z"
       id="path62"
       inkscape:connector-curvature="0"
       style="fill:#f2f2f2;stroke-width:0.91617519" />
    <path
       d="m 319.83224,477.61255 0.50604,-4.67213 0.31037,-0.29352 c 1.43597,-1.35712 2.33428,-2.7949 2.67125,-4.27469 0.0536,-0.23525 0.0951,-0.47323 0.13765,-0.71557 0.16805,-0.96064 0.37666,-2.15483 1.30023,-3.39519 0.51688,-0.69106 1.88417,-2.25297 3.29433,-1.7074 0.3806,0.14266 0.63749,0.3894 0.81596,0.651 0.0448,-0.0454 0.0907,-0.0907 0.13977,-0.1398 0.60913,-0.59194 1.03526,-0.80879 1.44573,-1.01761 0.31541,-0.1607 0.6411,-0.32602 1.19227,-0.76686 0.2418,-0.19328 0.43542,-0.36728 0.59856,-0.51342 0.4948,-0.44183 1.12772,-0.95917 1.99465,-0.75426 0.91899,0.25119 1.23408,1.12781 1.44313,1.70816 0.37331,1.03517 0.48831,1.74704 0.56439,2.21916 0.0274,0.17247 0.0592,0.3667 0.0832,0.42983 0.20116,0.50696 2.72617,0.63807 3.67622,0.69285 2.13561,0.11588 3.98357,0.21616 4.42798,1.67845 0.31889,1.04614 -0.34572,2.18715 -2.03227,3.48147 -0.52534,0.40269 -1.05058,0.68062 -1.50814,0.88818 0.28144,0.2661 0.50567,0.62801 0.5194,1.12091 v 0 c 0.0309,1.16674 -1.16576,2.06201 -3.55656,2.66554 -0.59411,0.15167 -1.39325,0.35237 -2.43898,0.30166 -0.49248,-0.0244 -0.92389,-0.0998 -1.29169,-0.17026 -0.0548,0.20957 -0.15541,0.42743 -0.33669,0.63421 -0.53212,0.60912 -1.39147,0.764 -2.55795,0.42065 -1.28777,-0.35885 -2.30526,-0.84686 -3.20309,-1.27586 -0.78424,-0.37361 -1.46044,-0.69309 -2.02782,-0.78037 -1.0553,-0.14758 -2.03936,0.50399 -3.217,1.37115 l -2.95093,2.21373 h -3e-5 z"
       id="path64"
       inkscape:connector-curvature="0"
       style="fill:#f2f2f2;stroke-width:0.91617519" />
    <path
       d="m 328.2542,451.0011 -4.64769,0.69558 -0.36264,-0.22578 c -1.67698,-1.04479 -3.29556,-1.54902 -4.81244,-1.49962 -0.24117,0.008 -0.48188,0.028 -0.72709,0.0484 -0.97184,0.0811 -2.17991,0.18224 -3.61396,-0.39652 -0.79959,-0.32468 -2.65721,-1.25108 -2.48717,-2.7535 0.0415,-0.40433 0.21497,-0.71541 0.42277,-0.95439 -0.0553,-0.0318 -0.11073,-0.0647 -0.17068,-0.0997 -0.72708,-0.43908 -1.04494,-0.79626 -1.35106,-1.14036 -0.23545,-0.26434 -0.47799,-0.53744 -1.04419,-0.95877 -0.2483,-0.18486 -0.46572,-0.32801 -0.64846,-0.44875 -0.5529,-0.36653 -1.21384,-0.84756 -1.23551,-1.73812 0.01,-0.95264 0.77791,-1.47978 1.28625,-1.82922 0.90664,-0.62366 1.56604,-0.91549 2.00343,-1.10883 0.15987,-0.0702 0.3397,-0.15024 0.39467,-0.18949 0.43935,-0.32316 -0.0743,-2.79884 -0.26226,-3.73173 -0.4296,-2.09514 -0.80136,-3.9081 0.50041,-4.70888 0.93104,-0.57379 2.20331,-0.22036 3.8831,1.08273 0.52277,0.40602 0.92484,0.84358 1.24167,1.23354 0.18601,-0.33973 0.4792,-0.64847 0.95251,-0.78671 v 0 c 1.12075,-0.32582 2.29026,0.6046 3.48048,2.76411 0.29741,0.53621 0.69425,1.2583 0.91043,2.28269 0.10135,0.48254 0.13781,0.91897 0.16295,1.29265 0.21664,-1.1e-4 0.45286,0.0419 0.69888,0.16481 0.72416,0.36021 1.09199,1.15219 1.05572,2.36759 -0.0205,1.33668 -0.23443,2.44468 -0.42166,3.42196 -0.16247,0.85337 -0.30001,1.58848 -0.24048,2.15945 0.12494,1.05823 1.00478,1.84481 2.14231,2.764 l 2.88984,2.29291 h -1.2e-4 z"
       id="path66"
       inkscape:connector-curvature="0"
       style="fill:#f2f2f2;stroke-width:0.91617519" />
    <path
       d="m 328.88063,437.04407 0.50604,-4.67213 0.31037,-0.29352 c 1.43597,-1.35712 2.33428,-2.7949 2.67125,-4.27469 0.0536,-0.23525 0.0951,-0.47323 0.13765,-0.71557 0.16805,-0.96064 0.37666,-2.15483 1.30023,-3.39519 0.51688,-0.69106 1.88417,-2.25297 3.29433,-1.7074 0.3806,0.14266 0.63749,0.3894 0.81596,0.651 0.0448,-0.0454 0.0907,-0.0907 0.13977,-0.1398 0.60913,-0.59194 1.03526,-0.80879 1.44573,-1.01761 0.31541,-0.1607 0.6411,-0.32602 1.19227,-0.76686 0.2418,-0.19328 0.43542,-0.36728 0.59856,-0.51342 0.4948,-0.44183 1.12772,-0.95917 1.99465,-0.75426 0.91899,0.25119 1.23408,1.12781 1.44313,1.70816 0.37331,1.03517 0.48831,1.74704 0.56439,2.21916 0.0274,0.17247 0.0592,0.3667 0.0832,0.42983 0.20116,0.50696 2.72617,0.63807 3.67622,0.69285 2.13561,0.11588 3.98357,0.21616 4.42798,1.67845 0.31889,1.04614 -0.34572,2.18715 -2.03227,3.48147 -0.52534,0.40269 -1.05058,0.68062 -1.50814,0.88818 0.28144,0.2661 0.50567,0.62801 0.5194,1.12091 v 0 c 0.0309,1.16674 -1.16576,2.06201 -3.55656,2.66554 -0.59411,0.15167 -1.39325,0.35237 -2.43898,0.30166 -0.49248,-0.0244 -0.92389,-0.0998 -1.29169,-0.17026 -0.0548,0.20957 -0.15541,0.42743 -0.33669,0.63421 -0.53212,0.60912 -1.39147,0.764 -2.55795,0.42065 -1.28777,-0.35885 -2.30526,-0.84686 -3.20309,-1.27586 -0.78424,-0.37361 -1.46044,-0.69309 -2.02782,-0.78037 -1.0553,-0.14758 -2.03936,0.50399 -3.217,1.37115 l -2.95093,2.21373 h -3e-5 z"
       id="path68"
       inkscape:connector-curvature="0"
       style="fill:#f2f2f2;stroke-width:0.91617519" />
    <path
       d="m 313.81007,526.56373 -0.82171,-0.81173 0.0148,-1.15423 -0.0148,1.15423 -1.14216,-0.12074 c 0.005,-0.10738 -0.002,-0.3586 -0.0104,-0.75092 -0.0439,-2.1493 -0.18033,-8.69064 0.73053,-18.74134 0.63602,-7.01599 1.69884,-14.13778 3.15893,-21.17099 1.46254,-7.04419 2.98044,-12.28545 4.19961,-16.49813 0.92006,-3.17731 1.84872,-6.19098 2.75527,-9.12643 2.41929,-7.8428 4.70359,-15.25129 6.11819,-23.70171 0.31677,-1.88632 0.97422,-5.81304 -0.37183,-10.44772 -0.78099,-2.68799 -2.11817,-5.21813 -3.9758,-7.5178 l 1.79792,-1.45198 c 2.04981,2.54122 3.52852,5.34326 4.39588,8.32777 1.49243,5.13864 0.77611,9.41732 0.43194,11.47311 -1.4398,8.5996 -3.74689,16.07927 -6.18998,23.99762 -0.90191,2.9249 -1.8276,5.92538 -2.74362,9.08973 -1.20814,4.17359 -2.7124,9.36932 -4.15592,16.32304 -1.44363,6.94906 -2.49282,13.9838 -3.1218,20.91126 -0.8988,9.92402 -0.76377,16.36802 -0.71957,18.48502 0.0229,1.13031 0.0278,1.36707 -0.33547,1.73198 v -3e-5 z"
       id="path70"
       inkscape:connector-curvature="0"
       style="fill:#f2f2f2;stroke-width:0.91617519" />
    <path
       d="m 319.51852,420.33531 c -0.0924,-0.0206 -0.18549,-0.0437 -0.27865,-0.0714 -1.89619,-0.53152 -3.41721,-2.07683 -4.52205,-4.59214 -0.51712,-1.18278 -0.63919,-2.42762 -0.8826,-4.91022 -0.0382,-0.38283 -0.20697,-2.31967 4.9e-4,-4.88654 0.13497,-1.67735 0.31529,-2.35105 0.77175,-2.88 0.5069,-0.58933 1.18983,-0.92682 1.91151,-1.09625 0.0195,-0.22209 0.0922,-0.43923 0.23631,-0.64507 0.59368,-0.85415 1.58744,-0.50311 2.12664,-0.32047 0.27167,0.0976 0.61021,0.22159 0.99101,0.28572 0.59844,0.10345 0.95577,-0.002 1.49668,-0.15833 0.51757,-0.15027 1.16111,-0.33713 2.05058,-0.32127 1.7552,0.0241 3.05448,0.81297 3.48294,1.07257 2.25643,1.35583 3.0355,3.51892 3.93708,6.02354 0.17914,0.50205 0.77368,2.31667 0.91213,4.65341 0.0999,1.68584 -0.12096,2.37592 -0.37426,2.86931 -0.51738,1.01443 -1.30961,1.48465 -3.27584,2.47399 -2.05419,1.03671 -3.08483,1.55544 -3.92988,1.82211 -1.96641,0.6173 -3.2012,1.00498 -4.65383,0.68099 v 5e-5 z"
       id="path72"
       inkscape:connector-curvature="0"
       style="fill:#f2f2f2;stroke-width:0.91617519" />
  </g>
  <path
     d="m 817.04005,599.06743 v 0 c 0,0.51504 -0.40361,0.93258 -0.90146,0.93258 H 191.36037 v -1.86514 h 624.77822 c 0.49785,0 0.90146,0.41753 0.90146,0.93257 z"
     id="path76"
     inkscape:connector-curvature="0"
     style="fill:#e6e6e6;stroke-width:1" />
  <path
     d="m 365.1739,84.388787 38.40395,19.070093 c 0,0 40.7082,124.75019 40.7082,131.10689 0,6.35669 11.52119,10.32964 4.60847,17.48091 -6.91271,7.15128 12.86647,13.20767 2.2088,18.91994 -10.65766,5.71226 -77.14184,36.95764 -84.53457,34.14001 -20.38953,-7.77119 0.86403,-36.32669 0.86403,-36.32669 0,0 -15.31622,-12.76033 -13.01199,-19.11702 2.30424,-6.3567 -13.82542,-127.92854 -13.82542,-127.92854 L 365.1739,84.388776 Z"
     id="path78"
     inkscape:connector-curvature="0"
     style="fill:#e6e6e6;stroke-width:1" />
  <path
     d="m 398.0381,60.564749 4.34808,8.99627 c 0,0 4.34808,-16.193288 11.30499,-19.791791 6.95691,-3.598504 7.82653,-8.99627 7.82653,-8.99627 0,0 8.69615,11.695147 14.78346,8.99627 6.0873,-2.698878 8.69614,-4.49814 1.73922,-15.293662 -6.95692,-10.795521 -5.21769,-5.397766 -5.21769,-5.397766 0,0 -6.08731,-8.99627 -5.21769,-6.297392 0.86961,2.698877 -5.21769,-7.197018 -5.21769,-4.498141 0,2.698878 -4.34808,-5.397766 -4.34808,-2.698877 0,2.698877 -18.26191,-6.2973922 -15.65307,-2.698878 2.60884,3.598515 -15.65306,-7.1970176 -24.34921,7.197018 -8.69615,14.394036 -20.75434,11.732138 -16.46447,20.709913 4.28987,8.977774 2.55064,33.267705 2.55064,33.267705 h 11.99316 c 0,0 12.35605,-24.289931 21.92182,-13.49441 z"
     id="path80"
     inkscape:connector-curvature="0"
     style="fill:#2f2e41;stroke-width:1" />
  <path
     d="m 653.97164,136.83154 0.70348,-0.20567 34.62816,-10.12396 27.65084,38.93478 -18.43389,81.04789 6.91271,32.57808 c 0,0 -56.06977,-15.09716 -78.34406,-2.38377 0,0 -1.53616,-7.24513 0,-10.77385 1.53616,-3.52872 3.8404,-18.21294 1.53616,-24.77611 -2.30425,-6.56316 4.60847,-37.55206 4.60847,-37.55206 0,0 -2.30424,-20.65926 7.68079,-30.9889 9.98503,-10.32964 13.05735,-35.75643 13.05735,-35.75643 z"
     id="path82"
     inkscape:connector-curvature="0"
     style="fill:#536dfe;stroke-width:1" />
  <path
     d="M 622.52203,283.17991 500.84188,220.62169 c -0.60531,-0.31115 -1.13412,-0.73988 -1.57216,-1.27374 l -18.98596,-23.14816 c -1.259,-1.53525 -1.53166,-3.70174 -0.6942,-5.51943 L 515.1901,113.4114 c 0.6237,-1.35406 1.78482,-2.35389 3.18558,-2.74341 1.4019,-0.38876 2.89042,-0.12532 4.08641,0.72319 l 85.81297,60.89494 c 1.76156,1.2497 2.54877,3.51629 1.95845,5.6401 l -17.42242,62.72272 c -0.4763,1.71566 0.13089,3.58767 1.51103,4.65851 l 34.46604,26.74166 c 1.85607,1.44019 2.49739,4.06683 1.52529,6.24573 l -1.09024,2.4439 c -0.56556,1.26792 -1.57853,2.22158 -2.85142,2.68561 -0.53968,0.19671 -1.09624,0.29448 -1.65054,0.29448 -0.75346,-3.9e-4 -1.50241,-0.1808 -2.19923,-0.53891 z"
     id="path84"
     inkscape:connector-curvature="0"
     style="fill:#536dfe;stroke-width:1" />
  <path
     d="m 621.55101,267.95429 -33.87228,-29.1534 c -0.29187,-0.25423 -0.52228,-0.56413 -0.68359,-0.90579 -0.30721,-0.64361 -0.36867,-1.41439 -0.13825,-2.12158 l 19.30182,-58.42597 c 0.49928,-1.50973 -0.0384,-3.19425 -1.31343,-4.1001 l -80.41784,-56.956 c -0.82185,-0.58799 -1.8511,-0.77072 -2.81888,-0.5085 -0.97543,0.26218 -1.78195,0.94556 -2.22741,1.87521 l -33.90302,71.21885 c -0.5146,1.07267 -0.4762,2.30428 0.0922,3.32932 0.0691,0.14302 0.15363,0.27808 0.25348,0.40524 l 17.05137,23.2814 c 0.33027,0.44497 0.76039,0.81045 1.24429,1.05677 l 113.72179,56.96396 c 0.4762,0.23842 0.9908,0.35758 1.5054,0.35758 0.891,0 1.78195,-0.35758 2.44248,-1.04887 0.0768,-0.0874 0.15363,-0.16683 0.23047,-0.26217 0.53762,-0.67543 0.81416,-1.54151 0.77572,-2.42354 -0.046,-1.00114 -0.49922,-1.9388 -1.24428,-2.58241 z"
     id="path86"
     inkscape:connector-curvature="0"
     style="fill:#f2f2f2;stroke-width:1" />
  <path
     d="m 498.81892,184.50677 c 0.28128,0 0.55169,-0.15985 0.6867,-0.43725 l 27.56609,-56.65547 c 0.1909,-0.39225 0.0383,-0.86985 -0.34054,-1.06695 -0.37991,-0.19825 -0.84046,-0.0395 -1.03136,0.35229 l -27.56609,56.65547 c -0.1909,0.39224 -0.0383,0.86985 0.34054,1.06695 0.11102,0.0578 0.22877,0.0849 0.34466,0.0849 z"
     id="path88"
     inkscape:connector-curvature="0"
     style="fill:#536dfe;stroke-width:1" />
  <path
     d="m 513.41241,194.04182 c 0.28128,0 0.55169,-0.15986 0.6867,-0.43726 L 541.6652,136.9491 c 0.1909,-0.39225 0.0382,-0.86986 -0.34053,-1.06695 -0.38029,-0.19865 -0.84121,-0.0392 -1.03136,0.35229 l -27.56609,56.65546 c -0.1909,0.39225 -0.0382,0.86986 0.34054,1.06695 0.11101,0.0578 0.22877,0.0849 0.34465,0.0849 z"
     id="path90"
     inkscape:connector-curvature="0"
     style="fill:#536dfe;stroke-width:1" />
  <path
     d="m 525.70168,201.9877 c 0.28128,0 0.55169,-0.15985 0.6867,-0.43725 l 27.56609,-56.65547 c 0.1909,-0.39225 0.0383,-0.86985 -0.34054,-1.06695 -0.38029,-0.19826 -0.84046,-0.0396 -1.03136,0.35229 l -27.56609,56.65547 c -0.1909,0.39224 -0.0383,0.86985 0.34054,1.06695 0.11102,0.0578 0.22877,0.0849 0.34466,0.0849 z"
     id="path92"
     inkscape:connector-curvature="0"
     style="fill:#536dfe;stroke-width:1" />
  <path
     id="uuid-03f01c0a-1974-4ec8-8b69-52a915a70377-1088"
     d="m 482.19457,194.31312 c 9.53105,-2.913 18.70965,-0.18673 20.50066,6.08855 1.791,6.27526 -4.48337,13.72184 -14.01819,16.63455 -3.79335,1.21756 -7.81339,1.47763 -11.7238,0.75843 l -40.53415,11.81489 -4.95398,-19.79615 40.48545,-9.54567 c 2.90599,-2.80274 6.41868,-4.8446 10.24401,-5.9546 z"
     inkscape:connector-curvature="0"
     style="fill:#ffb6b6;stroke-width:1" />
  <path
     d="m 410.50005,124.15595 -6.35311,78.62633 56.90717,0.63302 11.04439,17.5932 c 0,0 -68.97474,41.31601 -89.68589,20.20486 -20.71115,-21.11115 -29.92651,-109.94888 -11.51252,-125.15527 18.41399,-15.20639 39.59996,8.09786 39.59996,8.09786 z"
     id="path95"
     inkscape:connector-curvature="0"
     style="fill:#e6e6e6;stroke-width:1" />
  <g
     id="g100"
     transform="matrix(1.0731333,0,0,1.1101695,191.36037,12.021877)"
     style="stroke-width:0.91617519">
    <path
       id="uuid-7eb47ac4-3db4-4d62-bd0a-b38893e38622-1089"
       d="m 377.91973,228.88223 c -9.23486,-0.69556 -16.36158,-6.02431 -15.91795,-11.90136 0.44363,-5.87705 8.2888,-10.07585 17.52685,-9.37881 3.69404,0.22783 7.27981,1.33698 10.4573,3.23471 l 39.09125,3.44127 -2.0059,18.30995 -38.32408,-5.33642 c -3.42715,1.40047 -7.1399,1.95964 -10.82747,1.63066 z"
       inkscape:connector-curvature="0"
       style="fill:#a0616a;stroke-width:0.91617519" />
    <path
       d="m 492.24326,142.86927 -6.38743,79.78554 c 0,0 -2.01215,17.19398 -28.78994,16.11605 -26.77779,-1.07793 -62.34577,-9.53066 -62.34577,-9.53066 l 1.28519,-18.61978 29.93142,1.62575 c 0,0 13.71019,-4.11598 16.58992,-1.99134 2.87973,2.12464 1.75596,4.85335 4.30553,1.39768 2.54957,-3.45567 1.0698,-5.43689 3.61303,-2.67106 2.54323,2.76583 3.29831,7.7702 4.39396,1.46292 1.09565,-6.30728 3.82435,-5.1835 3.82435,-5.1835 l -1.60184,-58.10689 c 0,0 6.50723,-28.10882 21.60469,-19.63837 15.09746,8.47044 13.57689,15.35366 13.57689,15.35366 z"
       id="path98"
       inkscape:connector-curvature="0"
       style="fill:#536dfe;stroke-width:0.91617519" />
  </g>
</svg>
