<?xml version="1.0" encoding="UTF-8" standalone="no"?>
<svg
   xmlns:dc="http://purl.org/dc/elements/1.1/"
   xmlns:cc="http://creativecommons.org/ns#"
   xmlns:rdf="http://www.w3.org/1999/02/22-rdf-syntax-ns#"
   xmlns:svg="http://www.w3.org/2000/svg"
   xmlns="http://www.w3.org/2000/svg"
   xmlns:sodipodi="http://sodipodi.sourceforge.net/DTD/sodipodi-0.dtd"
   xmlns:inkscape="http://www.inkscape.org/namespaces/inkscape"
   width="1000"
   height="600"
   viewBox="0 0 1000 600"
   version="1.1"
   id="svg84"
   sodipodi:docname="office_hours.svg"
   inkscape:version="0.92.5 (2060ec1f9f, 2020-04-08)">
  <metadata
     id="metadata90">
    <rdf:RDF>
      <cc:Work
         rdf:about="">
        <dc:format>image/svg+xml</dc:format>
        <dc:type
           rdf:resource="http://purl.org/dc/dcmitype/StillImage" />
        <dc:title></dc:title>
      </cc:Work>
    </rdf:RDF>
  </metadata>
  <defs
     id="defs88" />
  <sodipodi:namedview
     pagecolor="#ffffff"
     bordercolor="#666666"
     borderopacity="1"
     objecttolerance="10"
     gridtolerance="10"
     guidetolerance="10"
     inkscape:pageopacity="0"
     inkscape:pageshadow="2"
     inkscape:window-width="2560"
     inkscape:window-height="1403"
     id="namedview86"
     showgrid="false"
     inkscape:zoom="0.5326501"
     inkscape:cx="165.87481"
     inkscape:cy="221.5338"
     inkscape:window-x="0"
     inkscape:window-y="0"
     inkscape:window-maximized="1"
     inkscape:current-layer="svg84" />
  <path
     d="m 955.71411,358.23215 -3.13293,26.3858 -7.7754,65.53701 H 788.60426 c 1.21975,-14.68893 2.88729,-35.83168 4.66871,-58.65569 0.17558,-2.27951 0.35984,-4.57329 0.53532,-6.88132 4.46699,-57.37341 9.35509,-122.29788 9.35509,-122.29788 l 20.53553,4.04632 39.84232,7.83595 16.23535,3.19135 43.47565,8.56257 c 21.67632,4.25989 36.58651,37.45588 32.46189,72.2759 z"
     id="path2"
     inkscape:connector-curvature="0"
     style="fill:#f2f2f2;stroke-width:1" />
  <polygon
     points="710.5803,131.16867 696.93018,95.35764 725.93018,79.35764 742.57875,108.4915 "
     id="polygon4"
     style="fill:#ffb6b6;stroke-width:0.84274995"
     transform="matrix(1.1537774,0,0,1.220339,0,59.307335)" />
  <ellipse
     cx="813.10767"
     cy="139.45364"
     id="circle6"
     style="fill:#ffb6b6;stroke-width:1"
     rx="47.586464"
     ry="50.331734" />
  <path
     d="m 809.69085,150.70573 c -3.77852,-6.08242 -2.29547,-9.26376 -5.45882,-11.49905 -5e-5,-6e-5 -1.27297,-0.89951 -10.38334,-1.41234 v 0 c -2.03968,-15.52743 -4.58591,-17.41044 -4.58597,-17.4105 -2.93457,-2.17019 -7.28964,-1.46504 -9.99901,-0.13773 -5.73021,2.80727 -5.06588,8.87122 -8.92413,10.03163 -5.32984,1.60299 -15.02692,-7.43376 -15.98225,-17.77902 -0.77925,-8.43884 4.36106,-16.635004 6.39991,-16.20143 2.0215,0.429913 6.86135,-6.105332 9.47459,-6.004532 1.78463,0.06883 9.0764,-3.283346 11.03797,-3.021266 2.14219,0.286267 9.2054,4.184847 9.49973,3.294134 2.04537,-6.189572 1.44423,-7.90693 3.17975,-9.67763 3.07529,-3.137675 8.10614,-0.952682 15.99842,0.220357 16.23859,2.413537 19.07274,-3.249714 27.39468,0.588874 4.20384,1.93907 7.72141,7.168516 14.58499,17.548231 9.59864,14.515912 14.39794,21.773872 14.42873,30.239252 0.0314,8.63317 -3.92111,8.08514 -5.65728,20.86582 -1.9326,14.22703 2.17364,20.73244 -2.31231,25.35451 -3.46704,3.57229 -10.51418,4.42025 -14.21682,1.28505 -6.3393,-5.36773 1.95683,-18.32009 -5.05831,-27.7831 -4.30617,-5.80878 -12.96617,-8.39341 -16.9332,-5.52206 -4.48551,3.24663 -2.01449,12.77609 -5.16878,13.67975 -2.70111,0.77385 -6.66009,-5.59902 -7.31853,-6.65894 z"
     id="path8"
     inkscape:connector-curvature="0"
     style="fill:#2f2e41;stroke-width:1" />
  <path
     d="m 920.54141,348.93969 c -1.32729,24.00397 -6.59929,31.58223 -8.446,59.93068 -0.40338,6.22385 -0.64562,13.44816 -0.64562,22.06383 0,2.19636 0.0115,4.32004 0.0115,6.39485 0,4.41718 -0.08,8.59124 -0.56561,12.82549 -0.36845,3.38036 -1.0028,6.78515 -2.05292,10.37288 H 806.35265 c -0.0115,-0.0244 -0.0115,-0.0488 -0.0237,-0.0734 -0.59942,-2.75768 -0.98026,-5.3938 -1.2687,-7.91969 -0.0924,-0.80562 -0.17352,-1.59872 -0.24225,-2.37991 -0.0924,-0.91525 -0.17352,-1.818 -0.25352,-2.70882 -0.31211,-3.55138 -0.62309,-6.90731 -1.36222,-10.11666 -0.99153,-4.43028 -2.79205,-8.60374 -6.48437,-12.63063 -1.51095,-1.64758 -3.0219,-2.92869 -4.49905,-4.0513 -0.28844,-0.20796 -0.56561,-0.41532 -0.85406,-0.62268 -4.08442,-2.96565 -7.94912,-5.10124 -11.29553,-11.15407 -0.0575,-0.0852 -0.10361,-0.18293 -0.14985,-0.26815 -0.57689,-1.06184 -2.07657,-3.84454 -3.16161,-7.55382 -1.14251,-3.85647 -1.83433,-8.70147 -0.58817,-13.65552 2.96557,-11.73981 13.94899,-12.91129 22.9257,-24.77324 0.96899,-1.28111 1.92672,-2.6969 2.83825,-4.27118 4.06075,-6.9806 5.15707,-13.13057 6.44943,-20.44068 0.20732,-1.18399 0.3921,-2.35548 0.54196,-3.49 0.11606,-0.85448 0.21972,-1.69644 0.30084,-2.52648 0.71435,-6.96809 0.36844,-12.97206 -0.47324,-18.34144 -2.74585,-17.58528 -10.84595,-28.47061 -5.12326,-44.2498 1.80052,-4.95405 4.35033,-8.67644 6.92266,-11.86136 5.44552,-6.74881 11.04201,-11.12964 10.07302,-19.84243 -0.98139,-8.78669 -7.28097,-9.99511 -7.98405,-17.67109 -0.3583,-3.8803 0.84167,-7.96855 3.09177,-11.98351 v -0.0122 c 7.19983,-12.92379 25.17578,-24.8221 36.59751,-24.44372 2.1115,0.0614 3.98076,0.56131 5.5379,1.52542 5.64268,3.51443 3.28894,11.19042 11.931,21.95418 6.42578,7.99298 13.69435,11.19042 16.4526,12.70333 10.92596,6.029 19.81027,23.80912 25.84393,46.5439 0.0462,0.17102 0.0924,0.34144 0.1386,0.52497 3.72724,14.24125 6.35816,30.41075 7.66179,46.81203 0.55323,6.94365 0.87661,13.92426 0.94534,20.83097 0.0586,5.51595 -0.0575,10.30018 -0.29972,14.55886 z"
     id="path10"
     inkscape:connector-curvature="0"
     style="fill:#ffd002;stroke-width:1" />
  <g
     id="g18"
     transform="matrix(1.1537774,0,0,1.220339,0,59.307335)"
     style="stroke-width:0.84274995">
    <polygon
       points="707.84033,316.3176 710.38037,309.7678 714.64014,298.7678 731.33057,304.72776 729.52002,309.7678 728.38037,312.92747 725.73975,320.27756 722.68018,328.77756 703.01025,328.77756 706.31006,320.27756 "
       id="polygon12"
       style="fill:#ffb6b6;stroke-width:0.84274995" />
    <path
       d="m 790.84033,167.82737 c -0.0498,0.65039 -0.12012,1.37012 -0.19043,2.15039 -0.7793,7.93994 -2.62012,22.1499 -5.30957,38.35986 -1.41992,8.5498 -3.08008,17.66016 -4.9502,26.70996 -4.01953,19.52979 -9.01953,38.76025 -14.66992,51.3999 -1.00977,2.28027 -2.0498,4.34033 -3.11035,6.16016 -0.80957,1.39014 -1.66016,2.75977 -2.5498,4.10986 -2.87988,4.43018 -6.11035,8.63037 -9.45996,12.55029 -0.12988,0.16992 -0.28027,0.33008 -0.42969,0.5 -0.54004,0.63965 -1.10059,1.27002 -1.66016,1.8999 -2.74023,3.08984 -5.54004,5.96973 -8.25,8.60986 -3.2998,3.22021 -6.48047,6.07031 -9.33008,8.5 h -31.94043 l -0.12988,-0.0601 -4.59961,-2.04004 c 0,0 1.30957,-1.54004 3.5,-4.44971 0.4502,-0.59033 0.92969,-1.24023 1.4502,-1.9502 0.63965,-0.87012 1.33008,-1.83008 2.06934,-2.87012 1.54004,-2.17969 3.29004,-4.73975 5.16992,-7.63965 3.64062,-5.61035 7.79004,-12.51025 11.98047,-20.5 0.48047,-0.93018 0.96973,-1.87012 1.45996,-2.82031 0.01,-0.0298 0.0303,-0.0601 0.04,-0.0898 0.83008,-1.62012 1.65039,-3.29004 2.46973,-4.99023 6.9502,-14.45996 8.94043,-26.45996 9.51074,-30.34961 0.7998,-5.5 1.90918,-13.19043 1.60938,-21.65039 -0.2002,-5.57959 -1.00977,-11.47998 -2.93945,-17.33984 v -0.01 c -0.40039,-1.22998 -0.85059,-2.45996 -1.36035,-3.68018 -0.91016,-2.18994 -1.99023,-4.3501 -3.27051,-6.47998 -5.64941,-9.37988 -10.23926,-9.77002 -13.88965,-19.99023 -1.08008,-3.02979 -3.53027,-9.86963 -2.78027,-17.08984 v -0.01 c 0.0908,-0.89014 0.24023,-1.79004 0.44043,-2.69043 v -0.01 c 0.0498,-0.25 0.12012,-0.50977 0.19043,-0.75977 0.56934,-2.20996 1.50977,-4.40039 2.93945,-6.48047 2.79004,-4.03955 6.59961,-6.43994 10.00977,-7.86963 l 0.0107,-0.0102 c 3.93945,-1.63965 7.33984,-1.98975 8,-2.0498 14.60938,-1.2998 25.93945,10.97998 32.12988,17.68994 2.38965,2.58984 4.58008,4.76025 6.58008,6.52979 15.56934,13.90039 19.83984,5.02002 20.94922,0.43018 0.16992,-0.70996 0.26074,-1.31982 0.31055,-1.72021 z"
       id="path14"
       inkscape:connector-curvature="0"
       style="fill:#ffd002;stroke-width:0.84274995" />
    <path
       d="m 790.89014,167.30784 c 0,0.0498 -0.01,0.21973 -0.0498,0.5 0.0195,-0.15039 0.0303,-0.30029 0.04,-0.44043 0,-0.0298 0,-0.0498 0.01,-0.0596 z"
       id="path16"
       inkscape:connector-curvature="0"
       style="fill:#ffd002;stroke-width:0.84274995" />
  </g>
  <path
     d="M 820.87825,520.98306 H 202.3961 c -5.74635,0 -10.43019,4.94213 -10.43019,11.01999 0,6.08919 4.68384,11.03132 10.43019,11.03132 h 618.48215 c 5.74522,0 10.41892,-4.94213 10.41892,-11.03132 0,-6.07786 -4.6737,-11.01999 -10.41892,-11.01999 z"
     id="path20"
     inkscape:connector-curvature="0"
     style="fill:#e6e6e6;stroke-width:1" />
  <path
     d="M 683.62494,577.9487 H 339.63759 c -5.74579,0 -10.41837,4.94213 -10.41837,11.01941 0,6.07727 4.67257,11.03191 10.41837,11.03191 h 343.98736 c 5.74579,0 10.43019,-4.95465 10.43019,-11.03191 0,-6.07726 -4.6844,-11.01941 -10.43019,-11.01941 z"
     id="path22"
     inkscape:connector-curvature="0"
     style="fill:#e6e6e6;stroke-width:1" />
  <polygon
     points="283.34352,96.76248 247.84188,111.25294 235.06941,81.27476 268.85306,67.05703 "
     id="polygon24"
     style="fill:#ffb6b6;stroke-width:0.84274995"
     transform="matrix(1.1537774,0,0,1.220339,0,59.307335)" />
  <polygon
     points="283.34352,96.76248 247.84188,111.25294 235.06941,81.27476 268.85306,67.05703 "
     id="polygon26"
     style="opacity:0.1;stroke-width:0.84274995"
     transform="matrix(1.1537774,0,0,1.220339,0,59.307335)" />
  <path
     d="m 276.75904,144.6763 38.45318,46.86069 c 0,0 -26.75003,89.30056 -53.50007,97.25804 -26.75004,7.95747 -76.07042,46.86069 -76.07042,46.86069 l -61.85945,-42.43988 30.09379,-46.86069 c 0,0 72.72665,-105.21552 91.95325,-105.21552 19.22658,0 30.92972,3.53666 30.92972,3.53666 z"
     id="path28"
     inkscape:connector-curvature="0"
     style="fill:#ffd002;stroke-width:1" />
  <path
     d="m 224.80544,450.15495 h -89.51227 l -5.65932,-8.00173 -23.10535,-32.66981 -5.31656,-7.5154 c 0,0 -20.06253,-38.90321 -15.882832,-74.26977 4.179697,-35.36656 47.648502,-43.32404 47.648502,-43.32404 h 1.78892 l 53.21583,49.46009 -3.17656,46.02962 16.8525,29.6195 z"
     id="path30"
     inkscape:connector-curvature="0"
     style="fill:#2f2e41;stroke-width:1" />
  <polygon
     points="133.14986,320.2779 112.35603,320.2779 112.35603,289.48566 "
     id="polygon32"
     style="fill:#2f2e41;stroke-width:0.84274995"
     transform="matrix(1.1537774,0,0,1.220339,0,59.307335)" />
  <path
     d="m 671.08794,393.10868 -2.98425,16.37473 -7.40641,40.67154 h -148.7887 c 1.16187,-9.11579 2.75027,-22.23675 4.44714,-36.40106 0.16725,-1.41465 0.34277,-2.83813 0.50991,-4.27048 4.25501,-35.60531 8.91114,-75.89672 8.91114,-75.89672 l 19.56098,2.51111 37.95152,4.8629 15.46486,1.98053 41.41243,5.31383 c 20.64764,2.64364 34.85023,23.2447 30.92136,44.85362 z"
     id="path34"
     inkscape:connector-curvature="0"
     style="fill:#f2f2f2;stroke-width:1" />
  <path
     d="m 881.65252,450.15495 h -80.70144 c 1.22881,-1.52958 1.9226,-2.41374 1.9226,-2.41374 l 24.19212,-4.22633 49.84692,-8.70025 c 0,0 2.27372,6.2157 4.73981,15.34033 z"
     id="path36"
     inkscape:connector-curvature="0"
     style="fill:#2f2e41;stroke-width:1" />
  <polygon
     points="444.81392,140.36878 439.11853,99.94198 467.45495,95.76626 497.87302,138.78423 "
     id="polygon38"
     style="fill:#a0616a;stroke-width:0.84274995"
     transform="matrix(1.1537774,0,0,1.220339,0,59.307335)" />
  <polygon
     points="444.81392,140.36878 439.11853,99.94198 467.45495,95.76626 497.87302,138.78423 "
     id="polygon40"
     style="opacity:0.1;stroke-width:0.84274995"
     transform="matrix(1.1537774,0,0,1.220339,0,59.307335)" />
  <path
     id="uuid-ae755ff6-bb09-410e-86b1-7d1b81a37005-1080"
     d="m 366.26203,284.9436 c -4.50318,-13.73995 -14.85615,-22.41975 -23.12293,-19.38713 -8.26678,3.03262 -11.31577,16.62763 -6.80924,30.37184 1.72897,5.51637 4.68181,10.51459 8.6115,14.57645 l 19.77527,57.96189 25.51844,-10.39508 -22.20417,-56.03652 c 0.70937,-5.76484 0.1028,-11.62553 -1.76887,-17.09146 z"
     inkscape:connector-curvature="0"
     style="fill:#a0616a;stroke-width:1" />
  <path
     d="m 603.8263,258.19412 -0.0481,53.50067 -4.70624,19.76115 -9.68024,40.64499 -7.0469,37.38248 -5.24972,27.85116 -1.8725,9.94685 c -1.41279,0.9991 -2.81722,1.95397 -4.22154,2.87353 H 448.72827 c -6.94665,-4.41196 -10.83373,-7.84253 -10.83373,-7.84253 0,0 1.92265,-1.90982 4.12117,-4.97785 3.71158,-5.18119 8.20055,-13.66914 5.45034,-21.77696 -0.5768,-1.69764 -0.72726,-3.76655 -0.55175,-6.0742 1.12018,-15.22528 16.21723,-40.97224 16.21723,-40.97224 l -3.1264,-38.21354 -1.37095,-16.74601 9.66599,-81.65301 31.50652,-19.37195 5.43947,-0.55665 53.69231,-3.06801 22.19215,1.35268 1.01145,0.29185 21.68419,47.64761 z"
     id="path43"
     inkscape:connector-curvature="0"
     style="fill:#cccccc;stroke-width:1" />
  <g
     id="g49"
     transform="matrix(1.1537774,0,0,1.220339,0,59.307335)"
     style="stroke-width:0.84274995">
    <polygon
       points="525.35604,319.06075 525.41397,320.2779 502.22923,320.2779 501.20763,309.77232 501.18587,309.56218 507.75009,309.11297 524.82716,307.9465 525.12415,314.23531 "
       id="polygon45"
       style="fill:#ffb6b6;stroke-width:0.84274995" />
    <path
       d="m 531.12143,173.57645 9.73934,57.14315 -7.948,56.23024 -1.23891,8.75221 -2.18807,15.45405 -0.67376,4.75291 0.0218,0.51438 0.16663,3.85451 h -27.53188 l -1.01444,-10.50559 -0.0868,-0.94192 -2.07221,-21.51831 -0.0362,-0.36226 -4.39782,-45.63046 8.62176,-32.98031 0.63767,-2.42722 v -0.007 l 3.75119,-56.46939 -2.90535,-25.66256 -0.0289,-0.23915 c 0.0579,0.0363 0.1087,0.0725 0.16663,0.1087 0.15221,0.0942 0.30433,0.18838 0.4492,0.28983 16.92485,10.73748 27.01025,29.57509 26.56821,49.64435 z"
       id="path47"
       inkscape:connector-curvature="0"
       style="fill:#cccccc;stroke-width:0.84274995" />
  </g>
  <path
     d="m 479.6804,245.26114 -12.21556,-13.36349 c 0,0 -26.14973,12.4689 -27.45316,19.38654 -1.30343,6.91763 -47.47389,108.51931 -47.47389,108.51931 l -20.08705,-56.74419 -26.14686,18.46409 c 0,0 20.98017,88.09854 40.60115,92.23443 19.62097,4.13588 85.38152,-104.27313 85.38152,-104.27313 l 7.39384,-64.22356 z"
     id="path51"
     inkscape:connector-curvature="0"
     style="fill:#cccccc;stroke-width:1" />
  <path
     d="M 975.68048,408.87038 H 24.414114 C 10.949624,408.87038 0,420.4636 0,434.70486 c 0,14.24126 10.949613,25.82257 24.414114,25.82257 H 975.68048 c 13.46449,0 24.42542,-11.58071 24.42542,-25.82257 0,-14.24186 -10.96093,-25.83448 -24.42542,-25.83448 z"
     id="path53"
     inkscape:connector-curvature="0"
     style="fill:#e6e6e6;stroke-width:1" />
  <path
     d="m 598.25911,330.14906 -1.8494,91.28431 c -0.17903,8.83656 -7.00299,15.9012 -15.3595,15.9012 H 422.28749 c -8.15893,0 -14.89475,-6.74558 -15.34012,-15.36232 l -4.71815,-91.28431 c -0.48115,-9.30892 6.52581,-17.13632 15.34012,-17.13632 h 165.33027 c 8.6136,0 15.54404,7.48901 15.3595,16.59744 z"
     id="path55"
     inkscape:connector-curvature="0"
     style="fill:#3f3d56;stroke-width:1" />
  <ellipse
     cx="341.96207"
     cy="140.34946"
     id="circle57"
     style="fill:#ffb6b6;stroke-width:1"
     rx="37.98444"
     ry="40.17577" />
  <polygon
     points="241.32117,152.55077 244.94379,191.67503 269.57758,290.93471 248.29569,298.39388 212.34024,190.22598 207.37412,146.75458 "
     id="polygon59"
     style="fill:#ffb6b6;stroke-width:0.84274995"
     transform="matrix(1.1537774,0,0,1.220339,0,59.307335)" />
  <path
     d="m 267.125,330.14906 -1.8494,91.28431 c -0.17903,8.83656 -7.00299,15.9012 -15.3595,15.9012 H 91.153376 c -8.158926,0 -14.894747,-6.74558 -15.340117,-15.36232 l -4.718153,-91.28431 c -0.481149,-9.30892 6.525811,-17.13632 15.340116,-17.13632 H 251.7655 c 8.6136,0 15.54404,7.48901 15.3595,16.59744 z"
     id="path61"
     inkscape:connector-curvature="0"
     style="fill:#3f3d56;stroke-width:1" />
  <ellipse
     cx="315.55817"
     cy="423.91766"
     rx="29.998213"
     ry="14.033898"
     id="ellipse63"
     style="fill:#ffb6b6;stroke-width:1" />
  <path
     d="m 219.49724,252.77057 17.13675,-96.60013 c 0,0 47.6485,-7.07332 49.32037,9.72581 1.67187,16.79913 -1.19467,98.89869 -1.19467,98.89869 l -65.26245,-12.02436 z"
     id="path65"
     inkscape:connector-curvature="0"
     style="fill:#ffd002;stroke-width:1" />
  <path
     d="m 326.62887,146.66649 c 0,0 23.49709,-8.86989 33.40869,-13.6423 9.9116,-4.77242 29.60256,28.51489 30.0406,10.93475 0.43803,-17.58015 -6.36603,-24.95248 -6.36603,-24.95248 0,0 -1.69905,-38.459073 -38.33229,-33.650779 0,0 8.05769,-19.241499 -18.39209,-22.216845 -26.44978,-2.975345 -67.59906,64.581524 -63.91386,74.677534 3.6852,10.09601 8.10292,18.4428 -2.35241,29.23768 -10.45534,10.79487 -30.03321,71.71831 -15.13754,88.11236 14.89567,16.39406 15.8731,23.50809 5.66722,33.70726 -10.20588,10.19916 -34.32978,32.37598 -8.24627,36.22594 26.08352,3.84997 -2.38633,0.97446 17.05929,-17.11684 19.44564,-18.09129 47.8211,-17.3524 37.22614,-46.37843 -10.59496,-29.02603 7.81236,-70.62011 5.50911,-76.93011 -2.30325,-6.31001 5.16038,-46.37894 5.16038,-46.37894 0,0 17.37017,-2.69925 18.66905,8.37121 z"
     id="path67"
     inkscape:connector-curvature="0"
     style="fill:#2f2e41;stroke-width:1" />
  <g
     id="g75"
     transform="matrix(1.1537774,0,0,1.220339,0,59.307335)"
     style="stroke-width:0.84274995">
    <circle
       cx="451.19104"
       cy="75.49881"
       r="35.837769"
       id="circle69"
       style="fill:#a0616a;stroke-width:0.84274995" />
    <path
       d="m 454.05121,27.31743 c -1.037,0.60534 -2.42604,-0.31053 -2.75855,-1.46432 -0.33251,-1.1538 0.0548,-2.37882 0.43892,-3.51648 l 1.93363,-5.72716 c 1.37137,-4.06183 2.82687,-8.26559 5.79693,-11.35717 4.48283,-4.66624 11.6071,-5.85331 18.02037,-4.99332 8.2359,1.1044 16.36189,5.56405 20.19135,12.93866 3.82945,7.37462 2.19911,17.66485 -4.72046,22.26586 9.8619,11.30338 13.2996,23.9006 12.7568,38.89155 -0.5428,14.99095 -16.87927,28.78752 -27.53282,39.34806 -2.37913,-1.4422 -4.54204,-8.20095 -3.23373,-10.65626 1.3083,-2.45531 -0.5662,-5.29986 1.05409,-7.56146 1.62029,-2.2616 2.97587,1.33954 1.33779,-0.90922 -1.03366,-1.41901 3.00067,-4.68353 1.46421,-5.53283 -7.43161,-4.10794 -9.9033,-13.37111 -14.57083,-20.46464 -5.62991,-8.55611 -15.26549,-14.35039 -25.46249,-15.31167 -5.61717,-0.52953 -11.55014,0.42955 -16.15432,3.69062 -4.60418,3.26106 -7.5849,9.08853 -6.51724,14.62867 -2.76507,-2.80756 -4.14147,-6.92204 -3.62233,-10.82826 0.51914,-3.90621 2.92243,-7.51837 6.32483,-9.50626 -2.06881,-6.84142 -0.29652,-14.71105 4.50527,-20.00518 4.80179,-5.29413 24.28048,-4.39244 31.29074,-2.99911 l -0.54217,-0.93008 z"
       id="path71"
       inkscape:connector-curvature="0"
       style="fill:#2f2e41;stroke-width:0.84274995" />
    <path
       d="m 455.13987,53.47472 c 9.28487,1.0023 15.9888,9.04506 21.64971,16.47254 3.26282,4.28103 6.68059,9.00871 6.59868,14.39076 -0.0828,5.4414 -3.72095,10.10859 -5.45967,15.26538 -2.84199,8.42894 -0.0721,18.45744 6.69308,24.23289 -6.68479,1.26852 -13.91123,-3.74373 -15.06525,-10.44924 -1.34341,-7.80603 4.57394,-15.34005 3.87313,-23.22978 -0.61741,-6.95094 -6.09506,-12.30052 -10.75187,-17.49772 -4.65681,-5.19721 -9.03036,-12.09377 -6.88799,-18.73508 l -0.64983,-0.44975 z"
       id="path73"
       inkscape:connector-curvature="0"
       style="fill:#2f2e41;stroke-width:0.84274995" />
  </g>
  <g
     id="g80"
     transform="matrix(1.1537774,0,0,1.220339,0,59.307335)"
     style="stroke-width:0.84274995">
    <path
       id="uuid-aec20554-f6ec-4c5b-9d97-717cd04239bf-1081"
       d="m 593.94738,290.97732 c -9.19677,5.23093 -13.95249,14.21631 -10.62254,20.06865 3.32996,5.85234 13.48327,6.3548 22.68262,1.12078 3.70344,-2.04037 6.86441,-4.93798 9.21841,-8.4504 l 38.6872,-22.65576 -11.01865,-17.92815 -36.96889,24.23796 c -4.22349,0.22844 -8.33082,1.46525 -11.97815,3.60692 z"
       inkscape:connector-curvature="0"
       style="fill:#ffb6b6;stroke-width:0.84274995" />
    <path
       d="m 724.9347,124.84081 c -1.15613,-0.45818 -11.30029,-4.29973 -20.56133,0.77222 -10.63836,5.8263 -12.28141,19.12643 -12.85772,23.79133 -1.33125,10.77601 2.59074,13.19133 3.41866,24.10068 1.54899,20.4102 5.63336,-2.8739 -0.88939,6.44247 -2.2578,3.22481 -25.31723,53.19804 -38.03446,62.98648 -24.73342,19.03731 -40.43943,32.44418 -40.43943,32.44418 l 17.93045,19.47744 c 0,0 28.33331,-7.54935 53.37617,-23.81018 25.68825,-16.67995 38.53244,-25.0199 48.46938,-41.33509 0.85574,-1.40497 21.33113,-36.17595 10.33482,-74.6244 -2.50819,-8.76995 -7.10385,-24.83851 -20.74714,-30.24513 z"
       id="path78"
       inkscape:connector-curvature="0"
       style="fill:#ffd002;stroke-width:0.84274995" />
  </g>
  <path
     d="m 943.23856,330.14906 -1.8494,91.28431 c -0.17904,8.83656 -7.00299,15.9012 -15.3595,15.9012 H 767.26693 c -8.15892,0 -14.89474,-6.74558 -15.34011,-15.36232 l -4.71816,-91.28431 c -0.48115,-9.30892 6.52581,-17.13632 15.34012,-17.13632 h 165.33028 c 8.61359,0 15.54403,7.48901 15.3595,16.59744 z"
     id="path82"
     inkscape:connector-curvature="0"
     style="fill:#3f3d56;stroke-width:1" />
</svg>
