<?xml version="1.0" encoding="UTF-8" standalone="no"?>
<svg
   data-name="Layer 1"
   width="1000"
   height="600"
   viewBox="0 0 1000 599.99999"
   version="1.1"
   id="svg146"
   sodipodi:docname="glowy_resources.svg"
   inkscape:version="1.2.2 (732a01da63, 2022-12-09, custom)"
   xmlns:inkscape="http://www.inkscape.org/namespaces/inkscape"
   xmlns:sodipodi="http://sodipodi.sourceforge.net/DTD/sodipodi-0.dtd"
   xmlns="http://www.w3.org/2000/svg"
   xmlns:svg="http://www.w3.org/2000/svg"
   xmlns:rdf="http://www.w3.org/1999/02/22-rdf-syntax-ns#"
   xmlns:cc="http://creativecommons.org/ns#"
   xmlns:dc="http://purl.org/dc/elements/1.1/">
  <metadata
     id="metadata152">
    <rdf:RDF>
      <cc:Work
         rdf:about="">
        <dc:format>image/svg+xml</dc:format>
        <dc:type
           rdf:resource="http://purl.org/dc/dcmitype/StillImage" />
      </cc:Work>
    </rdf:RDF>
  </metadata>
  <defs
     id="defs150">
    <rect
       x="-2138.4558"
       y="3416.2004"
       width="3253.8994"
       height="1613.5604"
       id="rect40586-3" />
  </defs>
  <sodipodi:namedview
     pagecolor="#ffffff"
     bordercolor="#666666"
     borderopacity="1"
     objecttolerance="10"
     gridtolerance="10"
     guidetolerance="10"
     inkscape:pageopacity="0"
     inkscape:pageshadow="2"
     inkscape:window-width="1842"
     inkscape:window-height="1005"
     id="namedview148"
     showgrid="false"
     inkscape:zoom="0.5101848"
     inkscape:cx="399.85511"
     inkscape:cy="171.50648"
     inkscape:window-x="78"
     inkscape:window-y="38"
     inkscape:window-maximized="1"
     inkscape:current-layer="svg146"
     inkscape:showpageshadow="2"
     inkscape:pagecheckerboard="0"
     inkscape:deskcolor="#d1d1d1" />
  <path
     d="M 154.02898,293.23834 V 135.14512 a 8.10148,8.512715 0 1 1 16.20296,0 v 158.09322 a 8.10148,8.512715 0 0 1 -16.20296,0 z"
     id="path2"
     inkscape:connector-curvature="0"
     style="fill:#00052b;stroke-width:3;stroke:#43b4a0;stroke-opacity:0.83137256;fill-opacity:1;stroke-dasharray:none" />
  <path
     d="M 134.64331,293.23834 V 135.14512 a 8.1014769,8.5127118 0 1 1 16.20295,0 v 158.09322 a 8.1014769,8.5127118 0 0 1 -16.20295,0 z"
     id="path4"
     inkscape:connector-curvature="0"
     style="fill:#00052b;stroke-width:3;stroke:#43b4a0;stroke-opacity:0.83137256;fill-opacity:1;stroke-dasharray:none" />
  <path
     d="M 115.25763,293.23834 V 135.14512 a 8.1014769,8.5127118 0 1 1 16.20295,0 v 158.09322 a 8.1014769,8.5127118 0 0 1 -16.20295,0 z"
     id="path6"
     inkscape:connector-curvature="0"
     style="fill:#00052b;stroke-width:3;stroke:#43b4a0;stroke-opacity:0.83137256;fill-opacity:1;stroke-dasharray:none" />
  <path
     d="m 847.17318,545.7449 a 28.286307,29.722133 0 0 1 -9.57191,-1.74576 l -0.47357,-0.17933 0.21814,-1.10091 c -5.49974,-11.67528 -3.57717,-27.66988 4.92215,-40.82134 7.72736,-11.95556 19.47722,-20.6476 29.84367,-28.31594 a 8.0629022,8.4721791 0 0 1 12.55458,8.54835 l -3.70715,19.98491 c -2.67525,14.41746 -5.85797,28.06297 -15.29651,36.57212 a 28.82274,30.285797 0 0 1 -18.4894,7.0579 z"
     id="path8"
     inkscape:connector-curvature="0"
     style="fill:#00052b;stroke-width:3;stroke:#43b4a0;stroke-opacity:0.83137256;fill-opacity:1;stroke-dasharray:none" />
  <path
     d="m 871.45048,580.27912 a 21.551086,22.645029 0 0 1 -18.01246,-10.41644 l -0.26899,-0.43942 0.64084,-0.59379 c 1.65805,-9.50793 9.45888,-17.97907 19.93272,-21.62263 9.5199,-3.31102 20.02876,-2.76948 29.29438,-2.29326 v 0 a 6.1908477,6.5050982 0 0 1 3.84617,11.32732 l -10.42523,9.88796 c -7.57593,7.18379 -15.1315,13.67045 -24.24567,14.13481 q -0.38143,0.0161 -0.76176,0.0154 z"
     id="path10"
     inkscape:connector-curvature="0"
     style="fill:#00052b;stroke-width:3;stroke:#43b4a0;stroke-opacity:0.83137256;fill-opacity:1;stroke-dasharray:none" />
  <path
     d="m 839.09648,590.84941 c -1.53954,-12.04586 -3.12254,-24.24644 -2.04273,-36.42145 0.95908,-10.8127 4.03006,-21.37367 10.28219,-30.03295 a 46.890793,49.270992 0 0 1 11.9329,-11.61525 c 1.19329,-0.80907 2.29156,1.22231 1.10348,2.02785 a 44.987177,47.270749 0 0 0 -17.48982,22.66813 c -3.80778,10.40349 -4.41926,21.74417 -3.76307,32.79567 0.39682,6.68326 1.2378,13.3227 2.08527,19.95363 a 1.1615666,1.2205283 0 0 1 -0.76352,1.44446 1.0971714,1.1528644 0 0 1 -1.34473,-0.82015 z"
     id="path12"
     inkscape:connector-curvature="0"
     style="fill:#00052b;stroke-width:3;stroke:#43b4a0;stroke-opacity:0.83137256;fill-opacity:1;stroke-dasharray:none" />
  <path
     d="m 834.74565,597.774 c 7.41001,-14.08414 16.00504,-29.73704 31.36276,-34.73995 a 34.272962,36.012675 0 0 1 13.19166,-1.46314 c 1.40057,0.12973 1.05088,2.4488 -0.3472,2.31933 a 31.981251,33.604635 0 0 0 -21.05186,5.98269 c -5.93581,4.34005 -10.5575,10.37387 -14.46924,16.77247 -2.39607,3.91935 -4.54232,8.00492 -6.68898,12.08505 -0.68602,1.30393 -2.6912,0.3627 -1.99717,-0.95647 z"
     id="path14"
     inkscape:connector-curvature="0"
     style="fill:#00052b;stroke-width:3;stroke:#43b4a0;stroke-opacity:0.83137256;fill-opacity:1;stroke-dasharray:none" />
  <path
     d="m 831.41101,597.5678 7.48211,0.17985 -45.11365,-253.2384 -7.48211,1.48138 11.78037,65.69346 h -37.95361 l 11.78036,-65.69346 -7.48154,-1.48138 -44.73727,253.2384 7.10518,-0.17985 23.52006,-131.15913 h 57.58004 z m -79.35559,-140.88795 6.32419,-35.26695 h 41.44264 l 6.3242,35.26695 z"
     id="path16"
     inkscape:connector-curvature="0"
     style="fill:#00052b;stroke-width:3;stroke:#43b4a0;stroke-opacity:0.83137256;fill-opacity:1;stroke-dasharray:none" />
  <path
     d="m 504.70711,297.27203 v -83.16361 c 0,-2.46924 3.63425,-4.47805 8.10147,-4.47805 4.46723,0 8.10148,2.00881 8.10148,4.47805 v 83.16361 c 0,2.46923 -3.63424,4.47804 -8.10148,4.47804 -4.46723,0 -8.10147,-2.00881 -8.10147,-4.47804 z"
     id="path18"
     inkscape:connector-curvature="0"
     style="fill:#00052b;stroke-width:3;stroke:#43b4a0;stroke-opacity:0.83137256;fill-opacity:1;stroke-dasharray:none" />
  <path
     d="m 485.32143,297.27203 v -83.16361 c 0,-2.46924 3.63425,-4.47805 8.10147,-4.47805 4.46723,0 8.10148,2.00881 8.10148,4.47805 v 83.16361 c 0,2.46923 -3.63424,4.47804 -8.10148,4.47804 -4.46723,0 -8.10147,-2.00881 -8.10147,-4.47804 z"
     id="path20"
     inkscape:connector-curvature="0"
     style="fill:#00052b;stroke-width:3;stroke:#43b4a0;stroke-opacity:0.83137256;fill-opacity:1;stroke-dasharray:none" />
  <path
     d="m 465.93575,297.27203 v -83.16361 c 0,-2.46924 3.63426,-4.47805 8.10148,-4.47805 4.46722,0 8.10148,2.00881 8.10148,4.47805 v 83.16361 c 0,2.46923 -3.63424,4.47804 -8.10148,4.47804 -4.46723,0 -8.10148,-2.00881 -8.10148,-4.47804 z"
     id="path22"
     inkscape:connector-curvature="0"
     style="fill:#00052b;stroke-width:3;stroke:#43b4a0;stroke-opacity:0.83137256;fill-opacity:1;stroke-dasharray:none" />
  <path
     d="m 629.02328,236.11363 a 1.7351744,1.8232526 0 0 0 -0.75952,-1.25054 l -61.07697,-42.36751 a 4.576721,4.8090376 0 0 0 2.19202,-2.0178 h 5.5e-4 a 4.6435235,4.879231 0 0 0 -1.69476,-6.64492 l -5.01144,-3.04026 a 4.6426208,4.8782824 0 0 0 -6.32363,1.78052 4.5588168,4.7902246 0 0 0 -0.58658,1.99783 L 511.675,153.98797 a 26.687423,28.042089 0 0 0 -16.51597,-15.99922 v -13.48452 h -16.20295 v 13.4846 a 26.627749,27.979387 0 0 0 -18.51767,26.64675 v 3.64831 h 16.20296 a 10.416185,10.944916 0 0 0 20.83237,0 h 16.20295 v -3.64831 a 26.762014,28.120467 0 0 0 -0.46848,-5.21207 l 111.53321,77.36824 -46.33033,59.18799 c -0.35994,-10e-4 -0.7177,-0.005 -1.07993,-0.005 -3.69642,0 -7.2781,0.0918 -10.69084,0.24992 a 4.5796491,4.8121144 0 0 0 0.26448,-1.87737 4.6429333,4.8786108 0 0 0 -4.86395,-4.6047 l -5.77885,0.31642 a 4.6432226,4.8789148 0 0 0 -4.38246,5.11099 4.5511088,4.7821253 0 0 0 0.62729,2.15482 c -10.2184,1.14082 -16.84042,2.71379 -16.84042,3.51401 0,1.31133 17.78075,0.063 40.03552,0.002 a 1.7300356,1.8178531 0 0 0 2.96967,0.54756 l 0.42893,-0.54733 c 22.1892,0.065 39.89536,1.30547 39.89536,-0.003 0,-1.23383 -15.74232,-4.30304 -36.13961,-4.79522 l 45.79175,-58.49966 a 1.7369682,1.8251376 0 0 0 0.37525,-1.43046 z"
     id="path24"
     inkscape:connector-curvature="0"
     style="fill:#00052b;stroke-width:3;stroke:#43b4a0;stroke-opacity:0.83137256;fill-opacity:1;stroke-dasharray:none" />
  <path
     d="m 630.69381,598.17616 h -142.6043 a 10.882436,11.434833 0 0 1 -10.8694,-11.42234 V 340.83877 a 9.723462,10.21703 0 0 0 -9.71263,-10.20504 H 133.93979 a 9.723462,10.21703 0 0 0 -9.71261,10.20504 v 245.915 a 10.882922,11.435345 0 0 1 -10.86993,11.42239 h -4.87919 A 10.882922,11.435345 0 0 1 97.608087,586.75382 V 327.59353 a 26.069662,27.39297 0 0 1 26.040453,-27.36229 h 491.87539 a 26.07002,27.393347 0 0 1 26.04046,27.36229 v 259.16024 a 10.883408,11.435855 0 0 1 -10.87058,11.42239 z"
     id="path26"
     inkscape:connector-curvature="0"
     style="fill:#00052b;stroke-width:3;stroke:#43b4a0;stroke-opacity:0.83137256;fill-opacity:1;stroke-dasharray:none" />
  <rect
     x="477.79871"
     y="364.07626"
     width="163.1869"
     height="7.2966099"
     id="rect28"
     style="fill:#00052b;stroke-width:3;stroke:#43b4a0;stroke-opacity:0.83137256;fill-opacity:1;stroke-dasharray:none" />
  <rect
     x="477.79871"
     y="462.58047"
     width="163.1869"
     height="7.2966099"
     id="rect30"
     style="fill:#00052b;stroke-width:3;stroke:#43b4a0;stroke-opacity:0.83137256;fill-opacity:1;stroke-dasharray:none" />
  <path
     d="m 342.71657,299.03016 -4.69012,-2.0751 -3.21744,-24.7051 h -42.84544 l -3.48742,24.60416 -4.19606,2.20451 a 0.99648166,1.0470635 0 0 0 0.44567,1.98346 h 57.6043 a 0.9963775,1.0469541 0 0 0 0.38651,-2.01193 z"
     id="path32"
     inkscape:connector-curvature="0"
     style="fill:#00052b;stroke-width:3;stroke:#43b4a0;stroke-opacity:0.83137256;fill-opacity:1;stroke-dasharray:none" />
  <path
     d="M 418.85597,275.53689 H 208.38696 a 4.169807,4.3814685 0 0 1 -4.16044,-4.38144 v -31.18541 h 218.78989 v 31.18542 a 4.1698418,4.3815049 0 0 1 -4.16044,4.38143 z"
     id="path34"
     inkscape:connector-curvature="0"
     style="fill:#00052b;stroke-width:3;stroke:#43b4a0;stroke-opacity:0.83137256;fill-opacity:1;stroke-dasharray:none" />
  <path
     d="M 423.23643,254.70901 H 204.03441 V 121.27325 a 5.0323944,5.2878411 0 0 1 5.02675,-5.28173 H 418.2096 a 5.0324407,5.2878898 0 0 1 5.02682,5.28173 z"
     id="path36"
     inkscape:connector-curvature="0"
     style="fill:#00052b;stroke-width:3;stroke:#43b4a0;stroke-opacity:0.83137256;fill-opacity:1;stroke-dasharray:none" />
  <path
     d="M 410.14435,245.02424 H 217.12648 a 3.8794501,4.0763728 0 0 1 -3.87526,-4.07185 V 129.74814 a 3.8797047,4.0766404 0 0 1 3.87526,-4.07209 h 193.01787 a 3.8796931,4.0766282 0 0 1 3.87525,4.07209 v 111.20422 a 3.8794501,4.0763728 0 0 1 -3.87525,4.07188 z"
     id="path38"
     inkscape:connector-curvature="0"
     style="fill:#00052b;stroke-width:3;stroke:#43b4a0;stroke-opacity:0.83137256;fill-opacity:1;stroke-dasharray:none" />
  <path
     d="m 626.5205,138.44217 a 12.760219,13.407935 0 0 1 14.57285,13.71917 l 42.31876,17.11601 -19.17307,14.39392 -37.24712,-18.46042 a 12.82936,13.480585 0 0 1 -0.47137,-26.76871 z"
     id="path40"
     inkscape:connector-curvature="0"
     style="fill:#00052b;stroke-width:3;stroke:#43b4a0;stroke-opacity:0.83137256;fill-opacity:1;stroke-dasharray:none" />
  <path
     d="m 787.20487,130.03999 7.15932,13.67719 a 37.377634,39.27494 0 0 1 -12.6876,22.14619 c -10.96121,9.71373 -68.27421,45.89145 -68.27421,45.89145 l -72.35485,-38.16772 12.6575,-17.67368 56.80548,20.00365 v 0 a 186.06418,195.50888 0 0 1 74.26081,-45.10966 z"
     id="path42"
     inkscape:connector-curvature="0"
     style="fill:#00052b;stroke-width:3;stroke:#43b4a0;stroke-opacity:0.83137256;fill-opacity:1;stroke-dasharray:none" />
  <ellipse
     cx="773.8924"
     cy="337.02844"
     rx="56.467987"
     ry="19.333656"
     id="ellipse44"
     style="fill:#00052b;stroke-width:3;stroke:#43b4a0;stroke-opacity:0.83137256;fill-opacity:1;stroke-dasharray:none" />
  <polygon
     points="559.217,447.105 546.261,443.524 553.909,391.846 573.031,397.133 "
     id="polygon46"
     style="fill:#00052b;stroke-width:2.52873451;stroke:#43b4a0;stroke-opacity:0.83137256;fill-opacity:1;stroke-dasharray:none"
     transform="matrix(1.1573538,0,0,1.2161017,-5.6590498e-4,37.458741)" />
  <path
     d="m 647.01753,597.56779 -48.34902,-14.04363 0.16897,-0.64259 a 19.525601,20.51673 0 0 1 24.02032,-14.30848 l 10e-4,3.4e-4 29.52988,8.57748 z"
     id="path48"
     inkscape:connector-curvature="0"
     style="fill:#00052b;stroke-width:3;stroke:#43b4a0;stroke-opacity:0.83137256;fill-opacity:1;stroke-dasharray:none" />
  <polygon
     points="521.653,447.273 509.356,441.843 524.448,391.831 542.596,399.844 "
     id="polygon50"
     style="fill:#00052b;stroke-width:2.52873451;stroke:#43b4a0;stroke-opacity:0.83137256;fill-opacity:1;stroke-dasharray:none"
     transform="matrix(1.1573538,0,0,1.2161017,-5.6590498e-4,37.458741)" />
  <path
     d="m 601.27463,597.56779 -45.8877,-21.29119 0.25626,-0.60988 a 19.525613,20.516742 0 0 1 25.74708,-10.48099 l 10e-4,5.3e-4 28.02661,13.00402 z"
     id="path52"
     inkscape:connector-curvature="0"
     style="fill:#00052b;stroke-width:3;stroke:#43b4a0;stroke-opacity:0.83137256;fill-opacity:1;stroke-dasharray:none" />
  <path
     d="m 817.83913,289.75967 c 0,0 7.54297,24.55674 -38.73812,55.61241 l -59.605,62.40884 -61.93289,155.66832 -36.7686,-17.32094 7.21141,-20.22628 4.83896,-13.57215 2.4757,-6.94376 2.65381,-7.44322 39.3637,-110.40585 33.06549,-60.8334 0.9592,-33.00922 8.13323,-23.26841 59.00588,-22.00036 z"
     id="path54"
     inkscape:connector-curvature="0"
     style="fill:#00052b;stroke-width:3;stroke:#43b4a0;stroke-opacity:0.83137256;fill-opacity:1;stroke-dasharray:none" />
  <path
     d="m 787.74793,290.97577 c 0,0 7.54297,24.55675 -38.73812,55.61241 l -59.605,62.40884 -61.93289,155.66832 -36.7686,-17.32093 7.21141,-20.22628 4.83896,-13.57216 2.4757,-6.94376 2.65381,-7.44322 39.3637,-110.40585 11.07116,-20.36856 a 353.0862,371.00902 0 0 1 52.82912,-73.95744 l 10.8532,-11.78871 1.15736,-18.24153 25.25295,-14.75515 z"
     id="path56"
     inkscape:connector-curvature="0"
     style="fill:#00052b;stroke-width:3;stroke:#43b4a0;stroke-opacity:0.83137256;fill-opacity:1;stroke-dasharray:none" />
  <path
     d="m 752.09158,170.75708 18.51766,-41.34746 32.31511,-4.63185 c 0,0 25.23341,33.77968 18.60847,81.24626 -2.48436,17.79996 -4.50882,35.52111 -4.62942,51.07627 -0.032,4.13894 3.41382,5.98708 3.47206,9.72881 0.0572,3.67568 -6.53117,9.66314 -4.62942,12.16102 a 20.288899,21.318773 0 0 1 4.62942,12.16101 c -2.29324,5.73537 -71.70502,-25.33626 -100.87966,-20.72516 z"
     id="path58"
     inkscape:connector-curvature="0"
     style="fill:#00052b;stroke-width:3;stroke:#43b4a0;stroke-opacity:0.83137256;fill-opacity:1;stroke-dasharray:none" />
  <ellipse
     cx="334.88977"
     cy="716.82141"
     transform="matrix(0.49239312,-0.87037291,0.84814407,0.52976564,0,0)"
     id="circle60"
     style="fill:#00052b;stroke-width:3.00141914;stroke:#43b4a0;stroke-opacity:0.83137256;fill-opacity:1;stroke-dasharray:none"
     rx="30.331745"
     ry="29.623022" />
  <path
     d="m 791.5521,77.241048 c -0.056,0.808143 -0.13334,1.878426 -0.22245,3.089286 a 15.266654,16.041597 0 0 0 2.5448,9.339541 c 1.63516,2.905757 -0.31616,20.455815 -0.31616,20.455815 47.87774,-35.067913 10.04731,-70.299129 -4.75095,-67.167315 0.30896,-4.459602 -11.76012,-2.692923 -11.76012,-2.692923 -4.59865,-7.525018 -14.6774,2.463822 -14.6774,2.463822 l 1.94488,-3.437834 c -7.82487,2.091354 -15.55889,27.50256 -15.55889,27.50256 2.65372,10.962753 43.10532,5.987446 42.79629,10.447048 z"
     id="path62"
     inkscape:connector-curvature="0"
     style="fill:#00052b;stroke-width:3;stroke:#43b4a0;stroke-opacity:0.83137256;fill-opacity:1;stroke-dasharray:none" />
  <path
     d="m 605.8198,187.02225 a 268.33192,281.95258 0 0 0 38.56679,-75.63057 6.8923662,7.2422261 0 0 0 -3.25477,-8.7181 L 584.83196,70.975633 a 6.8027523,7.1480633 0 0 0 -5.96799,-0.254577 6.9189854,7.2701964 0 0 0 -3.9428,4.854443 163.92181,172.24256 0 0 1 -35.95606,70.511811 6.9170409,7.2681533 0 0 0 -1.66322,6.13798 6.8027176,7.1480267 0 0 0 3.50724,5.08017 l 56.29994,31.69812 a 6.8923315,7.2421895 0 0 0 8.71073,-1.98133 z"
     id="path64"
     inkscape:connector-curvature="0"
     style="fill:#00052b;stroke-width:3;stroke:#43b4a0;stroke-opacity:0.83137256;fill-opacity:1;stroke-dasharray:none" />
  <path
     d="m 601.9779,183.98881 a 2.0801467,2.1857361 0 0 1 -2.59843,0.56387 l -56.30021,-31.69864 a 1.995903,2.097216 0 0 1 -1.0454,-1.50986 2.1116384,2.2188262 0 0 1 0.52065,-1.89857 168.746,177.31163 0 0 0 37.01543,-72.589401 2.1122981,2.2195193 0 0 1 1.21434,-1.50648 1.9974192,2.0988091 0 0 1 1.77869,0.07725 l 56.2989,31.697771 a 2.0797648,2.1853347 0 0 1 0.99259,2.58732 263.52681,276.90355 0 0 1 -37.87656,74.27673 z"
     id="path66"
     inkscape:connector-curvature="0"
     style="fill:#00052b;stroke-width:3;stroke:#43b4a0;stroke-opacity:0.83137256;fill-opacity:1;stroke-dasharray:none" />
  <path
     d="m 582.28105,105.54292 38.83177,23.91602 c 3.86356,2.37953 7.36226,-3.92466 3.50483,-6.30039 L 585.78588,99.242469 c -3.86358,-2.379521 -7.36228,3.924661 -3.50483,6.300421 z"
     id="path68"
     inkscape:connector-curvature="0"
     style="fill:#00052b;stroke-width:3;stroke:#43b4a0;stroke-opacity:0.83137256;fill-opacity:1;stroke-dasharray:none" />
  <path
     d="m 575.33693,118.92004 38.83176,23.91603 c 3.86357,2.37952 7.36227,-3.92466 3.50483,-6.30041 l -38.83177,-23.91608 c -3.86356,-2.37952 -7.36227,3.92467 -3.50482,6.30042 z"
     id="path70"
     inkscape:connector-curvature="0"
     style="fill:#00052b;stroke-width:3;stroke:#43b4a0;stroke-opacity:0.83137256;fill-opacity:1;stroke-dasharray:none" />
  <path
     d="m 567.23545,133.51326 38.83177,23.91602 c 3.86356,2.37952 7.36226,-3.92466 3.50483,-6.3004 l -38.83177,-23.91607 c -3.86358,-2.37952 -7.36228,3.92466 -3.50483,6.30042 z"
     id="path72"
     inkscape:connector-curvature="0"
     style="fill:#00052b;stroke-width:3;stroke:#43b4a0;stroke-opacity:0.83137256;fill-opacity:1;stroke-dasharray:none" />
  <path
     d="m 559.13397,145.67428 38.83177,23.91602 c 3.86356,2.37952 7.36227,-3.92467 3.50482,-6.3004 L 562.6388,139.37382 c -3.86357,-2.37952 -7.36227,3.92467 -3.50483,6.30042 z"
     id="path74"
     inkscape:connector-curvature="0"
     style="fill:#00052b;stroke-width:3;stroke:#43b4a0;stroke-opacity:0.83137256;fill-opacity:1;stroke-dasharray:none" />
  <path
     d="m 736.15675,286.35094 14.57841,34.44666 a 5.1717861,5.4343085 0 0 1 -0.36904,5.16049 5.1842508,5.4474059 0 0 1 -5.25439,2.45554 4.7771979,5.0196908 0 0 1 -1.00487,-0.2817 5.221587,5.4866373 0 0 1 -2.88927,-2.88702 L 726.6392,290.79824 a 5.2080973,5.4724628 0 1 1 9.51754,-4.44728 z"
     id="path76"
     inkscape:connector-curvature="0"
     style="fill:#00052b;stroke-width:3;stroke:#43b4a0;stroke-opacity:0.83137256;fill-opacity:1;stroke-dasharray:none" />
  <path
     d="m 749.55947,318.01963 2.92066,6.95226 1.49338,9.85635 a 2.8366164,2.9806044 0 0 1 -5.00984,2.34063 l -6.04362,-7.90139 -2.87812,-6.80056 z"
     id="path78"
     inkscape:connector-curvature="0"
     style="fill:#00052b;stroke-width:3;stroke:#43b4a0;stroke-opacity:0.83137256;fill-opacity:1;stroke-dasharray:none" />
  <path
     d="m 723.39948,276.76723 2.08914,13.79074 a 2.8382136,2.9822827 0 0 0 3.95643,2.25648 l 2.07111,-0.96778 3.9973,9.44505 a 1.1573538,1.2161017 0 0 0 2.115,-0.98828 l -3.9973,-9.44506 2.07112,-0.96777 a 2.8418824,2.9861377 0 0 0 1.44481,-3.93095 2.8565344,3.0015335 0 0 0 -0.38945,-0.6674 l -8.34637,-10.8669 a 2.8384219,2.9825015 0 0 0 -5.01179,2.34187 z"
     id="path80"
     inkscape:connector-curvature="0"
     style="fill:#00052b;stroke-width:3;stroke:#43b4a0;stroke-opacity:0.83137256;fill-opacity:1;stroke-dasharray:none" />
  <path
     d="m 729.4473,301.65876 a 12.760197,13.40791 0 0 1 16.97905,-10.21728 l 28.77896,-36.82143 6.96898,23.65241 -28.39741,31.34007 a 12.82936,13.480585 0 0 1 -24.32958,-7.95377 z"
     id="path82"
     inkscape:connector-curvature="0"
     style="fill:#00052b;stroke-width:3;stroke:#43b4a0;stroke-opacity:0.83137256;fill-opacity:1;stroke-dasharray:none" />
  <path
     d="m 765.67776,299.26612 -12.67517,-19.23798 35.99265,-50.42597 -18.54158,-41.74877 1.35011,-49.65969 15.32182,-2.97401 0.19022,0.10023 a 37.657297,39.568799 0 0 1 16.31782,19.9717 c 3.82231,10.04052 12.35485,47.73257 17.10099,69.30584 a 23.933105,25.147961 0 0 1 -6.43549,23.57918 z"
     id="path84"
     inkscape:connector-curvature="0"
     style="fill:#00052b;stroke-width:3;stroke:#43b4a0;stroke-opacity:0.83137256;fill-opacity:1;stroke-dasharray:none" />
  <path
     d="m 408.79284,206.30917 a 17.034571,17.899253 0 0 0 -0.10509,2.81619 l -64.89612,49.6095 -17.82849,-8.2907 -15.42441,26.6368 30.20443,17.89999 a 12.945824,13.602961 0 0 0 15.40547,-2.11723 l 65.31574,-67.03556 a 16.98669,17.848944 0 1 0 -12.67153,-19.51902 z"
     id="path86"
     inkscape:connector-curvature="0"
     style="fill:#00052b;stroke-width:3;stroke:#43b4a0;stroke-opacity:0.83137256;fill-opacity:1;stroke-dasharray:none" />
  <path
     d="m 341.69299,260.5484 -18.92498,33.13634 a 7.2820704,7.6517118 0 0 1 -10.86523,1.97601 l -28.33561,-24.45266 a 20.223659,21.250222 0 0 1 20.91434,-36.37758 l 33.75949,14.71377 a 7.2820704,7.6517118 0 0 1 3.45196,11.00415 z"
     id="path88"
     inkscape:connector-curvature="0"
     style="fill:#00052b;stroke-width:3;stroke:#43b4a0;stroke-opacity:0.83137256;fill-opacity:1;stroke-dasharray:none" />
  <rect
     x="-297.7016"
     y="-548.56555"
     width="37.096024"
     height="64.593849"
     transform="scale(-1)"
     id="rect90"
     style="fill:#00052b;stroke-width:3;stroke:#43b4a0;stroke-opacity:0.83137256;fill-opacity:1;stroke-dasharray:none" />
  <rect
     x="-259.18088"
     y="530.18091"
     width="8.7764654"
     height="109.34419"
     transform="matrix(0.54249722,-0.8400576,0.81422422,0.58055054,0,0)"
     id="rect92"
     style="fill:#00052b;stroke-width:3.00158781;stroke:#43b4a0;stroke-opacity:0.83137256;fill-opacity:1;stroke-dasharray:none" />
  <rect
     x="-170.02049"
     y="574.87256"
     width="109.34421"
     height="8.7764645"
     transform="matrix(0.81422216,-0.58055342,0.5425001,0.84005573,0,0)"
     id="rect94"
     style="fill:#00052b;stroke-width:3.00158784;stroke:#43b4a0;stroke-opacity:0.83137256;fill-opacity:1;stroke-dasharray:none" />
  <ellipse
     cx="382.49249"
     cy="585.31726"
     id="circle96"
     style="fill:#00052b;stroke-width:3;stroke:#43b4a0;stroke-opacity:0.83137256;fill-opacity:1;stroke-dasharray:none"
     rx="11.658755"
     ry="12.25056" />
  <ellipse
     cx="278.6236"
     cy="585.31726"
     id="circle98"
     style="fill:#00052b;stroke-width:3;stroke:#43b4a0;stroke-opacity:0.83137256;fill-opacity:1;stroke-dasharray:none"
     rx="11.658755"
     ry="12.25056" />
  <ellipse
     cx="175.81458"
     cy="585.31726"
     id="circle100"
     style="fill:#00052b;stroke-width:3;stroke:#43b4a0;stroke-opacity:0.83137256;fill-opacity:1;stroke-dasharray:none"
     rx="11.658755"
     ry="12.25056" />
  <rect
     x="274.38406"
     y="521.8371"
     width="8.4790983"
     height="63.480156"
     id="rect102"
     style="fill:#00052b;stroke-width:3;stroke:#43b4a0;stroke-opacity:0.83137256;fill-opacity:1;stroke-dasharray:none" />
  <rect
     x="-287.10269"
     y="-512.92755"
     width="15.898303"
     height="85.753906"
     transform="scale(-1)"
     id="rect104"
     style="fill:#00052b;stroke-width:3;stroke:#43b4a0;stroke-opacity:0.83137256;fill-opacity:1;stroke-dasharray:none" />
  <path
     d="m 233.5784,440.53793 v -20.04639 a 13.263506,13.936769 0 0 1 13.24858,-13.92109 h 71.01241 a 13.263506,13.936769 0 0 1 13.24853,13.92109 v 20.04637 a 13.263518,13.936781 0 0 1 -13.24858,13.92108 H 246.82698 A 13.263518,13.936781 0 0 1 233.5784,440.53793 Z"
     id="path106"
     inkscape:connector-curvature="0"
     style="fill:#00052b;stroke-width:3;stroke:#43b4a0;stroke-opacity:0.83137256;fill-opacity:1;stroke-dasharray:none" />
  <polygon
     points="312.641,444.129 329.609,444.128 337.683,400.117 312.639,400.118 "
     id="polygon108"
     style="fill:#00052b;stroke-width:2.52873451;stroke:#43b4a0;stroke-opacity:0.83137256;fill-opacity:1;stroke-dasharray:none"
     transform="matrix(1.1573538,0,0,1.2161017,-5.6590498e-4,37.458741)" />
  <path
     d="m 356.82717,597.56779 63.32462,-0.002 v -0.84161 a 24.647158,25.898259 0 0 0 -24.64691,-25.8986 h -0.002 l -38.67645,0.001 z"
     id="path110"
     inkscape:connector-curvature="0"
     style="fill:#00052b;stroke-width:3;stroke:#43b4a0;stroke-opacity:0.83137256;fill-opacity:1;stroke-dasharray:none" />
  <path
     d="m 391.20954,544.37481 39.15236,-92.25407 a 32.176149,33.809426 0 0 0 -14.12666,-43.40078 l -84.92315,-47.85048 -38.75227,-3.46346 -35.74632,-3.41413 -0.25773,0.45861 c -0.3297,0.58519 -8.01546,14.53431 -2.82019,29.82976 3.94079,11.6018 14.19122,20.664 30.46657,26.93502 37.98847,14.63621 81.87265,27.14549 98.97674,31.84343 a 5.5281701,5.8087826 0 0 1 3.54213,2.96209 5.6040346,5.8884981 0 0 1 0.31443,4.71109 l -36.37403,85.8695 a 7.2084858,7.574392 0 0 0 6.10225,10.14872 l 27.17902,2.07938 q 0.34613,0.0345 0.68911,0.0345 a 7.2037175,7.5693817 0 0 0 6.57774,-4.4892 z"
     id="path112"
     inkscape:connector-curvature="0"
     style="fill:#00052b;stroke-width:3;stroke:#43b4a0;stroke-opacity:0.83137256;fill-opacity:1;stroke-dasharray:none" />
  <polygon
     points="301.568,444.129 318.536,444.128 326.61,400.117 301.566,400.118 "
     id="polygon114"
     style="fill:#00052b;stroke-width:2.52873451;stroke:#43b4a0;stroke-opacity:0.83137256;fill-opacity:1;stroke-dasharray:none"
     transform="matrix(1.1573538,0,0,1.2161017,-5.6590498e-4,37.458741)" />
  <path
     d="m 344.01181,597.56779 63.32461,-0.002 v -0.84161 a 24.647158,25.898259 0 0 0 -24.64689,-25.8986 h -0.002 l -38.67644,0.001 z"
     id="path116"
     inkscape:connector-curvature="0"
     style="fill:#00052b;stroke-width:3;stroke:#43b4a0;stroke-opacity:0.83137256;fill-opacity:1;stroke-dasharray:none" />
  <path
     d="m 376.79228,549.4245 39.15236,-92.25406 a 32.176149,33.809426 0 0 0 -14.12666,-43.40077 l -84.92315,-47.85049 -38.75226,-3.46346 -27.9983,-2.55195 0.003,-0.40358 c -0.32969,0.58519 -8.01546,14.53433 -2.82017,29.82976 3.9408,11.60182 6.18162,20.664 22.45697,26.93502 37.98847,14.63623 81.87265,27.14551 98.97673,31.84343 a 5.5282627,5.80888 0 0 1 3.54214,2.9621 5.6040809,5.8885467 0 0 1 0.31444,4.71108 l -36.37404,85.86951 a 7.2084974,7.5744042 0 0 0 6.10224,10.14871 l 27.17902,2.07938 q 0.34614,0.0345 0.68912,0.0345 a 7.2037175,7.5693817 0 0 0 6.57773,-4.48922 z"
     id="path118"
     inkscape:connector-curvature="0"
     style="fill:#00052b;stroke-width:3;stroke:#43b4a0;stroke-opacity:0.83137256;fill-opacity:1;stroke-dasharray:none" />
  <ellipse
     cx="-62.149323"
     cy="337.75015"
     transform="matrix(0.22074346,-0.97533191,0.97016838,0.24243208,0,0)"
     id="circle120"
     style="fill:#00052b;stroke-width:3.00037286;stroke:#43b4a0;stroke-opacity:0.83137256;fill-opacity:1;stroke-dasharray:none"
     rx="41.237461"
     ry="39.45422" />
  <path
     d="m 449.57702,301.33581 a 268.33192,281.95258 0 0 0 38.5668,-75.63057 6.8923662,7.2422261 0 0 0 -3.25477,-8.7181 l -56.29986,-31.69795 a 6.8027523,7.1480633 0 0 0 -5.96798,-0.25457 6.9189854,7.2701964 0 0 0 -3.94281,4.85444 163.92181,172.24256 0 0 1 -35.95606,70.51181 6.9170409,7.2681533 0 0 0 -1.66322,6.13798 6.8027176,7.1480267 0 0 0 3.50724,5.08017 l 56.29994,31.69812 a 6.8923315,7.2421895 0 0 0 8.71072,-1.98133 z"
     id="path122"
     inkscape:connector-curvature="0"
     style="fill:#00052b;stroke-width:3;stroke:#43b4a0;stroke-opacity:0.83137256;fill-opacity:1;stroke-dasharray:none" />
  <path
     d="m 445.73513,298.30237 a 2.0801467,2.1857361 0 0 1 -2.59843,0.56387 L 386.83649,267.1676 a 1.995903,2.097216 0 0 1 -1.0454,-1.50986 2.1116384,2.2188262 0 0 1 0.52065,-1.89857 168.746,177.31163 0 0 0 37.01543,-72.5894 2.1122981,2.2195193 0 0 1 1.21434,-1.50648 1.9974192,2.0988091 0 0 1 1.77869,0.0773 l 56.2989,31.69777 a 2.0797648,2.1853347 0 0 1 0.99259,2.58732 263.52681,276.90355 0 0 1 -37.87656,74.27673 z"
     id="path124"
     inkscape:connector-curvature="0"
     style="fill:#00052b;stroke-width:3;stroke:#43b4a0;stroke-opacity:0.83137256;fill-opacity:1;stroke-dasharray:none" />
  <path
     d="m 426.03828,219.85648 38.83177,23.91602 c 3.86355,2.37952 7.36226,-3.92466 3.50483,-6.3004 l -38.83177,-23.91607 c -3.86358,-2.37952 -7.36228,3.92466 -3.50483,6.30042 z"
     id="path126"
     inkscape:connector-curvature="0"
     style="fill:#00052b;stroke-width:3;stroke:#43b4a0;stroke-opacity:0.83137256;fill-opacity:1;stroke-dasharray:none" />
  <path
     d="m 419.09416,233.2336 38.83176,23.91603 c 3.86357,2.37952 7.36227,-3.92468 3.50483,-6.30041 l -38.83177,-23.91608 c -3.86357,-2.37952 -7.36227,3.92467 -3.50482,6.30042 z"
     id="path128"
     inkscape:connector-curvature="0"
     style="fill:#00052b;stroke-width:3;stroke:#43b4a0;stroke-opacity:0.83137256;fill-opacity:1;stroke-dasharray:none" />
  <path
     d="m 413.6383,246.55866 35.3155,22.0293 c 3.51372,2.1918 7.27165,-2.33967 3.76351,-4.528 l -35.3155,-22.0293 c -3.51372,-2.19181 -7.27165,2.33966 -3.76351,4.528 z"
     id="path130"
     inkscape:connector-curvature="0"
     style="fill:#00052b;stroke-width:3;stroke:#43b4a0;stroke-opacity:0.83137256;fill-opacity:1;stroke-dasharray:none" />
  <path
     d="m 402.8912,259.98783 38.83177,23.91603 c 3.86356,2.37952 7.36227,-3.92467 3.50482,-6.3004 l -38.83175,-23.91608 c -3.86358,-2.37952 -7.36228,3.92466 -3.50484,6.30042 z"
     id="path132"
     inkscape:connector-curvature="0"
     style="fill:#00052b;stroke-width:3;stroke:#43b4a0;stroke-opacity:0.83137256;fill-opacity:1;stroke-dasharray:none" />
  <path
     d="m 336.64124,364.21828 -77.85975,-0.48929 -0.0212,-0.58192 c -1.48454,-41.04819 3.28982,-78.23192 14.59605,-113.67464 0.15994,-1.32654 0.33258,-2.74453 0.50211,-4.1364 1.93128,-15.85683 3.46471,-28.44657 17.81494,-33.13521 a 10.20182,10.719669 0 0 1 -2.02762,-5.75748 9.9685665,10.474576 0 0 1 2.48252,-7.66121 9.5862693,10.072873 0 0 1 6.65789,-3.41316 l 27.7132,-0.99164 a 6.4861813,6.815423 0 0 1 4.02361,1.43342 11.06281,11.624363 0 0 1 3.22172,14.68705 c -0.32638,0.68287 -0.45124,0.99403 -0.49899,1.12941 0.98527,5.42381 3.90861,11.8665 7.00175,18.68449 4.42938,9.76208 9.44956,20.82575 10.74025,32.66255 a 56.857496,59.74361 0 0 1 -0.85785,19.15238 35.921196,37.744573 0 0 0 -0.39529,10.27987 c 0.25317,5.0853 0.49187,9.88676 -2.2435,14.53028 -0.69736,1.25886 -1.49531,2.60083 -2.43141,4.08772 l -3.8482,9.66586 z"
     id="path134"
     inkscape:connector-curvature="0"
     style="fill:#00052b;stroke-width:3;stroke:#43b4a0;stroke-opacity:0.83137256;fill-opacity:1;stroke-dasharray:none" />
  <path
     d="M 219.79987,421.66235 V 254.49511 a 19.575622,20.56929 0 0 1 19.55357,-20.5461 h 5.40811 a 19.575622,20.56929 0 0 1 19.55356,20.5461 v 167.16724 a 19.575622,20.56929 0 0 1 -19.55356,20.54611 h -5.40811 a 19.575622,20.56929 0 0 1 -19.55357,-20.54611 z"
     id="path136"
     inkscape:connector-curvature="0"
     style="fill:#00052b;stroke-width:3;stroke:#43b4a0;stroke-opacity:0.83137256;fill-opacity:1;stroke-dasharray:none" />
  <path
     d="m 428.59127,271.17978 a 17.034015,17.898669 0 0 0 -1.50397,2.33363 l -80.04008,6.14088 -10.97757,-16.93008 -26.48153,14.06856 16.66164,31.95584 a 12.945824,13.602961 0 0 0 14.14802,6.74635 l 89.15049,-20.70877 a 16.98669,17.848944 0 1 0 -0.957,-23.60641 z"
     id="path138"
     inkscape:connector-curvature="0"
     style="fill:#00052b;stroke-width:3;stroke:#43b4a0;stroke-opacity:0.83137256;fill-opacity:1;stroke-dasharray:none" />
  <path
     d="m 344.35374,280.03057 -32.71978,17.6473 a 7.2820704,7.6517118 0 0 1 -10.22092,-4.34805 l -11.78265,-36.48475 a 20.212768,21.238779 0 0 1 8.8051,-28.50003 c -14.50411,7.82274 15.70358,-14.39799 27.23267,9.20324 l 21.28169,31.22149 a 7.2820704,7.6517118 0 0 1 -2.59605,11.26083 z"
     id="path140"
     inkscape:connector-curvature="0"
     style="fill:#00052b;stroke-width:3;stroke:#43b4a0;stroke-opacity:0.83137256;fill-opacity:1;stroke-dasharray:none" />
  <path
     d="m 296.18189,182.70797 c -2.36811,0 -4.9812,-1.19947 -7.92715,-3.6293 A 50.359834,52.916123 0 0 1 272.902,117.02661 c 2.14206,-5.37626 6.14817,-12.68356 13.0694,-16.96605 4.97526,-3.077062 10.81968,-4.188647 15.9074,-4.989107 4.4045,-0.693548 8.86437,-1.245785 13.25532,-1.638878 5.24681,-0.471479 11.30734,-0.789757 16.83503,1.416766 4.04989,1.617493 7.49709,4.473682 10.83071,7.236039 1.16186,0.96193 2.36331,1.95834 3.56696,2.87992 a 26.267986,27.601362 0 0 0 9.86942,5.03662 5.4061156,5.6805326 0 0 1 3.61844,2.78487 5.5015046,5.7807637 0 0 1 0.38625,4.77771 c -0.51991,1.53199 -0.98924,2.91319 -0.0398,4.40959 a 3.7493404,3.9396587 0 0 0 3.13186,1.67689 1.9408014,2.0393174 0 0 1 1.64166,0.9002 1.9784617,2.0788893 0 0 1 0.21473,1.93342 l -0.15229,0.41209 a 2.524073,2.6521962 0 0 1 1.9683,1.34554 2.5865007,2.7177927 0 0 1 -0.47555,3.36566 25.929425,27.245615 0 0 1 -12.63568,6.94865 25.254318,26.536239 0 0 1 -9.83635,-0.0237 l -0.52216,-0.10692 0.0642,-0.60805 c -13.12902,-4.92022 -24.98032,3.4298 -31.73653,12.97572 l -0.97596,-0.64725 a 2.7998705,2.9419932 0 0 0 0.12404,-2.30631 3.4034768,3.5762389 0 0 0 -1.68432,-2.09256 4.4070993,4.6308058 0 0 0 -4.79641,1.00589 6.5407853,6.8727987 0 0 0 -1.79338,5.21238 17.753125,18.654282 0 0 0 1.44838,5.84418 c 0.3176,0.88595 0.64621,1.80277 0.91323,2.72674 a 21.192618,22.268366 0 0 1 -1.11978,15.85207 c -1.02257,2.26237 -2.8719,5.14705 -5.87435,6.0413 a 7.0265035,7.3831722 0 0 1 -1.92279,0.27797 z"
     id="path142"
     inkscape:connector-curvature="0"
     style="fill:#00052b;stroke-width:3;stroke:#43b4a0;stroke-opacity:0.83137256;fill-opacity:1;stroke-dasharray:none" />
  <path
     d="M 935.7023,599.99999 H 1.3774838 a 1.3780497,1.4480001 0 0 1 0,-2.89598 H 935.7023 a 1.3780438,1.447994 0 0 1 0,2.89598 z"
     id="path144"
     inkscape:connector-curvature="0"
     style="fill:#00052b;stroke-width:3;stroke:#43b4a0;stroke-opacity:0.83137256;fill-opacity:1;stroke-dasharray:none" />
  <text
     xml:space="preserve"
     transform="translate(-489.98161,-3896.7049)"
     id="text40584"
     style="font-style:normal;font-variant:normal;font-weight:normal;font-stretch:normal;font-size:96px;line-height:0.72;font-family:sans-serif;-inkscape-font-specification:'sans-serif, Normal';font-variant-ligatures:normal;font-variant-caps:normal;font-variant-numeric:normal;font-variant-east-asian:normal;letter-spacing:0px;word-spacing:0px;white-space:pre;shape-inside:url(#rect40586-3);shape-padding:170.185;display:inline;fill:#ffc463;fill-opacity:1;stroke:none;stroke-width:1;stroke-dasharray:none;stroke-opacity:1"
     x="1314.5365"
     y="0"><tspan
       x="567.52582"
       y="3645.8823"
       id="tspan20994"><tspan
         style="font-size:32px;text-align:end;text-anchor:end"
         id="tspan20986">The</tspan><tspan
         style="font-size:48px;text-align:end;text-anchor:end;fill:#e7d8d0;fill-opacity:0.551402"
         id="tspan20988"> </tspan><tspan
         style="font-size:42.6667px;text-align:end;text-anchor:end;fill:#fec859"
         id="tspan20990">one-stop shop</tspan><tspan
         style="font-size:48px;text-align:end;text-anchor:end;fill:#e7d8d0;fill-opacity:0.551402"
         id="tspan20992">
</tspan></tspan><tspan
       x="-76.148438"
       y="3715.0024"
       id="tspan21006"><tspan
         style="font-size:32px;text-align:end;text-anchor:end"
         id="tspan20996">for all your </tspan><tspan
         style="font-weight:bold;text-align:end;text-anchor:end;fill:#e84184"
         id="tspan20998">open-science</tspan><tspan
         style="font-size:48px;text-align:end;text-anchor:end;fill:#e7d8d0;fill-opacity:0.551402"
         id="tspan21000"> </tspan><tspan
         style="font-size:32px;text-align:end;text-anchor:end"
         id="tspan21002">needs</tspan><tspan
         style="font-size:48px;text-align:end;text-anchor:end;fill:#e7d8d0;fill-opacity:0.551402"
         id="tspan21004"> 
</tspan></tspan><tspan
       x="652.69292"
       y="3784.1225"
       id="tspan21014"><tspan
         style="font-size:32px;text-align:end;text-anchor:end"
         id="tspan21008">in</tspan><tspan
         style="font-size:48px;text-align:end;text-anchor:end;fill:#e7d8d0;fill-opacity:0.551402"
         id="tspan21010"> </tspan><tspan
         style="font-size:37.3333px;text-align:end;text-anchor:end;fill:#43b5a0"
         id="tspan21012">neuroscience</tspan></tspan></text>
</svg>
