<?xml version="1.0" encoding="UTF-8" standalone="no"?>
<svg
   xmlns:dc="http://purl.org/dc/elements/1.1/"
   xmlns:cc="http://creativecommons.org/ns#"
   xmlns:rdf="http://www.w3.org/1999/02/22-rdf-syntax-ns#"
   xmlns:svg="http://www.w3.org/2000/svg"
   xmlns="http://www.w3.org/2000/svg"
   xmlns:sodipodi="http://sodipodi.sourceforge.net/DTD/sodipodi-0.dtd"
   xmlns:inkscape="http://www.inkscape.org/namespaces/inkscape"
   data-name="Layer 1"
   width="1000"
   height="600"
   viewBox="0 0 1000 600.00002"
   version="1.1"
   id="svg90"
   sodipodi:docname="pre-registration.svg"
   inkscape:version="0.92.5 (2060ec1f9f, 2020-04-08)">
  <metadata
     id="metadata96">
    <rdf:RDF>
      <cc:Work
         rdf:about="">
        <dc:format>image/svg+xml</dc:format>
        <dc:type
           rdf:resource="http://purl.org/dc/dcmitype/StillImage" />
        <dc:title></dc:title>
      </cc:Work>
    </rdf:RDF>
  </metadata>
  <defs
     id="defs94" />
  <sodipodi:namedview
     pagecolor="#ffffff"
     bordercolor="#666666"
     borderopacity="1"
     objecttolerance="10"
     gridtolerance="10"
     guidetolerance="10"
     inkscape:pageopacity="0"
     inkscape:pageshadow="2"
     inkscape:window-width="1842"
     inkscape:window-height="1005"
     id="namedview92"
     showgrid="false"
     inkscape:zoom="1.5360284"
     inkscape:cx="618.05598"
     inkscape:cy="297.39267"
     inkscape:window-x="472"
     inkscape:window-y="1478"
     inkscape:window-maximized="1"
     inkscape:current-layer="svg90" />
  <polygon
     points="486.765,93.962 323.429,233.671 322.091,232.107 486.005,91.904 "
     id="polygon2"
     style="fill:#2f2e41;stroke-width:1.07595444"
     transform="matrix(0.91827189,0,0,0.94067797,160,21.885699)" />
  <ellipse
     cx="619.08685"
     cy="115.58897"
     id="circle4"
     style="fill:#00bfa6;stroke-width:1"
     rx="22.058956"
     ry="22.5972" />
  <path
     d="M 805.00889,165.627 H 603.59692 a 6.568711,6.7289893 0 1 1 0,-13.45797 h 201.41197 a 6.568711,6.7289893 0 1 1 0,13.45797 z"
     id="path6"
     inkscape:connector-curvature="0"
     style="fill:#00bfa6;stroke-width:1" />
  <path
     d="M 805.00889,192.21659 H 603.59692 a 6.5690338,6.72932 0 1 1 0,-13.45864 h 201.41197 a 6.5690338,6.72932 0 1 1 0,13.45864 z"
     id="path8"
     inkscape:connector-curvature="0"
     style="fill:#00bfa6;stroke-width:1" />
  <path
     d="m 690.90416,218.80618 h -87.30724 a 6.5690338,6.72932 0 0 1 0,-13.45864 h 87.30724 a 6.5690338,6.72932 0 0 1 0,13.45864 z"
     id="path10"
     inkscape:connector-curvature="0"
     style="fill:#00bfa6;stroke-width:1" />
  <ellipse
     cx="608.2655"
     cy="306.9689"
     id="circle12"
     style="fill:#5b5b5b;fill-opacity:1;stroke-width:1"
     rx="15.119761"
     ry="15.488687" />
  <path
     d="M 735.70122,341.26626 H 597.64837 a 4.5023605,4.6122193 0 1 1 0,-9.22443 h 138.05285 a 4.5023605,4.6122193 0 1 1 0,9.22443 z"
     id="path14"
     inkscape:connector-curvature="0"
     style="fill:#5b5b5b;fill-opacity:1;stroke-width:1" />
  <path
     d="m 631.9365,359.49144 h -34.28813 a 4.5025901,4.6124545 0 0 1 0,-9.2249 h 34.28813 a 4.5025901,4.6124545 0 0 1 0,9.2249 z"
     id="path16"
     inkscape:connector-curvature="0"
     style="fill:#5b5b5b;fill-opacity:1;stroke-width:1" />
  <ellipse
     cx="608.0094"
     cy="441.85956"
     id="circle18"
     style="fill:#5b5b5b;stroke-width:1;fill-opacity:1"
     rx="15.119761"
     ry="15.488687" />
  <path
     d="M 735.44505,476.15688 H 597.3922 a 4.5023605,4.6122193 0 1 1 0,-9.22443 h 138.05285 a 4.5023605,4.6122193 0 1 1 0,9.22443 z"
     id="path20"
     inkscape:connector-curvature="0"
     style="fill:#5b5b5b;stroke-width:1;fill-opacity:1" />
  <path
     d="M 680.34874,494.38205 H 597.3922 a 4.5025809,4.6124451 0 1 1 0,-9.22489 h 82.95654 a 4.5025809,4.6124451 0 1 1 0,9.22489 z"
     id="path22"
     inkscape:connector-curvature="0"
     style="fill:#5b5b5b;stroke-width:1;fill-opacity:1" />
  <path
     d="M 657.23479,512.60723 H 597.3922 a 4.5025809,4.6124451 0 1 1 0,-9.22489 h 59.84259 a 4.5025809,4.6124451 0 0 1 0,9.22489 z"
     id="path24"
     inkscape:connector-curvature="0"
     style="fill:#5b5b5b;stroke-width:1;fill-opacity:1" />
  <path
     d="m 199.09827,564.18565 c -23.6127,-11.46217 -41.20055,-34.5233 -38.45694,-59.86683 21.18371,17.57203 50.02463,27.38461 79.79815,27.14979 11.59643,-0.0914 24.58378,-1.29992 33.0107,5.3659 5.24352,4.14755 7.60881,10.73351 7.90766,17.2973 0.29876,6.56414 -1.25464,13.20744 -2.79921,19.76405 l 0.4697,1.55364 c -27.72429,1.80803 -56.31736,0.19831 -79.93006,-11.26385 z"
     id="path26"
     inkscape:connector-curvature="0"
     style="fill:#f2f2f2;stroke-width:1" />
  <path
     d="m 161.22273,504.25596 c 9.13249,18.25462 24.96604,33.46916 44.64363,42.37477 a 47.237743,48.390356 0 0 0 13.61667,4.0983 30.78433,31.535476 0 0 0 14.1638,-1.89663 c 4.27658,-1.57201 8.49218,-3.61929 13.02777,-4.24189 a 16.673559,17.080398 0 0 1 12.59927,3.47983 c 4.191,3.33871 6.69086,7.95879 8.95619,12.56773 2.51521,5.11735 5.03544,10.47595 9.96056,13.96342 0.59675,0.42257 -0.23431,1.30141 -0.83012,0.87953 -8.56887,-6.0676 -9.8054,-17.0395 -16.6143,-24.38838 -3.17722,-3.42913 -7.58694,-5.91535 -12.88015,-5.51551 -4.62865,0.34959 -8.97748,2.45751 -13.29558,4.08239 a 33.03698,33.843091 0 0 1 -13.81594,2.32218 44.318354,45.399734 0 0 1 -13.78266,-3.58994 95.113445,97.434239 0 0 1 -26.07758,-16.622 88.920537,91.090222 0 0 1 -20.84091,-27.10202 c -0.31546,-0.63059 0.85601,-1.03823 1.16941,-0.41178 z"
     id="path28"
     inkscape:connector-curvature="0"
     style="fill:#ffffff;stroke-width:1" />
  <path
     d="m 199.27475,544.05816 a 18.489607,18.940758 0 0 1 -20.78775,5.41298 c -0.68724,-0.2962 -0.12603,-1.32783 0.56212,-1.03122 a 17.117268,17.534933 0 0 0 19.32888,-5.07056 c 0.48293,-0.6017 1.37692,0.0906 0.89672,0.68886 z"
     id="path30"
     inkscape:connector-curvature="0"
     style="fill:#ffffff;stroke-width:1" />
  <path
     d="m 231.57007,549.88274 a 24.862716,25.469373 0 0 0 -10.69286,-17.75857 c -0.5949,-0.42458 0.23595,-1.30359 0.83012,-0.87953 a 25.851466,26.482248 0 0 1 11.08379,18.50324 c 0.0845,0.70728 -1.13705,0.8383 -1.22108,0.1348 z"
     id="path32"
     inkscape:connector-curvature="0"
     style="fill:#ffffff;stroke-width:1" />
  <path
     d="m 173.72732,523.40292 a 8.4061088,8.6112201 0 0 0 3.24104,-7.69686 c -0.0944,-0.70523 1.12734,-0.83549 1.22108,-0.13481 a 9.4112125,9.6408486 0 0 1 -3.56539,8.52053 0.69860289,0.71564899 0 0 1 -0.86344,0.0954 0.50081631,0.51303636 0 0 1 -0.0333,-0.78416 z"
     id="path34"
     inkscape:connector-curvature="0"
     style="fill:#ffffff;stroke-width:1" />
  <path
     d="m 238.54693,450.73429 c 0.0728,0.43778 0.14562,0.87556 0.2276,1.31702 a 93.375542,95.653931 0 0 0 4.61094,17.20527 c 0.15124,0.43371 0.31188,0.87063 0.47686,1.29843 a 101.22528,103.6952 0 0 0 23.21779,35.90009 106.395,108.99107 0 0 0 13.27834,11.37666 c 6.57985,4.76977 14.17392,9.42975 18.33789,15.85592 a 16.662493,17.069063 0 0 1 1.18321,2.07588 l -18.76001,38.88317 c -0.0895,0.0724 -0.16996,0.14842 -0.25969,0.22127 l -0.67394,1.57804 c -0.26079,-0.16139 -0.52698,-0.33415 -0.78777,-0.49554 -0.15174,-0.093 -0.29935,-0.19464 -0.45109,-0.28765 -0.0998,-0.0647 -0.19952,-0.12993 -0.29419,-0.1828 -0.0333,-0.0214 -0.0665,-0.0433 -0.0904,-0.0615 -0.0946,-0.0529 -0.17553,-0.11168 -0.26078,-0.1614 q -2.23692,-1.44279 -4.45676,-2.92113 c -0.009,-0.003 -0.009,-0.003 -0.0146,-0.015 -11.25265,-7.53748 -21.83587,-16.05485 -30.53097,-25.88191 -0.26149,-0.29574 -0.5326,-0.59423 -0.7855,-0.90775 a 94.70352,97.014311 0 0 1 -10.34087,-14.25004 81.444289,83.431551 0 0 1 -4.39471,-8.52891 67.218577,68.858728 0 0 1 -5.84879,-23.968 c -1.05959,-16.59638 3.74631,-33.75733 15.69441,-47.04251 0.30592,-0.33959 0.6078,-0.67104 0.92308,-1.00754 z"
     id="path36"
     inkscape:connector-curvature="0"
     style="fill:#f2f2f2;stroke-width:1" />
  <path
     d="m 239.02674,450.99937 c -5.22547,20.52726 -3.425,42.17698 5.4225,60.59847 a 37.123896,38.029729 0 0 0 7.48649,10.99653 25.057969,25.66939 0 0 0 11.85764,6.21384 c 4.24064,1.02853 8.74967,1.6203 12.55688,3.59716 a 13.237367,13.560362 0 0 1 7.13348,9.91004 c 0.9315,5.14645 -0.24988,10.44587 -1.59952,15.60634 -1.4985,5.72967 -3.15267,11.66672 -1.76985,17.34489 0.16756,0.688 -1.03541,0.9745 -1.20271,0.28753 -2.40587,-9.87906 3.91872,-19.86826 3.67718,-29.8621 -0.11271,-4.66332 -1.77135,-9.20761 -5.99853,-11.79183 -3.69646,-2.25983 -8.34532,-2.87377 -12.65195,-3.88036 a 27.154741,27.817324 0 0 1 -11.87841,-5.66083 34.660347,35.506069 0 0 1 -7.94672,-10.65703 81.062572,83.040521 0 0 1 -8.54006,-28.50116 89.516156,91.700374 0 0 1 2.30595,-34.49809 c 0.1805,-0.70907 1.32691,-0.40787 1.14761,0.29661 z"
     id="path38"
     inkscape:connector-curvature="0"
     style="fill:#ffffff;stroke-width:1" />
  <path
     d="m 241.21414,505.77525 c -7.71747,2.47663 -15.90463,-0.48633 -19.14053,-6.88967 -0.31879,-0.63081 0.78306,-1.19589 1.10228,-0.56421 3.03147,5.9987 10.60792,8.6895 17.82209,6.37432 0.7592,-0.24363 0.97104,0.83727 0.21618,1.07951 z"
     id="path40"
     inkscape:connector-curvature="0"
     style="fill:#ffffff;stroke-width:1" />
  <path
     d="m 261.54443,528.55213 a 26.397792,27.041905 0 0 0 3.72942,-20.96832 c -0.16484,-0.68869 1.03809,-0.97542 1.2027,-0.28754 a 27.476329,28.146759 0 0 1 -3.92882,21.81588 c -0.40416,0.6466 -1.40527,0.0831 -1.0033,-0.56002 z"
     id="path42"
     inkscape:connector-curvature="0"
     style="fill:#ffffff;stroke-width:1" />
  <path
     d="m 235.73626,474.14594 a 10.371495,10.624563 0 0 0 7.51274,-4.73847 c 0.39539,-0.65034 1.39613,-0.086 1.00331,0.56001 a 11.621649,11.90522 0 0 1 -8.29988,5.25796 c -0.33215,0.0409 -0.64208,-0.0789 -0.70944,-0.39603 a 0.60429637,0.61904136 0 0 1 0.49327,-0.68351 z"
     id="path44"
     inkscape:connector-curvature="0"
     style="fill:#ffffff;stroke-width:1" />
  <path
     d="m 294.81096,190.45404 31.92956,34.73137 74.31728,27.9064 8.93052,-16.99523 -57.18992,-31.15251 c 0,0 -25.78375,-27.59565 -41.0802,-33.27998 z"
     id="path46"
     inkscape:connector-curvature="0"
     style="fill:#a0616a;stroke-width:1" />
  <ellipse
     cx="408.77112"
     cy="246.15094"
     id="circle48"
     style="fill:#a0616a;stroke-width:1"
     rx="11.019262"
     ry="11.288136" />
  <path
     d="m 319.58752,173.59444 -22.8217,20.64224 -0.10743,0.0282 c -10.61049,2.77481 -25.93524,-10.04543 -36.9223,-21.28901 a 20.205655,20.698678 0 0 1 -0.93055,-28.24277 v 0 a 20.250283,20.744395 0 0 1 20.48191,-6.27055 l 18.54955,5.24213 z"
     id="path50"
     inkscape:connector-curvature="0"
     style="fill:#3f3d56;stroke-width:1" />
  <polygon
     points="226.862,531.074 201.583,531.075 201.586,597.14 218.714,597.139 "
     id="polygon52"
     style="fill:#a0616a;stroke-width:1.07595444"
     transform="matrix(0.91827189,0,0,0.94067797,160,21.885699)" />
  <path
     d="m 341.09827,578.34169 4.42699,-1.7e-4 17.28382,-7.2004 9.26359,7.19931 h 9.2e-4 a 19.74033,20.221999 0 0 1 19.73931,20.22067 v 0.65711 l -50.71404,0.002 z"
     id="path54"
     inkscape:connector-curvature="0"
     style="fill:#2f2e41;stroke-width:1" />
  <polygon
     points="150.862,531.074 125.583,531.075 125.586,597.14 142.714,597.139 "
     id="polygon56"
     style="fill:#a0616a;stroke-width:1.07595444"
     transform="matrix(0.91827189,0,0,0.94067797,160,21.885699)" />
  <path
     d="m 271.30961,578.34169 4.42699,-1.7e-4 17.28381,-7.2004 9.26359,7.19931 h 9.2e-4 a 19.74033,20.221999 0 0 1 19.73931,20.22067 v 0.65711 l -50.71403,0.002 z"
     id="path58"
     inkscape:connector-curvature="0"
     style="fill:#2f2e41;stroke-width:1" />
  <path
     d="m 251.33935,315.91714 c 0,0 -1.83654,22.57627 2.75482,44.21186 4.59136,21.6356 4.59136,82.56858 4.59136,82.56858 l 10.10099,118.73655 30.30297,-2.82204 8.26445,-198.48305 29.3847,66.78814 -2.75482,9.40678 3.66948,2.35169 c 0,0 -2.7512,18.34322 -0.91466,18.34322 1.83654,0 6.4279,2.82203 6.4279,2.82203 l -3.67308,96.88984 31.22124,-0.94068 11.01926,-136.39831 -11.93753,-78.07627 -0.91827,-15.05085 -4.13223,0.17403 -2.10408,-6.28843 -3.86468,-10.8178 z"
     id="path60"
     inkscape:connector-curvature="0"
     style="fill:#2f2e41;stroke-width:1" />
  <path
     d="m 249.75216,320.65911 -0.16366,-0.23517 c -8.74062,-12.53563 4.40528,-42.65845 6.388,-47.02516 l -8.35099,-2.77611 1.88049,-16.37505 0.89092,-7.30036 -6.38262,-6.53835 -0.0179,-0.16306 -3.67309,-32.92373 -5.3406,-21.86761 a 46.865512,48.009043 0 0 1 13.30194,-46.52636 l 12.34466,-11.92336 15.00262,-22.7402 h 24.19342 l 8.29539,16.05124 a 35.262687,36.123106 0 0 1 27.28362,36.88117 l -1.88006,42.09763 7.36007,52.41524 0.005,9.4858 8.28282,9.42974 -1.80874,9.26394 6.3037,2.76737 2.78351,13.30546 c 1.15188,1.55707 8.75497,11.9422 8.75497,14.78122 0,0.42625 -0.30714,0.83826 -0.96625,1.29531 -5.18142,3.59415 -33.82002,10.9216 -46.49513,5.72582 -13.50147,-5.53015 -67.17195,2.766 -67.71269,2.85052 z"
     id="path62"
     inkscape:connector-curvature="0"
     style="fill:#3f3d56;stroke-width:1" />
  <path
     d="m 448.15741,598.88062 a 1.0894929,1.1160768 0 0 1 -1.08624,1.1194 h -257.389 a 1.0927435,1.1194068 0 0 1 0,-2.23881 H 447.0646 a 1.0895296,1.1161144 0 0 1 1.0928,1.11275 z"
     id="path64"
     inkscape:connector-curvature="0"
     style="fill:#cccccc;stroke-width:1" />
  <ellipse
     cx="290.85388"
     cy="64.100853"
     id="circle66"
     style="fill:#a0616a;stroke-width:1"
     rx="32.041142"
     ry="32.822956" />
  <path
     d="m 293.92338,97.455214 a 87.142349,89.268646 0 0 1 -14.79234,-1.452811 c -4.83258,-1.140478 -15.49492,-9.586374 -18.40086,-14.575918 v 0 c -2.15893,-3.707127 -3.45473,-9.441237 -4.16182,-13.598488 a 38.954407,39.904905 0 0 1 7.60889,-31.488819 12.307056,12.607352 0 0 1 5.07875,-4.213296 c 0.1798,-0.0666 0.36455,-0.124932 0.55105,-0.174082 a 15.184544,15.555051 0 0 0 7.67169,-4.586746 12.524375,12.829973 0 0 1 1.28863,-1.290224 18.703821,19.160199 0 0 1 7.90216,-3.806341 c 4.66942,-1.148746 11.34883,0.290754 19.85225,4.282192 4.27213,2.005375 9.01369,1.445925 12.66839,0.734444 a 1.1896304,1.2186577 0 0 1 1.10973,0.422571 8.3976699,8.6025753 0 0 0 5.64683,2.480765 c 1.2976,0.09275 2.61403,1.971379 4.20083,4.417697 0.36005,0.55531 0.78017,1.203409 1.08507,1.59888 l 0.061,-0.742713 0.71381,0.849273 a 10.190284,10.438929 0 0 1 -5.02763,16.879836 19.871872,20.356751 0 0 1 -4.01206,0.54659 c -0.81963,0.05371 -1.66751,0.109326 -2.48175,0.231971 a 15.363607,15.738483 0 0 0 -11.67032,9.907889 4.017917,4.1159553 0 0 1 -6.11269,1.837266 6.638362,6.8003398 0 0 0 -6.01854,-1.287929 4.4067868,4.5143136 0 0 0 -2.00423,2.211148 5.7429918,5.8831223 0 0 1 -2.24412,2.545983 c -3.33591,1.651689 -3.75693,9.348457 -2.73645,15.800915 0.98374,6.219584 3.12382,10.75671 5.20429,11.033212 1.60159,0.212659 1.78229,0.334383 1.89124,0.628373 l 0.0973,0.263193 -0.18653,0.238838 c -0.18157,0.213082 -1.24243,0.306331 -2.78259,0.306331 z"
     id="path68"
     inkscape:connector-curvature="0"
     style="fill:#2f2e41;stroke-width:1" />
  <ellipse
     cx="451.1069"
     cy="288.18201"
     id="circle70"
     style="fill:#00bfa6;stroke-width:1"
     rx="56.739212"
     ry="58.123665" />
  <path
     d="m 446.15343,310.96293 c -0.12253,0 -0.24653,-0.003 -0.37054,-0.009 a 7.5571756,7.7415727 0 0 1 -5.60059,-2.98205 l -8.94264,-11.77694 a 7.5711517,7.7558899 0 0 1 1.32559,-10.87262 l 0.32034,-0.25555 a 7.5754676,7.760311 0 0 1 10.61662,1.35646 4.5364009,4.6470903 0 0 0 3.36271,1.79044 4.4497803,4.5583561 0 0 0 3.5177,-1.44566 l 18.15689,-19.63425 a 7.5726485,7.7574232 0 0 1 10.69189,-0.2964 l 0.29522,0.28581 a 7.571969,7.7567271 0 0 1 0.2908,10.9543 l -28.17566,30.46607 a 7.550711,7.7349504 0 0 1 -5.48833,2.41946 z"
     id="path72"
     inkscape:connector-curvature="0"
     style="fill:#ffffff;stroke-width:1" />
  <path
     d="m 301.30343,191.66095 22.25828,41.90728 64.94684,46.34866 12.85581,-14.11017 -47.57668,-45.0264 c 0,0 -18.08588,-33.40512 -31.46844,-42.88733 z"
     id="path74"
     inkscape:connector-curvature="0"
     style="fill:#a0616a;stroke-width:1" />
  <ellipse
     cx="397.69128"
     cy="275.21347"
     id="circle76"
     style="fill:#a0616a;stroke-width:1"
     rx="11.019262"
     ry="11.288136" />
  <path
     d="m 303.30697,197.24744 -13.99693,-34.41282 5.06261,-19.0175 a 20.252413,20.746577 0 0 1 15.7151,-14.84597 v 0 a 20.204645,20.697643 0 0 1 23.23702,15.22958 c 3.83361,15.41738 6.77764,35.46007 -0.96535,43.39199 l -0.0785,0.0803 z"
     id="path78"
     inkscape:connector-curvature="0"
     style="fill:#3f3d56;stroke-width:1" />
  <path
     d="m 615.48634,128.36593 c -0.0504,0 -0.10141,-9.4e-4 -0.15243,-0.004 a 3.1089931,3.1848534 0 0 1 -2.30406,-1.22681 l -3.67897,-4.8449 a 3.1147783,3.1907797 0 0 1 0.54535,-4.47293 l 0.13179,-0.10513 a 3.1165138,3.1925576 0 0 1 4.36763,0.55803 1.8662407,1.9117775 0 0 0 1.38339,0.73655 1.8306393,1.8753074 0 0 0 1.4472,-0.59473 l 7.46966,-8.07745 a 3.1153659,3.1913817 0 0 1 4.39861,-0.12193 l 0.12145,0.11758 a 3.1150721,3.1910807 0 0 1 0.11963,4.50656 l -11.59134,12.53359 a 3.1062934,3.1820878 0 0 1 -2.25791,0.99533 z"
     id="path80"
     inkscape:connector-curvature="0"
     style="fill:#ffffff;stroke-width:1" />
</svg>
