<?xml version="1.0" encoding="UTF-8" standalone="no"?>
<svg
   xmlns:dc="http://purl.org/dc/elements/1.1/"
   xmlns:cc="http://creativecommons.org/ns#"
   xmlns:rdf="http://www.w3.org/1999/02/22-rdf-syntax-ns#"
   xmlns:svg="http://www.w3.org/2000/svg"
   xmlns="http://www.w3.org/2000/svg"
   xmlns:sodipodi="http://sodipodi.sourceforge.net/DTD/sodipodi-0.dtd"
   xmlns:inkscape="http://www.inkscape.org/namespaces/inkscape"
   width="1000"
   height="600"
   viewBox="0 0 1000 599.99999"
   version="1.1"
   id="svg32"
   sodipodi:docname="wet_lab.svg"
   inkscape:version="0.92.5 (2060ec1f9f, 2020-04-08)">
  <metadata
     id="metadata38">
    <rdf:RDF>
      <cc:Work
         rdf:about="">
        <dc:format>image/svg+xml</dc:format>
        <dc:type
           rdf:resource="http://purl.org/dc/dcmitype/StillImage" />
        <dc:title></dc:title>
      </cc:Work>
    </rdf:RDF>
  </metadata>
  <defs
     id="defs36" />
  <sodipodi:namedview
     pagecolor="#ffffff"
     bordercolor="#666666"
     borderopacity="1"
     objecttolerance="10"
     gridtolerance="10"
     guidetolerance="10"
     inkscape:pageopacity="0"
     inkscape:pageshadow="2"
     inkscape:window-width="2560"
     inkscape:window-height="1403"
     id="namedview34"
     showgrid="false"
     inkscape:zoom="0.52788153"
     inkscape:cx="97.953062"
     inkscape:cy="-534.21077"
     inkscape:window-x="0"
     inkscape:window-y="0"
     inkscape:window-maximized="1"
     inkscape:current-layer="svg32" />
  <g
     id="g6"
     transform="matrix(1.2703293,0,0,1.2923757,32,22.217571)"
     style="stroke-width:0.78045428">
    <path
       d="m 582.01,304.4 h -19.24 l -0.07,-0.07 c -3.42,-3.63 -4.96,-8.74 -4.11,-13.65 0.27,-1.59 0.78,-3.13 1.52,-4.58 l 5.85,-11.45 -2.32,-41.01 c -0.04,-0.76 0.22,-1.48 0.74,-2.04 0.52,-0.55 1.23,-0.86 1.99,-0.86 h 3.6 c 1.48,0 2.68,1.16 2.74,2.63 l 1.57,40.53 8.1,12.66 c 0.69,1.08 1.25,2.23 1.65,3.42 1.59,4.61 1.01,9.62 -1.6,13.74 v 0 l -0.43,0.67 h 0.01 z"
       id="path2"
       inkscape:connector-curvature="0"
       style="fill:#3f3d56;stroke-width:0.78045428" />
    <path
       d="m 580.35,301.56 v 0 c -0.18,0.29 -0.5,0.46 -0.84,0.46 h -14.64 c -0.28,0 -0.56,-0.12 -0.74,-0.33 -2.47,-2.81 -3.56,-6.5 -3.13,-10.09 0.05,-0.39 0.34,-0.72 0.72,-0.82 3.06,-0.81 6.75,-1.27 10.72,-1.27 3.11,0 6.04,0.29 8.64,0.8 0.36,0.07 0.65,0.33 0.75,0.68 1.04,3.52 0.55,7.38 -1.47,10.57 v 0 z"
       id="path4"
       inkscape:connector-curvature="0"
       style="fill:#f50057;stroke-width:0.78045428" />
  </g>
  <path
     d="M 965.43797,426.82162 H 33.270329 C 32.571648,426.82162 32,426.24005 32,425.52925 c 0,-0.71081 0.571648,-1.29238 1.270329,-1.29238 H 965.43797 c 0.69868,0 1.27033,0.58157 1.27033,1.29238 0,0.7108 -0.57165,1.29237 -1.27033,1.29237 z"
     id="path8"
     inkscape:connector-curvature="0"
     style="fill:#3f3d56;stroke-width:1" />
  <path
     id="uuid-3ca14b24-1735-44f2-9f9e-013c8d5dea14-264"
     d="m 305.69245,186.77576 c -13.65604,-4.16145 -22.62457,-14.70723 -20.02039,-23.54708 2.60417,-8.83985 15.79019,-12.63944 29.44623,-8.47799 5.47512,1.58962 10.50562,4.48454 14.6596,8.45214 l 57.66025,18.36466 -9.04475,27.34667 -55.88178,-21.01403 c -5.61486,0.99513 -11.38215,0.60741 -16.81916,-1.13729 v 0 z"
     inkscape:connector-curvature="0"
     style="fill:#a0616a;stroke-width:1" />
  <path
     d="m 561.47325,193.96137 0.69868,48.29608 c 0,0 -59.68007,-0.80127 -80.56428,0.86589 -20.88421,1.68009 -151.02945,-46.784 -151.02945,-46.784 l 21.621,-31.18502 143.57262,35.256 65.70143,-6.46187 v 0 z"
     id="path11"
     inkscape:connector-curvature="0"
     style="fill:#e6e6e6;stroke-width:1" />
  <rect
     x="301.05576"
     y="128.28285"
     width="8.8923054"
     height="122.77569"
     id="rect13"
     style="fill:#f50057;stroke-width:1" />
  <path
     d="m 342.04927,425.52925 h -51.43563 l -0.19055,-0.20678 c -9.14637,-9.88668 -13.26224,-23.76679 -11.00105,-37.12996 0.72409,-4.31653 2.08334,-8.50383 4.06505,-12.44557 l 15.65046,-31.13334 -6.21191,-111.53202 c -0.11433,-2.0678 0.59705,-4.03221 1.99442,-5.53137 1.39736,-1.49915 3.29015,-2.32627 5.32267,-2.32627 h 9.6164 c 3.95072,0 7.17736,3.14047 7.3298,7.15976 l 4.17938,110.23965 21.67182,34.42889 c 1.85468,2.94661 3.34097,6.07416 4.42075,9.3051 4.24289,12.53604 2.69309,26.15768 -4.26831,37.36258 v 0 l -1.1433,1.82225 v 0 z"
     id="path15"
     inkscape:connector-curvature="0"
     style="fill:#3f3d56;stroke-width:1" />
  <path
     d="m 337.62853,417.81376 v 0 c -0.48273,0.77543 -1.33385,1.25361 -2.24849,1.25361 h -39.15155 c -0.74949,0 -1.48628,-0.32309 -1.98171,-0.89174 -6.60571,-7.65086 -9.51477,-17.66678 -8.37147,-27.43714 0.12703,-1.07267 0.90193,-1.95148 1.9309,-2.22288 8.16822,-2.19704 18.03868,-3.46357 28.65863,-3.46357 8.30795,0 16.15859,0.78835 23.09459,2.17119 0.95274,0.19386 1.74035,0.89174 2.00712,1.83518 2.76931,9.56358 1.46088,20.07059 -3.93802,28.75535 z"
     id="path17"
     inkscape:connector-curvature="0"
     style="fill:#f50057;stroke-width:1" />
  <polygon
     points="344.8,126.07 347.8,73.07 386.8,80.07 392.8,121.07 "
     id="polygon19"
     style="fill:#a0616a;stroke-width:0.78045428"
     transform="matrix(1.2703293,0,0,1.2923757,32,22.217571)" />
  <ellipse
     cx="465.39825"
     cy="99.643799"
     id="circle21"
     style="fill:#a0616a;stroke-width:1"
     rx="41.12056"
     ry="41.834202" />
  <path
     id="uuid-3cd67973-1e20-4906-b45c-18fee7260ec6-265"
     d="m 337.27283,289.45501 c -11.63621,-10.62333 -26.60069,-13.01422 -33.43506,-5.33751 -6.83437,7.67671 -2.94717,22.51318 8.68905,33.13651 4.58589,4.31654 10.14993,7.41824 16.23481,9.05956 l 49.86042,44.36725 20.56663,-24.6973 -51.334,-41.11047 c -2.23578,-5.95785 -5.86892,-11.24367 -10.58185,-15.41804 z"
     inkscape:connector-curvature="0"
     style="fill:#a0616a;stroke-width:1" />
  <path
     d="m 473.82053,172.22361 62.24614,-9.04663 36.83955,28.43227 3.81098,156.37746 35.56922,249.42851 -236.28125,2.58475 c 0,0 17.78461,-161.54697 26.67692,-170.5936 8.8923,-9.04663 15.24395,-50.40265 15.24395,-50.40265 l 17.78461,-178.34784 c 0,0 38.10988,-28.43227 38.10988,-28.43227 z"
     id="path24"
     inkscape:connector-curvature="0"
     style="fill:#e6e6e6;stroke-width:1" />
  <path
     d="m 450.31944,200.00969 c 0,0 -33.02856,-2.58475 -40.65054,20.67801 -7.62197,23.26276 -16.51428,99.51293 -16.51428,99.51293 l -20.32527,2.58475 -17.78461,-19.38564 -19.05494,46.52553 c 0,0 67.32745,74.95779 92.73404,41.35602 25.40659,-33.60177 21.5956,-191.2716 21.5956,-191.2716 z"
     id="path26"
     inkscape:connector-curvature="0"
     style="fill:#e6e6e6;stroke-width:1" />
  <path
     d="m 535.4315,121.23939 c 0,0 0,-41.420642 3.81099,-54.344399 3.81099,-12.923757 -17.78461,-27.13989 -24.13626,-40.063647 -6.35164,-12.923757 -45.73185,5.169503 -62.24613,7.754254 -16.51428,2.584752 -15.24395,12.923757 -25.40659,29.724641 -10.16263,16.800885 10.16264,42.648401 25.40659,45.233151 15.24395,2.58475 10.16263,14.21613 20.61744,27.13989 10.45481,12.92376 43.86447,0 43.86447,0 l 4.11587,6.46188 c 0,0 -8.89231,36.18652 7.62198,67.20353 l 43.19119,11.63138 c -12.70329,-38.77127 1.27033,-38.77127 9.2353,-58.80309 7.96496,-20.03182 -46.07485,-41.93759 -46.07485,-41.93759 z"
     id="path28"
     inkscape:connector-curvature="0"
     style="fill:#2f2e41;stroke-width:1" />
  <path
     d="m 837.52851,414.31143 h -22.63727 v -38.61619 h 22.63727 c 2.57877,0 4.64941,-2.13242 4.64941,-4.75594 0,-2.62352 -2.08334,-4.71717 -4.64941,-4.7301 H 679.7028 c -2.57877,0 -4.64941,2.13242 -4.64941,4.75595 0,2.62352 2.08335,4.71717 4.64941,4.73009 h 19.30901 v 38.61619 H 679.7028 c -2.57877,0 -4.64941,2.13242 -4.64941,4.75594 0,2.62352 2.08335,4.71717 4.64941,4.73009 h 157.82571 c 2.57877,0 4.64941,-2.13242 4.64941,-4.75594 0,-2.62352 -2.08334,-4.71717 -4.64941,-4.73009 z m -129.19249,0 10.64536,-28.84583 86.57294,-9.77036 v 38.61619 z"
     id="path30"
     inkscape:connector-curvature="0"
     style="fill:#f2f2f2;stroke-width:1" />
</svg>
