<?xml version="1.0" encoding="UTF-8" standalone="no"?>
<svg
   xmlns:dc="http://purl.org/dc/elements/1.1/"
   xmlns:cc="http://creativecommons.org/ns#"
   xmlns:rdf="http://www.w3.org/1999/02/22-rdf-syntax-ns#"
   xmlns:svg="http://www.w3.org/2000/svg"
   xmlns="http://www.w3.org/2000/svg"
   xmlns:sodipodi="http://sodipodi.sourceforge.net/DTD/sodipodi-0.dtd"
   xmlns:inkscape="http://www.inkscape.org/namespaces/inkscape"
   data-name="Layer 1"
   width="1000"
   height="600"
   viewBox="0 0 1000 599.99999"
   version="1.1"
   id="svg98"
   sodipodi:docname="workshop.svg"
   inkscape:version="0.92.5 (2060ec1f9f, 2020-04-08)">
  <metadata
     id="metadata104">
    <rdf:RDF>
      <cc:Work
         rdf:about="">
        <dc:format>image/svg+xml</dc:format>
        <dc:type
           rdf:resource="http://purl.org/dc/dcmitype/StillImage" />
        <dc:title></dc:title>
      </cc:Work>
    </rdf:RDF>
  </metadata>
  <defs
     id="defs102" />
  <sodipodi:namedview
     pagecolor="#ffffff"
     bordercolor="#666666"
     borderopacity="1"
     objecttolerance="10"
     gridtolerance="10"
     guidetolerance="10"
     inkscape:pageopacity="0"
     inkscape:pageshadow="2"
     inkscape:window-width="2560"
     inkscape:window-height="1403"
     id="namedview100"
     showgrid="false"
     inkscape:zoom="0.83115874"
     inkscape:cx="240.32969"
     inkscape:cy="-77.013089"
     inkscape:window-x="0"
     inkscape:window-y="0"
     inkscape:window-maximized="1"
     inkscape:current-layer="svg98" />
  <path
     d="m 224.62325,534.99637 c -10.47546,7.27828 -21.1875,14.78974 -28.44119,25.33193 -7.25318,10.54226 -10.41947,24.93329 -4.5913,36.34047 l -0.15032,0.71098 a 27.264254,27.509784 0 0 0 26.32763,-4.67935 c 9.22095,-7.80934 12.11234,-20.67518 14.46449,-32.58822 l 6.95809,-35.23658 z"
     id="path2"
     inkscape:connector-curvature="0"
     style="fill:#f0f0f0;stroke-width:1" />
  <path
     d="m 234.71282,570.53017 c -6.98786,1.55995 -14.14789,3.19101 -20.1399,7.14038 -5.9917,3.94955 -10.65898,10.77803 -10.01075,17.96989 l -0.22739,0.33866 a 15.341516,15.479675 0 0 0 14.70919,3.17784 c 6.44499,-2.10455 10.64926,-8.19643 14.37264,-13.90653 l 11.01356,-16.88924 z"
     id="path4"
     inkscape:connector-curvature="0"
     style="fill:#f0f0f0;stroke-width:1" />
  <path
     d="M 818.08752,39.511082 H 221.43228 a 0.86598084,0.87377951 0 0 1 0,-1.747549 h 596.65524 a 0.86598084,0.87377951 0 0 1 0,1.747549 z"
     id="path6"
     inkscape:connector-curvature="0"
     style="fill:#cacaca;stroke-width:1" />
  <ellipse
     cx="240.92346"
     cy="17.666794"
     id="circle8"
     style="fill:#3f3d56;stroke-width:1"
     rx="9.5256958"
     ry="9.6114807" />
  <ellipse
     cx="273.83044"
     cy="17.666794"
     id="circle10"
     style="fill:#3f3d56;stroke-width:1"
     rx="9.5256958"
     ry="9.6114807" />
  <ellipse
     cx="306.7374"
     cy="17.666794"
     id="circle12"
     style="fill:#3f3d56;stroke-width:1"
     rx="9.5256958"
     ry="9.6114807" />
  <path
     d="m 798.37129,13.934346 h -23.38126 a 1.731941,1.7475382 0 1 1 0,-3.495076 h 23.38126 a 1.731941,1.7475382 0 0 1 0,3.495076 z"
     id="path14"
     inkscape:connector-curvature="0"
     style="fill:#3f3d56;stroke-width:1" />
  <path
     d="m 798.37129,20.48763 h -23.38126 a 1.731941,1.7475382 0 1 1 0,-3.495076 h 23.38126 a 1.731941,1.7475382 0 0 1 0,3.495076 z"
     id="path16"
     inkscape:connector-curvature="0"
     style="fill:#3f3d56;stroke-width:1" />
  <path
     d="m 798.37129,27.040914 h -23.38126 a 1.731941,1.7475382 0 1 1 0,-3.495076 h 23.38126 a 1.7319513,1.7475486 0 0 1 0,3.495076 z"
     id="path18"
     inkscape:connector-curvature="0"
     style="fill:#3f3d56;stroke-width:1" />
  <rect
     x="231.15912"
     y="76.980049"
     width="395.74957"
     height="239.41336"
     id="rect20"
     style="fill:#f0f0f0;stroke-width:1" />
  <rect
     x="675.40314"
     y="76.980049"
     width="124.70008"
     height="75.438789"
     id="rect22"
     style="fill:#f0f0f0;stroke-width:1" />
  <path
     d="M 775.22485,187.07523 H 701.0286 a 3.4947502,3.5262224 0 0 1 0,-7.05244 h 74.19628 a 3.4947502,3.5262224 0 0 1 0,7.05244 z"
     id="path24"
     inkscape:connector-curvature="0"
     style="fill:#e4e4e4;stroke-width:1" />
  <path
     d="m 763.26204,175.0047 h -50.27066 a 3.4947502,3.5262224 0 0 1 0,-7.05244 h 50.27066 a 3.4947502,3.5262224 0 0 1 0,7.05244 z"
     id="path26"
     inkscape:connector-curvature="0"
     style="fill:#e4e4e4;stroke-width:1" />
  <rect
     x="675.40314"
     y="214.16216"
     width="124.70008"
     height="75.438789"
     id="rect28"
     style="fill:#f0f0f0;stroke-width:1" />
  <path
     d="M 775.22485,324.25734 H 701.0286 a 3.4947502,3.5262224 0 0 1 0,-7.05244 h 74.19628 a 3.4947502,3.5262224 0 0 1 0,7.05244 z"
     id="path30"
     inkscape:connector-curvature="0"
     style="fill:#e4e4e4;stroke-width:1" />
  <path
     d="m 763.26204,312.18681 h -50.27066 a 3.4947553,3.5262276 0 0 1 0,-7.05245 h 50.27066 a 3.4947605,3.5262329 0 0 1 0,7.05245 z"
     id="path32"
     inkscape:connector-curvature="0"
     style="fill:#e4e4e4;stroke-width:1" />
  <ellipse
     cx="435.91086"
     cy="175.97713"
     id="circle34"
     style="fill:#9e616a;stroke-width:1"
     rx="29.531914"
     ry="29.797867" />
  <polygon
     points="285.406,223.035 295.884,295.804 224.205,295.804 228.228,205.164 228.723,204.644 235.84,197.133 258.473,197.133 266.872,205.264 267.534,205.91 "
     id="polygon36"
     style="fill:#a100b1;stroke-width:0.96365964"
     transform="matrix(1.0330695,0,0,1.0423729,180,8.0553107)" />
  <path
     d="m 432.1168,316.3934 h -56.27977 c -0.3721,-36.15666 -0.66681,-63.43578 -0.66681,-63.43578 l 2.87529,-1.76503 0.0173,-0.008 31.56441,-19.33657 6.62507,-10.86097 0.0347,0.38446 1.94845,22.89282 c 0,0 10.5904,34.52272 13.88135,72.12982 z"
     id="path38"
     inkscape:connector-curvature="0"
     style="fill:#2f2e41;stroke-width:1" />
  <path
     d="m 508.69494,316.3934 h -50.07929 c -2.67613,-12.25029 -4.07023,-23.91516 -3.46388,-33.6402 2.45922,-39.73035 -3.21273,-61.7669 -0.7535,-61.7669 l 1.29896,1.03105 15.44881,12.31146 20.34191,7.52316 14.11518,5.22514 2.45924,0.90875 v 1.19707 c 0.009,6.01155 0.0693,33.92846 0.63257,67.21047 z"
     id="path40"
     inkscape:connector-curvature="0"
     style="fill:#2f2e41;stroke-width:1" />
  <path
     d="m 407.97199,185.29985 c 0,0 2.50913,-4.44612 1.9258,-19.29909 -0.58333,-14.85297 21.83234,-6.45229 40.56298,-7.86921 18.73063,-1.41692 14.76566,24.79742 14.76566,24.79742 0,0 1.35125,-1.55835 4.24442,-14.2101 2.89316,-12.65175 -3.67581,-25.25982 -3.67581,-25.25982 -1.93465,-13.29468 -12.36107,-9.03373 -12.36107,-9.03373 5.02124,1.97233 4.05687,6.18961 4.05687,6.18961 -4.25031,-7.51903 -14.67672,-3.25808 -14.67672,-3.25808 -13.90584,-8.80483 -27.99928,2.79003 -27.99928,2.79003 -16.79894,3.84693 -6.947,17.32673 -6.947,17.32673 -16.89415,8.61445 0.10415,27.82624 0.10415,27.82624 z"
     id="path42"
     inkscape:connector-curvature="0"
     style="fill:#2f2e41;stroke-width:1" />
  <path
     d="m 359.53112,316.3934 c 1.43722,-29.00047 2.53703,-51.75346 2.10404,-53.50975 -1.21228,-4.88441 15.89067,-11.49886 16.41031,-11.69106 l 0.008,-0.008 h 0.009 l 3.26473,1.77378 2.38988,63.43578 z"
     id="path44"
     inkscape:connector-curvature="0"
     style="fill:#2f2e41;stroke-width:1" />
  <path
     d="m 520.47181,316.3934 h -25.41595 l -7.2745,-72.49678 2.99624,-2.21067 c 0,0 0.26004,0.0612 0.71036,0.16602 2.32942,0.58541 9.84619,2.56889 14.11518,5.22514 a 8.5539808,8.6310144 0 0 1 2.45924,2.10582 2.5166503,2.5393142 0 0 1 0.58058,1.79996 c -0.21653,2.05335 5.32561,31.08005 11.82885,65.41051 z"
     id="path46"
     inkscape:connector-curvature="0"
     style="fill:#2f2e41;stroke-width:1" />
  <path
     d="M 563.25967,345.66474 H 294.80811 a 3.8968828,3.9319765 0 0 0 0,7.86395 h 268.45156 a 3.8968828,3.9319765 0 1 0 0,-7.86395 z"
     id="path48"
     inkscape:connector-curvature="0"
     style="fill:#cacaca;stroke-width:1" />
  <path
     d="m 490.51796,345.66474 v 7.86395 H 294.80811 a 3.8968828,3.9319765 0 0 1 0,-7.86395 z"
     id="path50"
     inkscape:connector-curvature="0"
     style="fill:#3f3d56;stroke-width:1" />
  <ellipse
     cx="490.51797"
     cy="349.59674"
     id="circle52"
     style="fill:#3f3d56;stroke-width:1"
     rx="7.7937551"
     ry="7.8639426" />
  <path
     d="m 429.03389,415.12957 a 16.088291,16.233175 0 1 1 16.08829,-16.23318 16.106525,16.251573 0 0 1 -16.08829,16.23318 z m 0,-31.21764 a 14.850736,14.984475 0 1 0 14.85073,14.98446 14.867657,15.001549 0 0 0 -14.85073,-14.98441 z"
     id="path54"
     inkscape:connector-curvature="0"
     style="fill:#a100b1;stroke-width:1" />
  <path
     d="m 426.90915,407.63734 a 0.61880863,0.62438137 0 0 1 -0.61881,-0.62438 v -16.23315 a 0.61880863,0.62438137 0 1 1 1.23755,0 v 16.23318 a 0.61880863,0.62438137 0 0 1 -0.61874,0.62435 z"
     id="path56"
     inkscape:connector-curvature="0"
     style="fill:#a100b1;stroke-width:1" />
  <path
     d="m 431.15864,407.63734 a 0.61880863,0.62438137 0 0 1 -0.61881,-0.62438 v -16.23315 a 0.61880863,0.62438137 0 1 1 1.23756,0 v 16.23318 a 0.61880863,0.62438137 0 0 1 -0.61875,0.62435 z"
     id="path58"
     inkscape:connector-curvature="0"
     style="fill:#a100b1;stroke-width:1" />
  <path
     d="m 355.3457,398.89639 a 16.088291,16.233175 0 1 1 16.08828,16.23318 16.106525,16.251573 0 0 1 -16.08828,-16.23318 z m 1.23761,0 a 14.850736,14.984475 0 1 0 14.85067,-14.98441 14.867647,15.001539 0 0 0 -14.85072,14.98441 z"
     id="path60"
     inkscape:connector-curvature="0"
     style="fill:#3f3d56;stroke-width:1" />
  <path
     d="m 378.38292,404.36182 a 0.5146339,0.51926848 0 0 0 0.25779,-0.96896 l -7.7187,-4.49649 7.7187,-4.49648 a 0.5146611,0.51929593 0 0 0 -0.51457,-0.8995 l -8.49059,4.94623 a 0.51475787,0.51939357 0 0 0 0,0.89951 l 8.49059,4.94622 a 0.51240247,0.51701696 0 0 0 0.25678,0.0694 z"
     id="path62"
     inkscape:connector-curvature="0"
     style="fill:#3f3d56;stroke-width:1" />
  <path
     d="m 366.99833,406.1654 a 0.51460291,0.51923721 0 0 0 0.51458,-0.51921 V 392.1466 a 0.51458225,0.51921637 0 0 0 -1.02916,0 v 13.49959 a 0.51460291,0.51923721 0 0 0 0.51458,0.51921 z"
     id="path64"
     inkscape:connector-curvature="0"
     style="fill:#3f3d56;stroke-width:1" />
  <path
     d="m 486.63379,415.12957 a 16.088291,16.233175 0 1 1 16.08829,-16.23318 16.106525,16.251573 0 0 1 -16.08829,16.23318 z m 0,-31.21764 a 14.850736,14.984475 0 1 0 14.85073,14.98446 14.867647,15.001539 0 0 0 -14.85073,-14.98441 z"
     id="path66"
     inkscape:connector-curvature="0"
     style="fill:#3f3d56;stroke-width:1" />
  <path
     d="m 479.68486,404.36182 a 0.51464423,0.51927891 0 0 1 -0.2578,-0.96896 l 7.71872,-4.49649 -7.71872,-4.49648 a 0.5146661,0.51930098 0 0 1 0.51459,-0.8995 l 8.49058,4.94623 a 0.51475787,0.51939357 0 0 1 0,0.89951 l -8.49058,4.94622 a 0.51240247,0.51701696 0 0 1 -0.25679,0.0694 z"
     id="path68"
     inkscape:connector-curvature="0"
     style="fill:#3f3d56;stroke-width:1" />
  <path
     d="m 491.06946,406.1654 a 0.51460291,0.51923721 0 0 1 -0.51458,-0.51921 V 392.1466 a 0.51458225,0.51921637 0 0 1 1.02916,0 v 13.49959 a 0.51460291,0.51923721 0 0 1 -0.51458,0.51921 z"
     id="path70"
     inkscape:connector-curvature="0"
     style="fill:#3f3d56;stroke-width:1" />
  <path
     d="m 274.26082,411.13112 a 8.2335639,8.307712 0 0 1 1.12451,-12.6883 l -7.91565,-28.42206 14.48442,4.66613 5.29622,26.27469 a 8.2782235,8.3527738 0 0 1 -12.9895,10.16954 z"
     id="path72"
     inkscape:connector-curvature="0"
     style="fill:#ffb6b6;stroke-width:1" />
  <path
     d="m 270.38945,269.52663 -3.00034,-3.15061 c 0,0 -9.27638,6.42908 -7.31364,26.35826 1.44973,14.72039 -3.13149,20.96316 -2.6195,63.74883 l 12.93348,39.18336 14.95921,-7.91219 -10.8228,-48.34751 z"
     id="path74"
     inkscape:connector-curvature="0"
     style="fill:#a100b1;stroke-width:1" />
  <polygon
     points="108.742,555.931 113.682,515.882 98.357,515.883 98.359,555.931 "
     id="polygon76"
     style="fill:#ffb6b6;stroke-width:0.96365964"
     transform="matrix(1.0330695,0,0,1.0423729,180,8.0553107)" />
  <path
     d="m 278.87573,584.00916 21.12404,-8.7e-4 h 8.6e-4 a 13.46261,13.583849 0 0 1 13.46193,13.58291 v 0.44139 l -34.58614,10e-4 z"
     id="path78"
     inkscape:connector-curvature="0"
     style="fill:#2f2e41;stroke-width:1" />
  <polygon
     points="138.945,553.517 148.723,514.368 133.513,512.503 128.639,552.254 "
     id="polygon80"
     style="fill:#ffb6b6;stroke-width:0.96365964"
     transform="matrix(1.0330695,0,0,1.0423729,180,8.0553107)" />
  <path
     d="m 310.60337,579.86611 20.96702,2.59403 8.4e-4,10e-5 a 13.46261,13.583849 0 0 1 11.72288,15.13554 l -0.0532,0.43811 -34.32903,-4.24729 z"
     id="path82"
     inkscape:connector-curvature="0"
     style="fill:#2f2e41;stroke-width:1" />
  <path
     d="m 276.05206,373.50577 c 0,0 -20.66242,14.24851 -10.33172,52.81631 l 13.97087,149.70333 16.59825,-0.11872 7.03042,-73.86861 4.77795,-52.00407 15.96463,53.77659 -13.13105,65.98689 19.3802,2.05843 23.21966,-76.73723 -11.1975,-109.25545 z"
     id="path84"
     inkscape:connector-curvature="0"
     style="fill:#2f2e41;stroke-width:1" />
  <path
     d="m 325.90798,262.33162 -10.50632,-8.52661 -27.86188,-1.15704 -20.15065,13.72805 c 0,0 -2.08003,48.88291 11.55551,92.42721 l -7.14884,18.18941 71.47808,9.04779 z"
     id="path86"
     inkscape:connector-curvature="0"
     style="fill:#a100b1;stroke-width:1" />
  <ellipse
     cx="303.38116"
     cy="218.07172"
     id="circle88"
     style="fill:#ffb6b6;stroke-width:1"
     rx="23.89905"
     ry="24.114275" />
  <path
     d="m 309.65022,188.26269 h -5.31112 a 24.796581,25.019889 0 0 0 -31.87938,23.97458 l -8.27162,27.54164 a 5.267952,5.315393 0 0 0 5.04177,6.85667 h 4.03744 a 11.885991,11.993032 0 0 0 2.06967,-8.35234 24.423571,24.64352 0 0 1 1.56676,5.74718 10.035237,10.12561 0 0 1 -0.053,2.60516 h 35.12492 a 13.107875,13.225919 0 0 0 -3.17588,-9.53436 47.257113,47.682692 0 0 1 7.31976,9.53436 h 0.65979 a 5.267921,5.3153617 0 0 0 5.26775,-5.31525 v -26.99831 h 13.4299 a 25.826737,26.059322 0 0 0 -25.82676,-26.05933 z"
     id="path90"
     inkscape:connector-curvature="0"
     style="fill:#2f2e41;stroke-width:1" />
  <path
     d="m 336.245,409.04637 a 8.2335639,8.307712 0 0 1 1.1245,-12.6883 l -7.91565,-28.42206 14.48442,4.66613 5.29622,26.2747 A 8.2782235,8.3527738 0 0 1 336.245,409.04637 Z"
     id="path92"
     inkscape:connector-curvature="0"
     style="fill:#ffb6b6;stroke-width:1" />
  <path
     d="m 316.84797,267.72545 9.06002,-5.39383 c 0,0 14.25033,-2.53477 15.77147,16.62191 1.52113,19.15667 3.7121,68.8839 3.7121,68.8839 l 4.44469,41.91952 -16.49414,3.54878 -18.9576,-57.32538 z"
     id="path94"
     inkscape:connector-curvature="0"
     style="fill:#a100b1;stroke-width:1" />
  <path
     d="M 400.0438,599.99999 H 181.03307 a 1.0330716,1.042375 0 0 1 0,-2.08475 H 400.0438 a 1.0330716,1.042375 0 0 1 0,2.08475 z"
     id="path96"
     inkscape:connector-curvature="0"
     style="fill:#cacaca;stroke-width:1" />
</svg>
