<?xml version="1.0" encoding="UTF-8" standalone="no"?>
<svg
   xmlns:dc="http://purl.org/dc/elements/1.1/"
   xmlns:cc="http://creativecommons.org/ns#"
   xmlns:rdf="http://www.w3.org/1999/02/22-rdf-syntax-ns#"
   xmlns:svg="http://www.w3.org/2000/svg"
   xmlns="http://www.w3.org/2000/svg"
   xmlns:sodipodi="http://sodipodi.sourceforge.net/DTD/sodipodi-0.dtd"
   xmlns:inkscape="http://www.inkscape.org/namespaces/inkscape"
   data-name="Layer 1"
   width="1000"
   height="600"
   viewBox="0 0 1000 600"
   version="1.1"
   id="svg95"
   sodipodi:docname="write.svg"
   inkscape:version="0.92.5 (2060ec1f9f, 2020-04-08)">
  <metadata
     id="metadata101">
    <rdf:RDF>
      <cc:Work
         rdf:about="">
        <dc:format>image/svg+xml</dc:format>
        <dc:type
           rdf:resource="http://purl.org/dc/dcmitype/StillImage" />
        <dc:title></dc:title>
      </cc:Work>
    </rdf:RDF>
  </metadata>
  <defs
     id="defs99" />
  <sodipodi:namedview
     pagecolor="#ffffff"
     bordercolor="#666666"
     borderopacity="1"
     objecttolerance="10"
     gridtolerance="10"
     guidetolerance="10"
     inkscape:pageopacity="0"
     inkscape:pageshadow="2"
     inkscape:window-width="2560"
     inkscape:window-height="1403"
     id="namedview97"
     showgrid="false"
     inkscape:zoom="0.47129309"
     inkscape:cx="143.64038"
     inkscape:cy="-598.35378"
     inkscape:window-x="0"
     inkscape:window-y="0"
     inkscape:window-maximized="1"
     inkscape:current-layer="svg95" />
  <path
     id="b2aec908-dac2-485e-9341-1f8763a52ddc-351"
     data-name="Path 133"
     d="m 928.59402,566.52364 a 106.35517,110.31931 0 0 1 -4.96882,30.49582 c -0.0672,0.22913 -0.1417,0.45482 -0.2142,0.68395 h -18.5411 c 0.0195,-0.20546 0.0396,-0.43463 0.0591,-0.68395 1.23617,-14.74195 -5.82628,-103.39608 -14.34849,-118.73978 0.74665,1.24466 39.45113,41.40215 38.01352,88.24396 z"
     inkscape:connector-curvature="0"
     style="fill:#f1f1f1;stroke-width:1" />
  <path
     id="bc80851e-3fc6-46a5-adb1-be50bb758626-352"
     data-name="Path 134"
     d="m 927.20272,597.01946 c -0.15511,0.22913 -0.31627,0.4583 -0.48145,0.68395 h -13.90999 c 0.10539,-0.19504 0.22762,-0.42417 0.36929,-0.68395 2.29775,-4.30156 9.09899,-17.16294 15.4121,-30.49582 6.78174,-14.3282 13.00886,-29.19966 12.4845,-34.58211 0.16249,1.21324 4.85737,38.22059 -13.87445,65.07793 z"
     inkscape:connector-curvature="0"
     style="fill:#f1f1f1;stroke-width:1" />
  <path
     id="ac74e0d2-c10f-4860-b119-67c8c5820ae0-353"
     data-name="Path 133"
     d="m 59.311856,574.5465 a 78.988995,81.933131 0 0 0 3.690305,22.64895 c 0.04982,0.17016 0.105169,0.33778 0.159082,0.50796 h 13.770292 c -0.0145,-0.15259 -0.02945,-0.3228 -0.04384,-0.50796 -0.918092,-10.94869 4.32712,-76.79125 10.656481,-88.18687 -0.554529,0.92439 -29.299964,30.749 -28.232276,65.53792 z"
     inkscape:connector-curvature="0"
     style="fill:#f1f1f1;stroke-width:1" />
  <path
     id="b887613c-750d-48e2-8424-1e5e637b4506-354"
     data-name="Path 134"
     d="m 60.34517,597.19545 c 0.115188,0.17016 0.234892,0.34038 0.357575,0.50796 h 10.330844 c -0.07827,-0.14486 -0.169046,-0.31503 -0.27427,-0.50796 -1.706517,-3.19472 -6.757731,-12.74675 -11.446411,-22.64895 -5.036767,-10.64142 -9.661604,-21.6863 -9.272124,-25.68379 -0.120712,0.90106 -3.607531,28.38604 10.304386,48.33274 z"
     inkscape:connector-curvature="0"
     style="fill:#f1f1f1;stroke-width:1" />
  <path
     d="M 732.05816,428.32842 C 628.05454,382.6098 533.96186,384.34761 445.33412,412.25215 308.77762,387.51435 215.26927,391.3419 155.28896,428.32842 V 313.49791 h 576.7692 z"
     id="path6"
     inkscape:connector-curvature="0"
     style="fill:#cbcbcb;stroke-width:1" />
  <path
     d="m 732.05816,396.75003 c -95.81702,-45.03359 -191.51783,-47.941 -288.66136,0 -99.4987,-29.71598 -195.68546,-29.40521 -288.66136,0 V 47.665278 c 98.85226,-30.603409 195.00977,-29.867989 288.66136,0 98.9268,-29.764825 195.2336,-30.708824 288.66136,0 z"
     id="path8"
     inkscape:connector-curvature="0"
     style="fill:#e5e5e5;stroke-width:1" />
  <path
     d="m 180.70135,90.986305 -3.22309,-8.556779 c 1.26326,-0.511915 31.44841,-12.616222 75.74782,-18.790601 40.95624,-5.709568 101.97602,-7.072618 160.09252,18.848912 l -3.49843,8.439594 C 353.64695,65.873297 294.43152,67.192619 254.6465,72.70987 211.34259,78.716596 181.00271,90.864079 180.70135,90.986305 Z"
     id="path10"
     inkscape:connector-curvature="0"
     style="fill:#ffffff;stroke-width:1" />
  <path
     d="m 180.70135,123.13885 -3.22309,-8.55678 c 1.26326,-0.51192 31.44841,-12.61622 75.74782,-18.790602 40.95624,-5.709005 101.97602,-7.072055 160.09252,18.848912 l -3.49843,8.43959 C 353.64695,98.02584 294.43152,99.344037 254.6465,104.86241 c -43.30391,6.00673 -73.64379,18.15421 -73.94515,18.27644 z"
     id="path12"
     inkscape:connector-curvature="0"
     style="fill:#ffffff;stroke-width:1" />
  <path
     d="m 180.70135,155.29139 -3.22309,-8.55678 c 1.26326,-0.51191 31.44841,-12.61622 75.74782,-18.7906 40.95624,-5.70957 101.97602,-7.07262 160.09252,18.84891 l -3.49843,8.4396 C 353.64695,130.17838 294.43152,131.49658 254.6465,137.01496 c -43.30391,6.00672 -73.64379,18.1542 -73.94515,18.27643 z"
     id="path14"
     inkscape:connector-curvature="0"
     style="fill:#ffffff;stroke-width:1" />
  <path
     d="m 180.70135,187.44393 -3.22309,-8.55678 c 1.26326,-0.51191 31.44841,-12.61622 75.74782,-18.7906 40.95624,-5.70844 101.97602,-7.07318 160.09252,18.84892 l -3.49843,8.43959 C 353.64695,162.33093 294.43152,163.64969 254.6465,169.1675 c -43.30391,6.00672 -73.64379,18.15421 -73.94515,18.27643 z"
     id="path16"
     inkscape:connector-curvature="0"
     style="fill:#ffffff;stroke-width:1" />
  <path
     d="m 180.70135,219.59648 -3.22309,-8.55678 c 1.26326,-0.51192 31.44841,-12.61622 75.74782,-18.7906 40.95624,-5.70957 101.97602,-7.07262 160.09252,18.84891 l -3.49843,8.43959 C 353.64695,194.48291 294.43152,195.80223 254.6465,201.32004 c -43.30391,6.00673 -73.64379,18.15421 -73.94515,18.27644 z"
     id="path18"
     inkscape:connector-curvature="0"
     style="fill:#ffffff;stroke-width:1" />
  <path
     d="m 180.70135,251.74902 -3.22309,-8.55678 c 1.26326,-0.51191 31.44841,-12.61622 75.74782,-18.7906 40.95624,-5.70844 101.97602,-7.07262 160.09252,18.84891 l -3.49843,8.4396 c -56.17322,-25.0547 -115.38865,-23.73482 -155.17367,-18.21757 -43.30391,6.00673 -73.64379,18.15421 -73.94515,18.27644 z"
     id="path20"
     inkscape:connector-curvature="0"
     style="fill:#ffffff;stroke-width:1" />
  <path
     d="m 469.63947,319.49902 -3.22309,-8.55678 c 1.26325,-0.51191 31.44841,-12.61622 75.74782,-18.7906 40.95624,-5.70844 101.97602,-7.07262 160.09251,18.84891 l -3.49842,8.4396 c -56.17322,-25.0547 -115.38865,-23.73482 -155.17367,-18.21757 -43.30391,6.00673 -73.6438,18.15421 -73.94515,18.27644 z"
     id="path22"
     inkscape:connector-curvature="0"
     style="fill:#f50057;stroke-width:1" />
  <path
     d="M 466.92145,257.7922 V 82.182261 l 3.10789,-1.007006 C 548.78802,55.656299 627.1648,55.661351 702.9818,81.190413 l 3.06086,1.030558 V 257.55841 l -5.99171,-2.34599 c -78.8984,-30.8876 -155.27407,-30.90611 -227.00508,-0.0544 z m 116.86301,-34.96612 q 55.60415,0 113.40186,21.50213 V 88.912294 C 625.10207,65.332227 550.63939,65.345123 475.7778,88.949843 V 244.11513 a 294.86759,305.85811 0 0 1 108.00666,-21.28906 z"
     id="path24"
     inkscape:connector-curvature="0"
     style="fill:#ffffff;stroke-width:1" />
  <path
     d="m 697.37002,314.94884 1.16002,-29.22563 39.79398,-82.06864 a 11.478227,11.906052 0 0 1 5.20725,-5.37023 11.612788,12.045629 0 0 1 8.97192,-0.60764 11.608637,12.041322 0 0 1 7.23972,7.61052 12.007925,12.455493 0 0 1 0.50402,2.33723 11.498342,11.926917 0 0 1 -1.15395,6.86544 l -39.848,82.17978 z"
     id="path26"
     inkscape:connector-curvature="0"
     style="fill:#f50057;stroke-width:1" />
  <path
     d="m 748.48718,197.59407 -43.19637,89.08551 -3.29345,-1.71821 41.77868,-86.1618 a 11.009085,11.419423 0 0 1 4.71114,-1.2055 z"
     id="path28"
     inkscape:connector-curvature="0"
     style="fill:#3f3d56;stroke-width:1" />
  <path
     d="m 759.69765,207.6972 -41.5499,85.68997 -3.29346,-1.7182 43.10682,-88.90082 a 11.067913,11.480444 0 0 1 1.25616,2.69903 11.433248,11.859397 0 0 1 0.48038,2.23002 z"
     id="path30"
     inkscape:connector-curvature="0"
     style="fill:#3f3d56;stroke-width:1" />
  <path
     d="m 755.56121,200.05073 -43.67393,90.07033 -3.29346,-1.71821 43.7286,-90.18315 a 10.72515,11.124906 0 0 1 1.36022,0.59392 11.289687,11.710484 0 0 1 1.87857,1.23711 z"
     id="path32"
     inkscape:connector-curvature="0"
     style="fill:#3f3d56;stroke-width:1" />
  <path
     d="m 702.3659,310.03833 -4.39469,3.67138 0.36839,-9.67942 c 1.50889,0.54299 3.14249,2.89913 4.0263,6.00804 z"
     id="path34"
     inkscape:connector-curvature="0"
     style="fill:#3f3d56;stroke-width:1" />
  <path
     d="m 268.90164,415.52927 -5.26115,-16.55344 5.60496,-54.43081 a 6.8396966,7.0946308 0 0 1 1.8188,-4.12797 6.919913,7.177837 0 0 1 4.88141,-2.2904 6.9173114,7.1751385 0 0 1 5.57661,2.67019 7.1545396,7.4212088 0 0 1 0.75362,1.19401 6.8516416,7.107021 0 0 1 0.74423,4.08029 l -5.61249,54.50459 z"
     id="path36"
     inkscape:connector-curvature="0"
     style="fill:#f50057;stroke-width:1" />
  <path
     d="m 273.68885,338.95406 -6.08412,59.08469 -2.18431,-0.24201 5.88444,-57.14556 a 6.560102,6.8046149 0 0 1 2.38399,-1.69712 z"
     id="path38"
     inkscape:connector-curvature="0"
     style="fill:#3f3d56;stroke-width:1" />
  <path
     d="m 281.98413,342.15088 -5.85221,56.8326 -2.18432,-0.242 6.0715,-58.96219 a 6.5950181,6.8408324 0 0 1 1.24627,1.23222 6.8120427,7.0659462 0 0 1 0.71876,1.13937 z"
     id="path40"
     inkscape:connector-curvature="0"
     style="fill:#3f3d56;stroke-width:1" />
  <path
     d="m 278.13116,338.78564 -6.15132,59.73783 -2.18432,-0.242 6.15908,-59.81267 a 6.3904255,6.6286142 0 0 1 0.87875,0.0354 6.7273872,6.9781353 0 0 1 1.29781,0.28144 z"
     id="path42"
     inkscape:connector-curvature="0"
     style="fill:#3f3d56;stroke-width:1" />
  <path
     d="m 270.69546,411.70371 -1.70902,3.00366 -1.75134,-5.479 c 0.95145,-0.0254 2.33894,0.93351 3.46036,2.47534 z"
     id="path44"
     inkscape:connector-curvature="0"
     style="fill:#3f3d56;stroke-width:1" />
  <g
     id="f2202155-5d0d-4949-a3af-453985752dd6"
     data-name="Group 23"
     transform="matrix(1.1070426,0,0,1.1483051,8,24.986263)"
     style="stroke-width:0.88692969">
    <path
       id="bb56e1bb-a377-463a-b777-e3f2ac15f40f-355"
       data-name="Path 385"
       d="m 904.43982,522.824 a 8.3053512,8.3053512 0 1 1 -14.42,-8.24494 q 0.0278,-0.0485 0.0562,-0.0968 a 8.9384,8.9384 0 0 1 0.78233,-1.10977 l -6.98631,-49.79568 -0.20922,-1.49188 -1.4191,-10.1611 -0.20922,-1.46457 0.77323,0.0364 13.536,0.61857 3.62961,0.16374 0.45484,9.2696 2.57439,52.11534 a 8.29444,8.29444 0 0 1 1.43729,10.16107 z"
       transform="translate(-154,-199.62501)"
       inkscape:connector-curvature="0"
       style="fill:#ffb8b8;stroke-width:0.88692969" />
    <path
       id="a248d591-cba6-4901-9d10-c9b24d625163-356"
       data-name="Path 386"
       d="m 883.70282,462.53612 17.18834,-1.57647 a 3.39309,3.39309 0 0 0 3.06015,-3.67235 l -3.18387,-35.743 a 13.032022,13.032022 0 0 0 -25.96079,2.3177 q 0.033,0.36922 0.0869,0.73608 l 5.15422,35.05894 a 3.38765,3.38765 0 0 0 3.34579,2.89368 2.40171,2.40171 0 0 0 0.30928,-0.0146 z"
       transform="translate(-154,-199.62501)"
       inkscape:connector-curvature="0"
       style="fill:#cbcbcb;stroke-width:0.88692969" />
    <path
       id="f743e301-5bba-4392-b658-4efdfb4065cc-357"
       data-name="Path 387"
       d="m 896.73121,433.66028 a 23.939,23.939 0 0 0 -8.80476,-27.55227 c -6.48144,-4.43467 -15.35078,-6.02661 -24.90239,5.34435 a 118.91248,118.91248 0 0 0 -24.10642,47.758 l 39.11608,6.36773 c 0,0 13.3022,-16.26048 18.69749,-31.91781 z"
       transform="translate(-154,-199.62501)"
       inkscape:connector-curvature="0"
       style="fill:#cbcbcb;stroke-width:0.88692969" />
    <path
       id="eac80286-6d9c-481f-b372-04b3b845d333-358"
       data-name="Path 388"
       d="m 833.466,689.83059 h -11.15267 l -5.30524,-43.0168 h 16.45968 z"
       transform="translate(-154,-199.62501)"
       inkscape:connector-curvature="0"
       style="fill:#ffb8b8;stroke-width:0.88692969" />
    <path
       id="e474a022-de70-4f17-bf9b-ca694d09b1b4-359"
       data-name="Path 389"
       d="M 800.80766,700.18545 H 835.8584 V 686.6431 H 814.35 a 13.54235,13.54235 0 0 0 -13.54235,13.54235 z"
       transform="translate(-154,-199.62501)"
       inkscape:connector-curvature="0"
       style="fill:#2f2e41;stroke-width:0.88692969" />
    <path
       id="a9ae19c7-51aa-4dd0-9022-ef91b49440e0-360"
       data-name="Path 390"
       d="m 925.15587,680.10342 -10.58863,3.50046 -18.5392,-39.178 15.62824,-5.16607 z"
       transform="translate(-154,-199.62501)"
       inkscape:connector-curvature="0"
       style="fill:#ffb8b8;stroke-width:0.88692969" />
    <path
       id="bdf88be3-aecd-443e-97f8-a32ede953949-361"
       data-name="Path 391"
       d="m 897.39522,700.18535 33.28,-10.99986 -4.25,-12.85819 -20.42179,6.7499 a 13.54236,13.54236 0 0 0 -8.60824,17.10815 z"
       transform="translate(-154,-199.62501)"
       inkscape:connector-curvature="0"
       style="fill:#2f2e41;stroke-width:0.88692969" />
    <circle
       id="e601451a-496c-4b1c-9fe2-c3a71e9d5111"
       data-name="Ellipse 65"
       cx="718.17633"
       cy="172.86134"
       r="22.34256"
       style="fill:#ffb8b8;stroke-width:0.88692969" />
    <path
       id="fd5880a1-dddd-4cd5-886d-5f97a9f21c4e-362"
       data-name="Path 392"
       d="m 852.61373,677.85651 10.35666,-68.35765 a 3.18387,3.18387 0 0 1 6.2422,-0.27289 l 15.772,65.14374 a 4.12355,4.12355 0 0 0 4.62841,3.07929 l 43.50529,-6.99175 a 4.09361,4.09361 0 0 0 3.26845,-5.23064 L 879.65843,478.19712 a 3.184,3.184 0 0 1 -0.0555,-1.63741 l 1.88849,-8.18709 a 4.079,4.079 0 0 0 -2.11682,-4.56112 c -7.725,-3.94164 -27.29029,-12.136 -42.05525,-3.16022 a 4.14,4.14 0 0 0 -1.89121,2.66263 l -44.31583,208.28857 a 4.09357,4.09357 0 0 0 3.63868,4.92952 l 53.44986,4.78674 q 0.18191,0.0163 0.36386,0.0164 a 4.10082,4.10082 0 0 0 4.04624,-3.47952 z"
       transform="translate(-154,-199.62501)"
       inkscape:connector-curvature="0"
       style="fill:#2f2e41;stroke-width:0.88692969" />
    <path
       id="acdc6559-e36c-4b0b-aac1-c1a10856fa7d-363"
       data-name="Path 393"
       d="m 886.99131,356.70074 a 16.9016,16.9016 0 0 1 -4.41647,-3.83884 5.731,5.731 0 0 1 -0.88239,-5.549 c 1.12891,-2.4907 4.48288,-3.27484 7.08274,-2.42973 2.59986,0.84511 4.60751,2.88549 6.50691,4.85131 1.6729,1.72838 3.394,3.54046 4.18452,5.81373 0.79052,2.27327 0.3857,5.156 -1.5883,6.536 -1.93761,1.35361 -4.723,0.79961 -6.58606,-0.654 a 16.8,16.8 0 0 1 -4.11628,-5.70366 z"
       transform="translate(-154,-199.62501)"
       inkscape:connector-curvature="0"
       style="fill:#2f2e41;stroke-width:0.88692969" />
    <path
       id="a8902353-3630-4aaa-9386-a524a4077d2f-364"
       data-name="Path 394"
       d="m 894.5589,350.33484 c 0.12372,-6.295 7.29925,-10.80968 13.49688,-9.69352 6.19763,1.11616 10.96068,6.39958 13.34495,12.227 5.03778,12.31247 1.25626,26.36151 -3.59777,38.75222 -4.85403,12.39071 -10.86154,24.9606 -10.1529,38.24552 a 39.95755,39.95755 0 0 0 23.21039,33.658 c -6.99359,3.17021 -15.35352,-0.10461 -21.23094,-5.04689 -13.052,-10.97525 -18.08982,-30.516 -11.97224,-46.43353 3.01739,-7.85142 8.33535,-14.56845 12.48713,-21.88317 4.15178,-7.31472 7.19826,-15.93572 5.05416,-24.06911 -2.1441,-8.13339 -11.26635,-14.71767 -19.065,-11.57112 z"
       transform="translate(-154,-199.62501)"
       inkscape:connector-curvature="0"
       style="fill:#2f2e41;stroke-width:0.88692969" />
    <path
       id="b05157c8-b93b-43b3-a4ba-0cfdfe0a562e-365"
       data-name="Path 395"
       d="m 870.83638,382.40093 c 1.94762,-3.29122 3.91161,-7.61218 0.353,-10.48948 a 7.33564,7.33564 0 0 0 -5.50354,-1.45549 c -4.0135,0.484 -8.38449,0.68317 -12.26972,-0.775 a 11.502,11.502 0 0 1 -6.67249,-5.99568 c -2.00128,-4.75215 0.50578,-10.52676 4.69848,-13.53052 a 15.82834,15.82834 0 0 1 17.51854,-0.3102 c 5.43077,-2.39881 12.01955,-1.33176 16.95363,1.97035 4.93408,3.30211 8.30989,8.59006 10.1438,14.23643 a 27.47766,27.47766 0 0 1 0.83964,15.11426 22.46169,22.46169 0 0 1 -13.93264,15.3544 8.08884,8.08884 0 0 1 -7.98877,-1.18256 15.02706,15.02706 0 0 1 -4.0426,-5.92564 c -0.74139,-2.4898 -1.1371,-5.25248 -0.0973,-7.01087 z"
       transform="translate(-154,-199.62501)"
       inkscape:connector-curvature="0"
       style="fill:#2f2e41;stroke-width:0.88692969" />
    <path
       id="fb245157-e4e6-4551-ad6a-dca5f4b0f94b-366"
       data-name="Path 397"
       d="m 804.55552,402.33738 a 9.57347,9.57347 0 0 1 0.21741,1.49189 l 39.077,22.54361 9.49794,-5.46805 10.12561,13.25579 -15.87386,11.31455 a 7.27742,7.27742 0 0 1 -8.7329,-0.21288 l -40.29866,-31.78953 a 9.55158,9.55158 0 1 1 5.982,-11.13535 z"
       transform="translate(-154,-199.62501)"
       inkscape:connector-curvature="0"
       style="fill:#ffb8b8;stroke-width:0.88692969" />
    <path
       id="b7c0657c-f78e-4619-b8ae-65b0c7791644-367"
       data-name="Path 398"
       d="m 845.15712,427.44082 12.63,16.36871 a 4.09355,4.09355 0 0 0 6.1858,0.33929 L 878.27025,429.302 a 11.371,11.371 0 1 0 -13.57752,-18.24405 q -0.18541,0.138 -0.36509,0.28341 l -17.93154,10.02647 a 4.09358,4.09358 0 0 0 -1.24172,6.073 z"
       transform="translate(-154,-199.62501)"
       inkscape:connector-curvature="0"
       style="fill:#cbcbcb;stroke-width:0.88692969" />
  </g>
  <polygon
     points="226.443,442.047 208.55,442.048 208.552,488.809 220.675,488.808 "
     id="polygon61"
     style="fill:#a0616a;stroke-width:0.88692969"
     transform="matrix(1.1070426,0,0,1.1483051,8,24.986263)" />
  <path
     d="m 235.45237,581.7427 26.43086,-10e-4 h 10e-4 a 16.84476,17.47261 0 0 1 16.84382,17.47134 v 0.56776 l -43.27493,10e-4 z"
     id="path63"
     inkscape:connector-curvature="0"
     style="fill:#2f2e41;stroke-width:1" />
  <polygon
     points="138.836,439.999 123.121,437.325 114.156,483.561 126.143,485.373 "
     id="polygon65"
     style="fill:#a0616a;stroke-width:0.88692969"
     transform="matrix(1.1070426,0,0,1.1483051,8,24.986263)" />
  <path
     d="m 131.64508,575.23671 26.13403,4.09727 0.001,1.8e-4 a 16.84476,17.47261 0 0 1 14.13664,19.88683 l -0.0818,0.56138 -42.7889,-6.70858 z"
     id="path67"
     inkscape:connector-curvature="0"
     style="fill:#2f2e41;stroke-width:1" />
  <path
     d="m 175.7558,320.18132 14.90165,4.0499 -0.99134,25.06024 -0.12288,45.62699 a 8.8153138,9.1438846 0 1 1 -11.66681,1.52061 l -4.57915,-45.79412 z"
     id="path69"
     inkscape:connector-curvature="0"
     style="fill:#a0616a;stroke-width:1" />
  <path
     d="m 173.1619,291.4771 a 12.164516,12.617921 0 0 1 7.51975,-11.22101 11.372726,11.796619 0 0 1 12.31047,2.0537 10.843316,11.247476 0 0 1 3.6145,8.69825 c 0.0393,14.68079 -3.15586,36.07932 -3.1882,36.29333 l -0.051,0.34044 -21.78125,7.6082 z"
     id="path71"
     inkscape:connector-curvature="0"
     style="fill:#cbcbcb;stroke-width:1" />
  <path
     d="m 212.10778,333.15054 33.31495,-8.9451 15.39988,53.79809 0.54736,200.419 -25.47604,-0.16536 -10.64956,-162.21372 -67.87236,149.88836 -27.36788,-3.40656 59.66198,-160.67585 c 0,0 -3.28414,-28.38796 7.11565,-42.58194 l -2.18943,-14.76174 z"
     id="path73"
     inkscape:connector-curvature="0"
     style="fill:#2f2e41;stroke-width:1" />
  <path
     d="m 189.64405,346.53534 a 5.1046509,5.2949152 0 0 1 -1.08911,-4.25931 L 173.35882,294.9879 a 11.598231,12.030528 0 0 1 3.19889,-12.69808 l 6.59687,-6.21984 4.47053,-18.54865 25.69454,6.51482 -2.117,8.78364 11.62868,-2.19231 24.49318,56.58519 -51.19719,21.22665 -2.52137,0.041 a 5.1039203,5.2941573 0 0 1 -3.9619,-1.94501 z"
     id="path75"
     inkscape:connector-curvature="0"
     style="fill:#cbcbcb;stroke-width:1" />
  <path
     d="m 225.30744,306.6089 14.68111,-4.83954 12.07634,21.72928 23.40889,38.62966 a 8.8153802,9.1439535 0 1 1 -9.07656,7.75387 L 238.9283,333.7183 Z"
     id="path77"
     inkscape:connector-curvature="0"
     style="fill:#a0616a;stroke-width:1" />
  <path
     d="m 208.32316,283.78685 a 12.163077,12.616428 0 0 1 0.57301,-13.65172 11.378848,11.802969 0 0 1 11.46244,-5.08987 10.843604,11.247775 0 0 1 7.53714,5.34714 c 7.59832,12.38535 15.92521,32.24251 16.00833,32.44099 l 0.13203,0.31605 -14.4876,18.50651 z"
     id="path79"
     inkscape:connector-curvature="0"
     style="fill:#cbcbcb;stroke-width:1" />
  <ellipse
     cx="206.63571"
     cy="232.89369"
     id="circle81"
     style="fill:#a0616a;stroke-width:1"
     rx="20.415228"
     ry="21.176159" />
  <ellipse
     cx="170.55757"
     cy="203.56331"
     id="circle83"
     style="fill:#2f2e41;stroke-width:1"
     rx="19.665062"
     ry="20.398031" />
  <path
     d="m 153.59542,220.45419 a 19.666114,20.399123 0 0 0 30.36808,-10.71067 19.666147,20.399158 0 1 1 -38.36124,-8.36508 19.658862,20.391602 0 0 0 7.99316,19.07575 z"
     id="path85"
     inkscape:connector-curvature="0"
     style="fill:#2f2e41;stroke-width:1" />
  <path
     d="m 231.20246,220.47685 c -3.43302,-6.37516 -4.74662,-9.03824 -9.17309,-12.9149 -3.91432,-3.42852 -8.72903,-4.43536 -12.61253,-1.18677 a 23.257127,24.123984 0 1 0 14.03268,22.14356 23.449996,24.324042 0 0 0 -0.15845,-2.72773 c 3.37568,-0.49173 4.53571,-4.82238 7.91139,-5.31416 z"
     id="path87"
     inkscape:connector-curvature="0"
     style="fill:#2f2e41;stroke-width:1" />
  <path
     d="M 430.89027,600.00003 H 9.1070426 a 1.1070426,1.1483051 0 0 1 0,-2.29661 H 430.89027 a 1.1070426,1.1483051 0 0 1 0,2.29661 z"
     id="path89"
     inkscape:connector-curvature="0"
     style="fill:#cbcbcb;stroke-width:1" />
  <path
     d="M 994.37496,600.00003 H 572.59173 a 1.1070426,1.1483051 0 0 1 0,-2.29661 h 421.78323 a 1.1070426,1.1483051 0 0 1 0,2.29661 z"
     id="path91"
     inkscape:connector-curvature="0"
     style="fill:#cbcbcb;stroke-width:1" />
  <rect
     x="442.28976"
     y="47.665257"
     width="2.2140851"
     height="347.98019"
     id="rect93"
     style="fill:#cbcbcb;stroke-width:1" />
</svg>
