<?xml version="1.0" encoding="UTF-8" standalone="no"?>
<!-- Created with Inkscape (http://www.inkscape.org/) -->

<svg
   width="47.29427mm"
   height="21.213915mm"
   viewBox="0 0 47.29427 21.213915"
   version="1.1"
   id="svg12846"
   sodipodi:docname="osoh_logo_small.svg"
   inkscape:version="1.2.2 (732a01da63, 2022-12-09, custom)"
   inkscape:export-filename="../5ffe6f9c/osoh_logo_small.png"
   inkscape:export-xdpi="96"
   inkscape:export-ydpi="96"
   xmlns:inkscape="http://www.inkscape.org/namespaces/inkscape"
   xmlns:sodipodi="http://sodipodi.sourceforge.net/DTD/sodipodi-0.dtd"
   xmlns="http://www.w3.org/2000/svg"
   xmlns:svg="http://www.w3.org/2000/svg"
   xmlns:rdf="http://www.w3.org/1999/02/22-rdf-syntax-ns#"
   xmlns:cc="http://creativecommons.org/ns#"
   xmlns:dc="http://purl.org/dc/elements/1.1/">
  <defs
     id="defs12840">
    <inkscape:path-effect
       effect="bspline"
       id="path-effect13782"
       is_visible="true"
       weight="33.333333"
       steps="2"
       helper_size="0"
       apply_no_weight="true"
       apply_with_weight="true"
       only_selected="false" />
    <inkscape:path-effect
       effect="bspline"
       id="path-effect13782-1"
       is_visible="true"
       weight="33.333333"
       steps="2"
       helper_size="0"
       apply_no_weight="true"
       apply_with_weight="true"
       only_selected="false" />
    <clipPath
       clipPathUnits="userSpaceOnUse"
       id="clipPath13820">
      <path
         style="opacity:1;fill:#ddc3ac;fill-opacity:1;stroke:none;stroke-width:0.30000001;stroke-linecap:round;stroke-linejoin:round;stroke-miterlimit:4;stroke-dasharray:none;stroke-opacity:1;paint-order:normal"
         d="m 50.114771,116.42183 c -3.656404,0 -6.600115,3.0329 -6.600115,6.8001 v 5.53506 c 0,3.76721 2.943711,6.80011 6.600115,6.80011 h 27.857215 c 3.656401,0 6.600113,-3.0329 6.600113,-6.80011 v -5.53506 c 0,-3.7672 -2.943712,-6.8001 -6.600113,-6.8001 z m -3.153296,5.39864 c 0.652627,0.008 1.339747,0.40308 1.871202,1.19372 1.062914,1.58129 1.503966,4.74429 0.889868,6.34587 -0.614095,1.60157 -2.284023,1.64232 -3.291787,1.58802 -1.007763,-0.0543 -1.348171,-0.20079 -1.57975,-1.80403 -0.231579,-1.60323 -0.342368,-4.67041 0.445452,-6.19083 0.393912,-0.76022 1.012386,-1.14036 1.665015,-1.13275 z"
         id="path13822"
         inkscape:connector-curvature="0" />
    </clipPath>
    <clipPath
       clipPathUnits="userSpaceOnUse"
       id="clipPath13824">
      <path
         style="opacity:1;fill:#ddc3ac;fill-opacity:1;stroke:none;stroke-width:0.30000001;stroke-linecap:round;stroke-linejoin:round;stroke-miterlimit:4;stroke-dasharray:none;stroke-opacity:1;paint-order:normal"
         d="m 50.114771,116.42183 c -3.656404,0 -6.600115,3.0329 -6.600115,6.8001 v 5.53506 c 0,3.76721 2.943711,6.80011 6.600115,6.80011 h 27.857215 c 3.656401,0 6.600113,-3.0329 6.600113,-6.80011 v -5.53506 c 0,-3.7672 -2.943712,-6.8001 -6.600113,-6.8001 z m -3.153296,5.39864 c 0.652627,0.008 1.339747,0.40308 1.871202,1.19372 1.062914,1.58129 1.503966,4.74429 0.889868,6.34587 -0.614095,1.60157 -2.284023,1.64232 -3.291787,1.58802 -1.007763,-0.0543 -1.348171,-0.20079 -1.57975,-1.80403 -0.231579,-1.60323 -0.342368,-4.67041 0.445452,-6.19083 0.393912,-0.76022 1.012386,-1.14036 1.665015,-1.13275 z"
         id="path13826"
         inkscape:connector-curvature="0" />
    </clipPath>
    <filter
       inkscape:collect="always"
       style="color-interpolation-filters:sRGB"
       id="filter9830"
       x="-0.020784098"
       width="1.0415682"
       y="-0.081272893"
       height="1.1625458">
      <feGaussianBlur
         inkscape:collect="always"
         stdDeviation="0.25837183"
         id="feGaussianBlur9832" />
    </filter>
    <filter
       inkscape:collect="always"
       style="color-interpolation-filters:sRGB"
       id="filter9814-6"
       x="-0.041922435"
       width="1.0838449"
       y="-0.20708806"
       height="1.4141761">
      <feGaussianBlur
         inkscape:collect="always"
         stdDeviation="0.67176676"
         id="feGaussianBlur9816-6" />
    </filter>
    <clipPath
       clipPathUnits="userSpaceOnUse"
       id="clipPath13820-7">
      <path
         style="opacity:1;fill:#ddc3ac;fill-opacity:1;stroke:none;stroke-width:0.30000001;stroke-linecap:round;stroke-linejoin:round;stroke-miterlimit:4;stroke-dasharray:none;stroke-opacity:1;paint-order:normal"
         d="m 50.114771,116.42183 c -3.656404,0 -6.600115,3.0329 -6.600115,6.8001 v 5.53506 c 0,3.76721 2.943711,6.80011 6.600115,6.80011 h 27.857215 c 3.656401,0 6.600113,-3.0329 6.600113,-6.80011 v -5.53506 c 0,-3.7672 -2.943712,-6.8001 -6.600113,-6.8001 z m -3.153296,5.39864 c 0.652627,0.008 1.339747,0.40308 1.871202,1.19372 1.062914,1.58129 1.503966,4.74429 0.889868,6.34587 -0.614095,1.60157 -2.284023,1.64232 -3.291787,1.58802 -1.007763,-0.0543 -1.348171,-0.20079 -1.57975,-1.80403 -0.231579,-1.60323 -0.342368,-4.67041 0.445452,-6.19083 0.393912,-0.76022 1.012386,-1.14036 1.665015,-1.13275 z"
         id="path13822-8"
         inkscape:connector-curvature="0" />
    </clipPath>
    <clipPath
       clipPathUnits="userSpaceOnUse"
       id="clipPath13824-2">
      <path
         style="opacity:1;fill:#ddc3ac;fill-opacity:1;stroke:none;stroke-width:0.30000001;stroke-linecap:round;stroke-linejoin:round;stroke-miterlimit:4;stroke-dasharray:none;stroke-opacity:1;paint-order:normal"
         d="m 50.114771,116.42183 c -3.656404,0 -6.600115,3.0329 -6.600115,6.8001 v 5.53506 c 0,3.76721 2.943711,6.80011 6.600115,6.80011 h 27.857215 c 3.656401,0 6.600113,-3.0329 6.600113,-6.80011 v -5.53506 c 0,-3.7672 -2.943712,-6.8001 -6.600113,-6.8001 z m -3.153296,5.39864 c 0.652627,0.008 1.339747,0.40308 1.871202,1.19372 1.062914,1.58129 1.503966,4.74429 0.889868,6.34587 -0.614095,1.60157 -2.284023,1.64232 -3.291787,1.58802 -1.007763,-0.0543 -1.348171,-0.20079 -1.57975,-1.80403 -0.231579,-1.60323 -0.342368,-4.67041 0.445452,-6.19083 0.393912,-0.76022 1.012386,-1.14036 1.665015,-1.13275 z"
         id="path13826-9"
         inkscape:connector-curvature="0" />
    </clipPath>
    <filter
       inkscape:collect="always"
       style="color-interpolation-filters:sRGB"
       id="filter9696"
       x="-0.037999954"
       width="1.0759999"
       y="-0.10272514"
       height="1.2054503">
      <feGaussianBlur
         inkscape:collect="always"
         stdDeviation="0.97258035"
         id="feGaussianBlur9698" />
    </filter>
  </defs>
  <sodipodi:namedview
     id="base"
     pagecolor="#ffffff"
     bordercolor="#666666"
     borderopacity="1.0"
     inkscape:pageopacity="0.0"
     inkscape:pageshadow="2"
     inkscape:zoom="5.6"
     inkscape:cx="55.714286"
     inkscape:cy="38.482143"
     inkscape:document-units="mm"
     inkscape:current-layer="layer1"
     showgrid="false"
     inkscape:window-width="2482"
     inkscape:window-height="1365"
     inkscape:window-x="78"
     inkscape:window-y="38"
     inkscape:window-maximized="1"
     inkscape:showpageshadow="2"
     inkscape:pagecheckerboard="0"
     inkscape:deskcolor="#d1d1d1" />
  <metadata
     id="metadata12843">
    <rdf:RDF>
      <cc:Work
         rdf:about="">
        <dc:format>image/svg+xml</dc:format>
        <dc:type
           rdf:resource="http://purl.org/dc/dcmitype/StillImage" />
      </cc:Work>
    </rdf:RDF>
  </metadata>
  <g
     inkscape:label="Layer 1"
     inkscape:groupmode="layer"
     id="layer1"
     transform="translate(-45.26265,-92.845596)">
    <flowRoot
       xml:space="preserve"
       id="flowRoot13471"
       style="font-style:normal;font-weight:normal;font-size:29.3333px;line-height:1.25;font-family:sans-serif;letter-spacing:0px;word-spacing:0px;fill:#000000;fill-opacity:1;stroke:none"
       transform="scale(0.26458333)"><flowRegion
         id="flowRegion13473"><rect
           id="rect13475"
           width="195.96959"
           height="166.17009"
           x="494.46967"
           y="372.48141" /></flowRegion><flowPara
         id="flowPara13477" /></flowRoot>
    <g
       transform="translate(6.2838532,-23.245541)"
       id="g13764"
       clip-path="url(#clipPath13824-2)">
      <rect
         ry="11.277485"
         rx="12.750165"
         transform="matrix(0.39215177,0,0,0.44336126,41.921609,86.729261)"
         y="71.726196"
         x="12.095239"
         height="34.395832"
         width="92.982132"
         id="rect2173-6-7-8"
         style="display:inline;opacity:1;fill:none;fill-opacity:1;stroke:#00ffee;stroke-width:2.39824772;stroke-linecap:butt;stroke-linejoin:bevel;stroke-miterlimit:4;stroke-dasharray:none;stroke-opacity:1;paint-order:normal;filter:url(#filter9696)" />
    </g>
    <rect
       transform="translate(6.2838532,-23.245541)"
       style="display:inline;opacity:1;fill:none;fill-opacity:1;stroke:#ffffff;stroke-width:0.29999998;stroke-linecap:butt;stroke-linejoin:bevel;stroke-miterlimit:4;stroke-dasharray:none;stroke-opacity:1;paint-order:normal"
       id="rect2173-6-7-8-6"
       width="36.463108"
       height="15.24978"
       x="46.66478"
       y="118.52988"
       rx="4.9999995"
       ry="5"
       clip-path="url(#clipPath13820-7)" />
    <text
       xml:space="preserve"
       style="font-style:oblique;font-variant:normal;font-weight:normal;font-stretch:normal;font-size:10.5833px;line-height:1.25;font-family:Sawasdee;-inkscape-font-specification:'Sawasdee Oblique';letter-spacing:0px;word-spacing:0px;display:inline;fill:#000000;fill-opacity:1;stroke:#ff0075;stroke-width:0.7;stroke-miterlimit:4;stroke-dasharray:none;stroke-opacity:1;filter:url(#filter9814-6)"
       x="42.427536"
       y="107.77776"
       id="text817-7-6-5"><tspan
         sodipodi:role="line"
         id="tspan815-2-0-9"
         x="42.427536"
         y="107.77776"
         style="font-style:oblique;font-variant:normal;font-weight:normal;font-stretch:normal;font-size:12.7px;font-family:Sawasdee;-inkscape-font-specification:'Sawasdee Oblique';letter-spacing:0px;baseline-shift:baseline;fill:#445500;fill-opacity:1;stroke:#ff0075;stroke-width:0.7;stroke-miterlimit:4;stroke-dasharray:none;stroke-opacity:1"> OSOH<tspan
   style="fill:none;stroke:none"
   id="tspan13532"> </tspan> </tspan></text>
    <text
       xml:space="preserve"
       style="font-style:oblique;font-variant:normal;font-weight:normal;font-stretch:normal;font-size:10.5833px;line-height:1.25;font-family:Sawasdee;-inkscape-font-specification:'Sawasdee Oblique';letter-spacing:0px;word-spacing:0px;display:inline;fill:#ffedee;fill-opacity:1;stroke:#ff8200;stroke-width:0.3;stroke-miterlimit:4;stroke-dasharray:none;stroke-opacity:1;filter:url(#filter9830)"
       x="46.902576"
       y="107.76833"
       id="text1039-2-6-0-9"><tspan
         sodipodi:role="line"
         id="tspan1037-1-2-9-8"
         x="46.902576"
         y="107.76833"
         style="font-style:oblique;font-variant:normal;font-weight:normal;font-stretch:normal;font-size:12.7px;font-family:Sawasdee;-inkscape-font-specification:'Sawasdee Oblique';letter-spacing:0px;fill:#ffedee;fill-opacity:1;stroke:#ff8200;stroke-width:0.3;stroke-miterlimit:4;stroke-dasharray:none;stroke-opacity:1">OSOH </tspan></text>
    <text
       xml:space="preserve"
       style="font-style:oblique;font-variant:normal;font-weight:normal;font-stretch:normal;font-size:10.5833px;line-height:1.25;font-family:Sawasdee;-inkscape-font-specification:'Sawasdee Oblique';letter-spacing:0px;word-spacing:0px;display:inline;fill:#ffffff;fill-opacity:1;stroke:#ff004b;stroke-width:0.1;stroke-miterlimit:4;stroke-dasharray:none;stroke-opacity:1"
       x="46.908909"
       y="107.73996"
       id="text1039-2-6-0"><tspan
         sodipodi:role="line"
         id="tspan1037-1-2-9"
         x="46.908909"
         y="107.73996"
         style="font-style:oblique;font-variant:normal;font-weight:normal;font-stretch:normal;font-size:12.7px;font-family:Sawasdee;-inkscape-font-specification:'Sawasdee Oblique';letter-spacing:0px;fill:#ffffff;fill-opacity:1;stroke:#ff004b;stroke-width:0.1;stroke-miterlimit:4;stroke-dasharray:none;stroke-opacity:1">OSOH </tspan></text>
  </g>
</svg>
