<?xml version="1.0" encoding="UTF-8" standalone="no"?>
<svg
   width="1000"
   height="600"
   viewBox="0 0 1000 600"
   version="1.1"
   id="svg84"
   sodipodi:docname="outline_datalad.svg"
   inkscape:version="1.2.2 (732a01da63, 2022-12-09, custom)"
   xml:space="preserve"
   xmlns:inkscape="http://www.inkscape.org/namespaces/inkscape"
   xmlns:sodipodi="http://sodipodi.sourceforge.net/DTD/sodipodi-0.dtd"
   xmlns="http://www.w3.org/2000/svg"
   xmlns:svg="http://www.w3.org/2000/svg"
   xmlns:rdf="http://www.w3.org/1999/02/22-rdf-syntax-ns#"
   xmlns:cc="http://creativecommons.org/ns#"
   xmlns:dc="http://purl.org/dc/elements/1.1/"><metadata
     id="metadata90"><rdf:RDF><cc:Work
         rdf:about=""><dc:format>image/svg+xml</dc:format><dc:type
           rdf:resource="http://purl.org/dc/dcmitype/StillImage" /></cc:Work></rdf:RDF></metadata><defs
     id="defs88" /><sodipodi:namedview
     pagecolor="#ffffff"
     bordercolor="#666666"
     borderopacity="1"
     objecttolerance="10"
     gridtolerance="10"
     guidetolerance="10"
     inkscape:pageopacity="0"
     inkscape:pageshadow="2"
     inkscape:window-width="1842"
     inkscape:window-height="1005"
     id="namedview86"
     showgrid="false"
     inkscape:zoom="4.4257828"
     inkscape:cx="610.96536"
     inkscape:cy="375.86571"
     inkscape:window-x="78"
     inkscape:window-y="38"
     inkscape:window-maximized="1"
     inkscape:current-layer="svg84"
     inkscape:showpageshadow="2"
     inkscape:pagecheckerboard="0"
     inkscape:deskcolor="#d1d1d1" /><rect
     x="1063.0884"
     y="97.27803"
     width="123.74528"
     height="73.496956"
     id="rect22"
     style="fill:#00102e;fill-opacity:1;stroke:#ffc06b;stroke-width:3.4;stroke-dasharray:none;stroke-opacity:1" /><ellipse
     cx="-46.33469"
     cy="755.74109"
     fill="#2f2e41"
     rx="16.839094"
     ry="5.298018"
     transform="matrix(0.35774187,-0.93382052,0.93436319,0.35632208,0,0)"
     id="ellipse507"
     style="stroke-width:3.40000196;stroke:#ffc06b;stroke-opacity:1;stroke-dasharray:none" /><ellipse
     cx="696.38751"
     cy="297.7438"
     fill="#fba304"
     id="circle509"
     style="stroke-width:3.4;stroke:#ffc06b;stroke-opacity:1;stroke-dasharray:none"
     rx="5.8436151"
     ry="5.8303137" /><ellipse
     cx="673.83252"
     cy="482.87302"
     fill="#3f3d56"
     rx="72.615311"
     ry="9.8579206"
     id="ellipse511"
     style="stroke-width:3.4;stroke:#ffc06b;stroke-opacity:1;stroke-dasharray:none" /><path
     fill="#2f2e41"
     d="m 654.52848,461.14006 h 10.24983 v 18.32193 h -10.24983 z m 20.49967,0 h 10.24983 v 18.32193 h -10.24983 z"
     id="path515"
     style="stroke-width:3.4;stroke:#ffc06b;stroke-opacity:1;stroke-dasharray:none" /><ellipse
     cx="663.07227"
     cy="479.67648"
     fill="#2f2e41"
     rx="8.5437679"
     ry="3.1966202"
     id="ellipse517"
     style="stroke-width:3.4;stroke:#ffc06b;stroke-opacity:1;stroke-dasharray:none" /><ellipse
     cx="683.57196"
     cy="479.25427"
     fill="#2f2e41"
     rx="8.5437679"
     ry="3.1966202"
     id="ellipse519"
     style="stroke-width:3.4;stroke:#ffc06b;stroke-opacity:1;stroke-dasharray:none" /><ellipse
     cx="-26.027298"
     cy="698.67816"
     fill="#2f2e41"
     rx="5.2897086"
     ry="16.865553"
     transform="matrix(0.42932277,-0.90315113,0.90390732,0.42772838,0,0)"
     id="ellipse541"
     style="stroke-width:3.40000263;stroke:#ffc06b;stroke-opacity:1;stroke-dasharray:none" /><ellipse
     cx="630.60992"
     cy="472.8945"
     fill="#fba304"
     id="circle545"
     style="stroke-width:3.4;stroke:#ffc06b;stroke-opacity:1;stroke-dasharray:none"
     rx="5.8436151"
     ry="5.8303137" /><path
     fill="#ff6584"
     d="m 710.82197,466.06567 h 15.37475 v 15.33975 h -15.37475 z"
     id="path547"
     style="stroke-width:3.4;stroke:#ffc06b;stroke-opacity:1;stroke-dasharray:none" /><ellipse
     cx="710.9093"
     cy="476.30557"
     fill="#fba304"
     id="circle549"
     style="stroke-width:3.4;stroke:#ffc06b;stroke-opacity:1;stroke-dasharray:none"
     rx="5.8436151"
     ry="5.8303137" /><g
     id="g2194"
     style="fill:#00102d;fill-opacity:1;stroke:#ffc06b;stroke-opacity:1;stroke-width:3.4;stroke-dasharray:none"><g
       id="g2139"
       style="fill:#00102d;fill-opacity:1;stroke:#ffc06b;stroke-opacity:1;stroke-width:3.4;stroke-dasharray:none"><g
         opacity="0.608"
         transform="matrix(10.048331,0,0,10.025459,207.84121,-831.21264)"
         id="g461"
         style="stroke-width:0.3387504;fill:#00102d;fill-opacity:1;stroke:#ffc06b;stroke-opacity:1;stroke-dasharray:none"><path
           fill="#e5e5e5"
           d="M 23.83,112.428 H -5.35 a 0.88,0.88 0 0 1 -0.879,-0.88 v -9.843 a 0.88,0.88 0 0 1 0.88,-0.879 H 23.83 a 0.88,0.88 0 0 1 0.879,0.879 v 9.844 a 0.88,0.88 0 0 1 -0.88,0.879 z"
           id="path431"
           style="stroke-width:0.3387504;fill:#00102d;fill-opacity:1;stroke:#ffc06b;stroke-opacity:1;stroke-dasharray:none" /><path
           fill="#ffffff"
           d="m -1.659,103.463 h 7.734 v 0.879 h -7.734 z"
           id="path433"
           style="stroke-width:0.3387504;fill:#00102d;fill-opacity:1;stroke:#ffc06b;stroke-opacity:1;stroke-dasharray:none" /><circle
           cx="16.271"
           cy="103.99"
           r="0.52700001"
           fill="#fba304"
           id="circle435"
           style="stroke-width:0.3387504;fill:#00102d;fill-opacity:1;stroke:#ffc06b;stroke-opacity:1;stroke-dasharray:none" /><circle
           cx="18.028999"
           cy="103.99"
           r="0.52700001"
           fill="#fba304"
           id="circle437"
           style="stroke-width:0.3387504;fill:#00102d;fill-opacity:1;stroke:#ffc06b;stroke-opacity:1;stroke-dasharray:none" /><circle
           cx="19.787001"
           cy="103.99"
           r="0.52700001"
           fill="#fba304"
           id="circle439"
           style="stroke-width:0.3387504;fill:#00102d;fill-opacity:1;stroke:#ffc06b;stroke-opacity:1;stroke-dasharray:none" /><path
           fill="#e5e5e5"
           d="M 23.83,124.908 H -5.35 a 0.88,0.88 0 0 1 -0.879,-0.879 v -9.844 a 0.88,0.88 0 0 1 0.88,-0.878 H 23.83 a 0.88,0.88 0 0 1 0.879,0.878 v 9.844 a 0.88,0.88 0 0 1 -0.88,0.88 z"
           id="path441"
           style="stroke-width:0.3387504;fill:#00102d;fill-opacity:1;stroke:#ffc06b;stroke-opacity:1;stroke-dasharray:none" /><path
           fill="#ffffff"
           d="m -1.659,115.943 h 7.734 v 0.879 h -7.734 z"
           id="path443"
           style="stroke-width:0.3387504;fill:#00102d;fill-opacity:1;stroke:#ffc06b;stroke-opacity:1;stroke-dasharray:none" /><circle
           cx="16.271"
           cy="116.471"
           r="0.52700001"
           fill="#fba304"
           id="circle445"
           style="stroke-width:0.3387504;fill:#00102d;fill-opacity:1;stroke:#ffc06b;stroke-opacity:1;stroke-dasharray:none" /><circle
           cx="18.028999"
           cy="116.471"
           r="0.52700001"
           fill="#fba304"
           id="circle447"
           style="stroke-width:0.3387504;fill:#00102d;fill-opacity:1;stroke:#ffc06b;stroke-opacity:1;stroke-dasharray:none" /><circle
           cx="19.787001"
           cy="116.471"
           r="0.52700001"
           fill="#fba304"
           id="circle449"
           style="stroke-width:0.3387504;fill:#00102d;fill-opacity:1;stroke:#ffc06b;stroke-opacity:1;stroke-dasharray:none" /><path
           fill="#e5e5e5"
           d="M 23.83,137.389 H -5.35 a 0.88,0.88 0 0 1 -0.879,-0.88 v -9.843 a 0.88,0.88 0 0 1 0.88,-0.879 H 23.83 a 0.88,0.88 0 0 1 0.879,0.879 v 9.844 a 0.88,0.88 0 0 1 -0.88,0.879 z"
           id="path451"
           style="stroke-width:0.3387504;fill:#00102d;fill-opacity:1;stroke:#ffc06b;stroke-opacity:1;stroke-dasharray:none" /><path
           fill="#ffffff"
           d="m -1.659,128.424 h 7.734 v 0.879 h -7.734 z"
           id="path453"
           style="stroke-width:0.3387504;fill:#00102d;fill-opacity:1;stroke:#ffc06b;stroke-opacity:1;stroke-dasharray:none" /><circle
           cx="16.271"
           cy="128.951"
           r="0.52700001"
           fill="#fba304"
           id="circle455"
           style="stroke-width:0.3387504;fill:#00102d;fill-opacity:1;stroke:#ffc06b;stroke-opacity:1;stroke-dasharray:none" /><circle
           cx="18.028999"
           cy="128.951"
           r="0.52700001"
           fill="#fba304"
           id="circle457"
           style="stroke-width:0.3387504;fill:#00102d;fill-opacity:1;stroke:#ffc06b;stroke-opacity:1;stroke-dasharray:none" /><circle
           cx="19.787001"
           cy="128.951"
           r="0.52700001"
           fill="#fba304"
           id="circle459"
           style="stroke-width:0.3387504;fill:#00102d;fill-opacity:1;stroke:#ffc06b;stroke-opacity:1;stroke-dasharray:none" /></g><g
         fill="#cbcbda"
         data-name="Group 100"
         id="g467"
         style="stroke-width:0.5067706;fill:#00102d;fill-opacity:1;stroke:#ffc06b;stroke-opacity:1;stroke-dasharray:none"
         transform="matrix(6.7167988,0,0,6.70151,-234.59433,-614.63994)"><path
           d="m 94,168.985 a 1.21,1.21 0 1 0 1.21,1.21 1.21,1.21 0 0 0 -1.21,-1.21 z m 0,1.955 a 0.745,0.745 0 1 1 0.744,-0.745 0.745,0.745 0 0 1 -0.745,0.745 z"
           data-name="Path 1465"
           id="path463"
           style="stroke-width:0.5067706;fill:#00102d;fill-opacity:1;stroke:#ffc06b;stroke-opacity:1;stroke-dasharray:none" /><path
           d="M 89.345,168.055 H 94 v 4.606 a 0.606,0.606 0 0 1 -0.606,0.606 h -3.441 a 0.606,0.606 0 0 1 -0.607,-0.606 z"
           data-name="Path 1467"
           id="path465"
           style="stroke-width:0.5067706;fill:#00102d;fill-opacity:1;stroke:#ffc06b;stroke-opacity:1;stroke-dasharray:none" /></g><path
         fill="#cacaca"
         d="M 459.29129,547.48231 H 89.907654 a 0.5574943,0.84439026 0 0 1 0,-1.67538 H 459.29129 a 0.5574943,0.84439026 0 0 1 0,1.67538 z"
         data-name="Path 944"
         id="path469"
         style="stroke-width:3.4;fill:#00102d;fill-opacity:1;stroke:#ffc06b;stroke-opacity:1;stroke-dasharray:none" /><path
         fill="#ffb6b6"
         d="m 215.53194,553.93587 4.29204,-21.15667 -55.42031,-11.18482 -2.90837,14.34123 z"
         id="path471"
         style="stroke-width:3.4;fill:#00102d;fill-opacity:1;stroke:#ffc06b;stroke-opacity:1;stroke-dasharray:none" /><path
         fill="#2f2e41"
         d="m 169.83756,518.88697 -5.72271,28.23346 a 18.404029,18.362137 0 0 1 -21.68183,14.34793 l -0.59108,-0.11392 9.37665,-46.22702 z"
         id="path473"
         style="stroke-width:3.4;fill:#00102d;fill-opacity:1;stroke:#ffc06b;stroke-opacity:1;stroke-dasharray:none" /><ellipse
         cx="225.6407"
         cy="287.5173"
         fill="#feb8b8"
         data-name="Ellipse 276"
         id="circle475"
         style="stroke-width:3.4;fill:#00102d;fill-opacity:1;stroke:#ffc06b;stroke-opacity:1;stroke-dasharray:none"
         rx="36.693871"
         ry="36.610348" /><path
         fill="#2f2e41"
         d="m 259.90983,255.93312 a 42.376284,42.279827 0 0 0 -24.11331,-18.38224 l -4.50025,3.27704 v -4.26216 a 39.004451,38.915669 0 0 0 -7.28773,-0.4222 l -3.88231,3.51159 v -3.21672 a 41.973276,41.877736 0 0 0 -28.9494,17.18267 c -8.44302,12.13643 -9.8737,29.02424 -1.57173,41.2612 2.28371,-6.98298 5.04431,-13.53705 7.32131,-20.52673 a 20.728041,20.68086 0 0 0 5.40702,0.0268 l 2.76732,-6.45356 0.77915,6.17879 a 364.26543,363.43629 0 0 0 29.48675,-3.88687 l -0.7993,-4.74467 4.74206,3.94049 c 2.49193,-0.56963 3.97634,-1.09235 3.85544,-1.48774 6.05855,9.744 13.4739,15.9697 19.53245,25.7137 2.29715,-13.7381 4.95028,-25.17088 -2.78747,-37.7094 z"
         data-name="Path 1461"
         id="path477"
         style="stroke-width:3.4;fill:#00102d;fill-opacity:1;stroke:#ffc06b;stroke-opacity:1;stroke-dasharray:none" /><ellipse
         cx="237.57646"
         cy="500.71246"
         fill="#2f2e41"
         data-name="Ellipse 260"
         rx="94.478493"
         ry="26.363741"
         id="ellipse479"
         style="stroke-width:3.4;fill:#00102d;fill-opacity:1;stroke:#ffc06b;stroke-opacity:1;stroke-dasharray:none" /><path
         fill="#fba304"
         d="m 304.55639,381.66015 c -1.26276,-7.57271 -2.56581,-15.29285 -6.09213,-22.11498 -2.3173,-4.46991 -5.9981,-8.73207 -10.96182,-9.61667 a 10.605825,10.581684 0 0 1 -2.85464,-0.65675 994.92582,992.66117 0 0 1 -24.09316,-13.7649 c -2.66657,-1.66198 -6.878,-4.74467 -9.00051,-4.74467 -2.13594,-0.0469 -10.317,1.85632 -42.26881,-0.63664 a 115.40132,115.13864 0 0 0 -15.56954,7.63972 c -0.10747,-0.067 -33.16755,17.64507 -34.41016,17.59816 -2.35088,-0.10052 -4.53384,1.40732 -5.88392,3.29715 -1.34336,1.88982 -1.98145,4.22865 -2.6397,6.50046 7.22056,16.03671 13.82317,32.10023 21.04373,48.15035 a 4.1173977,4.1080256 0 0 1 0.52391,1.97695 4.8360951,4.8250872 0 0 1 -0.90005,1.97024 c -3.53975,5.67618 -3.42557,12.81999 -3.04271,19.48799 0.38958,6.6747 0.87319,13.71799 -2.12251,19.70244 -0.80601,1.63517 -1.86727,3.13631 -2.6397,4.77818 -1.81353,3.71933 -2.46506,15.61452 -1.41053,19.60862 l 132.46871,3.78635 c -2.84792,-7.81396 9.84683,-102.9687 9.84683,-102.9687 z"
         id="path481"
         style="stroke-width:3.4;fill:#00102d;fill-opacity:1;stroke:#ffc06b;stroke-opacity:1;stroke-dasharray:none" /><path
         fill="#fbbebe"
         d="m 139.32986,414.02174 a 23.387893,23.334658 0 0 0 -0.0806,5.7566 l 1.90085,27.20813 c 0.17464,2.55997 0.34928,5.11325 0.59108,7.67323 a 194.78717,194.34379 0 0 0 1.98146,14.81033 2.6397019,2.6336934 0 0 0 2.70687,2.55998 c 8.36241,1.7625 16.9935,1.69548 25.52383,1.20627 13.01716,-0.71706 46.31233,-2.09087 48.34752,-4.72456 2.03519,-2.6404 0.85303,-6.90256 -1.8001,-9.03364 -2.65314,-2.13778 -46.59444,-7.33145 -46.59444,-7.33145 0.42988,-3.39766 1.7195,-6.59428 2.95539,-9.81771 2.20311,-5.71639 4.26517,-11.62042 4.29876,-17.7456 0.047,-6.12518 -2.27028,-12.55863 -7.29445,-16.07022 -4.13755,-2.88165 -9.46397,-3.41777 -14.50828,-3.29714 -3.66066,0.10722 -9.9946,-0.77068 -13.34628,0.66345 -2.65314,1.16606 -4.18457,5.55555 -4.68161,8.14233 z"
         data-name="Path 1421"
         id="path483"
         style="stroke-width:3.4;fill:#00102d;fill-opacity:1;stroke:#ffc06b;stroke-opacity:1;stroke-dasharray:none" /><path
         fill="#2f2e41"
         d="m 304.79148,475.5148 c 2.19639,-0.83769 4.62116,-0.53612 6.98547,-0.21445 7.58998,1.03203 15.28744,2.09757 22.32664,5.11995 3.30467,1.40732 6.44813,3.29714 8.6781,6.07157 1.98146,2.49966 3.14347,5.55555 4.23159,8.56453 l 2.54566,6.93606 a 33.456375,33.380221 0 0 1 2.21655,8.12893 c 0.78586,8.29647 -4.90326,16.12384 -12.05666,20.43961 -7.15339,4.30907 -15.58297,5.84372 -23.78418,7.45208 -8.20793,1.60836 -16.44272,3.38426 -24.61707,5.27409 a 99.092933,98.867377 0 0 1 -11.57976,2.27181 c -8.75199,0.98512 -17.89355,-0.46911 -26.20223,2.41924 -3.30467,1.15266 -6.54888,2.86825 -9.97445,3.66573 a 62.063221,61.921952 0 0 1 -6.89815,1.04544 l -15.73074,1.796 a 85.813821,85.618492 0 0 1 -9.64533,0.73717 c -6.87128,0 -13.6351,-1.62177 -20.30488,-3.24353 a 5.1316343,5.1199536 0 0 1 -1.98145,-0.80419 c -1.05454,-0.82428 -1.28291,-2.29861 -1.4374,-3.62551 q -1.00752,-8.846 -1.76652,-17.69869 c -0.1612,-1.92333 -0.2821,-3.9941 0.77244,-5.60916 1.3232,-1.97695 3.89574,-2.60019 6.24662,-2.98218 a 163.10403,162.73277 0 0 1 30.18529,-2.09087 c 3.83529,-3.82656 10.16252,-3.84666 15.1934,-5.93083 a 45.204056,45.101162 0 0 0 5.36001,-2.90846 70.029344,69.869943 0 0 1 29.41957,-9.27489 27.384389,27.322056 0 0 0 6.01826,-0.85779 c 3.89574,-1.20627 7.43549,-4.49001 11.43199,-3.68583 0.49704,-1.36041 0.8396,-3.18992 1.98145,-4.12143 0.57093,-0.48251 1.2762,-0.80418 1.79339,-1.3202 1.10155,-1.11245 1.20231,-2.86825 1.03439,-4.423 -0.16121,-1.55475 -0.53735,-3.14971 -0.13434,-4.66425 a 6.4682772,6.4535541 0 0 1 0.73885,-1.62846 c 1.97474,-3.41777 4.97043,-5.16017 8.95349,-4.83849 z"
         data-name="Path 1423"
         id="path485"
         style="stroke-width:3.4;fill:#00102d;fill-opacity:1;stroke:#ffc06b;stroke-opacity:1;stroke-dasharray:none" /><path
         fill="#fba304"
         d="m 150.39914,365.64354 a 6.8377012,6.8221372 0 0 0 -1.47098,2.34553 110.90106,110.64863 0 0 0 -9.3162,37.97746 3.8084249,3.7997562 0 0 1 -0.42315,1.84291 8.0601586,8.041812 0 0 1 -0.97394,1.04544 3.6472217,3.6389199 0 0 0 0.43659,5.12665 l 0.18136,0.14743 c 1.09483,-2.05066 3.70095,-2.71411 6.01825,-2.89505 11.10958,-0.87119 21.95721,4.27557 33.09367,3.88688 -0.78587,-2.70741 -1.91429,-5.3076 -2.55239,-8.05522 -2.83449,-12.16994 4.23159,-25.42553 -0.10075,-37.15317 -0.86647,-2.34553 -2.31058,-4.65755 -4.59429,-5.68288 a 12.224574,12.196748 0 0 0 -2.93524,-0.77737 c -2.82106,-0.50932 -8.42287,-2.68061 -11.14317,-1.80941 -1.00752,0.32837 -1.39709,1.27329 -2.22998,1.83621 -1.26276,0.80418 -2.94196,1.10575 -3.98978,2.16459 z"
         data-name="Path 1430"
         id="path487"
         style="stroke-width:3.4;fill:#00102d;fill-opacity:1;stroke:#ffc06b;stroke-opacity:1;stroke-dasharray:none" /><path
         fill="#fbbebe"
         d="m 304.63028,405.87941 c -3.34497,-1.43413 -9.68563,-0.55623 -13.353,-0.66345 -5.0376,-0.11393 -10.36402,0.41549 -14.49485,3.29714 -5.0376,3.51159 -7.34146,9.94504 -7.30116,16.07022 0.0403,6.12518 2.09564,12.02921 4.29875,17.7456 1.23589,3.22343 2.53223,6.42005 2.95539,9.81771 0,0 -43.9413,5.19367 -46.59443,7.32475 -2.64642,2.13778 -3.82858,6.39994 -1.8001,9.04034 2.03519,2.63369 65.51565,5.28079 73.87135,3.51829 a 2.6397019,2.6336934 0 0 0 2.70687,-2.56668 c 0.84632,-4.91891 1.52471,-9.83781 1.98146,-14.81033 0.2418,-2.54658 0.41644,-5.10656 0.59779,-7.67323 l 1.89414,-27.20813 a 23.387893,23.334658 0 0 0 -0.0806,-5.7499 c -0.49033,-2.59348 -2.02848,-6.98297 -4.68161,-8.14233 z"
         data-name="Path 1421"
         id="path489"
         style="stroke-width:3.4;fill:#00102d;fill-opacity:1;stroke:#ffc06b;stroke-opacity:1;stroke-dasharray:none" /><path
         fill="#fba304"
         d="m 294.25282,363.47895 c -0.83288,-0.56963 -1.22917,-1.50784 -2.22997,-1.82951 -2.72031,-0.8712 -8.32883,1.29339 -11.13646,1.80941 a 12.224574,12.196748 0 0 0 -2.94195,0.77067 c -2.28372,1.02533 -3.72783,3.33735 -4.59429,5.68288 -4.33234,11.72764 2.74045,24.98323 -0.094,37.15317 -0.64481,2.74762 -1.77323,5.34781 -2.5591,8.05522 11.13645,0.38869 21.98408,-4.75807 33.09367,-3.88688 2.31729,0.18094 4.93013,0.84439 6.01825,2.89505 q 0.094,-0.067 0.18135,-0.14743 a 3.6472217,3.6389199 0 0 0 0.4366,-5.12665 8.0601586,8.041812 0 0 1 -0.96722,-1.04544 3.8084249,3.7997562 0 0 1 -0.42988,-1.84291 110.90106,110.64863 0 0 0 -9.3162,-37.97746 6.8377012,6.8221372 0 0 0 -1.46426,-2.34553 c -1.04782,-1.05884 -2.72702,-1.35371 -3.9965,-2.16459 z"
         data-name="Path 1430"
         id="path491"
         style="stroke-width:3.4;fill:#00102d;fill-opacity:1;stroke:#ffc06b;stroke-opacity:1;stroke-dasharray:none" /><path
         fill="#ffb6b6"
         d="m 253.93188,556.02674 2.84792,-21.39792 56.05169,7.43197 -1.92772,14.49537 z"
         id="path493"
         style="stroke-width:3.4;fill:#00102d;fill-opacity:1;stroke:#ffc06b;stroke-opacity:1;stroke-dasharray:none" /><path
         fill="#2f2e41"
         d="m 327.41366,540.23128 -6.23319,46.74973 -0.59108,-0.0804 a 18.404029,18.362137 0 0 1 -15.81134,-20.61384 l 3.80171,-28.54843 z"
         id="path495"
         style="stroke-width:3.4;fill:#00102d;fill-opacity:1;stroke:#ffc06b;stroke-opacity:1;stroke-dasharray:none" /><path
         fill="#2f2e41"
         d="m 178.80449,482.85295 c 0,0.65675 -1.03439,0 -1.13514,-0.70366 -0.72542,-5.3344 -4.97043,-9.73059 -9.90728,-11.86167 -4.94357,-2.14448 -10.57224,-2.25171 -15.91881,-1.74239 -8.09375,0.76397 -17.18158,3.85336 -20.14368,11.39926 -0.69855,1.7625 -7.25415,17.47754 -6.61605,21.00924 1.72622,9.42902 8.18106,17.49094 16.01285,23.0733 7.83178,5.58235 16.98006,8.91301 26.10148,11.92868 a 452.67866,451.64827 0 0 0 73.99897,17.62498 c 4.07038,0.61654 8.17434,1.18616 12.0768,2.48626 3.48602,1.16606 6.75039,2.91515 10.16252,4.28896 7.92582,3.17652 16.45616,4.30907 24.90589,5.42823 1.4374,0.18094 3.08973,0.31497 4.15098,-0.67016 1.37695,-1.26658 0.9202,-3.48478 0.53735,-5.30759 a 28.64043,28.575239 0 0 1 3.37183,-20.27207 c 1.41053,-2.37903 3.25093,-4.81168 2.98226,-7.5526 -0.31569,-3.20332 -3.51289,-5.47513 -6.69665,-5.98445 -3.18376,-0.51602 -6.42126,0.24126 -9.61846,0.65675 a 5.1517847,5.1400582 0 0 1 -3.27108,-0.32167 6.5354452,6.5205692 0 0 1 -1.27619,-1.13926 14.488135,14.455157 0 0 0 -16.87931,-2.34553 c -1.18216,0.65675 -2.96883,-0.81758 -4.20472,-1.36711 l -13.89034,-6.27931 c -15.96583,-7.20412 -32.00555,-14.44176 -48.89158,-18.99878 a 10.269985,10.246609 0 0 1 -3.76141,-1.56145 c -0.84631,-0.66345 -1.44411,-1.55475 -2.21654,-2.29192 -1.68592,-1.58826 -4.03008,-2.2182 -6.05184,-3.35076 -2.01504,-1.12585 -4.28531,-3.88687 -3.82185,-6.14528 z"
         data-name="Path 1427"
         id="path497"
         style="stroke-width:3.4;fill:#00102d;fill-opacity:1;stroke:#ffc06b;stroke-opacity:1;stroke-dasharray:none" /><ellipse
         cx="214.77295"
         cy="463.44534"
         fill="#fbbebe"
         id="circle499"
         style="stroke-width:3.4;fill:#00102d;fill-opacity:1;stroke:#ffc06b;stroke-opacity:1;stroke-dasharray:none"
         rx="9.9005613"
         ry="9.878026" /><ellipse
         cx="236.70329"
         cy="463.44534"
         fill="#fbbebe"
         id="circle501"
         style="stroke-width:3.4;fill:#00102d;fill-opacity:1;stroke:#ffc06b;stroke-opacity:1;stroke-dasharray:none"
         rx="9.9005613"
         ry="9.878026" /><path
         fill="#3f3d56"
         d="M 297.83288,485.71449 H 161.7774 a 5.9981013,5.9844484 0 0 1 -5.99138,-5.97774 v -82.36156 a 5.9981013,5.9844484 0 0 1 5.99138,-5.97105 h 136.05548 a 5.9981013,5.9844484 0 0 1 5.99138,5.97775 v 82.35486 a 5.9981013,5.9844484 0 0 1 -5.99138,5.97774 z"
         id="path503"
         style="stroke-width:3.4;fill:#00102d;fill-opacity:1;stroke:#ffc06b;stroke-opacity:1;stroke-dasharray:none" /><ellipse
         cx="229.47604"
         cy="438.556"
         fill="#ffffff"
         data-name="Ellipse 263"
         id="circle505"
         style="stroke-width:3.4;fill:#00102d;fill-opacity:1;stroke:#ffc06b;stroke-opacity:1;stroke-dasharray:none"
         rx="3.9629111"
         ry="3.9538908" /><path
         d="M 457.41058,38.000014 V 546.59771 h 1.74637 V 39.789318 h 179.13702 -2.78075 l 0.34256,-1.789304 z"
         id="path555"
         style="stroke-width:3.4;fill:#00102d;fill-opacity:1;stroke:#ffc06b;stroke-opacity:1;stroke-dasharray:none" /></g><g
       id="g2098"
       style="fill:#00102d;fill-opacity:1;stroke:#ffc06b;stroke-opacity:1;stroke-width:3.4;stroke-dasharray:none"><path
         fill="#3f3d56"
         d="M 818.95571,510.97919 H 642.18972 a 3.539753,3.5316958 0 0 0 -3.53975,3.52499 v 33.23949 h 1.41724 v -33.23949 a 2.1225084,2.1176772 0 0 1 2.12251,-2.11768 h 176.76599 a 2.1225084,2.1176772 0 0 1 2.12251,2.11768 v 33.47404 h 1.41053 v -33.47404 a 3.539753,3.5316958 0 0 0 -3.53304,-3.52499 z"
         id="path551"
         style="stroke-width:3.4;fill:#00102d;fill-opacity:1;stroke:#ffc06b;stroke-opacity:1;stroke-dasharray:none" /><path
         fill="#3f3d56"
         d="m 406.02707,545.86055 h 477.0069 v 1.62176 h -477.0069 z"
         id="path553"
         style="stroke-width:3.4;fill:#00102d;fill-opacity:1;stroke:#ffc06b;stroke-opacity:1;stroke-dasharray:none" /><ellipse
         cx="591.33679"
         cy="546.5575"
         fill="#fba304"
         data-name="Ellipse 266"
         id="circle583"
         style="stroke-width:3.4;fill:#00102d;fill-opacity:1;stroke:#ffc06b;stroke-opacity:1;stroke-dasharray:none"
         rx="12.170839"
         ry="12.143136" /><ellipse
         cx="675.24976"
         cy="511.32101"
         fill="#3f3d56"
         data-name="Ellipse 268"
         id="circle585"
         style="stroke-width:3.4;fill:#00102d;fill-opacity:1;stroke:#ffc06b;stroke-opacity:1;stroke-dasharray:none"
         rx="12.170839"
         ry="12.143136" /><ellipse
         cx="739.0459"
         cy="511.32101"
         fill="#cccccc"
         data-name="Ellipse 269"
         id="circle587"
         style="stroke-width:3.4;fill:#00102d;fill-opacity:1;stroke:#ffc06b;stroke-opacity:1;stroke-dasharray:none"
         rx="12.170839"
         ry="12.143136" /><ellipse
         cx="708.13525"
         cy="546.5575"
         fill="#fba304"
         data-name="Ellipse 270"
         id="circle589"
         style="stroke-width:3.4;fill:#00102d;fill-opacity:1;stroke:#ffc06b;stroke-opacity:1;stroke-dasharray:none"
         rx="12.170839"
         ry="12.143136" /><ellipse
         cx="881.36823"
         cy="546.5575"
         fill="#fba304"
         data-name="Ellipse 271"
         id="circle591"
         style="stroke-width:3.4;fill:#00102d;fill-opacity:1;stroke:#ffc06b;stroke-opacity:1;stroke-dasharray:none"
         rx="12.170839"
         ry="12.143136" /><ellipse
         cx="821.78351"
         cy="546.5575"
         fill="#fba304"
         data-name="Ellipse 272"
         id="circle593"
         style="stroke-width:3.4;fill:#00102d;fill-opacity:1;stroke:#ffc06b;stroke-opacity:1;stroke-dasharray:none"
         rx="12.170839"
         ry="12.143136" /><path
         fill="#3f3d56"
         d="m 505.41554,547.37509 a 0.70526387,0.70365855 0 0 1 -0.70526,-0.70366 v -34.84115 a 3.539753,3.5316958 0 0 1 3.53304,-3.525 h 34.43031 a 0.70526532,0.70366 0 0 1 0,1.40732 h -34.43031 a 2.1225084,2.1176772 0 0 0 -2.12251,2.11768 v 34.84115 a 0.70526387,0.70365855 0 0 1 -0.70527,0.70366 z"
         id="path595"
         style="stroke-width:3.4;fill:#00102d;fill-opacity:1;stroke:#ffc06b;stroke-opacity:1;stroke-dasharray:none" /><ellipse
         cx="544.29236"
         cy="508.74762"
         fill="#e6e6e6"
         data-name="Ellipse 265"
         id="circle597"
         style="stroke-width:3.4;fill:#00102d;fill-opacity:1;stroke:#ffc06b;stroke-opacity:1;stroke-dasharray:none"
         rx="12.170839"
         ry="12.143136" /><path
         fill="#3f3d56"
         d="m 777.75487,547.31477 h -1.41053 v 34.83445 a 3.539753,3.5316958 0 0 0 3.53304,3.5317 h 34.43031 v -1.40732 h -34.43031 a 2.1225084,2.1176772 0 0 1 -2.12251,-2.12438 z"
         id="path599"
         style="stroke-width:3.4;fill:#00102d;fill-opacity:1;stroke:#ffc06b;stroke-opacity:1;stroke-dasharray:none" /><ellipse
         cx="815.92639"
         cy="583.21478"
         fill="#e6e6e6"
         data-name="Ellipse 265"
         id="circle601"
         style="stroke-width:3.4;fill:#00102d;fill-opacity:1;stroke:#ffc06b;stroke-opacity:1;stroke-dasharray:none"
         rx="12.170839"
         ry="12.143136" /></g></g><path
     fill="none"
     stroke="#3f3d56"
     stroke-width="0.265"
     d="M 676.0088,507.9434 V 473.41052"
     id="path603" /><g
     transform="matrix(3.895206,2.4640112,-2.4696326,3.8863397,-70.042269,-98.360702)"
     id="g581"
     style="stroke-width:0.73802742;stroke:#ffc06b;stroke-opacity:1;stroke-dasharray:none"><path
       fill="#2f2e41"
       d="m 168.738,-31.937 -2.188,0.396 -0.71,-3.918 2.188,-0.396 z m -4.374,0.792 -2.188,0.396 -0.709,-3.918 2.188,-0.396 z"
       id="path559"
       style="stroke-width:0.73802742;stroke:#ffc06b;stroke-opacity:1;stroke-dasharray:none" /><ellipse
       cx="143.983"
       cy="82.029999"
       fill="#2f2e41"
       rx="1.852"
       ry="0.69499999"
       transform="rotate(-40.261)"
       id="ellipse561"
       style="stroke-width:0.73802742;stroke:#ffc06b;stroke-opacity:1;stroke-dasharray:none" /><ellipse
       cx="147.75301"
       cy="84.207001"
       fill="#2f2e41"
       rx="1.852"
       ry="0.69499999"
       transform="rotate(-40.261)"
       id="ellipse563"
       style="stroke-width:0.73802742;stroke:#ffc06b;stroke-opacity:1;stroke-dasharray:none" /><ellipse
       cx="76.247002"
       cy="143.563"
       fill="#2f2e41"
       rx="1.148"
       ry="3.658"
       transform="rotate(-77.09)"
       id="ellipse571"
       style="stroke-width:0.73802742;stroke:#ffc06b;stroke-opacity:1;stroke-dasharray:none" /><ellipse
       cx="77.127998"
       cy="158.095"
       fill="#2f2e41"
       rx="1.148"
       ry="3.658"
       transform="rotate(-77.09)"
       id="ellipse573"
       style="stroke-width:0.73802742;stroke:#ffc06b;stroke-opacity:1;stroke-dasharray:none" /><path
       fill="none"
       stroke="#3f3d56"
       stroke-miterlimit="10"
       stroke-width="0.0511242"
       d="m 148.13,-51.673 5.832,8.877"
       id="path577"
       style="stroke:#ffc06b;stroke-opacity:1;stroke-width:0.73802742;stroke-dasharray:none" /><circle
       cx="145.02699"
       cy="-56.646"
       r="6.2979999"
       fill="#ff6584"
       id="circle579"
       style="stroke-width:0.73802742;stroke:#ffc06b;stroke-opacity:1;stroke-dasharray:none" /><circle
       cx="163.53746"
       cy="-41.105167"
       r="7.316"
       fill="#2f2e41"
       id="circle557"
       style="stroke:#ffc06b;stroke-width:0.738027;stroke-dasharray:none;stroke-opacity:1" /><circle
       cx="163.02545"
       cy="-42.895168"
       r="2.5009999"
       fill="#ffffff"
       id="circle565"
       style="stroke:#ffc06b;stroke-width:0.738027;stroke-dasharray:none;stroke-opacity:1" /><circle
       cx="162.98445"
       cy="-42.758167"
       r="0.83399999"
       fill="#3f3d56"
       id="circle567"
       style="stroke:#ffc06b;stroke-width:0.738027;stroke-dasharray:none;stroke-opacity:1" /><path
       fill="#fba304"
       d="m 169.30945,-49.064167 c 0.11,-2.71 -2.225,-5.004 -5.215,-5.125 -2.99,-0.122 -5.502,1.976 -5.612,4.683999 -0.11,2.709001 1.968,3.324 4.958,3.446 2.99,0.121 5.759,-0.297 5.869,-3.006 z"
       id="path569"
       style="stroke:#ffc06b;stroke-width:0.738027;stroke-dasharray:none;stroke-opacity:1" /><path
       fill="#ffffff"
       d="m 161.37545,-37.099168 a 2.124,2.475 62.75 1 1 4.791,-0.938 c 0.12,1.189 -0.928,1.645 -2.251,1.904 -1.323,0.258 -2.42,0.222 -2.54,-0.966 z"
       id="path575"
       style="stroke:#ffc06b;stroke-width:0.738027;stroke-dasharray:none;stroke-opacity:1" /></g><ellipse
     cx="669.78955"
     cy="432.4624"
     fill="#2f2e41"
     id="circle513"
     style="stroke:#ffc06b;stroke-width:3.4;stroke-dasharray:none;stroke-opacity:1"
     rx="33.745197"
     ry="33.668388" /><ellipse
     cx="670.64258"
     cy="423.93808"
     fill="#ffffff"
     id="circle521"
     style="stroke:#ffc06b;stroke-width:3.4;stroke-dasharray:none;stroke-opacity:1"
     rx="11.532743"
     ry="11.506493" /><ellipse
     cx="670.64258"
     cy="423.93808"
     fill="#3f3d56"
     id="circle523"
     style="stroke:#ffc06b;stroke-width:3.4;stroke-dasharray:none;stroke-opacity:1"
     rx="3.8420091"
     ry="3.8332639" /><path
     fill="#fba304"
     d="m 637.05855,401.15291 c -2.72702,-12.16994 5.97795,-24.47392 19.45185,-27.47619 13.46718,-3.00228 26.59852,4.4364 29.31883,16.61304 2.72702,12.16994 -6.19961,16.65995 -19.66679,19.66223 -13.46718,3.00228 -26.38359,3.37756 -29.10389,-8.79908 z"
     id="path525"
     style="stroke:#ffc06b;stroke-width:3.4;stroke-dasharray:none;stroke-opacity:1" /><path
     fill="#2f2e41"
     d="m 643.18941,361.89268 h 10.24984 v 18.32193 h -10.24984 z m 20.49967,0 h 10.24984 v 18.32193 h -10.24984 z"
     id="path529"
     style="stroke:#ffc06b;stroke-width:3.4;stroke-dasharray:none;stroke-opacity:1" /><ellipse
     cx="651.06641"
     cy="381.96719"
     fill="#2f2e41"
     rx="8.5437679"
     ry="3.1966202"
     id="ellipse531"
     style="stroke:#ffc06b;stroke-width:3.4;stroke-dasharray:none;stroke-opacity:1" /><ellipse
     cx="671.56604"
     cy="381.53833"
     fill="#2f2e41"
     rx="8.5437679"
     ry="3.1966202"
     id="ellipse533"
     style="stroke:#ffc06b;stroke-width:3.4;stroke-dasharray:none;stroke-opacity:1" /><ellipse
     cx="660.45697"
     cy="334.20474"
     fill="#2f2e41"
     id="circle527"
     style="stroke:#ffc06b;stroke-width:3.4;stroke-dasharray:none;stroke-opacity:1"
     rx="33.745197"
     ry="33.668388" /><ellipse
     cx="661.31"
     cy="325.68048"
     fill="#ffffff"
     id="circle535"
     style="stroke:#ffc06b;stroke-width:3.4;stroke-dasharray:none;stroke-opacity:1"
     rx="11.532743"
     ry="11.506493" /><ellipse
     cx="661.31"
     cy="318.37576"
     fill="#3f3d56"
     id="circle537"
     style="stroke:#ffc06b;stroke-width:3.4;stroke-dasharray:none;stroke-opacity:1"
     rx="3.8420091"
     ry="3.8332639" /><path
     fill="#fba304"
     d="m 627.72597,302.89531 c -2.72702,-12.17664 5.97795,-24.48061 19.45185,-27.47618 13.46718,-3.00227 26.59852,4.4364 29.31882,16.60633 2.72702,12.17665 -6.1996,16.66666 -19.66678,19.66893 -13.46719,2.99558 -26.38359,3.37086 -29.10389,-8.79908 z"
     id="path539"
     style="stroke:#ffc06b;stroke-width:3.4;stroke-dasharray:none;stroke-opacity:1" /><path
     fill="#ffffff"
     d="m 682.74326,345.79838 c -0.68511,-3.21672 -10.36402,-7.81396 -19.5929,-5.85712 -9.22888,1.96354 -15.94568,12.8803 -15.25385,16.10373 0.68512,3.21672 8.5169,-2.46616 17.74579,-4.4297 9.22888,-1.96354 17.7928,-2.59348 17.10096,-5.81691 z"
     id="path543"
     style="stroke:#ffc06b;stroke-width:3.4;stroke-dasharray:none;stroke-opacity:1" /></svg>
