<?xml version="1.0" encoding="UTF-8" standalone="no"?>
<svg
   width="1000"
   height="600"
   viewBox="0 0 1000 600"
   version="1.1"
   id="svg84"
   sodipodi:docname="outline_data_visualization.svg"
   inkscape:version="1.2.2 (732a01da63, 2022-12-09, custom)"
   xml:space="preserve"
   xmlns:inkscape="http://www.inkscape.org/namespaces/inkscape"
   xmlns:sodipodi="http://sodipodi.sourceforge.net/DTD/sodipodi-0.dtd"
   xmlns="http://www.w3.org/2000/svg"
   xmlns:svg="http://www.w3.org/2000/svg"
   xmlns:rdf="http://www.w3.org/1999/02/22-rdf-syntax-ns#"
   xmlns:cc="http://creativecommons.org/ns#"
   xmlns:dc="http://purl.org/dc/elements/1.1/"><metadata
     id="metadata90"><rdf:RDF><cc:Work
         rdf:about=""><dc:format>image/svg+xml</dc:format><dc:type
           rdf:resource="http://purl.org/dc/dcmitype/StillImage" /></cc:Work></rdf:RDF></metadata><defs
     id="defs88" /><sodipodi:namedview
     pagecolor="#ffffff"
     bordercolor="#666666"
     borderopacity="1"
     objecttolerance="10"
     gridtolerance="10"
     guidetolerance="10"
     inkscape:pageopacity="0"
     inkscape:pageshadow="2"
     inkscape:window-width="1842"
     inkscape:window-height="1005"
     id="namedview86"
     showgrid="false"
     inkscape:zoom="1.3741259"
     inkscape:cx="526.51653"
     inkscape:cy="279.08651"
     inkscape:window-x="78"
     inkscape:window-y="38"
     inkscape:window-maximized="1"
     inkscape:current-layer="svg84"
     inkscape:showpageshadow="2"
     inkscape:pagecheckerboard="0"
     inkscape:deskcolor="#d1d1d1" /><path
     d="M 765.70706,379.03562 H 231.04584 a 13.781767,13.834216 0 0 1 -13.7662,-13.81859 V 34.279589 a 10.096756,10.135181 0 0 1 10.08514,-10.1239 h 541.84881 a 10.271361,10.310451 0 0 1 10.25967,10.298927 V 365.21703 a 13.781775,13.834225 0 0 1 -13.7662,13.81859 z"
     fill="#f2f2f2"
     id="path9724"
     style="stroke-width:3.4;stroke:#ffc06b;stroke-opacity:1;stroke-dasharray:none;fill:none;fill-opacity:1" /><path
     d="M 746.20303,359.46613 H 247.91274 c -7.30443,0 -13.24689,-5.58599 -13.24689,-12.45194 V 58.829627 c 0,-5.092 4.40347,-9.23488 9.81624,-9.23488 h 504.98895 c 5.50249,0 9.97899,4.211169 9.97899,9.38701 V 347.01419 c 2e-5,6.86595 -5.94267,12.45194 -13.247,12.45194 z"
     fill="#ffffff"
     id="path9726"
     style="stroke-width:3.4;stroke:#ffc06b;stroke-opacity:1;stroke-dasharray:none;fill:none;fill-opacity:1" /><path
     d="M 779.28158,33.489132 H 217.08644 v -7.035244 a 13.827746,13.88037 0 0 1 13.81631,-13.860304 h 534.56253 a 13.827679,13.880303 0 0 1 13.8163,13.860304 z"
     fill="#cccccc"
     id="path9728"
     style="stroke-width:3.4;stroke:#ffc06b;stroke-opacity:1;stroke-dasharray:none;fill:#00102c;fill-opacity:1" /><ellipse
     cx="242.19545"
     cy="23.062204"
     fill="#ffffff"
     id="circle9730"
     style="stroke-width:3.4;stroke:#ffc06b;stroke-opacity:1;stroke-dasharray:none;fill:#00102c;fill-opacity:1"
     rx="3.5737219"
     ry="3.5873225" /><ellipse
     cx="255.76044"
     cy="23.062204"
     fill="#ffffff"
     id="circle9732"
     style="stroke-width:3.4;stroke:#ffc06b;stroke-opacity:1;stroke-dasharray:none;fill:#00102c;fill-opacity:1"
     rx="3.5737219"
     ry="3.5873225" /><ellipse
     cx="269.32538"
     cy="23.062204"
     fill="#ffffff"
     id="circle9734"
     style="stroke-width:3.4;stroke:#ffc06b;stroke-opacity:1;stroke-dasharray:none;fill:#00102c;fill-opacity:1"
     rx="3.5737219"
     ry="3.5873225" /><path
     d="m 443.63221,266.09784 h -24.19514 a 4.1764311,4.1923253 0 0 1 -4.17157,-4.18745 v -22.61224 a 4.1764227,4.1923169 0 0 1 4.17157,-4.18745 h 24.19514 a 4.1764144,4.1923085 0 0 1 4.17157,4.18745 v 22.61224 a 4.1764227,4.1923169 0 0 1 -4.17157,4.18745 z"
     fill="#6c63ff"
     id="path9756"
     style="stroke-width:3.4;stroke:#ffc06b;stroke-opacity:1;stroke-dasharray:none;fill:#00102c;fill-opacity:1" /><path
     d="m 497.86269,266.09784 h -24.19514 a 4.176356,4.1922499 0 0 1 -4.17157,-4.18745 v -51.08691 a 4.176356,4.1922499 0 0 1 4.17157,-4.18745 h 24.19514 a 4.176356,4.1922499 0 0 1 4.17157,4.18745 v 51.08691 a 4.176356,4.1922499 0 0 1 -4.17157,4.18745 z"
     fill="#6c63ff"
     id="path9758"
     style="stroke-width:3.4;stroke:#ffc06b;stroke-opacity:1;stroke-dasharray:none;fill:#00102c;fill-opacity:1" /><path
     d="m 552.92748,266.09784 h -24.19513 a 4.176356,4.1922499 0 0 1 -4.17158,-4.18745 v -79.56157 a 4.176356,4.1922499 0 0 1 4.17158,-4.18745 h 24.19513 a 4.176356,4.1922499 0 0 1 4.17158,4.18745 v 79.56157 a 4.176356,4.1922499 0 0 1 -4.17158,4.18745 z"
     fill="#6c63ff"
     id="path9760"
     style="stroke-width:3.4;stroke:#ffc06b;stroke-opacity:1;stroke-dasharray:none;fill:#00102c;fill-opacity:1" /><path
     d="m 609.66091,266.09784 h -24.19514 a 4.176356,4.1922499 0 0 1 -4.17158,-4.18745 V 154.71164 a 4.176356,4.1922499 0 0 1 4.17158,-4.18745 h 24.19514 a 4.176356,4.1922499 0 0 1 4.17157,4.18745 v 107.19875 a 4.176356,4.1922499 0 0 1 -4.17157,4.18745 z"
     fill="#6c63ff"
     id="path9762"
     style="stroke-width:3.4;stroke:#ffc06b;stroke-opacity:1;stroke-dasharray:none;fill:#00102c;fill-opacity:1" /><path
     d="M 643.86783,266.09784 H 396.91056 a 0.83431507,0.83749022 0 0 1 0,-1.67498 h 246.95727 a 0.83431507,0.83749022 0 0 1 0,1.67498 z"
     fill="#3f3d56"
     id="path9764"
     style="stroke-width:3.4;stroke:#ffc06b;stroke-opacity:1;stroke-dasharray:none;fill:#00102c;fill-opacity:1" /><path
     d="m 752.36862,422.32964 a 8.3896888,8.4216174 0 0 1 12.78208,-1.46007 l 26.49383,-13.72533 -1.64766,15.46375 -24.90638,10.66305 a 8.4351506,8.4672522 0 0 1 -12.72187,-10.9414 z"
     fill="#ffb8b8"
     id="path9766"
     style="stroke-width:3.4;stroke:#ffc06b;stroke-opacity:1;stroke-dasharray:none;fill:#00102c;fill-opacity:1" /><path
     d="m 775.1646,428.09686 a 3.7590733,3.7733792 0 0 1 -1.27119,-1.85215 l -2.10726,-6.83337 a 3.7666572,3.780992 0 0 1 1.32395,-4.12149 l 21.47334,-16.28112 23.25658,-43.30853 a 12.094665,12.140694 0 1 1 19.1058,14.89194 l -13.23099,28.03117 a 38.690127,38.837369 0 0 1 -19.57553,19.00807 l -25.16527,10.95663 a 3.7585894,3.7728934 0 0 1 -3.06106,-0.0329 3.7166233,3.7307677 0 0 1 -0.74837,-0.45824 z"
     fill="#3f3d56"
     id="path9768"
     style="stroke-width:3.4;stroke:#ffc06b;stroke-opacity:1;stroke-dasharray:none;fill:#00102c;fill-opacity:1" /><ellipse
     cx="837.53046"
     cy="317.05582"
     fill="#ffb8b8"
     id="circle9770"
     style="stroke-width:3.4;stroke:#ffc06b;stroke-opacity:1;stroke-dasharray:none;fill:#00102c;fill-opacity:1"
     rx="20.491636"
     ry="20.569622" /><polygon
     points="870.722,638.448 888.817,638.449 888.812,685.737 876.553,685.736 "
     fill="#ffb8b8"
     id="polygon9772"
     transform="matrix(0.83431507,0,0,0.83749022,87.668728,12.593583)"
     style="stroke-width:4.06746665;stroke:#ffc06b;stroke-opacity:1;stroke-dasharray:none;fill:#00102c;fill-opacity:1" /><path
     d="m 811.68342,583.95679 h 19.72644 v 12.46761 h -32.14677 v 0 a 12.420332,12.4676 0 0 1 12.42033,-12.46761 z"
     fill="#2f2e41"
     id="path9774"
     style="stroke-width:3.4;stroke:#ffc06b;stroke-opacity:1;stroke-dasharray:none;fill:#00102c;fill-opacity:1" /><polygon
     points="910.722,638.449 928.817,638.451 928.812,685.739 916.553,685.738 "
     fill="#ffb8b8"
     id="polygon9776"
     transform="matrix(0.83431507,0,0,0.83749022,87.668728,12.593583)"
     style="stroke-width:4.06746665;stroke:#ffc06b;stroke-opacity:1;stroke-dasharray:none;fill:#00102c;fill-opacity:1" /><path
     d="m 845.05602,583.95832 h 19.72644 v 12.46761 h -32.14677 v 0 a 12.420332,12.4676 0 0 1 12.42033,-12.46761 z"
     fill="#2f2e41"
     id="path9778"
     style="stroke-width:3.4;stroke:#ffc06b;stroke-opacity:1;stroke-dasharray:none;fill:#00102c;fill-opacity:1" /><path
     d="m 863.33813,576.84383 -11.98653,-5.5e-4 a 3.7608671,3.7751798 0 0 1 -3.62476,-2.78826 l -17.25333,-64.23646 a 0.41720759,0.41879536 0 0 0 -0.81925,0.1341 l 3.48523,60.92103 a 3.7537504,3.768036 0 0 1 -4.06034,3.97138 l -13.47219,-1.12769 a 3.7647133,3.7790406 0 0 1 -3.41735,-3.31986 l -12.27325,-127.9223 4.74829,2.86028 44.49321,-7.58281 17.90214,134.82449 a 3.7550185,3.769309 0 0 1 -3.72179,4.26661 z"
     fill="#2f2e41"
     id="path9780"
     style="stroke-width:3.4;stroke:#ffc06b;stroke-opacity:1;stroke-dasharray:none;fill:#00102c;fill-opacity:1" /><path
     d="m 814.79674,455.97717 a 27.481579,27.586166 0 0 1 -13.92612,-3.93453 3.7378817,3.7521069 0 0 1 -1.78232,-3.84324 c 1.56478,-9.61961 9.74803,-58.96573 17.19356,-85.86731 3.03243,-10.95675 9.73756,-16.85813 19.92924,-17.53976 14.90756,-0.98154 28.15807,10.72591 29.53778,26.12957 2.43403,27.1752 -7.45319,65.78518 -11.81716,81.12397 a 3.7511807,3.7654565 0 0 1 -5.9132,1.93152 l -8.89505,-6.94569 a 2.9474933,2.9587106 0 0 0 -3.76785,0.15767 c -7.49735,6.71267 -14.61929,8.78807 -20.55888,8.7878 z"
     fill="#3f3d56"
     id="path9782"
     style="stroke-width:3.4;stroke:#ffc06b;stroke-opacity:1;stroke-dasharray:none;fill:#00102c;fill-opacity:1" /><polygon
     points="902.784,513.738 911.786,482.739 906.787,443.738 915.786,481.739 "
     opacity="0.2"
     id="polygon9784"
     transform="matrix(0.83431507,0,0,0.83749022,87.668728,12.593583)"
     style="stroke-width:4.06746665;stroke:#ffc06b;stroke-opacity:1;stroke-dasharray:none;fill:#00102c;fill-opacity:1" /><path
     d="m 849.22327,333.97098 a 13.798278,13.85079 0 0 0 5.3296,-0.96769 c 0.74605,-0.28854 1.52037,-0.52569 2.265,-0.81442 6.5759,-2.54994 10.908,-9.5796 11.06343,-16.65424 0.15544,-7.07464 -3.49402,-13.9414 -8.91348,-18.4669 -5.41946,-4.52551 -12.43922,-6.84912 -19.46841,-7.38667 -7.57155,-0.57906 -16.09749,1.34798 -20.32871,7.67739 -1.12627,1.68479 -1.91399,3.72891 -1.24676,5.76322 a 3.6739481,3.6879301 0 0 0 1.03514,1.59626 c 1.8894,1.68754 3.77316,0.41882 5.69932,0.30681 2.6475,-0.15396 5.02531,1.99729 5.87985,4.51731 0.85454,2.52002 0.4782,5.29431 -0.21199,7.86459 a 19.572197,19.646683 0 0 0 -0.98679,4.78207 4.7894274,4.8076545 0 0 0 1.98428,4.23337 c 1.6543,1.00387 3.82692,0.42301 5.48232,-0.5791 1.65537,-1.0021 3.08572,-2.39547 4.87382,-3.13286 1.78802,-0.7374 4.19026,-0.57368 5.23091,1.06158 a 5.7857164,5.8077351 0 0 1 0.66127,1.91672 c 0.93277,4.26693 0.71835,4.01563 1.6512,8.28256 z"
     fill="#2f2e41"
     id="path9786"
     style="stroke-width:3.4;stroke:#ffc06b;stroke-opacity:1;stroke-dasharray:none;fill:#00102c;fill-opacity:1" /><path
     d="M 817.46188,558.16127 689.14763,513.30462 a 8.8073052,8.8408231 0 0 1 -5.41463,-11.2439 l 33.34397,-96.1091 a 6.4523675,6.4769232 0 0 1 8.20612,-3.9821 l 132.65201,46.37307 a 6.5639488,6.5889292 0 0 1 4.03542,8.37992 l -33.30736,96.00353 a 8.8073052,8.8408231 0 0 1 -11.20128,5.43523 z"
     fill="#e6e6e6"
     id="path9788"
     style="stroke-width:3.4;stroke:#ffc06b;stroke-opacity:1;stroke-dasharray:none;fill:#00102c;fill-opacity:1" /><path
     d="m 728.27253,453.25527 -5.55677,-1.94256 a 1.2049011,1.2094866 0 0 1 -0.74077,-1.53827 l 1.9352,-5.57792 a 1.2049011,1.2094866 0 0 1 1.53244,-0.74359 l 5.55676,1.94255 a 1.2049011,1.2094866 0 0 1 0.74078,1.53828 l -1.9352,5.57791 a 1.2048928,1.2094783 0 0 1 -1.53244,0.7436 z"
     fill="#6c63ff"
     id="path9792"
     style="stroke-width:3.4;stroke:#ffc06b;stroke-opacity:1;stroke-dasharray:none;fill:#00102c;fill-opacity:1" /><path
     d="m 723.25862,467.70713 -5.55676,-1.94256 a 1.2049011,1.2094866 0 0 1 -0.74078,-1.53828 l 1.93519,-5.57791 a 1.2049011,1.2094866 0 0 1 1.53244,-0.7436 l 5.55678,1.94256 a 1.2049011,1.2094866 0 0 1 0.74077,1.53828 l -1.9352,5.57791 a 1.2049095,1.209495 0 0 1 -1.53244,0.7436 z"
     fill="#3f3d56"
     id="path9794"
     style="stroke-width:3.4;stroke:#ffc06b;stroke-opacity:1;stroke-dasharray:none;fill:#00102c;fill-opacity:1" /><path
     d="m 718.24471,482.159 -5.55676,-1.94256 a 1.2049011,1.2094866 0 0 1 -0.74078,-1.53827 l 1.93519,-5.57792 a 1.2049011,1.2094866 0 0 1 1.53245,-0.74359 l 5.55676,1.94255 a 1.2049011,1.2094866 0 0 1 0.74078,1.53828 l -1.93519,5.57791 a 1.2049095,1.209495 0 0 1 -1.53245,0.7436 z"
     fill="#cccccc"
     id="path9796"
     style="stroke-width:3.4;stroke:#ffc06b;stroke-opacity:1;stroke-dasharray:none;fill:#00102c;fill-opacity:1" /><path
     d="m 765.61168,463.18124 -26.7735,-9.3596 a 1.2035662,1.2081466 0 1 1 0.79166,-2.28187 l 26.77351,9.3596 a 1.2035662,1.2081466 0 1 1 -0.79167,2.28187 z"
     fill="#cccccc"
     id="path9798"
     style="stroke-width:3.4;stroke:#ffc06b;stroke-opacity:1;stroke-dasharray:none;fill:#00102c;fill-opacity:1" /><path
     d="m 760.59776,477.6331 -26.7735,-9.35959 a 1.2035687,1.2081491 0 0 1 0.79167,-2.28188 l 26.77351,9.35961 a 1.2035662,1.2081466 0 1 1 -0.79168,2.28186 z"
     fill="#cccccc"
     id="path9800"
     style="stroke-width:3.4;stroke:#ffc06b;stroke-opacity:1;stroke-dasharray:none;fill:#00102c;fill-opacity:1" /><path
     d="m 755.58383,492.08497 -26.7735,-9.3596 a 1.2035687,1.2081491 0 0 1 0.79167,-2.28188 l 26.7735,9.3596 a 1.2035687,1.2081491 0 0 1 -0.79167,2.28188 z"
     fill="#cccccc"
     id="path9802"
     style="stroke-width:3.4;stroke:#ffc06b;stroke-opacity:1;stroke-dasharray:none;fill:#00102c;fill-opacity:1" /><path
     d="m 826.83329,499.915 c 0.19495,-0.46965 0.37873,-0.94694 0.54763,-1.43378 a 25.228528,25.32454 0 0 0 -15.52775,-32.24457 l -8.80015,25.36515 z"
     fill="#6c63ff"
     id="path9804"
     style="stroke-width:3.4;stroke:#ffc06b;stroke-opacity:1;stroke-dasharray:none;fill:#00102c;fill-opacity:1" /><path
     d="m 800.4938,493.14497 8.80015,-25.36513 a 25.228495,25.324507 0 1 0 14.98013,33.67834 z"
     fill="#3f3d56"
     id="path9806"
     style="stroke-width:3.4;stroke:#ffc06b;stroke-opacity:1;stroke-dasharray:none;fill:#00102c;fill-opacity:1" /><path
     d="m 831.99875,456.75888 a 8.3896721,8.4216007 0 0 1 9.16019,-9.06701 l 12.40902,-27.21216 8.21033,13.1886 -13.04251,23.81918 a 8.4351506,8.4672522 0 0 1 -16.73703,-0.72862 z"
     fill="#ffb8b8"
     id="path9808"
     style="stroke-width:3.4;stroke:#ffc06b;stroke-opacity:1;stroke-dasharray:none;fill:#00102c;fill-opacity:1" /><path
     d="m 853.48178,447.17548 a 3.7590649,3.7733708 0 0 1 -2.13894,-0.66993 l -5.85914,-4.07158 a 3.7666572,3.780992 0 0 1 -1.49209,-4.0632 l 6.88735,-26.11319 -8.32546,-48.48482 a 12.094667,12.140696 0 1 1 24.18905,-0.11749 l 6.82201,30.25302 a 38.690102,38.837344 0 0 1 -3.71754,27.08331 l -13.06578,24.21049 a 3.7585894,3.7728934 0 0 1 -2.42885,1.87034 3.7165399,3.7306839 0 0 1 -0.87061,0.10305 z"
     fill="#3f3d56"
     id="path9810"
     style="stroke-width:3.4;stroke:#ffc06b;stroke-opacity:1;stroke-dasharray:none;fill:#00102c;fill-opacity:1" /><path
     d="M 916.97789,596.89461 H 758.45805 a 0.83431507,0.83749022 0 0 1 0,-1.67498 h 158.51984 a 0.83431507,0.83749022 0 0 1 0,1.67498 z"
     fill="#cccccc"
     id="path9812"
     style="stroke-width:3.4;stroke:#ffc06b;stroke-opacity:1;stroke-dasharray:none;fill:#00102c;fill-opacity:1" /><polygon
     points="508.633,637.951 490.539,637.951 490.541,685.239 502.801,685.238 "
     fill="#a0616a"
     id="polygon9814"
     transform="matrix(0.83431507,0,0,0.83749022,87.668728,12.593583)"
     style="stroke-width:4.06746665;stroke:#ffc06b;stroke-opacity:1;stroke-dasharray:none;fill:#00102c;fill-opacity:1" /><path
     d="m 494.32558,583.12243 20.14352,-8.3e-4 h 8.4e-4 a 12.836813,12.885666 0 0 1 12.83717,12.88581 v 0.41875 l -32.98091,8.4e-4 z"
     fill="#2f2e41"
     id="path9816"
     style="stroke-width:3.4;stroke:#ffc06b;stroke-opacity:1;stroke-dasharray:none;fill:#00102c;fill-opacity:1" /><polygon
     points="459.633,637.951 441.539,637.951 441.541,685.239 453.801,685.238 "
     fill="#a0616a"
     id="polygon9818"
     transform="matrix(0.83431507,0,0,0.83749022,87.668728,12.593583)"
     style="stroke-width:4.06746665;stroke:#ffc06b;stroke-opacity:1;stroke-dasharray:none;fill:#00102c;fill-opacity:1" /><path
     d="m 453.44414,583.12243 20.14353,-8.3e-4 h 8.3e-4 a 12.836813,12.885666 0 0 1 12.83717,12.88581 v 0.41875 l -32.98091,8.4e-4 z"
     fill="#2f2e41"
     id="path9820"
     style="stroke-width:3.4;stroke:#ffc06b;stroke-opacity:1;stroke-dasharray:none;fill:#00102c;fill-opacity:1" /><ellipse
     cx="498.9762"
     cy="291.72656"
     fill="#a0616a"
     id="circle9822"
     style="stroke-width:3.4;stroke:#ffc06b;stroke-opacity:1;stroke-dasharray:none;fill:#00102c;fill-opacity:1"
     rx="20.491636"
     ry="20.569622" /><path
     d="m 512.75611,577.92703 h -18.98127 a 3.7546431,3.7689321 0 0 1 -3.75402,-3.81451 l 1.10296,-90.47511 a 1.2515227,1.2562856 0 0 0 -2.49376,-0.16766 l -11.04693,91.14413 a 3.7577968,3.7720978 0 0 1 -3.72688,3.31315 h -19.16362 a 3.7541091,3.7683961 0 0 1 -3.74301,-4.06231 l 12.65445,-162.53609 0.34404,-0.0376 60.59539,-6.56906 -8.03701,169.61548 a 3.7501211,3.7643929 0 0 1 -3.75034,3.5896 z"
     fill="#2f2e41"
     id="path9824"
     style="stroke-width:3.4;stroke:#ffc06b;stroke-opacity:1;stroke-dasharray:none;fill:#00102c;fill-opacity:1" /><path
     d="m 464.34159,421.30654 a 3.7512891,3.7655654 0 0 1 -3.74097,-3.65011 c -0.33079,-10.27725 -0.89766,-45.83787 5.6917,-71.94483 a 34.143193,34.273132 0 0 1 31.53104,-25.82725 v 0 a 34.356627,34.487378 0 0 1 33.83865,21.79438 c 11.07586,28.22604 21.54024,63.01786 8.49409,68.47464 -17.09919,7.15138 -62.17603,10.3394 -75.58414,11.14581 q -0.11578,0.008 -0.23037,0.008 z"
     fill="#3f3d56"
     id="path9826"
     style="stroke-width:3.4;stroke:#ffc06b;stroke-opacity:1;stroke-dasharray:none;fill:#00102c;fill-opacity:1" /><path
     d="m 542.65983,270.93667 a 8.7811661,8.8145846 0 0 0 1.03952,0.91546 l -2.15107,41.4777 -8.94737,4.59824 5.14837,14.46158 16.62767,-6.59512 a 6.6745206,6.6999218 0 0 0 4.1931,-6.85113 l -4.3561,-47.04975 a 8.7578887,8.7912186 0 1 0 -11.55412,-0.95699 z"
     fill="#a0616a"
     id="path9828"
     style="stroke-width:3.4;stroke:#ffc06b;stroke-opacity:1;stroke-dasharray:none;fill:#00102c;fill-opacity:1" /><path
     d="m 541.71807,314.87378 6.2942,17.95487 a 3.7544178,3.768706 0 0 1 -2.82754,4.95087 l -18.55969,3.60777 a 10.426777,10.466459 0 0 1 -6.86442,-19.76624 l 16.66434,-8.82966 a 3.7544178,3.768706 0 0 1 5.29311,2.08241 z"
     fill="#3f3d56"
     id="path9830"
     style="stroke-width:3.4;stroke:#ffc06b;stroke-opacity:1;stroke-dasharray:none;fill:#00102c;fill-opacity:1" /><path
     d="m 453.89987,270.93667 a 8.782451,8.8158743 0 0 1 -1.03952,0.91546 l 2.15106,41.4777 8.94737,4.59824 -5.14833,14.46158 -16.62766,-6.59512 a 6.6745206,6.6999218 0 0 1 -4.1931,-6.85113 l 4.3561,-47.04975 a 8.7578887,8.7912186 0 1 1 11.55412,-0.95699 z"
     fill="#a0616a"
     id="path9832"
     style="stroke-width:3.4;stroke:#ffc06b;stroke-opacity:1;stroke-dasharray:none;fill:#00102c;fill-opacity:1" /><path
     d="m 457.0134,312.61588 a 3.7504131,3.764686 0 0 1 3.12134,0.17549 l 16.66434,8.82966 a 10.426777,10.466459 0 0 1 -6.86442,19.76624 l -18.5597,-3.60776 a 3.7544178,3.768706 0 0 1 -2.82754,-4.95088 l 6.29421,-17.95487 a 3.7502462,3.7645185 0 0 1 2.17177,-2.25788 z"
     fill="#3f3d56"
     id="path9834"
     style="stroke-width:3.4;stroke:#ffc06b;stroke-opacity:1;stroke-dasharray:none;fill:#00102c;fill-opacity:1" /><path
     d="m 506.93494,295.23277 a 13.468582,13.519839 0 0 1 7.54269,-12.70276 c 6.2289,-3.22775 10.14193,-10.11282 8.42727,-16.39981 -2.19479,-8.04735 -13.10593,-13.26646 -21.94679,-10.49776 a 40.51907,40.673274 0 0 0 -6.89214,3.21539 l -5.77605,3.10793 a 59.84542,60.073173 0 0 0 -7.12004,4.21915 23.623923,23.713829 0 0 0 -9.40297,22.21861 c 1.13748,8.18118 6.47486,15.68405 13.78093,20.82085 a 23.307868,23.396571 0 0 0 9.44344,4.21348 c 3.50205,0.57959 7.40065,-0.0791 9.96122,-2.26524 4.00159,-3.41643 3.58819,-9.13762 2.29396,-13.91603 a 10.087003,10.125391 0 0 1 -0.31152,-2.01381 z"
     fill="#2f2e41"
     id="path9836"
     style="stroke-width:3.4;stroke:#ffc06b;stroke-opacity:1;stroke-dasharray:none;fill:#00102c;fill-opacity:1" /><path
     d="M 576.57736,596.89461 H 418.0575 a 0.83431507,0.83749022 0 0 1 0,-1.67498 h 158.51986 a 0.83431507,0.83749022 0 0 1 0,1.67498 z"
     fill="#cccccc"
     id="path9838"
     style="stroke-width:3.4;stroke:#ffc06b;stroke-opacity:1;stroke-dasharray:none;fill:#00102c;fill-opacity:1" /><path
     d="m 317.86435,444.11335 -130.80154,53.86512 a 9.1643253,9.1992019 0 0 1 -11.94337,-5.01363 l -40.04036,-97.97211 a 6.7139253,6.7394764 0 0 1 3.65894,-8.78326 l 135.22337,-55.68608 a 6.8300369,6.8560299 0 0 1 8.90121,3.73668 l 39.99636,97.86444 a 9.1643337,9.1992103 0 0 1 -4.99461,11.98884 z"
     fill="#e6e6e6"
     id="path9840"
     style="stroke-width:3.4;stroke:#ffc06b;stroke-opacity:1;stroke-dasharray:none;fill:#00102c;fill-opacity:1" /><rect
     x="115.65868"
     y="447.85123"
     width="1.8185785"
     height="0.30391851"
     transform="matrix(0.92466374,-0.38078468,0.37831664,0.92567625,0,0)"
     fill="#e6e6e6"
     id="rect9844"
     style="stroke-width:3.40000605;stroke:#ffc06b;stroke-opacity:1;stroke-dasharray:none;fill:#00102c;fill-opacity:1" /><path
     d="m 273.09285,372.20448 -3.39709,1.39895 -0.11497,-0.28133 3.39708,-1.39895 z m -6.79425,2.79792 -3.39709,1.39896 -0.11498,-0.28133 3.39709,-1.39896 z m -6.79425,2.79794 -3.39709,1.39895 -0.11498,-0.28133 3.39709,-1.39895 z m -6.79426,2.79793 -3.39709,1.39895 -0.11497,-0.28133 3.39709,-1.39895 z m -6.79425,2.79794 -3.39709,1.39895 -0.11498,-0.28133 3.39709,-1.39895 z m -6.79425,2.79793 -3.39709,1.39895 -0.11498,-0.28133 3.39709,-1.39895 z m -6.79426,2.79794 -3.39709,1.39895 -0.11497,-0.28133 3.39709,-1.39895 z m -6.79425,2.79792 -3.39709,1.39896 -0.11498,-0.28133 3.39709,-1.39896 z m -6.79425,2.79794 -3.3971,1.39895 -0.11498,-0.28133 3.3971,-1.39895 z m -6.79426,2.79793 -3.39709,1.39895 -0.11498,-0.28133 3.3971,-1.39895 z m -6.79427,2.79794 -3.39709,1.39895 -0.11498,-0.28133 3.3971,-1.39895 z m -6.79425,2.79793 -3.3971,1.39895 -0.11497,-0.28133 3.39709,-1.39895 z m -6.79425,2.79794 -3.3971,1.39895 -0.11498,-0.28133 3.3971,-1.39895 z m -6.79426,2.79792 -3.39716,1.39899 -0.11498,-0.28133 3.39717,-1.39898 z m -6.79425,2.79794 -3.3971,1.39895 -0.11497,-0.28133 3.39709,-1.39895 z m -6.79425,2.79793 -3.39717,1.39899 -0.11497,-0.28133 3.39716,-1.39899 z"
     fill="#e6e6e6"
     id="path9846"
     style="stroke-width:3.4;stroke:#ffc06b;stroke-opacity:1;stroke-dasharray:none;fill:#00102c;fill-opacity:1" /><rect
     x="-7.3987374"
     y="447.8512"
     width="1.8185785"
     height="0.30391851"
     transform="matrix(0.92466374,-0.38078468,0.37831664,0.92567625,0,0)"
     fill="#e6e6e6"
     id="rect9848"
     style="stroke-width:3.40000605;stroke:#ffc06b;stroke-opacity:1;stroke-dasharray:none;fill:#00102c;fill-opacity:1" /><rect
     x="55.948555"
     y="476.1156"
     width="1.8185785"
     height="0.30391851"
     transform="matrix(0.92466374,-0.38078468,0.37831664,0.92567625,0,0)"
     fill="#e6e6e6"
     id="rect9850"
     style="stroke-width:3.40000605;stroke:#ffc06b;stroke-opacity:1;stroke-dasharray:none;fill:#00102c;fill-opacity:1" /><path
     d="m 228.6243,421.08405 -3.34666,1.37819 -0.11498,-0.28133 3.34666,-1.37819 z m -6.69333,2.75637 -3.34666,1.37818 -0.11498,-0.28133 3.34667,-1.37818 z m -6.69332,2.75637 -3.34666,1.37819 -0.11499,-0.28133 3.34667,-1.37819 z m -6.69335,2.7564 -3.34667,1.37818 -0.11497,-0.28133 3.34666,-1.37818 z m -6.69331,2.75642 -3.34673,1.3782 -0.11498,-0.28133 3.34673,-1.3782 z m -6.6934,2.75639 -3.34667,1.37819 -0.11497,-0.28133 3.34666,-1.37819 z m -6.69333,2.75638 -3.34666,1.37818 -0.11498,-0.28133 3.34666,-1.37818 z m -6.69333,2.75637 -3.34666,1.37818 -0.11497,-0.28133 3.34666,-1.37818 z"
     fill="#e6e6e6"
     id="path9852"
     style="stroke-width:3.4;stroke:#ffc06b;stroke-opacity:1;stroke-dasharray:none;fill:#00102c;fill-opacity:1" /><rect
     x="-7.3987241"
     y="476.11557"
     width="1.8185785"
     height="0.30391851"
     transform="matrix(0.92466374,-0.38078468,0.37831664,0.92567625,0,0)"
     fill="#e6e6e6"
     id="rect9854"
     style="stroke-width:3.40000605;stroke:#ffc06b;stroke-opacity:1;stroke-dasharray:none;fill:#00102c;fill-opacity:1" /><rect
     x="20.486193"
     y="489.48795"
     width="1.8185785"
     height="0.30391851"
     transform="matrix(0.92466374,-0.38078468,0.37831664,0.92567625,0,0)"
     fill="#e6e6e6"
     id="rect9856"
     style="stroke-width:3.40000605;stroke:#ffc06b;stroke-opacity:1;stroke-dasharray:none;fill:#00102c;fill-opacity:1" /><path
     d="m 200.79606,447.00582 -3.44321,1.41794 -0.11498,-0.28132 3.44322,-1.41794 z m -6.88648,2.83592 -3.44322,1.41794 -0.11498,-0.28133 3.44322,-1.41794 z m -6.88644,2.83589 -3.44322,1.41795 -0.11498,-0.28133 3.44322,-1.41795 z"
     fill="#e6e6e6"
     id="path9858"
     style="stroke-width:3.4;stroke:#ffc06b;stroke-opacity:1;stroke-dasharray:none;fill:#00102c;fill-opacity:1" /><rect
     x="-7.3987241"
     y="489.48795"
     width="1.8185785"
     height="0.30391851"
     transform="matrix(0.92466374,-0.38078468,0.37831664,0.92567625,0,0)"
     fill="#e6e6e6"
     id="rect9860"
     style="stroke-width:3.40000605;stroke:#ffc06b;stroke-opacity:1;stroke-dasharray:none;fill:#00102c;fill-opacity:1" /><rect
     x="20.486212"
     y="512.30829"
     width="1.8185785"
     height="0.30391851"
     transform="matrix(0.92466374,-0.38078468,0.37831664,0.92567625,0,0)"
     fill="#e6e6e6"
     id="rect9862"
     style="stroke-width:3.40000605;stroke:#ffc06b;stroke-opacity:1;stroke-dasharray:none;fill:#00102c;fill-opacity:1" /><path
     d="m 209.42938,468.13006 -3.44322,1.41795 -0.11497,-0.28133 3.44321,-1.41795 z m -6.88649,2.83592 -3.44321,1.41794 -0.11498,-0.28133 3.44322,-1.41794 z m -6.88643,2.83588 -3.44322,1.41795 -0.11498,-0.28133 3.44322,-1.41795 z"
     fill="#e6e6e6"
     id="path9864"
     style="stroke-width:3.4;stroke:#ffc06b;stroke-opacity:1;stroke-dasharray:none;fill:#00102c;fill-opacity:1" /><rect
     x="-7.3987374"
     y="512.30829"
     width="1.8185785"
     height="0.30391851"
     transform="matrix(0.92466374,-0.38078468,0.37831664,0.92567625,0,0)"
     fill="#e6e6e6"
     id="rect9866"
     style="stroke-width:3.40000605;stroke:#ffc06b;stroke-opacity:1;stroke-dasharray:none;fill:#00102c;fill-opacity:1" /><path
     d="m 196.65734,473.6419 96.92661,-39.91523 a 9.5786545,9.615108 0 0 0 5.22046,-12.53093 L 279.2208,373.278 l -0.18934,0.0844 -23.78573,57.0892 -17.6413,-7.40333 a 2.2877754,2.2964819 0 0 0 -2.032,0.1273 2.4376684,2.4469454 0 0 0 -1.01119,1.2 l -12.46575,29.91649 -12.89836,-5.41215 a 2.2965607,2.3053007 0 0 0 -3.00576,1.23781 c -0.0826,0.20323 -8.03556,19.79038 -9.53403,23.52414 z"
     fill="#6c63ff"
     id="path9868"
     style="stroke-width:3.4;stroke:#ffc06b;stroke-opacity:1;stroke-dasharray:none;fill:#00102c;fill-opacity:1" /><path
     d="m 196.35898,474.09312 -0.27945,-0.11731 9.97388,-23.94084 a 2.5775497,2.587359 0 0 1 3.3689,-1.38734 l 12.64363,5.30757 12.39474,-29.75174 a 2.5775413,2.5873507 0 0 1 3.36889,-1.38735 l 17.38651,7.29855 23.908,-57.38765 0.27945,0.11731 -24.02486,57.66819 -17.66596,-7.41586 a 2.2718399,2.2804859 0 0 0 -2.97259,1.22415 l -12.5116,30.03225 -12.92307,-5.42487 a 2.2747267,2.2833836 0 0 0 -2.97259,1.22413 z"
     fill="#3f3d56"
     id="path9870"
     style="stroke-width:3.4;stroke:#ffc06b;stroke-opacity:1;stroke-dasharray:none;fill:#00102c;fill-opacity:1" /><ellipse
     cx="205.86337"
     cy="444.75476"
     fill="#3f3d56"
     id="circle9872"
     style="stroke-width:3.4;stroke:#ffc06b;stroke-opacity:1;stroke-dasharray:none;fill:#00102c;fill-opacity:1"
     rx="2.1205118"
     ry="2.128582" /><ellipse
     cx="233.59512"
     cy="418.87274"
     fill="#3f3d56"
     id="circle9874"
     style="stroke-width:3.4;stroke:#ffc06b;stroke-opacity:1;stroke-dasharray:none;fill:#00102c;fill-opacity:1"
     rx="2.1205118"
     ry="2.128582" /><ellipse
     cx="276.77649"
     cy="369.89716"
     fill="#3f3d56"
     id="circle9876"
     style="stroke-width:3.4;stroke:#ffc06b;stroke-opacity:1;stroke-dasharray:none;fill:#00102c;fill-opacity:1"
     rx="2.1205118"
     ry="2.128582" /><path
     d="m 158.08584,442.33945 a 8.4223522,8.4544051 0 0 0 3.01181,-12.60636 l 6.29791,-61.81037 h -13.61043 l -5.00511,60.35464 a 8.4679976,8.5002242 0 0 0 9.30582,14.06209 z"
     fill="#ffb8b8"
     id="path9878"
     style="stroke-width:3.4;stroke:#ffc06b;stroke-opacity:1;stroke-dasharray:none;fill:#00102c;fill-opacity:1" /><ellipse
     cx="170.58266"
     cy="314.48169"
     fill="#ffb8b8"
     id="circle9880"
     style="stroke-width:3.4;stroke:#ffc06b;stroke-opacity:1;stroke-dasharray:none;fill:#00102c;fill-opacity:1"
     rx="19.256041"
     ry="19.329323" /><path
     d="m 174.2078,403.91913 a 3.5216439,3.5350462 0 0 1 -3.39404,-2.59615 c -1.54275,-5.62653 -5.55658,-15.1396 -11.92971,-28.27636 a 23.333481,23.422282 0 0 1 13.25042,-32.33775 v 0 a 23.322927,23.411687 0 0 1 29.97012,14.91403 c 4.93987,15.54615 4.70137,32.19898 4.36947,38.63636 a 3.5366616,3.550121 0 0 1 -2.77063,3.27785 l -28.73899,6.29978 a 3.5105642,3.5239243 0 0 1 -0.75664,0.0822 z"
     fill="#ff6584"
     id="path9882"
     style="stroke-width:3.4;stroke:#ffc06b;stroke-opacity:1;stroke-dasharray:none;fill:#00102c;fill-opacity:1" /><polygon
     points="154.083,641.988 137.08,641.989 137.082,686.425 148.602,686.425 "
     fill="#ffb8b8"
     id="polygon9884"
     transform="matrix(0.83431507,0,0,0.83749022,87.668728,12.593583)"
     style="stroke-width:4.06746665;stroke:#ffc06b;stroke-opacity:1;stroke-dasharray:none;fill:#00102c;fill-opacity:1" /><path
     d="m 230.18721,596.42604 -30.20839,0.002 -5.4e-4,-11.71585 18.53698,-8.3e-4 a 11.671425,11.715843 0 0 1 11.67195,11.7153 z"
     fill="#2f2e41"
     id="path9886"
     style="stroke-width:3.4;stroke:#ffc06b;stroke-opacity:1;stroke-dasharray:none;fill:#00102c;fill-opacity:1" /><polygon
     points="58.19,640.747 43.291,632.555 21.882,671.495 31.978,677.045 "
     fill="#ffb8b8"
     id="polygon9888"
     transform="matrix(0.83431507,0,0,0.83749022,87.668728,12.593583)"
     style="stroke-width:4.06746665;stroke:#ffc06b;stroke-opacity:1;stroke-dasharray:none;fill:#00102c;fill-opacity:1" /><path
     d="m 126.29245,596.42741 -26.471572,-14.60884 5.622922,-10.26658 16.24393,8.96452 a 11.671417,11.715835 0 0 1 4.60473,15.91089 v 0 z"
     fill="#2f2e41"
     id="path9890"
     style="stroke-width:3.4;stroke:#ffc06b;stroke-opacity:1;stroke-dasharray:none;fill:#00102c;fill-opacity:1" /><path
     d="m 201.58913,566.8118 a 3.5276259,3.541051 0 0 1 -3.4953,-3.08571 L 186.0732,470.74425 a 1.9600397,1.967499 0 0 0 -3.66014,-0.69707 l -50.09704,91.23647 a 3.5472824,3.5607823 0 0 1 -4.34554,1.60087 l -10.91968,-4.17627 a 3.5277344,3.5411599 0 0 1 -2.01169,-4.64433 l 34.7035,-85.57536 a 2.7176061,2.7279485 0 0 0 0.17724,-0.67785 c 4.7004,-36.51902 16.65978,-55.09018 20.21308,-59.91204 a 2.7320815,2.742479 0 0 0 0.38879,-2.49701 l -0.48847,-1.471 a 3.526216,3.5396357 0 0 1 0.67893,-3.44459 c 12.80387,-14.63927 35.12049,-6.651 35.34447,-6.56876 l 0.1118,0.0414 0.0701,0.0961 c 25.02357,34.44856 15.77146,146.33663 13.66275,168.41621 a 3.5183567,3.5317465 0 0 1 -3.24112,3.18716 l -14.797,1.1436 c -0.092,0.007 -0.18331,0.01 -0.27403,0.01 z"
     fill="#2f2e41"
     id="path9892"
     style="stroke-width:3.4;stroke:#ffc06b;stroke-opacity:1;stroke-dasharray:none;fill:#00102c;fill-opacity:1" /><path
     d="m 245.44289,336.93471 a 8.2532866,8.2846961 0 0 0 -0.18761,1.29076 l -33.67898,19.50322 -8.18615,-4.73056 -8.72694,11.46826 13.68121,9.78824 a 6.2720553,6.2959249 0 0 0 7.52506,-0.18403 l 34.72882,-27.50207 a 8.229809,8.2611292 0 1 0 -5.15543,-9.63382 z"
     fill="#ffb8b8"
     id="path9894"
     style="stroke-width:3.4;stroke:#ffc06b;stroke-opacity:1;stroke-dasharray:none;fill:#00102c;fill-opacity:1" /><path
     d="m 210.45037,358.6524 -10.88495,14.16112 a 3.5280515,3.5414781 0 0 1 -5.33433,0.29329 l -12.32251,-12.84465 a 9.798071,9.8353595 0 0 1 12.01621,-15.53847 l 15.45512,8.67484 a 3.5280598,3.5414865 0 0 1 1.07046,5.2539 z"
     fill="#ff6584"
     id="path9896"
     style="stroke-width:3.4;stroke:#ffc06b;stroke-opacity:1;stroke-dasharray:none;fill:#00102c;fill-opacity:1" /><path
     d="m 168.26178,383.2555 -17.535,-3.17827 a 3.5280515,3.5414781 0 0 1 -2.7157,-4.61813 l 5.68451,-16.89462 a 9.798071,9.8353595 0 0 1 19.27393,3.55207 l -0.55461,17.76583 a 3.5280681,3.5414949 0 0 1 -4.15315,3.37312 z"
     fill="#ff6584"
     id="path9898"
     style="stroke-width:3.4;stroke:#ffc06b;stroke-opacity:1;stroke-dasharray:none;fill:#00102c;fill-opacity:1" /><path
     d="m 173.63041,310.03567 c 4.94922,3.40021 11.44764,6.89541 16.50251,3.27447 a 9.1985906,9.2335977 0 0 0 3.01891,-10.64395 c -2.42043,-6.948 -9.07053,-10.00685 -15.42968,-12.35151 -8.26691,-3.04806 -17.26835,-5.47293 -25.80258,-3.29005 -8.53424,2.18287 -16.07656,10.47715 -14.53597,19.18128 1.23891,6.99968 7.81655,12.82397 6.88278,19.87121 -0.93977,7.09249 -8.88578,10.82578 -15.90085,12.09336 -7.01507,1.26758 -14.8651,1.67488 -19.90655,6.73287 -6.43129,6.45238 -4.82528,17.98531 1.2263,24.79774 6.05158,6.81243 15.18376,9.90045 24.03283,11.99972 11.72448,2.78141 24.40538,4.24314 35.54071,-0.37287 11.13533,-4.61601 19.80064,-17.04178 16.57492,-28.69352 -1.36254,-4.92168 -4.57226,-9.08117 -7.6743,-13.13057 -3.10203,-4.0494 -6.24313,-8.28389 -7.42641,-13.25206 -0.98607,-4.14014 -0.25623,-8.94706 2.47889,-12.05265 a 3.4786683,3.4919071 0 0 0 0.46601,-4.08168 z"
     fill="#2f2e41"
     id="path9900"
     style="stroke-width:3.4;stroke:#ffc06b;stroke-opacity:1;stroke-dasharray:none;fill:#00102c;fill-opacity:1" /><path
     d="M 247.02291,596.89461 H 88.503044 a 0.83431507,0.83749022 0 0 1 0,-1.67498 H 247.02291 a 0.83431507,0.83749022 0 0 1 0,1.67498 z"
     fill="#cccccc"
     id="path9902"
     style="stroke-width:3.4;stroke:#ffc06b;stroke-opacity:1;stroke-dasharray:none;fill:#00102c;fill-opacity:1" /><path
     style="fill:#00102c;fill-opacity:0.00003944;stroke:none;stroke-width:3.4;stroke-linecap:round;stroke-dasharray:none;stroke-opacity:1"
     d="m 583.82108,207.58651 0.18654,-54.76209 13.00401,-0.19907 c 8.97421,-0.13739 13.31542,0.0594 14.00891,0.6349 0.83822,0.69566 1.00489,9.81169 1.00489,54.96117 v 54.12718 h -14.19544 -14.19544 z"
     id="path13735" /><path
     style="fill:#00102c;fill-opacity:3.94335e-05;stroke:none;stroke-width:3.4;stroke-linecap:round;stroke-dasharray:none;stroke-opacity:1"
     d="m 583.82108,207.58651 0.18654,-54.76209 13.00401,-0.19907 c 8.97421,-0.13739 13.31542,0.0594 14.00891,0.6349 0.83822,0.69566 1.00489,9.81169 1.00489,54.96117 v 54.12718 h -14.19544 -14.19544 z"
     id="path15048" /></svg>
