<?xml version="1.0" encoding="UTF-8" standalone="no"?>
<svg
   width="1000"
   height="600"
   viewBox="0 0 1000 600"
   version="1.1"
   id="svg84"
   sodipodi:docname="outline_get_involved.svg"
   inkscape:version="1.2.2 (732a01da63, 2022-12-09, custom)"
   xmlns:inkscape="http://www.inkscape.org/namespaces/inkscape"
   xmlns:sodipodi="http://sodipodi.sourceforge.net/DTD/sodipodi-0.dtd"
   xmlns="http://www.w3.org/2000/svg"
   xmlns:svg="http://www.w3.org/2000/svg"
   xmlns:rdf="http://www.w3.org/1999/02/22-rdf-syntax-ns#"
   xmlns:cc="http://creativecommons.org/ns#"
   xmlns:dc="http://purl.org/dc/elements/1.1/">
  <metadata
     id="metadata90">
    <rdf:RDF>
      <cc:Work
         rdf:about="">
        <dc:format>image/svg+xml</dc:format>
        <dc:type
           rdf:resource="http://purl.org/dc/dcmitype/StillImage" />
      </cc:Work>
    </rdf:RDF>
  </metadata>
  <defs
     id="defs88" />
  <sodipodi:namedview
     pagecolor="#ffffff"
     bordercolor="#666666"
     borderopacity="1"
     objecttolerance="10"
     gridtolerance="10"
     guidetolerance="10"
     inkscape:pageopacity="0"
     inkscape:pageshadow="2"
     inkscape:window-width="1842"
     inkscape:window-height="1005"
     id="namedview86"
     showgrid="false"
     inkscape:zoom="0.77833826"
     inkscape:cx="492.71637"
     inkscape:cy="221.62601"
     inkscape:window-x="78"
     inkscape:window-y="38"
     inkscape:window-maximized="1"
     inkscape:current-layer="svg84"
     inkscape:showpageshadow="2"
     inkscape:pagecheckerboard="0"
     inkscape:deskcolor="#d1d1d1" />
  <path
     d="m 215.80915,423.67212 a 8.0371354,8.2995575 0 0 0 -12.24489,-1.43948 l -25.37986,-13.5276 1.57773,15.23968 23.85927,10.50963 a 8.0806788,8.3445227 0 0 0 12.18773,-10.78223 z"
     fill="#a0616a"
     id="path198"
     style="fill:#00052b;fill-opacity:1;stroke:#ffc06b;stroke-width:3.4;stroke-dasharray:none;stroke-opacity:1" />
  <path
     d="m 193.25395,429.80627 a 3.6006415,3.7182068 0 0 1 -2.93246,0.0323 l -24.10723,-10.79892 a 37.064221,38.274412 0 0 1 -18.75211,-18.73343 l -12.67377,-27.62547 a 11.586409,11.964719 0 1 1 18.30355,-14.67523 l 22.27737,42.68185 20.57026,16.0461 a 3.6083703,3.7261879 0 0 1 1.26813,4.0618 l -2.019,6.73424 a 3.6011451,3.7187268 0 0 1 -1.21785,1.82524 3.560423,3.6766751 0 0 1 -0.71689,0.45152 z"
     fill="#ccc"
     id="path200"
     style="fill:#00052b;fill-opacity:1;stroke:#ffc06b;stroke-width:3.4;stroke-dasharray:none;stroke-opacity:1" />
  <ellipse
     cx="134.23064"
     cy="319.92035"
     fill="#a0616a"
     id="circle202"
     style="fill:#00052b;fill-opacity:1;stroke:#ffc06b;stroke-width:3.4;stroke-dasharray:none;stroke-opacity:1"
     rx="19.630514"
     ry="20.271473" />
  <polygon
     points="54.286,655.356 54.289,702.644 66.548,702.643 72.381,655.355 "
     fill="#a0616a"
     id="polygon204"
     style="fill:#00052b;fill-opacity:1;stroke:#ffc06b;stroke-width:4.18617;stroke-dasharray:none;stroke-opacity:1"
     transform="matrix(0.7992545,0,0,0.82535112,98.791343,5.917647)" />
  <path
     d="m 170.87823,595.23988 -30.79585,0.002 -5.4e-4,-12.28686 18.89745,-8.2e-4 a 11.898406,12.286903 0 0 1 11.89895,12.28634 v 0 z"
     fill="#2f2e41"
     id="path206"
     style="fill:#00052b;fill-opacity:1;stroke:#ffc06b;stroke-width:3.4;stroke-dasharray:none;stroke-opacity:1" />
  <polygon
     points="14.286,655.356 14.289,702.644 26.548,702.643 32.381,655.355 "
     fill="#a0616a"
     id="polygon208"
     style="fill:#00052b;fill-opacity:1;stroke:#ffc06b;stroke-width:4.18617;stroke-dasharray:none;stroke-opacity:1"
     transform="matrix(0.7992545,0,0,0.82535112,98.791343,5.917647)" />
  <path
     d="m 138.90805,595.23988 -30.79585,0.002 -5.4e-4,-12.28686 18.89745,-8.2e-4 a 11.898406,12.286903 0 0 1 11.89895,12.28634 v 0 z"
     fill="#2f2e41"
     id="path210"
     style="fill:#00052b;fill-opacity:1;stroke:#ffc06b;stroke-width:3.4;stroke-dasharray:none;stroke-opacity:1" />
  <path
     d="m 106.79011,574.67378 a 3.5954703,3.7128668 0 0 1 -0.8592,-2.93709 l 17.15567,-132.86944 42.62314,7.47491 4.54887,-2.81858 -11.763,126.06754 a 3.6065081,3.7242649 0 0 1 -3.27391,3.27159 l -12.90612,1.11067 a 3.5959979,3.7134115 0 0 1 -3.88954,-3.91396 l 3.34142,-60.03785 a 0.39967521,0.41272508 0 0 0 -0.78482,-0.13219 l -16.53106,63.3046 a 3.6028315,3.7204683 0 0 1 -3.47254,2.74768 h -11.48283 a 3.5954064,3.7128007 0 0 1 -2.70608,-1.26788 z"
     fill="#2f2e41"
     id="path212"
     style="fill:#00052b;fill-opacity:1;stroke:#ffc06b;stroke-width:3.4;stroke-dasharray:none;stroke-opacity:1" />
  <path
     d="m 136.30847,448.16776 a 2.8236303,2.9158252 0 0 0 -3.60952,-0.15555 l -8.52155,6.84463 a 3.5935361,3.7108694 0 0 1 -5.66464,-1.90378 c -4.17989,-15.11666 -13.64996,-53.16747 -11.31698,-79.94864 1.3224,-15.18034 14.01661,-26.71752 28.2976,-25.74951 9.76336,0.67222 16.1865,6.48836 19.09099,17.28643 7.13144,26.51199 14.96866,75.14322 16.46726,84.62348 a 3.580804,3.6977216 0 0 1 -1.70758,3.78743 26.326788,27.186389 0 0 1 -13.34108,3.87689 c -5.68999,-2e-5 -12.51253,-2.04567 -19.6945,-8.66138 z"
     fill="#ccc"
     id="path214"
     style="fill:#00052b;fill-opacity:1;stroke:#ffc06b;stroke-width:3.4;stroke-dasharray:none;stroke-opacity:1" />
  <path
     d="m 139.5238,457.59872 a 8.0371274,8.2995493 0 0 0 -8.77486,-8.936 l -11.88638,-26.81829 -7.8659,12.99706 12.49344,23.47452 a 8.0806868,8.3445309 0 0 0 16.0337,-0.71729 z"
     fill="#a0616a"
     id="path216"
     style="fill:#00052b;fill-opacity:1;stroke:#ffc06b;stroke-width:3.4;stroke-dasharray:none;stroke-opacity:1" />
  <path
     d="m 118.11001,448.0517 a 3.6006415,3.7182068 0 0 1 -2.32673,-1.84334 L 103.2676,422.34814 a 37.064269,38.274461 0 0 1 -3.560159,-26.69093 l 6.536679,-29.81415 a 11.586409,11.964719 0 1 1 23.17253,0.11687 l -7.97772,47.7817 6.59678,25.73499 a 3.6083623,3.7261797 0 0 1 -1.42953,4.00424 l -5.61316,4.01231 a 3.601169,3.7187515 0 0 1 -2.04907,0.66012 3.5603511,3.6766008 0 0 1 -0.83394,-0.10159 z"
     fill="#ccc"
     id="path218"
     style="fill:#00052b;fill-opacity:1;stroke:#ffc06b;stroke-width:3.4;stroke-dasharray:none;stroke-opacity:1" />
  <polygon
     points="31.325,499.644 36.325,460.644 27.325,498.644 40.325,530.644 "
     opacity="0.2"
     id="polygon220"
     style="fill:#00052b;fill-opacity:1;stroke:#ffc06b;stroke-width:4.18617;stroke-dasharray:none;stroke-opacity:1"
     transform="matrix(0.7992545,0,0,0.82535112,98.791343,5.917647)" />
  <path
     d="m 123.02847,336.58981 a 13.218519,13.650119 0 0 1 -5.10564,-0.95391 c -0.71462,-0.28439 -1.45644,-0.51814 -2.16974,-0.80272 -6.29947,-2.51327 -10.44918,-9.44124 -10.5978,-16.41334 -0.14862,-6.97209 3.34781,-13.73917 8.53974,-18.19883 5.19192,-4.45967 11.91677,-6.74928 18.6506,-7.27878 7.25341,-0.57031 15.42098,1.32917 19.47412,7.56703 1.07887,1.66042 1.83339,3.67495 1.19408,5.67974 a 3.5195572,3.6344749 0 0 1 -0.99171,1.57307 c -1.81007,1.66296 -3.61462,0.41257 -5.45984,0.30207 -2.53623,-0.15186 -4.8142,1.96811 -5.63294,4.45158 -0.81875,2.48346 -0.45834,5.21754 0.20273,7.7506 a 18.749783,19.361986 0 0 1 0.94512,4.71283 4.5881764,4.7379859 0 0 1 -1.90107,4.17191 c -1.58484,0.98925 -3.66613,0.41672 -5.2519,-0.57093 -1.58578,-0.98766 -2.95598,-2.36089 -4.66889,-3.08768 -1.7129,-0.72679 -4.0142,-0.56558 -5.01119,1.04595 a 5.542742,5.7237192 0 0 0 -0.63354,1.88891 c -0.89379,4.20504 -0.68836,3.95739 -1.58215,8.16244 z"
     fill="#2f2e41"
     id="path222"
     style="fill:#00052b;fill-opacity:1;stroke:#ffc06b;stroke-width:3.4;stroke-dasharray:none;stroke-opacity:1" />
  <path
     d="M 704.09395,196.14457 H 218.94647 a 6.9756695,7.2034335 0 0 0 -6.96967,7.19706 v 339.48342 a 6.9757094,7.2034747 0 0 0 6.96967,7.19706 h 485.14748 a 6.9632491,7.1906075 0 0 0 5.29897,-2.52557 1.6301675,1.6833944 0 0 0 0.15181,-0.19813 6.5260249,6.7391074 0 0 0 0.99907,-1.74149 6.7925443,7.014329 0 0 0 0.52724,-2.73191 V 331.49386 h -1.98994 v 211.33115 a 4.9382019,5.0994401 0 0 1 -0.82306,2.8227 5.1574294,5.3258257 0 0 1 -1.88653,1.7498 4.9412151,5.1025517 0 0 1 -2.27756,0.56949 H 218.94647 a 4.9854858,5.1482679 0 0 1 -4.97972,-5.14194 V 203.34164 a 4.9854459,5.1482267 0 0 1 4.97972,-5.14194 h 485.14748 a 4.9867806,5.149605 0 0 1 4.98715,5.14194 v 45.61715 h 1.98997 v -45.61715 a 6.9769962,7.2048036 0 0 0 -6.97712,-7.19707 z"
     fill="#3f3d56"
     id="path224"
     style="fill:#00052b;fill-opacity:1;stroke:#ffc06b;stroke-width:3.4;stroke-dasharray:none;stroke-opacity:1" />
  <rect
     x="212.96883"
     y="224.99297"
     width="497.10178"
     height="2.0574436"
     fill="#3f3d56"
     id="rect226"
     style="fill:#00052b;fill-opacity:1;stroke:#ffc06b;stroke-width:3.4;stroke-dasharray:none;stroke-opacity:1" />
  <ellipse
     cx="229.90414"
     cy="211.57845"
     fill="#ccc"
     id="circle228"
     style="fill:#00052b;fill-opacity:1;stroke:#ffc06b;stroke-width:3.4;stroke-dasharray:none;stroke-opacity:1"
     rx="5.9771767"
     ry="6.1723385" />
  <ellipse
     cx="247.08856"
     cy="211.57845"
     fill="#ccc"
     id="circle230"
     style="fill:#00052b;fill-opacity:1;stroke:#ffc06b;stroke-width:3.4;stroke-dasharray:none;stroke-opacity:1"
     rx="5.9771767"
     ry="6.1723385" />
  <ellipse
     cx="264.27292"
     cy="211.57845"
     fill="#ccc"
     id="circle232"
     style="fill:#00052b;fill-opacity:1;stroke:#ffc06b;stroke-width:3.4;stroke-dasharray:none;stroke-opacity:1"
     rx="5.9771767"
     ry="6.1723385" />
  <path
     d="m 384.32985,508.41148 a 12.371884,12.775841 0 0 1 -11.2426,-17.97741 l 14.23966,-32.80765 a 105.49068,108.93508 0 0 1 -35.59976,-81.789 c 0,-60.4032 47.58802,-109.54626 106.08254,-109.54626 58.49453,0 106.08254,49.14306 106.08254,109.54626 0,60.40321 -47.58801,109.54626 -106.08253,109.54626 a 105.48991,108.93428 0 0 1 -30.21035,-4.59511 l -36.3418,25.40621 a 12.334759,12.737504 0 0 1 -6.9277,2.2167 z m 73.47985,-226.8348 a 91.227436,94.206122 0 0 0 -56.83217,167.94174 l 4.48596,3.6945 -15.3214,35.303 35.16008,-24.58025 3.47167,1.20414 A 91.255082,94.23467 0 1 0 457.8097,281.57668 Z"
     fill="#3f3d56"
     id="path234"
     style="fill:#00052b;fill-opacity:1;stroke:#ffc06b;stroke-width:3.4;stroke-dasharray:none;stroke-opacity:1" />
  <ellipse
     cx="457.80966"
     cy="370.74225"
     fill="#3f3d56"
     id="circle236"
     style="fill:#00052b;fill-opacity:1;stroke:#ffc06b;stroke-width:3.4;stroke-dasharray:none;stroke-opacity:1"
     rx="14.802217"
     ry="15.285526" />
  <ellipse
     cx="415.87006"
     cy="370.74225"
     fill="#3f3d56"
     id="circle238"
     style="fill:#00052b;fill-opacity:1;stroke:#ffc06b;stroke-width:3.4;stroke-dasharray:none;stroke-opacity:1"
     rx="14.802217"
     ry="15.285526" />
  <ellipse
     cx="499.7493"
     cy="370.74225"
     fill="#3f3d56"
     id="circle240"
     style="fill:#00052b;fill-opacity:1;stroke:#ffc06b;stroke-width:3.4;stroke-dasharray:none;stroke-opacity:1"
     rx="14.802217"
     ry="15.285526" />
  <path
     d="M 830.03891,310.24269 H 689.37009 a 6.394037,6.60281 0 1 1 0,-13.20562 h 140.66882 a 6.394037,6.60281 0 0 1 0,13.20562 z"
     fill="#ccc"
     id="path242"
     style="fill:#00052b;fill-opacity:1;stroke:#ffc06b;stroke-width:3.4;stroke-dasharray:none;stroke-opacity:1" />
  <path
     d="m 738.12462,282.18075 h -48.75453 a 6.394036,6.602809 0 1 1 0,-13.20561 h 48.75453 a 6.394036,6.602809 0 0 1 0,13.20561 z"
     fill="#ccc"
     id="path244"
     style="fill:#00052b;fill-opacity:1;stroke:#ffc06b;stroke-width:3.4;stroke-dasharray:none;stroke-opacity:1" />
  <ellipse
     cx="625.65625"
     cy="290.22635"
     fill="#f9a826"
     id="circle246"
     style="fill:#00052b;fill-opacity:1;stroke:#ffc06b;stroke-width:3.4;stroke-dasharray:none;stroke-opacity:1"
     rx="27.174652"
     ry="28.061937" />
  <path
     d="M 844.13912,247.30808 H 590.77543 a 13.606597,14.050868 0 0 0 -13.58733,14.03096 v 57.77458 a 13.606589,14.05086 0 0 0 13.58733,14.03097 h 253.36369 a 13.606589,14.05086 0 0 0 13.58732,-14.03097 v -57.77458 a 13.606597,14.050868 0 0 0 -13.58732,-14.03096 z m 11.98881,71.80554 a 12.003428,12.395354 0 0 1 -11.98881,12.38027 H 590.77543 a 12.003428,12.395354 0 0 1 -11.98882,-12.38027 v -57.77458 a 12.003428,12.395354 0 0 1 11.98882,-12.38026 h 253.36369 a 12.003428,12.395354 0 0 1 11.98881,12.38026 z"
     fill="#3f3d56"
     id="path248"
     style="fill:#00052b;fill-opacity:1;stroke:#ffc06b;stroke-width:3.4;stroke-dasharray:none;stroke-opacity:1" />
  <ellipse
     cx="856.12793"
     cy="251.43483"
     fill="#f9a826"
     id="circle250"
     style="fill:#00052b;fill-opacity:1;stroke:#ffc06b;stroke-width:3.4;stroke-dasharray:none;stroke-opacity:1"
     rx="18.382853"
     ry="18.983076" />
  <path
     d="m 855.56278,262.11077 a 0.79634521,0.82234684 0 0 1 -0.23402,-0.58361 v -21.01001 a 0.799175,0.82526902 0 1 1 1.59835,0 v 21.01002 a 0.7992545,0.82535112 0 0 1 -1.36433,0.58361 z"
     fill="#fff"
     id="path252"
     style="fill:#00052b;fill-opacity:1;stroke:#ffc06b;stroke-width:3.4;stroke-dasharray:none;stroke-opacity:1" />
  <path
     d="m 845.38995,251.60577 a 0.7992545,0.82535112 0 0 1 0.56515,-1.40887 h 20.34566 a 0.79916658,0.82526033 0 1 1 0,1.65052 H 845.9551 a 0.79631324,0.82231383 0 0 1 -0.56515,-0.24165 z"
     fill="#fff"
     id="path254"
     style="fill:#00052b;fill-opacity:1;stroke:#ffc06b;stroke-width:3.4;stroke-dasharray:none;stroke-opacity:1" />
  <path
     d="m 878.13405,503.75001 h -38.37197 c 0,1.13898 -39.54714,2.06338 -39.54714,2.06338 a 10.278037,10.613627 0 0 0 -1.68631,1.6507 9.9189641,10.24283 0 0 0 -2.31815,6.60281 v 1.6507 a 9.9943578,10.320686 0 0 0 9.99068,10.31689 h 71.93289 a 9.9993691,10.325861 0 0 0 9.99068,-10.31689 v -1.6507 a 10.00454,10.331201 0 0 0 -9.99068,-10.31689 z"
     fill="#3f3d56"
     id="path256"
     style="fill:#00052b;fill-opacity:1;stroke:#ffc06b;stroke-width:3.4;stroke-dasharray:none;stroke-opacity:1" />
  <rect
     x="837.36829"
     y="525.62463"
     width="10.390308"
     height="69.329491"
     fill="#3f3d56"
     id="rect258"
     style="fill:#00052b;fill-opacity:1;stroke:#ffc06b;stroke-width:3.4;stroke-dasharray:none;stroke-opacity:1" />
  <path
     d="m 877.33104,594.57719 c 0,1.15932 -15.74492,0.44842 -35.1672,0.44842 -19.42237,0 -35.16724,0.7109 -35.16724,-0.44842 0,-1.15931 15.74487,-10.35263 35.16724,-10.35263 19.42228,0 35.1672,9.19332 35.1672,10.35263 z"
     fill="#3f3d56"
     id="path260"
     style="fill:#00052b;fill-opacity:1;stroke:#ffc06b;stroke-width:3.4;stroke-dasharray:none;stroke-opacity:1" />
  <ellipse
     cx="845.89691"
     cy="387.73209"
     fill="#2f2e41"
     id="circle262"
     style="fill:#00052b;fill-opacity:1;stroke:#ffc06b;stroke-width:3.4;stroke-dasharray:none;stroke-opacity:1"
     rx="22.379126"
     ry="23.109831" />
  <polygon
     points="865.075,654.887 865.073,702.175 852.813,702.174 846.98,654.886 "
     fill="#ffb8b8"
     id="polygon264"
     style="fill:#00052b;fill-opacity:1;stroke:#ffc06b;stroke-width:4.18617;stroke-dasharray:none;stroke-opacity:1"
     transform="matrix(0.7992545,0,0,0.82535112,98.791343,5.917647)" />
  <path
     d="m 773.40662,582.56676 h 18.89744 v 12.28689 h -30.79585 v 0 a 11.898406,12.286903 0 0 1 11.89841,-12.28689 z"
     fill="#2f2e41"
     id="path266"
     style="fill:#00052b;fill-opacity:1;stroke:#ffc06b;stroke-width:3.4;stroke-dasharray:none;stroke-opacity:1" />
  <polygon
     points="860.094,650.214 845.935,695.332 834.238,691.661 842.83,644.796 "
     fill="#ffb8b8"
     id="polygon268"
     style="fill:#00052b;fill-opacity:1;stroke:#ffc06b;stroke-width:4.18617;stroke-dasharray:none;stroke-opacity:1"
     transform="matrix(0.7992545,0,0,0.82535112,98.791343,5.917647)" />
  <path
     d="m 759.71987,571.85873 18.03051,5.84299 -3.56259,11.7232 -29.38304,-9.5219 v 0 a 11.898398,12.286895 0 0 1 14.91512,-8.04429 z"
     fill="#2f2e41"
     id="path270"
     style="fill:#00052b;fill-opacity:1;stroke:#ffc06b;stroke-width:3.4;stroke-dasharray:none;stroke-opacity:1" />
  <path
     d="m 851.89164,496.98442 a 30.269294,31.257623 0 0 0 -1.21486,-5.79396 l -1.83029,-2.37701 -4.76356,-6.17363 -0.20765,0.008 c -0.35199,0.0165 -1.81471,0.099 -4.07628,0.28062 h -0.024 c -1.3987,0.11555 -3.10926,0.26412 -5.05121,0.45395 -0.5116,0.0578 -1.04703,0.10729 -1.59851,0.16507 v 8.61666 h 9.99068 a 2.001661,2.0670176 0 0 1 1.98215,1.79927 c 0.008,0.0908 0.016,0.17332 0.016,0.26411 a 1.9989355,2.0642032 0 0 1 -1.99814,2.06338 h -58.02592 a 22.702025,23.443273 0 0 0 -2.12615,1.6507 11.894178,12.282537 0 0 0 -4.19609,6.48726 c -3.38863,15.38455 -9.56685,44.07375 -11.38937,52.50063 a 3.6271368,3.7455672 0 0 0 1.07907,3.5325 3.5455329,3.6612988 0 0 0 1.17508,0.75107 l 7.20928,2.78964 a 3.8303872,3.955454 0 0 0 0.91906,0.22284 c 0.0398,0 0.0718,0.008 0.112,0.008 a 2.0890754,2.1572863 0 0 0 0.22362,0.008 3.6223413,3.7406151 0 0 0 3.36486,-2.39352 l 5.69079,-15.41756 8.76799,-23.77011 3.46865,-9.40075 c 4.02007,0.97391 37.74879,8.68269 49.04217,-3.73884 a 12.842126,13.261436 0 0 0 2.58975,-4.21755 16.62582,17.168673 0 0 0 0.87102,-8.31953 z"
     fill="#2f2e41"
     id="path272"
     style="fill:#00052b;fill-opacity:1;stroke:#ffc06b;stroke-width:3.4;stroke-dasharray:none;stroke-opacity:1" />
  <path
     d="m 861.67428,499.22935 c -0.1756,-0.73456 -0.37541,-1.49388 -0.60719,-2.26146 l -6.59385,-8.55064 -0.20765,0.008 c -0.41601,0.0248 -2.38993,0.13205 -5.41918,0.38791 -3.43664,0.29713 -8.24032,0.77583 -13.63529,1.5269 -0.15961,0.0165 -0.32745,0.0413 -0.48746,0.066 -0.52759,0.0743 -1.06309,0.14856 -1.59851,0.2311 v 1.5269 h 9.99068 a 2.001661,2.0670176 0 0 1 1.98215,1.79926 c 0.008,0.0908 0.016,0.17333 0.016,0.26412 a 1.9989355,2.0642032 0 0 1 -1.99814,2.06337 h -35.31119 c -1.54231,0.51998 -3.02918,1.06471 -4.45171,1.65071 -7.46491,3.0538 -13.05188,7.05675 -14.19496,12.26471 -0.38364,1.74975 -0.80706,3.67282 -1.25469,5.71969 -1.66251,7.60973 -3.68445,16.92795 -5.51477,25.39605 v 0.008 c -0.37583,1.74975 -0.75126,3.44997 -1.11108,5.10067 -1.5267,7.09802 -2.82119,13.11483 -3.50884,16.27593 -0.016,0.0908 -0.0316,0.17332 -0.048,0.26406 v 0.0165 a 3.7302087,3.8520045 0 0 0 0.224,1.89005 l 0.008,0.008 v 0.008 a 3.5406015,3.6562064 0 0 0 1.03928,1.47738 3.6711677,3.7910358 0 0 0 1.03103,0.61901 l 7.20928,2.78964 a 3.6608014,3.780331 0 0 0 1.25469,0.23935 3.5445818,3.6603167 0 0 0 1.71831,-0.45394 3.5974445,3.7149054 0 0 0 1.64651,-1.93958 l 15.52146,-42.05989 2.40597,-6.52853 c 4.02002,0.97392 37.74879,8.67444 49.0421,-3.73884 a 13.500312,13.941113 0 0 0 3.58066,-9.13664 23.727125,24.501844 0 0 0 -0.72748,-6.93285 z"
     fill="#2f2e41"
     id="path274"
     style="fill:#00052b;fill-opacity:1;stroke:#ffc06b;stroke-width:3.4;stroke-dasharray:none;stroke-opacity:1" />
  <path
     d="m 860.78727,426.4169 c -0.12764,-0.15681 -0.26384,-0.31363 -0.40746,-0.46219 a 19.559484,20.198125 0 0 0 -16.76053,-6.09935 63.430356,65.501433 0 0 0 -7.92077,1.60944 19.966217,20.618138 0 0 0 -8.93535,5.17495 19.513127,20.150254 0 0 0 -5.92263,15.02139 c 0.032,1.13073 0.04,2.28622 0.024,3.45822 0,0.54473 -0.008,1.09772 -0.016,1.6507 h 7.88049 a 4.2516663,4.3904883 0 0 1 1.01505,0.1238 4.4046915,4.54851 0 0 1 3.38085,4.41563 v 38.39534 c 0.5355,0.15681 1.07092,0.31363 1.59851,0.4787 0.16784,0.0578 0.32785,0.1073 0.48746,0.15677 0.18383,0.0578 0.36766,0.11555 0.54366,0.17332 q 2.43349,0.77996 4.75532,1.6507 h 2.60573 a 2.001661,2.0670176 0 0 1 1.98215,1.79927 c 0.54365,0.22284 1.07092,0.44569 1.59036,0.66853 1.84628,0.79234 3.59664,1.58468 5.20331,2.35225 2.16597,1.02344 4.09234,1.99735 5.70683,2.84742 a 3.6662603,3.7859681 0 0 0 1.63831,0.41268 3.5199168,3.6348463 0 0 0 2.07815,-0.7098 4.419254,4.5635479 0 0 0 0.35942,-0.30538 3.6002659,3.7178189 0 0 0 1.09506,-3.2849 102.37338,105.71599 0 0 1 -0.71925,-19.56082 c 0.22363,-5.48859 0.70326,-11.11748 1.32692,-16.55654 0.33561,-2.94651 0.71102,-5.83524 1.10281,-8.61667 0.37589,-2.65763 0.77552,-5.20797 1.16691,-7.61799 a 19.667311,20.309473 0 0 0 -4.85954,-17.17547 z"
     fill="#f9a826"
     id="path276"
     style="fill:#00052b;fill-opacity:1;stroke:#ffc06b;stroke-width:3.4;stroke-dasharray:none;stroke-opacity:1" />
  <path
     d="m 828.02599,427.0937 a 9.4781753,9.7876491 0 0 0 -1.26291,-0.45399 9.1902838,9.4903576 0 0 0 -10.8219,5.38955 l -5.49095,13.09007 -0.68725,1.6507 h 18.96635 a 4.2516663,4.3904883 0 0 1 1.01505,0.1238 l 0.63925,-1.5269 2.42973,-5.79396 a 9.2006182,9.5010294 0 0 0 -4.78737,-12.47927 z"
     fill="#f9a826"
     id="path278"
     style="fill:#00052b;fill-opacity:1;stroke:#ffc06b;stroke-width:3.4;stroke-dasharray:none;stroke-opacity:1" />
  <ellipse
     cx="845.07874"
     cy="393.13913"
     fill="#ffb8b8"
     id="circle280"
     style="fill:#00052b;fill-opacity:1;stroke:#ffc06b;stroke-width:3.4;stroke-dasharray:none;stroke-opacity:1"
     rx="19.630514"
     ry="20.271473" />
  <path
     d="m 825.09496,383.17951 a 70.80654,73.118458 0 0 0 30.63231,10.4229 l -3.22891,-3.99521 a 23.728555,24.503321 0 0 0 7.3298,1.50301 c 2.50183,-0.0403 5.12306,-1.03499 6.54302,-3.16251 a 7.4666355,7.7104302 0 0 0 0.49977,-7.12256 14.142137,14.603895 0 0 0 -4.44897,-5.74456 26.486895,27.351723 0 0 0 -24.65252,-4.54973 15.830131,16.347003 0 0 0 -7.36305,4.87735 c -1.86099,2.37072 -5.44373,4.48294 -4.49086,7.37176 z"
     fill="#2f2e41"
     id="path282"
     style="fill:#00052b;fill-opacity:1;stroke:#ffc06b;stroke-width:3.4;stroke-dasharray:none;stroke-opacity:1" />
  <path
     d="m 848.37948,366.82035 a 60.331486,62.301382 0 0 0 -21.94993,-14.65758 c -5.30601,-2.02989 -11.08126,-3.28403 -16.62853,-2.13127 -5.54722,1.15276 -10.79322,5.11558 -12.34081,10.73598 -1.26548,4.59586 0.0412,9.54419 2.0051,13.87048 1.96387,4.3263 4.58578,8.33809 6.17394,12.82584 a 28.347903,29.273496 0 0 1 -28.52459,39.25557 c 5.45042,0.75468 10.47435,3.39966 15.80187,4.80753 5.32751,1.40787 11.61541,1.3124 15.57446,-2.6289 4.18882,-4.17003 4.2727,-10.95008 4.07017,-16.95476 q -0.45158,-13.38925 -0.90316,-26.77852 c -0.15353,-4.55216 -0.28465,-9.25023 1.30509,-13.49904 1.5897,-4.2488 5.36794,-7.96933 9.7787,-7.93066 3.34289,0.0293 6.30165,2.12053 8.98251,4.18288 2.68094,2.06234 5.51845,4.26271 8.84822,4.56948 3.32986,0.30677 7.13175,-2.2379 6.88254,-5.68048 z"
     fill="#2f2e41"
     id="path284"
     style="fill:#00052b;fill-opacity:1;stroke:#ffc06b;stroke-width:3.4;stroke-dasharray:none;stroke-opacity:1" />
  <path
     d="m 864.4799,451.21043 -11.20554,0.31364 -0.81524,8.12971 -0.18383,1.8818 -17.55163,8.13796 -1.59851,0.74281 v 14.46841 l 1.59851,-0.47045 5.05113,-1.48563 h 0.024 l 22.25109,-6.54504 0.25568,-0.0743 a 8.6950258,8.9789288 0 0 0 6.28238,-8.54238 l 0.0559,-9.59884 0.048,-7.07326 z"
     fill="#ffb8b8"
     id="path286"
     style="fill:#00052b;fill-opacity:1;stroke:#ffc06b;stroke-width:3.4;stroke-dasharray:none;stroke-opacity:1" />
  <path
     d="m 868.12458,435.13261 a 9.1927272,9.4928808 0 0 0 -18.35088,1.16375 l 1.2227,20.60076 a 3.5857594,3.7028388 0 0 0 1.46272,2.75667 3.5450454,3.6607954 0 0 0 2.34972,0.71806 l 8.56817,-0.54473 2.59758,-0.16507 a 3.504731,3.6191647 0 0 0 2.47777,-1.24628 2.5071415,2.5890027 0 0 0 0.19166,-0.24761 3.5717325,3.6883538 0 0 0 0.70318,-2.44304 z"
     fill="#f9a826"
     id="path288"
     style="fill:#00052b;fill-opacity:1;stroke:#ffc06b;stroke-width:3.4;stroke-dasharray:none;stroke-opacity:1" />
  <path
     d="m 835.75478,490.51365 h -1.03104 v -0.10729 c -0.52767,0.0743 -1.06309,0.14856 -1.59851,0.2311 v 1.5269 h 7.38487 q -2.32583,-0.86665 -4.75532,-1.65071 z m 0,0 h -1.03104 v -0.10729 c -0.52767,0.0743 -1.06309,0.14856 -1.59851,0.2311 v 1.5269 h 7.38487 q -2.32583,-0.86665 -4.75532,-1.65071 z m 7.36113,0 h -8.39217 v -39.20417 a 6.0030487,6.1990554 0 0 0 -4.34011,-5.94253 5.6354156,5.8194187 0 0 0 -1.6543,-0.24761 h -71.13365 a 6.00165,6.1976111 0 0 0 -5.99441,6.19014 v 40.4422 a 5.9965188,6.1923123 0 0 0 5.99441,6.19013 h 85.52023 a 3.6002978,3.7178519 0 0 0 3.57243,-3.30965 3.1196582,3.2215187 0 0 0 0.024,-0.40443 3.6020802,3.7196924 0 0 0 -3.59673,-3.71408 z m 1.99814,3.71408 a 1.9989355,2.0642032 0 0 1 -1.99814,2.06338 h -85.52023 a 4.3984973,4.5421136 0 0 1 -4.3959,-4.53943 v -40.4422 a 4.3985213,4.5421383 0 0 1 4.3959,-4.53943 h 71.13365 a 4.2516663,4.3904883 0 0 1 1.01505,0.1238 4.4046915,4.54851 0 0 1 3.38085,4.41563 v 40.85488 h 9.99068 a 2.001661,2.0670176 0 0 1 1.98215,1.79926 c 0.008,0.0908 0.016,0.17333 0.016,0.26411 z m -9.35927,-3.71408 h -1.03104 v -0.10729 c -0.52767,0.0743 -1.06309,0.14856 -1.59851,0.2311 v 1.5269 h 7.38487 q -2.32583,-0.86665 -4.75532,-1.65071 z"
     fill="#3f3d56"
     id="path290"
     style="fill:#00052b;fill-opacity:1;stroke:#ffc06b;stroke-width:3.4;stroke-dasharray:none;stroke-opacity:1" />
  <ellipse
     cx="793.15997"
     cy="471.53177"
     fill="#f9a826"
     id="circle292"
     style="fill:#00052b;fill-opacity:1;stroke:#ffc06b;stroke-width:3.4;stroke-dasharray:none;stroke-opacity:1"
     rx="4.795527"
     ry="4.952107" />
  <path
     d="m 364.82613,64.821273 a 6.9546251,7.181702 0 0 0 0.0329,1.130335 l -25.09819,21.751304 -7.48451,-2.798386 -5.56607,11.112263 16.36356,8.043381 27.43826,-31.795575 a 6.9344599,7.1608784 0 1 0 -5.68601,-7.443346 z"
     fill="#ffb8b8"
     id="path294"
     style="fill:#00052b;fill-opacity:1;stroke:#ffc06b;stroke-width:3.4;stroke-dasharray:none;stroke-opacity:1" />
  <path
     d="m 331.16513,101.34694 -24.23639,-9.033733 a 8.9192678,9.2104926 0 1 1 6.05635,-17.326827 l 24.23639,9.033732 a 2.9724275,3.0694808 0 0 1 1.78691,3.929753 l -4.03733,11.551616 a 2.977279,3.0744907 0 0 1 -3.80593,1.845479 z"
     fill="#ccc"
     id="path296"
     style="fill:#00052b;fill-opacity:1;stroke:#ffc06b;stroke-width:3.4;stroke-dasharray:none;stroke-opacity:1" />
  <polygon
     points="268.528,183.162 268.53,222.252 278.664,222.251 283.485,183.161 "
     fill="#ffb8b8"
     id="polygon298"
     style="fill:#00052b;fill-opacity:1;stroke:#ffc06b;stroke-width:4.18617;stroke-dasharray:none;stroke-opacity:1"
     transform="matrix(0.7992545,0,0,0.82535112,98.791343,5.917647)" />
  <path
     d="m 337.1363,197.11917 -25.45684,8.2e-4 -4.6e-4,-10.15677 15.62125,-7.3e-4 a 9.8356259,10.156771 0 0 1 9.83608,10.1563 v 0 z"
     fill="#2f2e41"
     id="path300"
     style="fill:#00052b;fill-opacity:1;stroke:#ffc06b;stroke-width:3.4;stroke-dasharray:none;stroke-opacity:1" />
  <polygon
     points="265.967,177.184 243.484,209.16 251.774,214.989 278.202,185.786 "
     fill="#ffb8b8"
     id="polygon302"
     style="fill:#00052b;fill-opacity:1;stroke:#ffc06b;stroke-width:4.18617;stroke-dasharray:none;stroke-opacity:1"
     transform="matrix(0.7992545,0,0,0.82535112,98.791343,5.917647)" />
  <path
     d="m 307.67656,197.3403 -20.82473,-15.11985 5.65707,-8.30865 12.77882,9.27809 a 9.8356259,10.156771 0 0 1 2.38887,14.15043 v 0 z"
     fill="#2f2e41"
     id="path304"
     style="fill:#00052b;fill-opacity:1;stroke:#ffc06b;stroke-width:3.4;stroke-dasharray:none;stroke-opacity:1" />
  <path
     d="m 331.13874,131.23578 c 0,0 20.21374,-2.46277 16.58563,11.08247 -3.62811,13.54524 -44.05559,25.24337 -44.05559,25.24337 z"
     fill="#ffb8b8"
     id="path306"
     style="fill:#00052b;fill-opacity:1;stroke:#ffc06b;stroke-width:3.4;stroke-dasharray:none;stroke-opacity:1" />
  <ellipse
     cx="317.22592"
     cy="45.364296"
     fill="#ffb8b8"
     id="circle308"
     style="fill:#00052b;fill-opacity:1;stroke:#ffc06b;stroke-width:3.4;stroke-dasharray:none;stroke-opacity:1"
     rx="16.227209"
     ry="16.757048" />
  <path
     d="m 265.47623,164.78797 c -9.23353,-11.10275 -12.4647,-28.14264 2.26047,-42.31489 a 48.53437,50.119075 0 0 1 12.21244,-8.37503 l 11.86789,-34.272983 a 18.085475,18.675987 0 0 1 16.71321,-12.414634 17.307776,17.872896 0 0 1 16.78967,11.150048 15.023171,15.513696 0 0 1 0.46616,10.98681 170.90099,176.48111 0 0 1 -13.84722,32.717249 l 0.6136,5.06965 29.99748,2.75303 -0.27985,0.46973 c -0.14598,0.24519 -14.82728,23.34414 -33.60854,38.67637 -6.42188,5.24223 -13.06249,7.41496 -19.32997,7.41427 -9.50386,-6.7e-4 -18.14787,-4.99704 -23.85534,-11.85962 z"
     fill="#ccc"
     id="path310"
     style="fill:#00052b;fill-opacity:1;stroke:#ffc06b;stroke-width:3.4;stroke-dasharray:none;stroke-opacity:1" />
  <path
     d="m 262.64507,50.621446 c 2.87084,-3.53266 4.10221,-8.15333 5.09292,-12.650206 1.5672,-7.115187 2.78019,-14.472532 6.26236,-20.822046 3.48184,-6.349426 9.88098,-11.6105687 16.93662,-11.2101001 7.0153,0.3981824 12.68697,6.2265561 15.6975,12.8580791 a 5.5843912,5.7667283 0 0 1 4.53482,0.225783 c 2.16982,1.227016 2.98116,4.714608 1.1749,6.460531 a 14.991409,15.480896 0 0 1 12.20792,-0.314269 14.7565,15.238317 0 0 1 8.93866,12.931783 8.045032,8.307712 0 0 1 -2.13917,6.232969 c -3.11344,3.309823 -7.51699,2.168123 -11.43239,1.324961 -3.69831,-0.796365 -8.2028,-1.01136 -10.28616,2.627398 a 6.6044957,6.8201404 0 0 0 -0.6426,4.98404 c 0.79812,3.632428 3.40248,6.162591 5.9291,8.584072 l 0.41321,0.792742 c -8.92091,1.796426 -18.66253,-4.495003 -21.00268,-13.564241 -2.34016,-9.069239 3.07826,-19.531935 11.68207,-22.557408 v 0 a 3.217343,3.3223932 0 0 1 -2.88859,-4.978121 15.294438,15.79382 0 0 0 -7.80601,-2.011138 c -4.44416,0.301071 -8.29022,3.567874 -10.60296,7.498253 -2.31304,3.930413 -3.36023,8.492418 -4.42126,12.959185 -1.06072,4.4668 -2.20886,9.019057 -4.68193,12.844114 a 19.793538,20.43982 0 0 1 -31.71245,1.679755 15.796258,16.312025 0 0 0 18.74612,-3.896136 z"
     fill="#2f2e41"
     id="path312"
     style="fill:#00052b;fill-opacity:1;stroke:#ffc06b;stroke-width:3.4;stroke-dasharray:none;stroke-opacity:1" />
  <ellipse
     cx="381.83017"
     cy="71.93071"
     fill="#f9a826"
     id="circle314"
     style="fill:#00052b;fill-opacity:1;stroke:#ffc06b;stroke-width:3.4;stroke-dasharray:none;stroke-opacity:1"
     rx="23.587448"
     ry="24.357605" />
  <path
     d="m 381.105,85.62925 a 1.0218309,1.0551949 0 0 1 -0.30026,-0.748849 V 57.921957 a 1.0254435,1.0589255 0 0 1 2.05088,0 v 26.958444 a 1.0255394,1.0590245 0 0 1 -1.7506,0.748849 z"
     fill="#fff"
     id="path316"
     style="fill:#00052b;fill-opacity:1;stroke:#ffc06b;stroke-width:3.4;stroke-dasharray:none;stroke-opacity:1" />
  <path
     d="m 368.05199,72.150045 a 1.0255394,1.0590245 0 0 1 0.72517,-1.807759 h 26.10604 a 1.0254435,1.0589255 0 1 1 0,2.117851 h -26.10604 a 1.0217989,1.0551619 0 0 1 -0.72517,-0.310092 z"
     fill="#fff"
     id="path318"
     style="fill:#00052b;fill-opacity:1;stroke:#ffc06b;stroke-width:3.4;stroke-dasharray:none;stroke-opacity:1" />
  <path
     d="m 365.63919,88.222718 a 6.955768,7.1828822 0 0 0 -0.43542,1.037606 l -31.67106,8.67279 -5.62299,-5.818106 -9.61206,7.615513 11.50128,14.462889 37.92344,-16.73753 a 6.9344599,7.1608784 0 1 0 -2.08318,-9.233204 z"
     fill="#ffb8b8"
     id="path320"
     style="fill:#00052b;fill-opacity:1;stroke:#ffc06b;stroke-width:3.4;stroke-dasharray:none;stroke-opacity:1" />
  <path
     d="M 320.13617,106.51054 301.91625,87.695706 a 8.9192646,9.2104893 0 1 1 12.61374,-13.025559 l 18.21994,18.814836 a 2.9724275,3.0694808 0 0 1 0,4.341422 l -8.40912,8.684175 a 2.9773029,3.0745155 0 0 1 -4.20464,0 z"
     fill="#ccc"
     id="path322"
     style="fill:#00052b;fill-opacity:1;stroke:#ffc06b;stroke-width:3.4;stroke-dasharray:none;stroke-opacity:1" />
</svg>
