<?xml version="1.0" encoding="UTF-8" standalone="no"?>
<svg
   xmlns:dc="http://purl.org/dc/elements/1.1/"
   xmlns:cc="http://creativecommons.org/ns#"
   xmlns:rdf="http://www.w3.org/1999/02/22-rdf-syntax-ns#"
   xmlns:svg="http://www.w3.org/2000/svg"
   xmlns="http://www.w3.org/2000/svg"
   xmlns:sodipodi="http://sodipodi.sourceforge.net/DTD/sodipodi-0.dtd"
   xmlns:inkscape="http://www.inkscape.org/namespaces/inkscape"
   data-name="Layer 1"
   width="1000"
   height="600"
   viewBox="0 0 999.99999 600.00002"
   version="1.1"
   id="svg100"
   sodipodi:docname="news.svg"
   inkscape:version="0.92.5 (2060ec1f9f, 2020-04-08)">
  <metadata
     id="metadata106">
    <rdf:RDF>
      <cc:Work
         rdf:about="">
        <dc:format>image/svg+xml</dc:format>
        <dc:type
           rdf:resource="http://purl.org/dc/dcmitype/StillImage" />
        <dc:title></dc:title>
      </cc:Work>
    </rdf:RDF>
  </metadata>
  <defs
     id="defs104" />
  <sodipodi:namedview
     pagecolor="#ffffff"
     bordercolor="#666666"
     borderopacity="1"
     objecttolerance="10"
     gridtolerance="10"
     guidetolerance="10"
     inkscape:pageopacity="0"
     inkscape:pageshadow="2"
     inkscape:window-width="2560"
     inkscape:window-height="1403"
     id="namedview102"
     showgrid="false"
     inkscape:zoom="0.37483286"
     inkscape:cx="-566.8771"
     inkscape:cy="-972.43342"
     inkscape:window-x="0"
     inkscape:window-y="0"
     inkscape:window-maximized="1"
     inkscape:current-layer="svg100" />
  <path
     d="m 438.78861,522.26856 7.6352,-24.46192 a 83.926675,82.563455 0 0 0 -33.5476,-22.11112 c 12.54971,20.45343 0.38903,47.13522 5.45655,70.49995 a 50.481987,49.662009 0 0 0 27.0389,33.84355 l 11.58645,14.12286 a 84.59191,83.217884 0 0 0 6.21744,-69.40948 81.710965,80.383735 0 0 0 -9.46113,-17.88943 c -6.88512,7.96287 -14.92581,15.40559 -14.92581,15.40559 z"
     id="path2"
     inkscape:connector-curvature="0"
     style="fill:#f2f2f2;stroke-width:1" />
  <path
     d="m 396.80592,525.39403 -4.25585,-25.2443 a 83.926684,82.563464 0 0 0 -40.05045,-5.07184 c 20.50495,12.80067 21.71668,42.01734 36.84461,60.70646 a 50.482016,49.662037 0 0 0 39.54371,18.42845 l 16.77287,7.55716 a 84.591929,83.217903 0 0 0 -25.90153,-64.85221 81.710793,80.383566 0 0 0 -16.5782,-11.86084 c -2.55255,10.14783 -6.37516,20.33712 -6.37516,20.33712 z"
     id="path4"
     inkscape:connector-curvature="0"
     style="fill:#f2f2f2;stroke-width:1" />
  <polygon
     points="503.386,569.293 521.539,569.294 521.537,616.734 509.237,616.733 "
     id="polygon6"
     style="fill:#ffb6b6;stroke-width:1.05439436"
     transform="matrix(0.95620944,0,0,0.94067774,148,7.7361709)" />
  <path
     d="m 649.69754,599.09887 -37.92136,-9.4e-4 v -0.47185 a 14.760852,14.521092 0 0 1 14.76005,-14.5201 h 9.6e-4 l 6.92684,-5.16971 12.92395,5.1705 3.31031,1.3e-4 z"
     id="path8"
     inkscape:connector-curvature="0"
     style="fill:#2f2e41;stroke-width:1" />
  <polygon
     points="673.137,552.804 685.514,539.526 720.217,571.872 711.831,580.869 "
     id="polygon10"
     style="fill:#ffb6b6;stroke-width:1.05439436"
     transform="matrix(0.95620944,0,0,0.94067774,148,7.7361709)" />
  <path
     d="m 847.06269,551.17134 -25.8559,27.28939 -0.35088,-0.32171 a 14.760852,14.521092 0 0 1 -0.73395,-20.52197 l 6.4e-4,-6.8e-4 0.87845,-8.50965 12.65639,-5.77554 2.25707,-2.38219 z"
     id="path12"
     inkscape:connector-curvature="0"
     style="fill:#2f2e41;stroke-width:1" />
  <path
     d="m 819.27609,520.60339 -12.43073,25.57641 -76.33339,-49.71963 -11.10479,-14.88454 -36.4113,-48.8047 -14.80088,23.10381 -10.29886,24.1519 v 0 a 27.06264,26.623061 0 0 0 -12.11953,19.42898 l -0.47122,4.27587 6.50776,57.55292 -24.73515,7.47165 -14.20592,-77.31441 4.64382,-16.75337 4.78105,-23.51694 24.07137,-74.31354 h 64.41441 l 36.94554,77.3634 2.70075,15.7637 10.47533,11.82681 z"
     id="path14"
     inkscape:connector-curvature="0"
     style="fill:#2f2e41;stroke-width:1" />
  <path
     d="m 685.41058,255.27363 10.84342,8.12275 13.07712,3.95332 c 0,0 5.40619,74.81054 10.27747,79.60268 4.87127,4.79215 0.47798,4.92095 1.4568,11.14624 0.97883,6.2253 3.3579,18.98643 3.3579,18.98643 -32.88124,17.12276 -61.22831,17.58207 -83.99822,-2.45447 a 5.6714503,5.579329 0 0 1 3.09438,-6.29748 c 4.23786,-2.21212 -3.90665,-12.53693 -0.44331,-14.26324 3.46334,-1.7263 -1.40792,-16.70173 -1.40792,-16.70173 l 3.19552,-31.24515 -2.52462,-4.99458 6.16102,-30.5613 10.69055,-3.84078 4.27043,-10.12194 z"
     id="path16"
     inkscape:connector-curvature="0"
     style="fill:#3f3d56;stroke-width:1" />
  <path
     d="m 692.20343,388.23722 a 9.3998735,9.2471914 0 0 1 10.71658,-9.48225 l 15.28181,-29.2209 8.51399,14.88136 -15.81713,25.46721 a 9.4508012,9.2972919 0 0 1 -18.6952,-1.64542 z"
     id="path18"
     inkscape:connector-curvature="0"
     style="fill:#ffb6b6;stroke-width:1" />
  <path
     d="m 717.93923,381.08905 32.77731,-49.97578 -0.10819,-0.22995 c -0.12376,-0.26344 -7.5461,-16.03346 -14.73805,-30.4778 -1.10754,-2.22439 -2.20961,-4.41734 -3.27873,-6.51738 q -0.69211,-1.35951 -1.36361,-2.66217 c -3.02067,-5.85839 -5.65981,-10.70048 -7.23514,-13.00056 a 27.744694,27.294037 0 0 0 -14.70198,-10.97172 l -0.15164,-0.0384 -0.14479,0.0593 a 14.079543,13.850849 0 0 0 -8.37911,15.23665 99.728944,98.109048 0 0 0 18.50543,41.15936 l 5.3137,6.89022 -18.46587,39.49455 z"
     id="path20"
     inkscape:connector-curvature="0"
     style="fill:#3f3d56;stroke-width:1" />
  <path
     d="m 605.22761,189.52402 a 9.3998543,9.2471726 0 0 1 -2.25552,14.00481 l 6.83268,32.16657 -16.13949,-6.28624 -4.01411,-29.58218 a 9.4508012,9.2972919 0 0 1 15.57638,-10.30296 z"
     id="path22"
     inkscape:connector-curvature="0"
     style="fill:#ffb6b6;stroke-width:1" />
  <path
     d="m 589.81054,211.01957 6.52662,59.12774 0.23123,0.1116 c 0.19056,0.0921 8.45924,4.08193 18.6091,8.83354 1.71224,0.80157 1.46682,4.2738 3.25635,5.10368 1.23268,0.57163 4.48789,-1.50255 5.73343,-0.92955 11.09423,5.10387 22.31239,10.06675 26.78323,11.4115 a 27.744704,27.294047 0 0 0 18.44404,-0.58416 l 0.14236,-0.0642 0.0745,-0.13583 a 14.079543,13.850849 0 0 0 -3.24372,-17.02701 99.728934,98.109038 0 0 0 -40.72169,-20.51058 l -8.53829,-2.0609 -10.93531,-42.11999 z"
     id="path24"
     inkscape:connector-curvature="0"
     style="fill:#3f3d56;stroke-width:1" />
  <ellipse
     cx="673.84937"
     cy="230.82335"
     id="circle26"
     style="fill:#ffb6b6;stroke-width:1"
     rx="21.448524"
     ry="21.100136" />
  <path
     d="m 652.55445,216.68442 c 1.76386,-5.04818 10.54455,-8.54964 24.77937,-9.0365 14.23483,-0.48687 17.84506,16.01575 17.84506,16.01575 9.50281,7.58349 -10.14712,27.88639 -11.09776,27.15517 l 0.42742,-3.81452 c 0.70787,-6.31828 3.71535,-11.24817 -0.10949,-17.83292 l -3.6728,0.0415 q -7.11515,1.34598 -14.2303,2.69193 l 5.61574,-4.86416 -0.15836,-0.24104 a 21.731246,21.378266 0 0 1 -7.66561,2.28972 c -3.01829,0.17453 -6.31806,-1.00719 -7.76378,-3.61955 a 6.182506,6.0820836 0 0 1 -0.69363,-2.31414 c -4.07015,1.59975 -5.93137,6.53593 -5.93137,6.53593 0,0 0.89165,-7.95897 2.65551,-13.00716 z"
     id="path28"
     inkscape:connector-curvature="0"
     style="fill:#2f2e41;stroke-width:1" />
  <path
     d="m 234.41598,217.95027 a 11.489229,11.30261 0 0 0 -0.93838,-1.03349 c 0.0817,-0.11035 0.16322,-0.23075 0.24484,-0.3411 z"
     id="path30"
     inkscape:connector-curvature="0"
     style="fill:#2f2e41;stroke-width:1" />
  <path
     d="m 238.5874,302.81417 c -3.50854,6.13055 -10.51543,9.55198 -17.46109,11.22757 a 43.630383,42.921695 0 0 1 -23.73364,-0.45147 c -0.97909,-0.31104 -1.95824,-0.67229 -2.90676,-1.0736 a 25.044435,24.637639 0 0 0 1.08112,-3.66227 25.532561,25.117836 0 0 0 0.53038,-5.12715 16.453257,16.186007 0 0 1 -2.96801,4.02348 15.007363,14.763598 0 0 1 -3.11075,2.45817 30.548128,30.051935 0 0 1 -9.02631,-8.24756 c 0.15295,-0.37124 0.30599,-0.74248 0.44877,-1.11372 a 40.688863,40.027954 0 0 0 1.75424,-5.95993 41.426913,40.754016 0 0 0 0.86697,-8.3379 26.631542,26.198966 0 0 1 -4.83449,6.54184 21.67656,21.324468 0 0 1 -1.8562,1.73585 24.404961,24.008551 0 0 1 1.46863,-18.47183 c 4.03892,-7.34459 11.87192,-11.70916 18.84823,-16.45502 6.98645,-4.74592 13.97296,-11.16737 14.56447,-19.50527 0.39779,-5.62882 -2.25398,-11.26774 -1.19329,-16.80623 a 13.199515,12.985116 0 0 1 22.4179,-6.67235 c -3.9573,5.51847 -7.8942,11.22757 -9.49548,17.7895 -1.63185,6.6824 -0.29576,14.51861 5.05884,18.94337 1.83585,1.52512 4.0899,2.60877 5.50762,4.51511 1.88683,2.52848 1.89704,5.89974 2.20301,9.01018 0.61192,6.05022 2.62121,11.86967 3.70231,17.85971 1.09134,5.98009 1.15252,12.47178 -1.86647,17.77952 z"
     id="path32"
     inkscape:connector-curvature="0"
     style="fill:#2f2e41;stroke-width:1" />
  <polygon
     points="62.898,551.747 48.53,540.646 19.519,578.195 29.254,585.716 "
     id="polygon34"
     style="fill:#a0616a;stroke-width:1.05439436"
     transform="matrix(0.95620944,0,0,0.94067774,148,7.7361709)" />
  <path
     d="m 167.06027,544.71799 15.39306,10.32111 -4.87131,6.20189 6.52393,20.13864 a 4.9765155,4.895682 0 0 1 -7.78438,5.36093 l -17.51807,-13.31624 1.79897,-8.42988 -5.99743,5.23843 -6.60501,-5.02077 z"
     id="path36"
     inkscape:connector-curvature="0"
     style="fill:#2f2e41;stroke-width:1" />
  <path
     d="m 213.89005,235.77626 a 22.218569,21.857673 0 1 0 38.21594,-15.16056 l -0.10664,-0.10481 c -0.17776,-0.18367 -0.35552,-0.36725 -0.54217,-0.54217 a 0.00870151,0.00856017 0 0 1 -0.009,-0.008 c -0.23108,-0.20982 -0.46216,-0.41965 -0.70214,-0.62073 -3.91043,-3.3748 -9.4066,-7.03787 -15.01457,-7.03787 -12.27353,0 -21.84157,11.40066 -21.84157,23.47489 z"
     id="path38"
     inkscape:connector-curvature="0"
     style="fill:#2f2e41;stroke-width:1" />
  <path
     d="m 340.53253,224.5515 a 8.1386523,8.0064563 0 0 1 -8.81338,8.69186 l -55.0188,48.86932 -9.46808,-14.71076 57.05887,-43.41122 a 8.1827336,8.0498215 0 0 1 16.24141,0.56076 z"
     id="path40"
     inkscape:connector-curvature="0"
     style="fill:#a0616a;stroke-width:1" />
  <path
     d="m 253.1862,296.86336 c 0,0 2.04707,3.71944 9.03968,-2.0237 5.59812,-4.59783 32.41825,-24.55865 38.19622,-32.73815 a 6.3935892,6.2897382 0 0 0 7.52747,-2.15022 l -15.83121,-13.6395 c -4.73673,0.53642 -4.63521,3.66676 -4.14192,5.44401 l -11.94175,5.32259 -30.83735,19.38713 6.46061,17.73515 z"
     id="path42"
     inkscape:connector-curvature="0"
     style="fill:#00b10f;stroke-width:1" />
  <polygon
     points="120.215,340.612 115.845,333.432 78.761,343.789 77.555,349.532 76.531,370.716 121.615,373.194 "
     id="polygon44"
     style="fill:#a0616a;stroke-width:1.05439436"
     transform="matrix(0.95620944,0,0,0.94067774,148,7.7361709)" />
  <ellipse
     cx="241.58263"
     cy="240.8335"
     id="circle46"
     style="fill:#a0616a;stroke-width:1"
     rx="18.631226"
     ry="18.328598" />
  <path
     d="m 208.50509,308.43765 -0.11456,-15.23548 a 24.647408,24.24706 0 0 1 19.08757,-23.63359 l 0.0703,-0.0162 3.6841,-4.88328 14.96782,1.47297 2.74343,5.51582 10.84588,6.35325 4.17582,13.20583 a 15.875085,15.617226 0 0 1 6.85998,10.45924 c 1.41773,8.90871 -4.9228,17.82254 -5.67702,18.8446 l -1.94325,10.76661 -42.27416,7.33781 -0.34328,0.0427 z"
     id="path48"
     inkscape:connector-curvature="0"
     style="fill:#00b10f;stroke-width:1" />
  <path
     d="m 264.38131,237.56589 a 63.519186,62.487444 0 0 1 -6.75195,3.66222 38.852539,38.221458 0 0 1 -7.36382,2.61884 25.451341,25.037935 0 0 0 -2.65178,-4.44486 16.431599,16.1647 0 0 1 0.0204,4.96656 26.302797,25.875561 0 0 1 -12.55526,-1.01333 l -3.50853,-5.78939 -0.2652,6.46162 c -2.90675,0.52176 -5.80337,1.0134 -8.71011,1.52513 -0.17337,0.02 -0.34674,0.0602 -0.50997,0.0903 -1.80532,-8.00678 0.75474,-16.82633 6.44593,-22.16413 a 20.505911,20.172834 0 0 1 21.54078,-4.1138 c 0.45898,0.18061 0.9281,0.38128 1.37687,0.59201 a 0.01000195,0.00983949 0 0 0 0.0102,0.0101 c 0.2652,0.13037 0.48958,0.44141 0.78536,0.41134 12.72862,-1.39476 13.13662,8.31773 12.13711,17.18744 z"
     id="path50"
     inkscape:connector-curvature="0"
     style="fill:#2f2e41;stroke-width:1" />
  <polygon
     points="132.623,526.535 118.233,515.464 89.297,553.071 99.047,560.572 "
     id="polygon52"
     style="fill:#a0616a;stroke-width:1.05439436"
     transform="matrix(0.95620944,0,0,0.94067774,148,7.7361709)" />
  <path
     d="m 234.61382,521.72299 15.41419,10.29051 -4.85856,6.21155 6.56526,20.12564 a 4.9765155,4.895682 0 0 1 -7.77337,5.37634 l -17.54537,-13.28143 1.78166,-8.43344 -5.98666,5.25034 -6.61531,-5.00764 z"
     id="path54"
     inkscape:connector-curvature="0"
     style="fill:#2f2e41;stroke-width:1" />
  <path
     d="m 203.13378,488.92042 -4.4e-4,-0.11953 4.41854,-7.49053 -4.51184,-9.75056 -0.13538,-25.05094 0.73138,-3.76061 a 32.158959,31.636601 0 0 0 -0.83381,-15.19992 v 0 l -0.0824,-15.24844 c -0.15851,-3.81987 5.85679,-7.1795 4.45403,-10.36404 -13.25901,-30.10074 13.53951,-53.06346 13.72053,-53.24776 l 0.54765,-0.5601 2.97131,2.21394 2.82809,0.004 38.16404,6.84115 0.27556,0.50547 c 1.50106,2.76978 4.39797,12.31675 4.56982,16.63706 1.90203,2.16613 23.5677,26.82944 25.49364,28.54304 13.01478,11.58457 20.46625,30.75871 23.74956,41.15731 a 16.78596,16.513306 0 0 1 -2.87453,15.18511 l -49.27026,53.09064 -13.25901,-12.04028 26.65967,-47.79124 -1.92243,-4.84881 a 15.149226,14.903157 0 0 1 -8.83232,-5.04777 l -5.39841,-6.30371 a 11.980425,11.785827 0 0 1 -2.73436,-6.1304 l -3.27377,-0.38763 -11.7268,-12.11221 -8.13582,72.48123 -2.21188,5.72569 -38.51967,44.54914 -16.31879,-10.03358 z"
     id="path56"
     inkscape:connector-curvature="0"
     style="fill:#2f2e41;stroke-width:1" />
  <path
     d="m 197.25118,177.69457 a 8.1386428,8.0064469 0 0 0 2.50851,12.02632 l -12.24844,35.67238 10.00154,37.80333 16.12755,-7.1726 -9.95195,-28.51398 7.44564,-41.50431 a 8.1827336,8.0498215 0 0 0 -13.88285,-8.31115 z"
     id="path58"
     inkscape:connector-curvature="0"
     style="fill:#a0616a;stroke-width:1" />
  <path
     d="m 212.01357,294.34442 c 0,0 -3.78789,2.00098 -6.42225,-6.5774 -2.10899,-6.86764 -16.46164,-44.15567 -16.72028,-54.11301 a 6.3936084,6.289757 0 0 1 -5.08812,-5.86564 l 20.84554,-2.83786 c 3.6579,3.00872 1.82457,5.56921 0.41971,6.78743 l 7.09986,11.83081 14.83976,31.93923 -12.21006,17.43786 z"
     id="path60"
     inkscape:connector-curvature="0"
     style="fill:#00b10f;stroke-width:1" />
  <path
     d="m 222.59083,245.55095 a 37.898175,37.282596 0 0 1 29.17748,-24.944 c 0.0266,-0.008 0.11554,-0.0437 0.23108,-0.0961 0.071,-0.0437 0.15996,-0.0875 0.24882,-0.13116 -0.26662,-0.14863 -0.52433,-0.27973 -0.79099,-0.41101 a 0.00870151,0.00856017 0 0 1 -0.009,-0.008 c -0.23108,-0.20982 -0.46216,-0.41965 -0.70214,-0.62073 l -0.67545,0.0263 c 0,0 -23.73832,-3.6983 -27.47995,26.18545 z"
     id="path62"
     inkscape:connector-curvature="0"
     style="fill:#fd6584;stroke-width:1" />
  <ellipse
     cx="-86.719093"
     cy="680.47473"
     rx="8.3737469"
     ry="9.6999226"
     transform="matrix(0.5602067,-0.82835286,0.83671955,0.54763163,0,0)"
     id="ellipse64"
     style="fill:#f2f2f2;stroke-width:1.0000571" />
  <ellipse
     cx="4.1269627"
     cy="556.79626"
     rx="8.3737469"
     ry="9.6999226"
     transform="matrix(0.5602067,-0.82835286,0.83671955,0.54763163,0,0)"
     id="ellipse66"
     style="fill:#f2f2f2;stroke-width:1.0000571" />
  <ellipse
     cx="-59.61808"
     cy="862.32111"
     rx="8.3737469"
     ry="9.6999226"
     transform="matrix(0.5602067,-0.82835286,0.83671955,0.54763163,0,0)"
     id="ellipse68"
     style="fill:#f2f2f2;stroke-width:1.0000571" />
  <ellipse
     cx="81.784325"
     cy="236.24167"
     rx="8.3737469"
     ry="9.6999226"
     transform="matrix(0.5602067,-0.82835286,0.83671955,0.54763163,0,0)"
     id="ellipse70"
     style="fill:#f2f2f2;stroke-width:1.0000571" />
  <ellipse
     cx="233.21368"
     cy="382.84573"
     rx="8.3737469"
     ry="9.6999226"
     transform="matrix(0.5602067,-0.82835286,0.83671955,0.54763163,0,0)"
     id="ellipse72"
     style="fill:#f2f2f2;stroke-width:1.0000571" />
  <ellipse
     cx="-137.57747"
     cy="513.73419"
     rx="8.3737469"
     ry="9.6999226"
     transform="matrix(0.5602067,-0.82835286,0.83671955,0.54763163,0,0)"
     id="ellipse74"
     style="fill:#e6e6e6;stroke-width:1.0000571" />
  <path
     d="M 788.91584,600.00004 H 167.09857 a 1.138549,1.1200556 0 0 1 0,-2.2401 h 621.81727 a 1.1385442,1.1200509 0 0 1 0,2.2401 z"
     id="path76"
     inkscape:connector-curvature="0"
     style="fill:#cccccc;stroke-width:1" />
  <path
     d="M 282.83372,228.00704 A 21.266337,20.920908 0 0 1 261.75416,209.35287 L 249.61478,98.440617 A 21.256679,20.911407 0 0 1 268.45276,75.436268 L 628.89983,37.256144 a 21.256775,20.911501 0 0 1 23.38511,18.531539 l 12.13938,110.911787 a 21.257492,20.912207 0 0 1 -18.83845,23.00526 l -0.0513,-0.46758 0.0513,0.46758 -360.44708,38.18013 a 21.508765,21.159398 0 0 1 -2.30507,0.12218 z"
     id="path78"
     inkscape:connector-curvature="0"
     style="fill:#e6e6e6;stroke-width:1" />
  <path
     d="m 624.92978,42.405075 a 18.982938,18.674598 0 0 0 -2.02727,0.107472 l -347.4514,36.803546 a 18.607071,18.304836 0 0 0 -16.50815,20.159345 l 6.13785,56.078272 a 70.57911,69.432694 0 0 0 77.72983,61.60152 l 244.31619,-25.87918 a 70.365053,69.222114 0 0 0 62.42814,-76.2349 L 643.39424,58.75252 A 18.611087,18.308787 0 0 0 624.92978,42.405037 Z"
     id="path80"
     inkscape:connector-curvature="0"
     style="fill:#ffffff;stroke-width:1" />
  <path
     d="m 551.76165,100.76648 -194.19511,20.57008 a 4.2496816,4.1806541 0 1 1 -0.9099,-8.31325 L 550.85175,92.453232 a 4.2496816,4.1806541 0 1 1 0.9099,8.313248 z"
     id="path82"
     inkscape:connector-curvature="0"
     style="fill:#00b10f;stroke-width:1" />
  <path
     d="m 554.55418,126.28037 -194.1951,20.57009 a 4.2496834,4.1806558 0 0 1 -0.9099,-8.31326 l 194.1951,-20.57009 a 4.2496834,4.1806558 0 0 1 0.9099,8.31326 z"
     id="path84"
     inkscape:connector-curvature="0"
     style="fill:#00b10f;stroke-width:1" />
  <path
     d="m 385.78214,169.96656 -22.63061,2.39714 a 4.2496826,4.180655 0 0 1 -0.9099,-8.31325 l 22.63061,-2.39714 a 4.2496816,4.1806541 0 1 1 0.9099,8.31325 z"
     id="path86"
     inkscape:connector-curvature="0"
     style="fill:#00b10f;stroke-width:1" />
  <ellipse
     cx="275.1929"
     cy="95.595161"
     id="circle88"
     style="fill:#3f3d56;stroke-width:1"
     rx="7.6496754"
     ry="7.5254221" />
  <ellipse
     cx="617.51587"
     cy="57.968052"
     id="circle90"
     style="fill:#3f3d56;stroke-width:1"
     rx="7.6496754"
     ry="7.5254221" />
  <path
     d="m 514.09538,219.98738 a 6.2987237,6.1964136 0 0 1 -2.13826,-4.88749 83.820688,82.45919 0 0 0 -5.38328,-32.05515 6.2987141,6.1964042 0 0 1 0.42667,-5.30436 6.1567648,6.0567606 0 0 1 4.25393,-2.94413 c 8.8914,-5.27836 18.00631,-6.76024 27.09717,-4.40355 a 6.2293029,6.1281204 0 0 1 6.84962,4.22465 138.63411,136.38228 0 0 1 6.08603,36.23974 6.22893,6.1277535 0 0 1 -5.20741,6.18518 l -26.90132,4.37218 a 6.1556461,6.05566 0 0 1 -5.08315,-1.42707 z"
     id="path92"
     inkscape:connector-curvature="0"
     style="fill:#00b10f;stroke-width:1" />
  <path
     d="m 516.48477,188.14007 22.64208,-3.67993 a 1.4343142,1.4110166 0 1 0 -0.46759,-2.78428 l -22.64208,3.67993 a 1.4343142,1.4110166 0 0 0 0.46759,2.78428 z"
     id="path94"
     inkscape:connector-curvature="0"
     style="fill:#ffffff;stroke-width:1" />
  <path
     d="m 518.35511,199.27724 22.64209,-3.67993 a 1.4343186,1.4110211 0 0 0 -0.46759,-2.7843 l -22.64208,3.67994 a 1.4343142,1.4110166 0 1 0 0.46758,2.78428 z"
     id="path96"
     inkscape:connector-curvature="0"
     style="fill:#ffffff;stroke-width:1" />
  <path
     d="m 520.22547,210.41441 22.64208,-3.67993 a 1.434315,1.4110175 0 0 0 -0.46759,-2.78429 l -22.64208,3.67993 a 1.434315,1.4110175 0 1 0 0.46759,2.78429 z"
     id="path98"
     inkscape:connector-curvature="0"
     style="fill:#ffffff;stroke-width:1" />
</svg>
