<?xml version="1.0" encoding="UTF-8" standalone="no"?>
<!-- Created with Inkscape (http://www.inkscape.org/) -->

<svg
   width="1000"
   height="600"
   viewBox="0 0 264.58333 158.75"
   version="1.1"
   id="svg5"
   xml:space="preserve"
   inkscape:version="1.2.2 (732a01da63, 2022-12-09)"
   sodipodi:docname="open_data_sept.svg"
   xmlns:inkscape="http://www.inkscape.org/namespaces/inkscape"
   xmlns:sodipodi="http://sodipodi.sourceforge.net/DTD/sodipodi-0.dtd"
   xmlns="http://www.w3.org/2000/svg"
   xmlns:svg="http://www.w3.org/2000/svg"><sodipodi:namedview
     id="namedview7"
     pagecolor="#ffffff"
     bordercolor="#000000"
     borderopacity="0.25"
     inkscape:showpageshadow="2"
     inkscape:pageopacity="0.0"
     inkscape:pagecheckerboard="0"
     inkscape:deskcolor="#d1d1d1"
     inkscape:document-units="mm"
     showgrid="false"
     inkscape:zoom="0.72515432"
     inkscape:cx="469.55523"
     inkscape:cy="253.04959"
     inkscape:window-width="1920"
     inkscape:window-height="1001"
     inkscape:window-x="-9"
     inkscape:window-y="-9"
     inkscape:window-maximized="1"
     inkscape:current-layer="layer1" /><defs
     id="defs2"><rect
       x="350.27027"
       y="56.539689"
       width="478.51883"
       height="107.56332"
       id="rect442" /><rect
       x="452.31751"
       y="234.43286"
       width="580.56609"
       height="311.6578"
       id="rect18983" /></defs><g
     inkscape:label="Layer 1"
     inkscape:groupmode="layer"
     id="layer1"><g
       id="g833"
       transform="matrix(0.69781629,0,0,0.69781629,24.684653,33.409755)"
       inkscape:label="data"
       style="fill:none;fill-opacity:1;stroke:#472a84;stroke-opacity:1"><g
         id="g802"
         style="fill:none;fill-opacity:1;stroke:#ffc463;stroke-opacity:1"
         transform="matrix(1.2094265,0,0,1.2094265,-4.0853497,-20.471436)"><path
           d="M 75.669678,59.597656 H 63.935059 V 50.18457 h 0.763488 c 1.309327,0 2.374207,-1.06488 2.374207,-2.374206 v -4.295593 c 0,-1.309266 -1.064881,-2.374146 -2.374207,-2.374146 h -4.295532 c -1.309326,0 -2.374206,1.06488 -2.374206,2.374146 v 4.295593 c 0,1.309326 1.06488,2.374206 2.374206,2.374206 h 0.763489 v 9.413086 h -6.637329 c -0.354736,-0.865173 -1.204773,-1.476562 -2.196106,-1.476562 h -4.296265 c -0.991394,0 -1.84143,0.611389 -2.196106,1.476562 h -3.88031 l -1.21991,-5.800293 c -0.01007,-0.04755 -0.02234,-0.09369 -0.03748,-0.139831 C 40.353327,52.573853 39.353327,51.845703 38.2149,51.845703 H 24.65185 c -1.441223,0 -2.613525,1.173035 -2.613525,2.614258 v 22.810303 c 0,0.764221 0.619324,1.384277 1.384277,1.384277 0.764222,0 1.384278,-0.620056 1.384278,-1.384277 V 54.614258 h 13.276062 l 1.399414,6.652466 c 0.134826,0.64093 0.700073,1.099487 1.354736,1.099487 h 4.825501 v 2.424621 c 0,1.309327 1.06488,2.374207 2.374206,2.374207 h 4.295532 c 1.309326,0 2.374207,-1.06488 2.374207,-2.374207 v -2.424621 h 6.459961 v 3.414551 c 0,0.764221 0.619323,1.384277 1.384277,1.384277 0.764221,0 1.384277,-0.620056 1.384277,-1.384277 V 62.366211 H 75.66894 c 0.144958,0 0.263184,0.118225 0.263184,0.262451 v 30.118835 c 0,0.955994 -0.777955,1.733948 -1.734681,1.733948 H 26.5401 c -0.955994,0 -1.733948,-0.777954 -1.733948,-1.733948 v -9.940124 c 0,-0.764221 -0.620056,-1.384277 -1.384277,-1.384277 -0.764221,0 -1.384277,0.620056 -1.384277,1.384277 v 9.940124 c 0,2.4823 2.020202,4.502503 4.502502,4.502503 h 47.658081 c 2.4823,0 4.502503,-2.020203 4.502503,-4.502503 V 62.628662 c 0,-1.671265 -1.359742,-3.031006 -3.031006,-3.031006 z m -23.73169,4.798828 h -3.506836 v -3.506835 h 3.506836 z M 60.797363,47.416016 V 43.90918 h 3.506836 v 3.506836 z"
           id="path770"
           style="fill:#00052b;fill-opacity:1;stroke:#ffc463;stroke-width:1.18489;stroke-dasharray:none;stroke-opacity:1" /><path
           d="m 48.036804,45.016602 h 4.295532 c 1.309327,0 2.374207,-1.064881 2.374207,-2.374207 v -4.295593 c 0,-1.309265 -1.06488,-2.374146 -2.374207,-2.374146 h -4.295532 c -1.309326,0 -2.374206,1.064881 -2.374206,2.374146 v 4.295593 c 0,1.309326 1.06488,2.374207 2.374206,2.374207 z m 0.394348,-6.275391 h 3.506836 v 3.506836 h -3.506836 z"
           id="path772"
           style="fill:#00052b;fill-opacity:1;stroke:#ffc463;stroke-width:1.18489;stroke-dasharray:none;stroke-opacity:1" /><path
           d="m 60.403015,36.786898 h 4.295532 c 1.309327,0 2.374207,-1.064881 2.374207,-2.374207 v -4.295593 c 0,-1.309265 -1.064881,-2.374145 -2.374207,-2.374145 h -4.295532 c -1.309326,0 -2.374206,1.06488 -2.374206,2.374145 v 4.295593 c 0,1.309326 1.06488,2.374207 2.374206,2.374207 z m 0.394348,-6.275391 h 3.506836 v 3.506836 h -3.506836 z"
           id="path774"
           style="fill:#00052b;fill-opacity:1;stroke:#fc4889;stroke-width:1.18489;stroke-dasharray:none;stroke-opacity:1" /><path
           d="m 77.618469,47.046875 h -4.295532 c -1.309326,0 -2.374207,1.06488 -2.374207,2.374145 v 4.295594 c 0,1.309326 1.064881,2.374206 2.374207,2.374206 h 4.295532 c 1.309326,0 2.374207,-1.06488 2.374207,-2.374206 V 49.42102 c 0,-1.309265 -1.064881,-2.374145 -2.374207,-2.374145 z m -0.394348,6.275391 H 73.717285 V 49.81543 h 3.506836 z"
           id="path776"
           style="fill:#00052b;fill-opacity:1;stroke:#fc4889;stroke-width:1.18489;stroke-dasharray:none;stroke-opacity:1" /><path
           d="m 77.618469,26.005859 h -4.295532 c -1.309326,0 -2.374207,1.064881 -2.374207,2.374146 v 4.295593 c 0,1.309326 1.064881,2.374207 2.374207,2.374207 h 4.295532 c 1.309326,0 2.374207,-1.064881 2.374207,-2.374207 v -4.295593 c 0,-1.309265 -1.064881,-2.374146 -2.374207,-2.374146 z m -0.394348,6.275391 h -3.506836 v -3.506836 h 3.506836 z"
           id="path778"
           style="fill:#00052b;fill-opacity:1;stroke:#ffc463;stroke-width:1.18489;stroke-dasharray:none;stroke-opacity:1" /><path
           d="m 63.765723,20.826195 h 4.295532 c 1.309327,0 2.374207,-1.06488 2.374207,-2.374206 v -4.295594 c 0,-1.309265 -1.064881,-2.374145 -2.374207,-2.374145 h -4.295532 c -1.309326,0 -2.374206,1.06488 -2.374206,2.374145 v 4.295594 c 0,1.309326 1.06488,2.374206 2.374206,2.374206 z m 0.394348,-6.275391 h 3.506836 v 3.506836 h -3.506836 z"
           id="path780"
           style="fill:#00052b;fill-opacity:1;stroke:#ffc463;stroke-width:1.18489;stroke-dasharray:none;stroke-opacity:1" /><path
           d="m 35.670593,28.774414 h 0.763489 v 7.290527 c 0,0.764222 0.620056,1.384278 1.384277,1.384278 0.764221,0 1.384278,-0.620056 1.384278,-1.384278 v -7.290527 h 0.763488 c 1.309327,0 2.374207,-1.06488 2.374207,-2.374206 v -4.295594 c 0,-1.309265 -1.06488,-2.374145 -2.374207,-2.374145 h -4.295532 c -1.309326,0 -2.374206,1.06488 -2.374206,2.374145 v 4.295594 c 0,1.309326 1.06488,2.374206 2.374206,2.374206 z m 0.394348,-6.275391 h 3.506836 v 3.506836 h -3.506836 z"
           id="path782"
           style="fill:#00052b;fill-opacity:1;stroke:#fc4889;stroke-width:1.18489;stroke-dasharray:none;stroke-opacity:1" /><path
           d="m 23.145019,33.942383 v 3.968261 c 0,0.764222 0.620057,1.384278 1.384278,1.384278 0.764221,0 1.384277,-0.620056 1.384277,-1.384278 v -3.968261 h 0.763489 c 1.309326,0 2.374206,-1.064881 2.374206,-2.374207 v -4.295593 c 0,-1.309265 -1.06488,-2.374146 -2.374206,-2.374146 h -4.295532 c -1.309326,0 -2.374207,1.064881 -2.374207,2.374146 v 4.295593 c 0,1.309326 1.064881,2.374207 2.374207,2.374207 z m -0.36914,-6.275391 h 3.506836 v 3.506836 h -3.506836 z"
           id="path784"
           style="fill:#00052b;fill-opacity:1;stroke:#ffc463;stroke-width:1.18489;stroke-dasharray:none;stroke-opacity:1" /><path
           d="m 35.670593,18.253906 h 4.295533 c 1.309326,0 2.374206,-1.06488 2.374206,-2.374206 v -4.295593 c 0,-1.309266 -1.06488,-2.374146 -2.374206,-2.374146 h -4.295533 c -1.309326,0 -2.374206,1.06488 -2.374206,2.374146 V 15.8797 c 0,1.309326 1.06488,2.374206 2.374206,2.374206 z m 0.394348,-6.27539 h 3.506836 v 3.506836 h -3.506836 z"
           id="path786"
           style="fill:#00052b;fill-opacity:1;stroke:#ffc463;stroke-width:1.18489;stroke-dasharray:none;stroke-opacity:1" /><path
           d="m 48.036804,56.09082 h 4.295532 c 1.309327,0 2.374207,-1.06488 2.374207,-2.374206 V 49.42102 c 0,-1.309265 -1.06488,-2.374145 -2.374207,-2.374145 h -4.295532 c -1.309326,0 -2.374206,1.06488 -2.374206,2.374145 v 4.295594 c 0,1.309326 1.06488,2.374206 2.374206,2.374206 z m 0.394348,-6.27539 h 3.506836 v 3.506836 h -3.506836 z"
           id="path788"
           style="fill:#00052b;fill-opacity:1;stroke:#fc4889;stroke-width:1.18489;stroke-dasharray:none;stroke-opacity:1" /><path
           d="m 52.332336,89.313477 c 1.309327,0 2.374207,-1.064881 2.374207,-2.374207 v -4.295593 c 0,-1.309265 -1.06488,-2.374146 -2.374207,-2.374146 h -4.295532 c -1.309326,0 -2.374206,1.064881 -2.374206,2.374146 v 4.295593 c 0,1.309326 1.06488,2.374206 2.374206,2.374206 z m -3.901184,-6.275391 h 3.506836 v 3.506836 h -3.506836 z"
           id="path790"
           style="fill:#00052b;fill-opacity:1;stroke:#fc4889;stroke-width:1.18489;stroke-dasharray:none;stroke-opacity:1" /><path
           d="m 48.036804,22.868164 h 4.295532 c 1.309327,0 2.374207,-1.06488 2.374207,-2.374206 v -4.295594 c 0,-1.309265 -1.06488,-2.374145 -2.374207,-2.374145 h -4.295532 c -1.309326,0 -2.374206,1.06488 -2.374206,2.374145 v 4.295594 c 0,1.309326 1.06488,2.374206 2.374206,2.374206 z m 0.394348,-6.275391 h 3.506836 v 3.506836 h -3.506836 z"
           id="path792"
           style="fill:#00052b;fill-opacity:1;stroke:#ffc463;stroke-width:1.18489;stroke-dasharray:none;stroke-opacity:1" /><path
           d="m 48.036804,11.793945 h 4.295532 c 1.309327,0 2.374207,-1.06488 2.374207,-2.3742062 V 5.1241455 C 54.706543,3.8148804 53.641663,2.75 52.332336,2.75 h -4.295532 c -1.309326,0 -2.374206,1.0648804 -2.374206,2.3741455 v 4.2955933 c 0,1.3093262 1.06488,2.3742062 2.374206,2.3742062 z m 0.394348,-6.2753903 h 3.506836 v 3.5068359 h -3.506836 z"
           id="path794"
           style="fill:#00052b;fill-opacity:1;stroke:#fc4889;stroke-width:1.18489;stroke-dasharray:none;stroke-opacity:1" /><path
           d="m 24.529297,41.509766 c -0.764221,0 -1.384277,0.620056 -1.384277,1.384277 v 1.661133 c 0,0.764221 0.620056,1.384277 1.384277,1.384277 0.764221,0 1.384277,-0.620056 1.384277,-1.384277 v -1.661133 c 0,-0.764221 -0.620056,-1.384277 -1.384277,-1.384277 z"
           id="path796"
           style="fill:#00052b;fill-opacity:1;stroke:#ffc463;stroke-width:1.18489;stroke-dasharray:none;stroke-opacity:1" /><path
           d="M 63.935059,73.532715 V 70.57959 c 0,-0.764221 -0.619324,-1.384278 -1.384278,-1.384278 -0.764953,0 -1.384277,0.620057 -1.384277,1.384278 v 2.953125 c 0,0.764221 0.619324,1.384277 1.384277,1.384277 0.764954,0 1.384278,-0.620056 1.384278,-1.384277 z"
           id="path798"
           style="fill:#00052b;fill-opacity:1;stroke:#ffc463;stroke-width:1.18489;stroke-dasharray:none;stroke-opacity:1" /><path
           d="m 37.818359,39.110352 c -0.764221,0 -1.384277,0.620056 -1.384277,1.384277 v 1.476562 c 0,0.764222 0.620056,1.384278 1.384277,1.384278 0.764221,0 1.384278,-0.620056 1.384278,-1.384278 v -1.476562 c 0,-0.764221 -0.620056,-1.384277 -1.384278,-1.384277 z"
           id="path800"
           style="fill:#00052b;fill-opacity:1;stroke:#fc4889;stroke-width:1.18489;stroke-dasharray:none;stroke-opacity:1" /></g></g><g
       id="g867"
       transform="matrix(1.0554296,0,0,1.0554296,15.062462,77.011929)"
       inkscape:label="hand"
       style="fill:#ffc463;stroke-width:0.99959296;stroke-dasharray:none;fill-opacity:1"><path
         d="m 19.668,54.652 -2.662,1.887 C 14.578,58.258 12.912,58.98 9.324,52.637 L 7.828,50.008 C 4.24,43.658 5.543,42.283 7.965,40.57 l 2.666,-1.887 z"
         id="path849"
         style="fill:none;stroke:#ffc463;stroke-width:1.66283;stroke-dasharray:none;fill-opacity:1" /><path
         d="m 83.953,40.137 c 0.428,0.797 0.625,1.74 0.531,2.609 -0.109,1.037 -0.598,1.797 -1.02,1.938 L 55.563,57.367 C 51.516,58.683 45.141,56.517 39.516,54.605 34.735,52.98 30.606,51.574 28.094,52.412 l -6.016,1.109 -9.141,-16.145 8.068,-3.672 c 6.178,-2.818 9.896,-1.406 16.057,0.932 3.771,1.434 8.469,3.209 14.984,4.434 5.365,1.008 6.943,4.623 7.303,5.707 0.432,1.318 0.365,2.6 -0.166,3.266 -0.574,0.709 -0.918,0.693 -3.684,-0.125 C 55.036,47.783 54.53,47.633 53.968,47.477 53.886,47.456 53.802,47.446 53.714,47.44 L 41.37,46.799 c -0.719,-0.037 -1.309,0.6 -1.313,1.422 0,0.818 0.582,1.516 1.301,1.553 l 12.219,0.635 c 0.496,0.141 0.953,0.271 1.365,0.395 2.74,0.809 4.547,1.346 6.197,-0.691 0.871,-1.094 1.23,-2.682 1.053,-4.396 l 18.979,-7.266 c 0.73,-0.223 1.605,0.137 2.287,0.949 0.188,0.229 0.354,0.479 0.494,0.744 v -0.007 z"
         id="path851"
         style="fill:none;stroke:#ffc463;stroke-width:1.66283;stroke-dasharray:none;fill-opacity:1" /><path
         d="M 273.67876,153.59761 H -12.698775 c -0.501413,-0.003 -0.501413,-0.59975 0,-0.60264 95.459176,0 220.674345,0 286.377535,0 0.50141,0.003 0.50141,0.59975 0,0.60264 z"
         fill="#cccccc"
         id="path18776"
         style="fill:#ffc463;fill-opacity:1;stroke:#ffc463;stroke-opacity:1;stroke-width:1.18489;stroke-dasharray:none"
         sodipodi:nodetypes="ccccc"
         transform="matrix(0.79963412,0,0,0.79963412,6.4157452,-54.847311)" /></g><text
       xml:space="preserve"
       transform="matrix(0.26458333,0,0,0.26458333,-15.399104,-22.916221)"
       id="text18981"
       style="font-size:80px;font-family:Arial;-inkscape-font-specification:Arial;white-space:pre;shape-inside:url(#rect18983);display:inline;fill:#fc4889;fill-opacity:1;stroke:none;stroke-width:3.40157;stroke-dasharray:none;stroke-opacity:1"
       inkscape:label="text18981"><tspan
         x="452.31836"
         y="306.49395"
         id="tspan3374"><tspan
           style="font-size:64px"
           id="tspan3372">Initiation to Data </tspan></tspan><tspan
         x="452.31836"
         y="406.49395"
         id="tspan3378"><tspan
           style="font-size:64px"
           id="tspan3376">Sharing Practices </tspan></tspan><tspan
         x="452.31836"
         y="506.49395"
         id="tspan3384"><tspan
           style="font-size:64px"
           id="tspan3380">&amp; McGill Dataverse </tspan><tspan
           style="font-weight:bold;-inkscape-font-specification:'Arial Bold'"
           id="tspan3382">
</tspan></tspan><tspan
         x="452.31836"
         y="606.49395"
         id="tspan3388"><tspan
           style="font-weight:bold;-inkscape-font-specification:'Arial Bold'"
           id="tspan3386">
</tspan></tspan></text><text
       xml:space="preserve"
       transform="matrix(0.26458333,0,0,0.26458333,10.032656,-5.0718469)"
       id="text440"
       style="font-weight:bold;font-size:80px;font-family:Arial;-inkscape-font-specification:'Arial Bold';white-space:pre;shape-inside:url(#rect442);display:inline;fill:#40b39f;stroke:none;stroke-width:6.63307"><tspan
         x="350.26953"
         y="128.59942"
         id="tspan3390">September</tspan></text></g></svg>
