<?xml version="1.0" encoding="UTF-8" standalone="no"?>
<svg
   width="1000"
   height="600"
   viewBox="0 0 1000 600"
   version="1.1"
   id="svg84"
   sodipodi:docname="outline_data.svg"
   inkscape:version="1.2.2 (732a01da63, 2022-12-09, custom)"
   xml:space="preserve"
   xmlns:inkscape="http://www.inkscape.org/namespaces/inkscape"
   xmlns:sodipodi="http://sodipodi.sourceforge.net/DTD/sodipodi-0.dtd"
   xmlns="http://www.w3.org/2000/svg"
   xmlns:svg="http://www.w3.org/2000/svg"
   xmlns:rdf="http://www.w3.org/1999/02/22-rdf-syntax-ns#"
   xmlns:cc="http://creativecommons.org/ns#"
   xmlns:dc="http://purl.org/dc/elements/1.1/"><metadata
     id="metadata90"><rdf:RDF><cc:Work
         rdf:about=""><dc:format>image/svg+xml</dc:format><dc:type
           rdf:resource="http://purl.org/dc/dcmitype/StillImage" /></cc:Work></rdf:RDF></metadata><defs
     id="defs88" /><sodipodi:namedview
     pagecolor="#ffffff"
     bordercolor="#666666"
     borderopacity="1"
     objecttolerance="10"
     gridtolerance="10"
     guidetolerance="10"
     inkscape:pageopacity="0"
     inkscape:pageshadow="2"
     inkscape:window-width="1842"
     inkscape:window-height="1005"
     id="namedview86"
     showgrid="false"
     inkscape:zoom="1.5068124"
     inkscape:cx="400.84618"
     inkscape:cy="223.31911"
     inkscape:window-x="78"
     inkscape:window-y="38"
     inkscape:window-maximized="1"
     inkscape:current-layer="svg84"
     inkscape:showpageshadow="2"
     inkscape:pagecheckerboard="0"
     inkscape:deskcolor="#d1d1d1" /><path
     d="M 894.839,389.91918 H 340.71169 a 7.4998597,7.6972034 0 0 1 -7.4915,-7.68863 V 29.992256 H 902.33048 V 382.23058 a 7.4998597,7.6972034 0 0 1 -7.49148,7.6886 z"
     id="path2"
     inkscape:connector-curvature="0"
     style="fill:#e6e6e6;stroke-width:3.4;stroke:#ffc06b;stroke-opacity:1;stroke-dasharray:none" /><path
     d="M 878.59076,367.90689 H 356.96007 a 7.5813345,7.780822 0 0 1 -7.57298,-7.77224 V 70.053683 a 7.5817001,7.7811973 0 0 1 7.57298,-7.772246 h 521.63069 a 7.5813345,7.780822 0 0 1 7.57298,7.772246 V 360.13465 a 7.581042,7.7805219 0 0 1 -7.57298,7.77224 z"
     id="path4"
     inkscape:connector-curvature="0"
     style="fill:#ffffff;stroke-width:3.4;stroke:#ffc06b;stroke-opacity:1;stroke-dasharray:none" /><path
     d="M 902.08777,40.869305 H 332.97766 V 22.877843 a 7.4998597,7.6972034 0 0 1 7.49151,-7.688628 h 554.12712 a 7.4998597,7.6972034 0 0 1 7.4915,7.688628 z"
     id="path6"
     inkscape:connector-curvature="0"
     style="fill:#00102d;stroke-width:3.4;stroke:#ffc06b;stroke-opacity:1;stroke-dasharray:none;fill-opacity:1" /><ellipse
     cx="351.3576"
     cy="28.307987"
     id="circle8"
     style="fill:#ffffff;stroke-width:3.4;stroke:#ffc06b;stroke-opacity:1;stroke-dasharray:none"
     rx="4.4742408"
     ry="4.5919714" /><ellipse
     cx="368.3407"
     cy="28.307987"
     id="circle10"
     style="fill:#ffffff;stroke-width:3.4;stroke:#ffc06b;stroke-opacity:1;stroke-dasharray:none"
     rx="4.4742408"
     ry="4.5919714" /><ellipse
     cx="385.32382"
     cy="28.307987"
     id="circle12"
     style="fill:#ffffff;stroke-width:3.4;stroke:#ffc06b;stroke-opacity:1;stroke-dasharray:none"
     rx="4.4742408"
     ry="4.5919714" /><rect
     x="402.9985"
     y="114.2977"
     width="53.762409"
     height="24.422636"
     id="rect14"
     style="fill:#e6e6e6;stroke-width:3.4;stroke:#ffc06b;stroke-opacity:1;stroke-dasharray:none" /><rect
     x="510.52332"
     y="164.95207"
     width="53.762409"
     height="24.422636"
     id="rect16"
     style="fill:#e6e6e6;stroke-width:3.4;stroke:#ffc06b;stroke-opacity:1;stroke-dasharray:none" /><rect
     x="402.9985"
     y="240.93361"
     width="53.762409"
     height="24.422649"
     id="rect18"
     style="fill:#00102d;stroke-width:3.4;stroke:#ffc06b;stroke-opacity:1;stroke-dasharray:none;fill-opacity:1" /><rect
     x="510.52332"
     y="291.58792"
     width="53.762409"
     height="24.422636"
     id="rect20"
     style="fill:#00102d;stroke-width:3.4;stroke:#ffc06b;stroke-opacity:1;stroke-dasharray:none;fill-opacity:1" /><rect
     x="778.45404"
     y="316.91513"
     width="53.762409"
     height="24.422636"
     id="rect22"
     style="fill:#00102d;stroke-width:3.4;stroke:#ffc06b;stroke-opacity:1;stroke-dasharray:none;fill-opacity:1" /><rect
     x="724.69165"
     y="215.60643"
     width="53.762409"
     height="24.422636"
     id="rect24"
     style="fill:#e6e6e6;stroke-width:3.4;stroke:#ffc06b;stroke-opacity:1;stroke-dasharray:none" /><rect
     x="564.28571"
     y="215.60643"
     width="107.52483"
     height="24.422636"
     id="rect26"
     style="fill:#00102d;stroke-width:3.4;stroke:#ffc06b;stroke-opacity:1;stroke-dasharray:none;fill-opacity:1" /><rect
     x="564.28571"
     y="88.065979"
     width="107.52483"
     height="24.422636"
     id="rect28"
     style="fill:#00102d;stroke-width:3.4;stroke:#ffc06b;stroke-opacity:1;stroke-dasharray:none;fill-opacity:1" /><path
     d="M 349.23606,61.834281 V 368.47401 H 886.86024 V 61.834259 Z m 535.86147,25.402701 h -51.82326 v -23.59358 h 51.82327 z M 565.34355,265.05456 v -23.59317 h 105.40919 v 23.59317 z m 105.40924,1.80909 v 23.59361 H 565.3435 v -23.59361 z m 0,-101.60994 v 23.59318 H 565.3435 v -23.59318 z m -105.40924,-1.80908 v -23.59362 h 105.40919 v 23.59362 z m 0,50.80497 v -23.59363 h 105.40919 v 23.59363 z m 105.40924,1.80907 V 239.6523 H 565.3435 V 216.05867 Z M 563.58085,188.84689 h -51.82327 v -23.59318 h 51.82327 z m 0,1.80908 v 23.59363 h -51.82327 v -23.59363 z m 0,25.4027 v 23.59363 h -51.82327 v -23.59363 z m 0,25.40272 v 23.59317 h -51.82327 v -23.59317 z m 108.93465,0 h 51.82322 v 23.59317 h -51.82319 z m 0,-1.80909 v -23.59363 h 51.82322 v 23.59363 z m 0,-25.4027 v -23.59363 h 51.82322 v 23.59363 z m 0,-25.40271 v -23.59318 h 51.82322 v 23.59318 z m 0,-25.40226 v -23.59362 h 51.82322 v 23.59362 z m 0,-25.4027 v -23.59362 h 51.82322 v 23.59362 z m -1.76271,0 H 565.3435 v -23.59362 h 105.40924 z m -107.17194,0 h -51.82327 v -23.59362 h 51.82327 z m 0,1.80908 v 23.59362 h -51.82327 v -23.59362 z m -53.58597,23.59362 h -51.82419 v -23.59362 h 51.82413 z m 0,1.80908 v 23.59318 h -51.82419 v -23.59318 z m 0,25.40226 v 23.59363 h -51.82419 v -23.59363 z m 0,25.4027 v 23.59363 h -51.82419 v -23.59363 z m 0,25.40272 v 23.59317 h -51.82419 v -23.59317 z m 0,25.40226 v 23.59361 h -51.82419 v -23.59361 z m 1.7627,0 h 51.82327 v 23.59361 h -51.82327 z m 51.82327,25.4027 v 23.59317 h -51.82327 v -23.59317 z m 1.7627,0 h 105.40919 v 23.59317 H 565.3435 Z m 107.17195,0 h 51.82322 v 23.59317 h -51.82319 z m 0,-1.80909 v -23.59361 h 51.82322 v 23.59361 z m 53.58596,-23.59361 h 51.82414 v 23.59361 h -51.82424 z m 0,-1.80909 v -23.59317 h 51.82414 v 23.59317 z m 0,-25.40226 v -23.59363 h 51.82414 v 23.59363 z m 0,-25.4027 v -23.59363 h 51.82414 v 23.59363 z m 0,-25.40271 v -23.59318 h 51.82414 v 23.59318 z m 0,-25.40226 v -23.59362 h 51.82414 v 23.59362 z m 0,-25.4027 v -23.59362 h 51.82414 v 23.59362 z m 0,-25.4027 V 89.04605 h 51.82414 v 23.59318 z m -1.76269,0 H 672.51553 V 89.04605 h 51.82319 z m -53.58598,0 H 565.3435 V 89.04605 h 105.40924 z m -107.17194,0 H 511.75758 V 89.04605 h 51.82327 z m -53.58597,0 H 458.17069 V 89.04605 h 51.82413 z m 0,1.80908 v 23.59362 h -51.82419 v -23.59362 z m -53.58684,23.59362 h -51.82326 v -23.59362 h 51.82326 z m 0,1.80908 v 23.59362 h -51.82326 v -23.59362 z m 0,25.4027 v 23.59318 h -51.82326 v -23.59318 z m 0,25.40226 v 23.59363 h -51.82326 v -23.59363 z m 0,25.4027 v 23.59363 h -51.82326 v -23.59363 z m 0,25.40272 v 23.59317 h -51.82326 v -23.59317 z m 0,25.40226 v 23.59361 h -51.82326 v -23.59361 z m 0,25.4027 v 23.59317 h -51.82326 v -23.59317 z m 1.7627,0 h 51.82414 v 23.59317 h -51.82419 z m 51.82414,25.40226 v 23.59405 h -51.82419 v -23.59405 z m 1.7627,0 h 51.82327 v 23.59405 h -51.82327 z m 53.58597,0 h 105.40919 v 23.59405 H 565.3435 Z m 107.17195,0 h 51.82322 v 23.59405 h -51.82319 z m 53.58596,0 h 51.82414 v 23.59405 h -51.82424 z m 0,-1.80909 v -23.59317 h 51.82414 v 23.59317 z m 53.58686,-23.59317 h 51.82327 v 23.59317 h -51.82327 z m 0,-1.80909 v -23.59361 h 51.82327 v 23.59361 z m 0,-25.4027 v -23.59317 h 51.82327 v 23.59317 z m 0,-25.40226 v -23.59363 h 51.82327 v 23.59363 z m 0,-25.4027 v -23.59363 h 51.82327 v 23.59363 z m 0,-25.40271 v -23.59318 h 51.82327 v 23.59318 z m 0,-25.40226 v -23.59362 h 51.82327 v 23.59362 z m 0,-25.4027 v -23.59362 h 51.82327 v 23.59362 z m 0,-25.4027 V 89.04605 h 51.82327 v 23.59318 z m 0,-25.402259 V 63.643402 h 51.82327 v 23.593623 z m -1.7627,0 H 726.10138 V 63.643402 h 51.82413 z m -53.58683,0 H 672.51553 V 63.643402 h 51.82319 z m -53.58598,0 H 565.3435 V 63.643402 h 105.40924 z m -107.17194,0 H 511.75758 V 63.643402 h 51.82327 z m -53.58597,0 H 458.17069 V 63.643402 h 51.82413 z m -53.58683,0 H 404.58478 V 63.643402 h 51.82326 z m 0,1.809079 v 23.59318 H 404.58478 V 89.04605 Z m -53.58598,23.59318 H 350.9988 V 89.04605 h 51.82327 z m 0,1.80908 v 23.59362 H 350.9988 v -23.59362 z m 0,25.4027 v 23.59362 H 350.9988 v -23.59362 z m 0,25.4027 v 23.59318 H 350.9988 v -23.59318 z m 0,25.40226 V 214.2496 H 350.9988 v -23.59363 z m 0,25.4027 V 239.6523 H 350.9988 v -23.59363 z m 0,25.40272 v 23.59317 H 350.9988 v -23.59317 z m 0,25.40226 v 23.59361 H 350.9988 v -23.59361 z m 0,25.4027 v 23.59317 H 350.9988 v -23.59317 z m 0,25.40226 v 23.59405 H 350.9988 v -23.59405 z m 1.76271,0 h 51.82327 v 23.59405 h -51.82329 z m 51.82327,25.40314 v 23.59318 h -51.82329 v -23.59318 z m 1.76269,0 h 51.82414 v 23.59318 h -51.82421 z m 53.58684,0 h 51.82327 v 23.59318 h -51.82329 z m 53.58597,0 h 105.40917 v 23.59318 H 565.3435 Z m 107.17195,0 h 51.8232 v 23.59318 h -51.82319 z m 53.58596,0 h 51.82414 v 23.59318 h -51.82424 z m 53.58684,0 h 51.82327 v 23.59318 h -51.82327 z m 0,-1.80908 v -23.59406 h 51.82327 v 23.59405 z m 53.58597,-23.59406 h 51.82327 v 23.59405 h -51.82329 z m 0,-1.80909 v -23.59317 h 51.82327 v 23.59317 z m 0,-25.40226 v -23.59361 h 51.82327 v 23.59361 z m 0,-25.4027 v -23.59317 h 51.82327 v 23.59317 z m 0,-25.40226 v -23.59363 h 51.82327 v 23.59363 z m 0,-25.4027 v -23.59363 h 51.82327 v 23.59363 z m 0,-25.40271 v -23.59318 h 51.82327 v 23.59318 z m 0,-25.40226 v -23.59362 h 51.82327 v 23.59362 z m 0,-25.4027 v -23.59362 h 51.82327 v 23.59362 z m 0,-25.4027 V 89.04605 h 51.82327 v 23.59318 z M 402.82207,63.643402 V 87.237025 H 350.9988 V 63.643402 Z M 350.9988,343.07175 h 51.82327 v 23.59318 H 350.9988 Z m 482.27545,23.59318 v -23.59318 h 51.82327 v 23.59318 z"
     id="path30"
     inkscape:connector-curvature="0"
     style="fill:#e6e6e6;stroke-width:3.4;stroke:#ffc06b;stroke-opacity:1;stroke-dasharray:none" /><path
     d="m 202.88666,227.97948 c 0,0 -27.19811,-6.43221 -42.15708,5.36017 -14.95897,11.79237 19.03868,38.59322 19.03868,38.59322 z"
     id="path32"
     inkscape:connector-curvature="0"
     style="fill:#00102d;stroke-width:3.4;stroke:#ffc06b;stroke-opacity:1;stroke-dasharray:none;fill-opacity:1" /><path
     d="m 231.01335,381.79826 a 10.503752,10.780137 0 0 1 7.87571,-14.41903 l 5.49656,-37.89135 14.44402,13.28722 -7.43405,33.94518 a 10.56068,10.838563 0 0 1 -20.38222,5.07798 z"
     id="path34"
     inkscape:connector-curvature="0"
     style="fill:#00102d;stroke-width:3.4;stroke:#ffc06b;stroke-opacity:1;stroke-dasharray:none;fill-opacity:1" /><polygon
     points="65.517,478.28 68.648,525.464 80.881,524.652 83.571,477.082 "
     id="polygon36"
     style="fill:#00102d;stroke-width:3.21299693;stroke:#ffc06b;stroke-opacity:1;stroke-dasharray:none;fill-opacity:1"
     transform="matrix(1.0445487,0,0,1.0720339,102.37408,15.189234)" /><path
     d="m 211.8179,589.51845 h -40.24721 v -15.95923 h 24.69716 a 15.55005,15.959219 0 0 1 15.55005,15.95922 v 0 z"
     id="path38"
     inkscape:connector-curvature="0"
     style="fill:#00102d;stroke-width:3.4;stroke:#ffc06b;stroke-opacity:1;stroke-dasharray:none;fill-opacity:1" /><polygon
     points="106.164,464.168 89.789,508.53 101.29,512.775 123.139,470.433 "
     id="polygon40"
     style="fill:#00102d;stroke-width:3.21299693;stroke:#ffc06b;stroke-opacity:1;stroke-dasharray:none;fill-opacity:1"
     transform="matrix(1.0445487,0,0,1.0720339,102.37408,15.189234)" /><path
     d="m 227.2282,585.12778 -37.75703,-14.30391 5.38483,-14.9718 23.16909,8.77741 a 15.55005,15.959219 0 0 1 9.20311,20.49829 v 0 z"
     id="path42"
     inkscape:connector-curvature="0"
     style="fill:#00102d;stroke-width:3.4;stroke:#ffc06b;stroke-opacity:1;stroke-dasharray:none;fill-opacity:1" /><path
     d="m 231.09468,364.43581 c 0,0 12.9405,7.1513 8.9588,35.75654 l -3.98173,108.29125 -21.99756,49.36656 -18.91304,-5.10808 12.04333,-40.17202 -15.92676,-70.49147 -2.0891,128.03095 -17.91754,3.06485 -25.78279,-212.82505 32.84897,-15.32423 z"
     id="path44"
     inkscape:connector-curvature="0"
     style="fill:#00102d;stroke-width:3.4;stroke:#ffc06b;stroke-opacity:1;stroke-dasharray:none;fill-opacity:1" /><ellipse
     cx="184.84148"
     cy="189.49599"
     id="circle46"
     style="fill:#00102d;stroke-width:3.4;stroke:#ffc06b;stroke-opacity:1;stroke-dasharray:none;fill-opacity:1"
     rx="25.655191"
     ry="26.330256" /><path
     d="m 199.73885,222.94205 -12.94049,21.45393 -18.91304,-19.41069 -35.35767,25.40161 a 6.6878171,6.8637935 0 0 0 -2.37454,8.19405 c 5.4388,13.80258 19.36653,54.60184 15.33518,101.76839 0,0 26.87643,-7.15131 54.74827,1.02165 27.87184,8.17296 34.8398,5.10808 34.8398,5.10808 0,0 -6.96795,-52.1024 -2.98626,-63.34016 3.30276,-9.3216 10.03003,-40.43378 12.22817,-50.77278 a 4.5401727,4.6596382 0 0 0 -2.22195,-5.06062 z"
     id="path48"
     inkscape:connector-curvature="0"
     style="fill:#00102d;stroke-width:3.4;stroke:#ffc06b;stroke-opacity:1;stroke-dasharray:none;fill-opacity:1" /><path
     d="m 241.07089,247.42974 v 0 a 4.5488634,4.6685575 0 0 1 5.02719,3.37571 l 16.85012,62.44875 -3.98169,37.79977 -18.91304,-3.06483 1.99085,-26.56201 -13.93592,-33.71332 9.19947,-36.82199 a 4.5488634,4.6685575 0 0 1 3.76302,-3.46208 z"
     id="path50"
     inkscape:connector-curvature="0"
     style="fill:#00102d;stroke-width:3.4;stroke:#ffc06b;stroke-opacity:1;stroke-dasharray:none;fill-opacity:1" /><path
     d="m 165.00308,152.53463 a 18.28587,18.767025 0 0 1 16.8603,-9.20669 35.834194,36.777098 0 0 1 10.18936,2.92727 l 16.77134,6.71433 c 4.33979,1.73742 9.09279,3.86562 10.97597,8.23839 1.74785,4.05854 0.44382,8.74573 -0.87624,12.97114 l -6.27479,20.08523 a 59.571521,61.139026 0 0 0 -3.5558,-13.26779 c -1.82268,-4.19948 -4.70541,-8.07174 -8.69096,-10.17014 -4.35637,-2.29363 -9.491,-2.24614 -14.3815,-2.00459 -6.92621,0.3421 -14.45697,1.24649 -19.37811,6.26033 a 20.128004,20.657632 0 0 0 -5.10727,10.23718 60.039186,61.618997 0 0 0 -1.07101,11.58783 93.60507,96.068099 0 0 1 -7.14833,-15.72831 37.917118,38.914831 0 0 1 -2.65597,-12.73148 17.446763,17.905839 0 0 1 3.99888,-12.10986 c 2.83343,-3.25006 7.45019,-5.00468 11.51032,-3.718"
     id="path52"
     inkscape:connector-curvature="0"
     style="fill:#00102d;stroke-width:3.4;stroke:#ffc06b;stroke-opacity:1;stroke-dasharray:none;fill-opacity:1" /><path
     d="m 150.73536,396.80673 a 10.503752,10.780137 0 0 0 -7.87571,-14.41903 l -5.49657,-37.89135 -14.44401,13.28722 7.43405,33.94518 a 10.56068,10.838563 0 0 0 20.38221,5.07798 z"
     id="path54"
     inkscape:connector-curvature="0"
     style="fill:#00102d;stroke-width:3.4;stroke:#ffc06b;stroke-opacity:1;stroke-dasharray:none;fill-opacity:1" /><path
     d="m 132.89053,250.02567 v 0 a 6.6987953,6.8750606 0 0 0 -5.58916,6.43819 l -5.70324,117.06565 H 142.502 l 6.96797,-62.31854 -8.86765,-55.51601 a 6.6987848,6.8750499 0 0 0 -7.71179,-5.66929 z"
     id="path56"
     inkscape:connector-curvature="0"
     style="fill:#00102d;stroke-width:3.4;stroke:#ffc06b;stroke-opacity:1;stroke-dasharray:none;fill-opacity:1" /><polygon
     points="172.12,534.671 171.738,536.777 0,536.777 0,534.671 "
     id="polygon58"
     style="fill:#00102d;stroke-width:3.21299693;stroke:#ffc06b;stroke-opacity:1;stroke-dasharray:none;fill-opacity:1"
     transform="matrix(1.0445487,0,0,1.0720339,102.37408,15.189234)" /></svg>
