<?xml version="1.0" encoding="UTF-8" standalone="no"?>
<!-- Created with Inkscape (http://www.inkscape.org/) -->

<svg
   width="1000.0001"
   height="600"
   viewBox="0 0 264.58335 158.75"
   version="1.1"
   id="svg5"
   xml:space="preserve"
   inkscape:version="1.3.2 (091e20e, 2023-11-25)"
   sodipodi:docname="wet_labs_may.svg"
   inkscape:export-filename="wet_labs_may.png"
   inkscape:export-xdpi="96"
   inkscape:export-ydpi="96"
   xmlns:inkscape="http://www.inkscape.org/namespaces/inkscape"
   xmlns:sodipodi="http://sodipodi.sourceforge.net/DTD/sodipodi-0.dtd"
   xmlns="http://www.w3.org/2000/svg"
   xmlns:svg="http://www.w3.org/2000/svg"><sodipodi:namedview
     id="namedview7"
     pagecolor="#ffffff"
     bordercolor="#000000"
     borderopacity="0.25"
     inkscape:showpageshadow="2"
     inkscape:pageopacity="0.0"
     inkscape:pagecheckerboard="0"
     inkscape:deskcolor="#d1d1d1"
     inkscape:document-units="mm"
     showgrid="false"
     inkscape:zoom="0.8555741"
     inkscape:cx="399.14719"
     inkscape:cy="194.02177"
     inkscape:window-width="1712"
     inkscape:window-height="943"
     inkscape:window-x="0"
     inkscape:window-y="25"
     inkscape:window-maximized="0"
     inkscape:current-layer="layer1" /><defs
     id="defs2"><rect
       x="452.3175"
       y="234.43286"
       width="821.09955"
       height="472.24396"
       id="rect18983" /></defs><g
     inkscape:label="Layer 1"
     inkscape:groupmode="layer"
     id="layer1"><g
       id="g867"
       transform="matrix(1.0554296,0,0,1.0554296,12.636756,76.765174)"
       inkscape:label="hand"
       style="fill:#ffc463;fill-opacity:1;stroke:#ffc463;stroke-width:0.999593;stroke-dasharray:none;stroke-opacity:1"><rect
         style="display:none;fill:#ffc463;fill-opacity:1;stroke:#ffc463;stroke-width:12.9468;stroke-linejoin:round;stroke-dasharray:none;stroke-opacity:1"
         id="rect7007"
         width="4189.0566"
         height="2561.144"
         x="-2357.8423"
         y="-765.74451"
         transform="matrix(0.06593763,0,0,0.06593763,136.92909,-32.960056)" /><path
         d="M 273.67876,153.59761 H -12.698775 c -0.501413,-0.003 -0.501413,-0.59975 0,-0.60264 95.459176,0 220.674345,0 286.377535,0 0.50141,0.003 0.50141,0.59975 0,0.60264 z"
         fill="#cccccc"
         id="path18776"
         style="fill:#ffc463;fill-opacity:1;stroke:#ffc463;stroke-width:1.18489;stroke-dasharray:none;stroke-opacity:1"
         sodipodi:nodetypes="ccccc"
         transform="matrix(0.79963412,0,0,0.79963412,6.4157452,-54.847311)" /></g><text
       xml:space="preserve"
       transform="matrix(0.26458333,0,0,0.26458333,-98.715976,-70.862112)"
       id="text18981"
       style="font-size:80px;font-family:Arial;-inkscape-font-specification:Arial;white-space:pre;shape-inside:url(#rect18983);display:inline;fill:#ffc463;fill-opacity:0.768627;stroke:none;stroke-width:3.40157;stroke-dasharray:none;stroke-opacity:1"
       inkscape:label="text18981"><tspan
         x="452.31836"
         y="306.49395"
         id="tspan6"><tspan
           style="font-weight:bold;-inkscape-font-specification:'Arial Bold'"
           id="tspan5">  
</tspan></tspan><tspan
         x="452.31836"
         y="406.49395"
         id="tspan8"><tspan
           style="font-weight:bold;-inkscape-font-specification:'Arial Bold'"
           id="tspan7">May</tspan></tspan></text><g
       id="g809"
       transform="matrix(0.27883375,0,0,0.27883375,94.85252,68.240827)"
       inkscape:label="lab_stuff"
       style="stroke-width:7.45606;stroke-dasharray:none"><g
         id="g756"
         transform="matrix(4.6032685,0,0,4.6032685,14.868736,-196.69999)"
         style="fill:none;stroke:#ffc463;stroke-width:1.61973;stroke-dasharray:none;stroke-opacity:1"><path
           d="M 99.984,98.207 95.4488,67.984 c 1.9453,-3 2.9883,-6.4961 2.9883,-10.172 0,-7.6641 -4.5859,-14.484 -11.684,-17.371 -0.48828,-0.19922 -0.81641,-0.69922 -0.81641,-1.2461 v -7.9531 c 1.7383,-0.08594 3.125,-1.5234 3.125,-3.2812 v -2.7969 c 0,-1.8125 -1.4766,-3.2891 -3.2891,-3.2891 h -12.172 c -1.8125,0 -3.2891,1.4766 -3.2891,3.2891 v 2.7969 c 0,1.7578 1.3867,3.1953 3.125,3.2812 v 7.9531 c 0,0.54688 -0.32812,1.0469 -0.8125,1.2461 -6.9883,2.8438 -11.574,9.5547 -11.684,17.098 -0.05469,3.7305 0.99219,7.3281 2.9922,10.414 l -4.5391,30.258 c -0.06641,0.44922 0.0625,0.90625 0.35938,1.25 0.29688,0.34375 0.73047,0.54297 1.1836,0.54297 h 37.5 c 0.45312,0 0.88672,-0.19922 1.1836,-0.54297 0.29688,-0.34766 0.42969,-0.80469 0.36328,-1.2539 z M 66.187,65.625 c -1.3867,-2.375 -2.168,-5.1289 -2.125,-8.043 0.03516,-2.4688 0.64844,-4.832 1.7344,-6.9336 2.9844,-0.68359 8.168,-1.3008 13.297,0.80078 3.0781,1.2578 6.1367,1.6836 8.8672,1.6836 2.4766,0 4.6797,-0.35156 6.3828,-0.75 0.62891,1.7031 0.96875,3.5352 0.96875,5.4297 0,2.7969 -0.72656,5.4648 -2.0898,7.8125 z m 24.652,3.125 c -0.10547,0.10547 -0.20703,0.21484 -0.31641,0.32031 -3.0859,2.9727 -7.1562,4.5195 -11.445,4.3555 -4.0938,-0.15625 -7.793,-1.9258 -10.496,-4.6758 z M 73.437,25.164 c 0,-0.08984 0.07422,-0.16406 0.16406,-0.16406 h 12.172 c 0.08984,0 0.16406,0.07422 0.16406,0.16406 v 2.7969 c 0,0.08984 -0.07422,0.16406 -0.16406,0.16406 h -12.172 c -0.08984,0 -0.16406,-0.07422 -0.16406,-0.16406 z m 0.36328,18.168 c 1.6758,-0.68359 2.7617,-2.3086 2.7617,-4.1406 V 31.25 h 6.25 v 7.9453 c 0,1.832 1.0859,3.457 2.7617,4.1406 3.1172,1.2695 5.6523,3.4492 7.3555,6.1602 -3.1797,0.64844 -7.9141,0.99609 -12.648,-0.94141 -4.3086,-1.7617 -8.6055,-1.8711 -11.926,-1.5039 1.4961,-1.5781 3.3398,-2.8594 5.4453,-3.7188 z M 73.437,96.875 v -2.2227 c 0,-0.49609 0.40625,-0.90234 0.90234,-0.90234 h 10.695 c 0.49609,0 0.90234,0.40625 0.90234,0.90234 v 2.2227 z m 4.6875,-7.8125 c 0.01172,-0.47656 0.66406,-1.8398 1.5625,-3.3555 0.89844,1.5156 1.5508,2.875 1.5625,3.3555 0,0.85938 -0.70312,1.5625 -1.5625,1.5625 -0.86328,0 -1.5625,-0.69922 -1.5625,-1.5625 z m 10.938,7.8125 v -2.2227 c 0,-2.2188 -1.8047,-4.0273 -4.0273,-4.0273 h -0.92969 c 0.17188,-0.48828 0.26953,-1.0156 0.26953,-1.5625 0,-1.9961 -2.3789,-5.6562 -3.4023,-7.1367 -0.29297,-0.42188 -0.77344,-0.67578 -1.2852,-0.67578 -0.51176,0 -0.99219,0.25391 -1.2852,0.67578 -1.0234,1.4805 -3.4023,5.1406 -3.4023,7.1367 0,0.54688 0.09375,1.0742 0.26953,1.5625 h -0.92969 c -2.2227,0 -4.0273,1.8047 -4.0273,4.0273 v 2.2227 h -7.5625 l 3.8516,-25.664 c 3.3398,3.2695 7.6953,5.1641 12.355,5.3398 0.24609,0.0078 0.49219,0.01563 0.73828,0.01563 4.875,0 9.4688,-1.8438 12.992,-5.2422 0.03125,-0.02734 0.05859,-0.05859 0.08594,-0.08594 l 3.8516,25.637 z"
           id="path680"
           style="fill:#ffc463;fill-opacity:0;stroke:#ffc463;stroke-width:1.61973;stroke-dasharray:none;stroke-opacity:1" /><path
           d="m 6.8601632,81.25 c 0,-2.5859 -2.1016005,-4.6875 -4.6875012,-4.6875 -2.58590107,0 -4.6875015,2.1016 -4.6875015,4.6875 0,2.5859 2.10160043,4.6875 4.6875015,4.6875 2.5859007,0 4.6875012,-2.1016 4.6875012,-4.6875 z M 2.172662,82.8125 c -0.8632803,0 -1.56250044,-0.69922 -1.56250044,-1.5625 0,-0.86328 0.69922014,-1.5625 1.56250044,-1.5625 0.8632803,0 1.5625004,0.69922 1.5625004,1.5625 0,0.86328 -0.6992201,1.5625 -1.5625004,1.5625 z"
           id="path682-0"
           style="fill:#472a84;fill-opacity:1;stroke:none;stroke-width:1.386;stroke-dasharray:none;stroke-opacity:1" /><path
           d="m 46.875,35.938 c 2.5859,0 4.6875,-2.1016 4.6875,-4.6875 0,-2.5859 -2.1016,-4.6875 -4.6875,-4.6875 -2.5859,0 -4.6875,2.1016 -4.6875,4.6875 0,2.5859 2.1016,4.6875 4.6875,4.6875 z m 0,-6.25 c 0.86328,0 1.5625,0.69922 1.5625,1.5625 0,0.86328 -0.69922,1.5625 -1.5625,1.5625 -0.86328,0 -1.5625,-0.69922 -1.5625,-1.5625 0,-0.86328 0.69922,-1.5625 1.5625,-1.5625 z"
           id="path684"
           style="fill:#472a84;fill-opacity:1;stroke:none;stroke-width:1.61973;stroke-dasharray:none;stroke-opacity:1" /><path
           d="m 84.375,9.375 c 2.5859,0 4.6875,-2.1016 4.6875,-4.6875 C 89.0625,2.1016 86.9609,0 84.375,0 c -2.5859,0 -4.6875,2.1016 -4.6875,4.6875 0,2.5859 2.1016,4.6875 4.6875,4.6875 z m 0,-6.25 c 0.86328,0 1.5625,0.69922 1.5625,1.5625 0,0.86328 -0.69922,1.5625 -1.5625,1.5625 -0.86328,0 -1.5625,-0.69922 -1.5625,-1.5625 0,-0.86328 0.69922,-1.5625 1.5625,-1.5625 z"
           id="path688-3"
           style="fill:#ffc463;fill-opacity:1;stroke:none;stroke-width:1.61973;stroke-dasharray:none;stroke-opacity:1" /><path
           d="m 72.614902,19.289815 c 2.5859,0 4.6875,-2.1016 4.6875,-4.6875 0,-2.5859 -2.1016,-4.6874999 -4.6875,-4.6874999 -2.5859,0 -4.6875,2.1015999 -4.6875,4.6874999 0,2.5859 2.1016,4.6875 4.6875,4.6875 z m 0,-6.25 c 0.86328,0 1.5625,0.69922 1.5625,1.5625 0,0.86328 -0.69922,1.5625 -1.5625,1.5625 -0.86328,0 -1.5625,-0.69922 -1.5625,-1.5625 0,-0.86328 0.69922,-1.5625 1.5625,-1.5625 z"
           id="path690"
           style="fill:#472a84;fill-opacity:1;stroke:none;stroke-width:1.61973;stroke-dasharray:none;stroke-opacity:1" /><path
           d="m 50.96374,9.0342717 c 2.5859,0 4.6875,-2.1016 4.6875,-4.6875 0,-2.5859 -2.1016,-4.6875 -4.6875,-4.6875 -2.5859,0 -4.6875,2.1016 -4.6875,4.6875 0,2.5859 2.1016,4.6875 4.6875,4.6875 z m 0,-6.25 c 0.86328,0 1.5625,0.69922 1.5625,1.5625 0,0.86328 -0.69922,1.5625 -1.5625,1.5625 -0.86328,0 -1.5625,-0.69922 -1.5625,-1.5625 0,-0.86328 0.69922,-1.5625 1.5625,-1.5625 z"
           id="path692"
           style="fill:#472a84;fill-opacity:1;stroke:none;stroke-width:1.61973;stroke-dasharray:none;stroke-opacity:1" /><path
           d="m 6.0608568,41.165815 c 2.5859,0 4.6875002,-2.1016 4.6875002,-4.6875 0,-2.5859 -2.1016002,-4.6875 -4.6875002,-4.6875 -2.5859,0 -4.6875,2.1016 -4.6875,4.6875 0,2.5859 2.1016,4.6875 4.6875,4.6875 z m 0,-6.25 c 0.86328,0 1.5625,0.69922 1.5625,1.5625 0,0.86328 -0.69922,1.5625 -1.5625,1.5625 -0.86328,0 -1.5625,-0.69922 -1.5625,-1.5625 0,-0.86328 0.69922,-1.5625 1.5625,-1.5625 z"
           id="path694-8"
           style="fill:#472a84;fill-opacity:1;stroke:none;stroke-width:1.61973;stroke-dasharray:none;stroke-opacity:1" /><path
           d="m 97.716767,17.211751 c 2.585903,0 4.687503,-2.1016 4.687503,-4.6875 0,-2.5859002 -2.1016,-4.6875002 -4.687503,-4.6875002 -2.5859,0 -4.687498,2.1016 -4.687498,4.6875002 0,2.5859 2.101598,4.6875 4.687498,4.6875 z m 0,-6.25 c 0.86328,0 1.5625,0.69922 1.5625,1.5625 0,0.86328 -0.69922,1.5625 -1.5625,1.5625 -0.86328,0 -1.5625,-0.69922 -1.5625,-1.5625 0,-0.86328 0.69922,-1.5625 1.5625,-1.5625 z"
           id="path698"
           style="fill:#472a84;fill-opacity:1;stroke:none;stroke-width:1.61973;stroke-dasharray:none;stroke-opacity:1" /><path
           d="m 13.110164,85.938 c -2.5859,0 -4.6875004,2.1016 -4.6875004,4.6875 0,2.5859 2.1016004,4.6875 4.6875004,4.6875 2.5859,0 4.6875,-2.1016 4.6875,-4.6875 0,-2.5859 -2.1016,-4.6875 -4.6875,-4.6875 z m 0,6.25 c -0.86328,0 -1.5625,-0.69922 -1.5625,-1.5625 0,-0.86328 0.69922,-1.5625 1.5625,-1.5625 0.86328,0 1.5625,0.69922 1.5625,1.5625 0,0.86328 -0.69922,1.5625 -1.5625,1.5625 z"
           id="path700-6"
           style="fill:#472a84;fill-opacity:1;stroke:none;stroke-width:1.48027;stroke-dasharray:none;stroke-opacity:1" /><path
           d="m 20.922164,81.25 c 0,4.168 -6.25,4.168 -6.25,0 0,-4.168 6.25,-4.168 6.25,0"
           id="path702"
           style="fill:#472a84;fill-opacity:1;stroke:none;stroke-width:1.61973;stroke-dasharray:none;stroke-opacity:1" /><path
           d="m 76.562,59.375 c 0,4.168 -6.25,4.168 -6.25,0 0,-4.168 6.25,-4.168 6.25,0"
           id="path704"
           style="fill:#ffc463;fill-opacity:1;stroke:#ffc463;stroke-width:1.61973;stroke-dasharray:none;stroke-opacity:1" /><path
           d="m 93.75,57.812 c 0,4.168 -6.25,4.168 -6.25,0 0,-4.168 6.25,-4.168 6.25,0"
           id="path706-7"
           style="fill:#472a84;fill-opacity:1;stroke:#472a84;stroke-width:1.61973;stroke-dasharray:none;stroke-opacity:1" /><path
           d="m -0.9518391,90.625 c 0,4.168 -6.2500015,4.168 -6.2500015,0 0,-4.168 6.2500015,-4.168 6.2500015,0"
           id="path708"
           style="fill:#472a84;fill-opacity:1;stroke:none;stroke-width:1.61973;stroke-dasharray:none;stroke-opacity:1" /><path
           d="m 11.551164,81.25 c 0.86328,0 1.5625,-0.69922 1.5625,-1.5625 0,-0.86328 -0.69922,-1.5625 -1.5625,-1.5625 -0.86328,0 -1.5625001,0.69922 -1.5625001,1.5625 0,0.86328 0.6992201,1.5625 1.5625001,1.5625 z"
           id="path710"
           style="fill:#472a84;fill-opacity:1;stroke:none;stroke-width:1.61973;stroke-dasharray:none;stroke-opacity:1" /><path
           d="m 15.745891,36.584762 c -0.86328,0 -1.5625,0.69922 -1.5625,1.5625 0,0.86328 0.69922,1.5625 1.5625,1.5625 0.86328,0 1.5625,-0.69922 1.5625,-1.5625 0,-0.86328 -0.69922,-1.5625 -1.5625,-1.5625 z"
           id="path712-0"
           style="fill:#472a84;fill-opacity:1;stroke:none;stroke-width:1.61973;stroke-dasharray:none;stroke-opacity:1" /><path
           d="m 32.812,31.25 c -0.86328,0 -1.5625,0.69922 -1.5625,1.5625 0,0.86328 0.69922,1.5625 1.5625,1.5625 0.86328,0 1.5625,-0.69922 1.5625,-1.5625 0,-0.86328 -0.69922,-1.5625 -1.5625,-1.5625 z"
           id="path714"
           style="fill:#472a84;fill-opacity:1;stroke:#472a84;stroke-width:1.61973;stroke-dasharray:none;stroke-opacity:1" /><path
           d="m 43.754,20.312 c -0.86328,0 -1.5625,0.69922 -1.5625,1.5625 0,0.86328 0.69922,1.5625 1.5625,1.5625 0.86328,0 1.5625,-0.69922 1.5625,-1.5625 0,-0.86328 -0.69922,-1.5625 -1.5625,-1.5625 z"
           id="path718-0"
           style="fill:#ffc463;fill-opacity:1;stroke:#ffc463;stroke-width:1.61973;stroke-dasharray:none;stroke-opacity:1" /><path
           d="m 19.83463,26.328219 c -0.86328,0 -1.5625,0.69922 -1.5625,1.5625 0,0.86328 0.69922,1.5625 1.5625,1.5625 0.86328,0 1.5625,-0.69922 1.5625,-1.5625 0,-0.86328 -0.69922,-1.5625 -1.5625,-1.5625 z"
           id="path720"
           style="fill:#472a84;fill-opacity:1;stroke:none;stroke-width:1.61973;stroke-dasharray:none;stroke-opacity:1" /><path
           d="m 46.879,15.625 c 0.86328,0 1.5625,-0.69922 1.5625,-1.5625 0,-0.86328 -0.69922,-1.5625 -1.5625,-1.5625 -0.86328,0 -1.5625,0.69922 -1.5625,1.5625 0,0.86328 0.69922,1.5625 1.5625,1.5625 z"
           id="path724"
           style="fill:#472a84;fill-opacity:1;stroke:none;stroke-width:1.61973;stroke-dasharray:none;stroke-opacity:1" /><path
           d="m 65.944977,5.3689566 c 0.86328,0 1.5625,-0.69922 1.5625,-1.5625 0,-0.86328 -0.69922,-1.5625 -1.5625,-1.5625 -0.86328,0 -1.5625,0.69922 -1.5625,1.5625 0,0.86328 0.69922,1.5625 1.5625,1.5625 z"
           id="path726"
           style="fill:#ffc463;fill-opacity:1;stroke:none;stroke-width:1.61973;stroke-dasharray:none;stroke-opacity:1" /><path
           d="m 69.753394,54.347272 c 0,-0.86328 -0.69922,-1.5625 -1.5625,-1.5625 -0.86328,0 -1.5625,0.69922 -1.5625,1.5625 0,0.86328 0.69922,1.5625 1.5625,1.5625 0.86328,0 1.5625,-0.69922 1.5625,-1.5625 z"
           id="path730"
           style="fill:#472a84;fill-opacity:1;stroke:none;stroke-width:1.61973;stroke-dasharray:none;stroke-opacity:1" /><path
           d="m 82.816,54.688 c 0,-0.86328 -0.69922,-1.5625 -1.5625,-1.5625 -0.86328,0 -1.5625,0.69922 -1.5625,1.5625 0,0.86328 0.69922,1.5625 1.5625,1.5625 0.86328,0 1.5625,-0.69922 1.5625,-1.5625 z"
           id="path732"
           style="fill:#472a84;fill-opacity:1;stroke:none;stroke-width:1.61973;stroke-dasharray:none;stroke-opacity:1" /><path
           d="m 82.816,59.375 c -0.86328,0 -1.5625,0.69922 -1.5625,1.5625 0,0.86328 0.69922,1.5625 1.5625,1.5625 0.86328,0 1.5625,-0.69922 1.5625,-1.5625 0,-0.86328 -0.69922,-1.5625 -1.5625,-1.5625 z"
           id="path734"
           style="fill:#472a84;fill-opacity:1;stroke:none;stroke-width:1.61973;stroke-dasharray:none;stroke-opacity:1" /><path
           d="m 5.3011628,90.625 c -0.8632802,0 -1.5625004,0.69922 -1.5625004,1.5625 0,0.86328 0.6992202,1.5625 1.5625004,1.5625 0.8632802,0 1.5625004,-0.69922 1.5625004,-1.5625 0,-0.86328 -0.6992202,-1.5625 -1.5625004,-1.5625 z"
           id="path736"
           style="fill:#ffc463;fill-opacity:1;stroke:none;stroke-width:1.61973;stroke-dasharray:none;stroke-opacity:1" /><path
           d="m 42.798164,45.359 v -3.2148 c 0,-1.6992 -1.3828,-3.0781 -3.0781,-3.0781 h -15.715 c -1.6992,0 -3.0781,1.3828 -3.0781,3.0781 v 3.2148 c 0,1.6992 1.3828,3.0781 3.0781,3.0781 h 0.04297 v 28.637 l -6.2148,-8.2852 c -1.0273,-1.3711 -1.5938,-3.0664 -1.5938,-4.7812 v -9.332 c 1.7344,-0.07422 3.125,-1.5039 3.125,-3.2578 v -2.8477 c 0,-1.8008 -1.4648,-3.2617 -3.2617,-3.2617 L 0.75473156,45.3124 c -1.80080066,0 -3.26170106,1.4648 -3.26170106,3.2617 v 2.8477 c 0,1.7539 1.3906004,3.1836 3.12500106,3.2578 v 9.332 c 0,1.7109 -0.56641028,3.4102 -1.59380066,4.7812 l -15.9059999,21.203 c -1.4297,1.9062 -1.6562,4.4141 -0.58984,6.5469 1.0664,2.1328 3.210899,3.457 5.593798,3.457 h 40.613005 c 0.50781,0 1,-0.0625 1.4766,-0.17578 0.53125,0.11328 1.082,0.17578 1.6484,0.17578 4.3086,0 7.8125,-3.5039 7.8125,-7.8125 v -43.75 h 0.04687 c 1.6953,0 3.0781,-1.3828 3.0781,-3.0781 z M 3.7391624,64.011 v -9.3242 h 9.3750016 v 9.3242 c 0,2.3828 0.78906,4.7461 2.2188,6.6523 l 0.90625,1.207 c -2.457,-0.0039 -4.875,-0.48438 -7.2188003,-1.4453 C 6.9462132,69.57734 4.8056127,69.05 2.625912,68.8469 3.3524723,67.3469 3.7392124,65.6828 3.7392124,64.011 Z M 0.61416156,48.573 c 0,-0.07813 0.0625,-0.13672 0.13672,-0.13672 H 16.098884 c 0.07813,0 0.13672,0.0625 0.13672,0.13672 v 2.8477 c 0,0.07813 -0.0625,0.13672 -0.13672,0.13672 l -15.34400244,0.0039 c -0.07813,0 -0.13672,-0.0625 -0.13672,-0.13672 z M -14.67484,95.143 c -0.54297,-1.082 -0.42969,-2.3086 0.29688,-3.2773 L 0.61404156,71.8737 c 2.46480074,0.0078 4.89450134,0.48828 7.22270184,1.4414 2.7344006,1.1211 5.5586006,1.6797 8.4258006,1.6797 0.74219,0 1.4883,-0.03906 2.2383,-0.11719 l 5.5469,7.4062 v 9.9023 c 0,1.7578 0.58203,3.3789 1.5664,4.6875 h -37.492005 c -1.210899,0 -2.257799,-0.64844 -2.796899,-1.7305 z m 46.535004,1.7305 c -2.5859,0 -4.6875,-2.1016 -4.6875,-4.6875 V 57.94 c 1.3438,0.19141 2.6797,0.61328 3.9883,1.2656 1.7539,0.875 3.5586,1.4219 5.3867,1.6289 v 31.352 c 0,2.5859 -2.1016,4.6875 -4.6875,4.6875 z m 4.6875,-39.191 c -1.3438,-0.19531 -2.6797,-0.61719 -3.9883,-1.2695 -1.7539,-0.875 -3.5586,-1.4219 -5.3867,-1.6289 v -6.3477 h 9.375 z m 3.125,-12.371 h -15.625 v -3.125 h 15.625 z"
           id="path738"
           style="fill:#ffc463;fill-opacity:0;stroke:#ffc463;stroke-width:1.61973;stroke-dasharray:none;stroke-opacity:1" /><path
           d="m 30.301164,65.625 c 0.86328,0 1.5625,-0.69922 1.5625,-1.5625 0,-0.86328 -0.69922,-1.5625 -1.5625,-1.5625 -0.86328,0 -1.5625,0.69922 -1.5625,1.5625 0,0.86328 0.69922,1.5625 1.5625,1.5625 z"
           id="path740"
           style="fill:#472a84;fill-opacity:1;stroke:none;stroke-width:1.61973;stroke-dasharray:none;stroke-opacity:1" /><path
           d="m 33.426164,67.188 c -0.86328,0 -1.5625,0.69922 -1.5625,1.5625 0,0.86328 0.69922,1.5625 1.5625,1.5625 0.86328,0 1.5625,-0.69922 1.5625,-1.5625 0,-0.86328 -0.69922,-1.5625 -1.5625,-1.5625 z"
           id="path742"
           style="fill:#ffc463;fill-opacity:1;stroke:none;stroke-width:1.61973;stroke-dasharray:none;stroke-opacity:1" /><path
           d="m 30.301164,76.562 c 0.86328,0 1.5625,-0.69922 1.5625,-1.5625 0,-0.86328 -0.69922,-1.5625 -1.5625,-1.5625 -0.86328,0 -1.5625,0.69922 -1.5625,1.5625 0,0.86328 0.69922,1.5625 1.5625,1.5625 z"
           id="path744"
           style="fill:#472a84;fill-opacity:1;stroke:none;stroke-width:1.61973;stroke-dasharray:none;stroke-opacity:1" /><path
           d="m 33.426164,78.125 c -0.86328,0 -1.5625,0.69922 -1.5625,1.5625 0,0.86328 0.69922,1.5625 1.5625,1.5625 0.86328,0 1.5625,-0.69922 1.5625,-1.5625 0,-0.86328 -0.69922,-1.5625 -1.5625,-1.5625 z"
           id="path746"
           style="fill:#472a84;fill-opacity:1;stroke:none;stroke-width:1.61973;stroke-dasharray:none;stroke-opacity:1" /><path
           d="m 30.301164,89.062 c 0.86328,0 1.5625,-0.69922 1.5625,-1.5625 0,-0.86328 -0.69922,-1.5625 -1.5625,-1.5625 -0.86328,0 -1.5625,0.69922 -1.5625,1.5625 0,0.86328 0.69922,1.5625 1.5625,1.5625 z"
           id="path750"
           style="fill:#472a84;fill-opacity:1;stroke:none;stroke-width:1.61973;stroke-dasharray:none;stroke-opacity:1" /><path
           d="m 33.426164,89.062 c -0.86328,0 -1.5625,0.69922 -1.5625,1.5625 0,0.86328 0.69922,1.5625 1.5625,1.5625 0.86328,0 1.5625,-0.69922 1.5625,-1.5625 0,-0.86328 -0.69922,-1.5625 -1.5625,-1.5625 z"
           id="path752"
           style="fill:#472a84;fill-opacity:1;stroke:none;stroke-width:1.61973;stroke-dasharray:none;stroke-opacity:1" /><path
           d="m 30.301164,92.188 c -0.86328,0 -1.5625,0.69922 -1.5625,1.5625 0,0.86328 0.69922,1.5625 1.5625,1.5625 0.86328,0 1.5625,-0.69922 1.5625,-1.5625 0,-0.86328 -0.69922,-1.5625 -1.5625,-1.5625 z"
           id="path754"
           style="fill:#472a84;fill-opacity:1;stroke:none;stroke-width:1.61973;stroke-dasharray:none;stroke-opacity:1" /></g></g><g
       id="g8529-6-9"
       transform="matrix(0.05654208,9.6271007e-4,-9.6271007e-4,0.05654208,59.792754,132.77999)"
       style="display:inline;fill:none;fill-opacity:1;stroke:#ffc463;stroke-width:5.18441;stroke-dasharray:none;stroke-opacity:1"
       inkscape:label="g8529-6"><g
         stroke="#f68212"
         stroke-width="104.764"
         fill="none"
         id="g8515-1-0"
         style="fill:none;fill-opacity:1;stroke:#ffc463;stroke-opacity:1"
         transform="matrix(0.42052819,0,0,0.42052819,1213.1776,-1989.5159)"><path
           d="m 186.70267,439.39641 v -35.727 a 209.21,209.214 0 0 1 418.41999,0 v 258.426"
           id="path8511-9-6"
           style="fill:#ff00ff;fill-opacity:0;stroke:#ffc463;stroke-opacity:1" /><circle
           cx="395.31967"
           cy="811.99042"
           r="256.08301"
           id="circle8513-9-6"
           style="fill:#ff00ff;fill-opacity:0;stroke:#ffc463;stroke-opacity:1" /><circle
           style="fill:#ffc463;fill-opacity:1;stroke:#ffc463;stroke-width:0;stroke-linejoin:round;stroke-dasharray:none;stroke-opacity:1"
           id="path841-9"
           cx="383.36615"
           cy="825.09668"
           r="102.83057"
           transform="rotate(-0.97544204)" /></g></g><g
       id="g8529-6-9-1"
       transform="matrix(0.02465422,4.1977346e-4,-4.1977346e-4,0.02465422,174.85573,75.382332)"
       style="display:inline;fill:none;fill-opacity:1;stroke:#472a84;stroke-width:57.9127;stroke-dasharray:none;stroke-opacity:1"
       inkscape:label="g8529-6"><g
         stroke="#f68212"
         stroke-width="104.764"
         fill="none"
         id="g8515-1-0-1"
         style="fill:none;fill-opacity:1;stroke:#472a84;stroke-width:137.714;stroke-dasharray:none;stroke-opacity:1"
         transform="matrix(0.42052819,0,0,0.42052819,1213.1776,-1989.5159)"><path
           d="m 186.70267,439.39641 v -35.727 a 209.21,209.214 0 0 1 418.41999,0 v 258.426"
           id="path8511-9-6-7"
           style="fill:none;fill-opacity:1;stroke:#472a84;stroke-width:137.714;stroke-dasharray:none;stroke-opacity:1" /><circle
           cx="395.31967"
           cy="811.99042"
           r="256.08301"
           id="circle8513-9-6-4"
           style="fill:none;fill-opacity:1;stroke:#472a84;stroke-width:137.714;stroke-dasharray:none;stroke-opacity:1" /><circle
           style="fill:#472a84;fill-opacity:1;stroke:#472a84;stroke-width:137.714;stroke-linejoin:round;stroke-dasharray:none;stroke-opacity:0"
           id="path841-9-3"
           cx="383.36615"
           cy="825.09668"
           r="102.83057"
           transform="rotate(-0.97544204)" /></g></g><g
       id="g8529-6-9-7"
       transform="matrix(-0.04963205,9.0631992e-4,-9.0631992e-4,-0.04963205,240.03569,-46.907804)"
       style="display:inline;fill:none;fill-opacity:1;stroke:#472a84;stroke-width:5.18441;stroke-dasharray:none;stroke-opacity:1"
       inkscape:label="g8529-6"><g
         stroke="#f68212"
         stroke-width="104.764"
         fill="none"
         id="g8515-1-0-3"
         style="fill:none;fill-opacity:1;stroke:#472a84;stroke-opacity:1"
         transform="matrix(0.42052819,0,0,0.42052819,1213.1776,-1989.5159)"><path
           d="m 186.70267,439.39641 v -35.727 a 209.21,209.214 0 0 1 418.41999,0 v 258.426"
           id="path8511-9-6-3"
           style="fill:none;fill-opacity:1;stroke:#472a84;stroke-opacity:1" /><circle
           cx="395.31967"
           cy="811.99042"
           r="256.08301"
           id="circle8513-9-6-7"
           style="fill:none;fill-opacity:1;stroke:#472a84;stroke-opacity:1" /><circle
           style="fill:#472a84;fill-opacity:1;stroke:#472a84;stroke-width:0;stroke-linejoin:round;stroke-dasharray:none;stroke-opacity:1"
           id="path841-9-5"
           cx="383.36615"
           cy="825.09668"
           r="102.83057"
           transform="rotate(-0.97544204)" /></g></g></g></svg>
