<?xml version="1.0" encoding="UTF-8" standalone="no"?>
<svg
   width="1000"
   height="600"
   viewBox="0 0 1000 600"
   version="1.1"
   id="svg84"
   sodipodi:docname="outline_workshop.svg"
   inkscape:version="1.2.2 (732a01da63, 2022-12-09, custom)"
   xml:space="preserve"
   xmlns:inkscape="http://www.inkscape.org/namespaces/inkscape"
   xmlns:sodipodi="http://sodipodi.sourceforge.net/DTD/sodipodi-0.dtd"
   xmlns="http://www.w3.org/2000/svg"
   xmlns:svg="http://www.w3.org/2000/svg"
   xmlns:rdf="http://www.w3.org/1999/02/22-rdf-syntax-ns#"
   xmlns:cc="http://creativecommons.org/ns#"
   xmlns:dc="http://purl.org/dc/elements/1.1/"><metadata
     id="metadata90"><rdf:RDF><cc:Work
         rdf:about=""><dc:format>image/svg+xml</dc:format><dc:type
           rdf:resource="http://purl.org/dc/dcmitype/StillImage" /></cc:Work></rdf:RDF></metadata><defs
     id="defs88" /><sodipodi:namedview
     pagecolor="#ffffff"
     bordercolor="#666666"
     borderopacity="1"
     objecttolerance="10"
     gridtolerance="10"
     guidetolerance="10"
     inkscape:pageopacity="0"
     inkscape:pageshadow="2"
     inkscape:window-width="1842"
     inkscape:window-height="1005"
     id="namedview86"
     showgrid="false"
     inkscape:zoom="0.77833826"
     inkscape:cx="501.70989"
     inkscape:cy="221.62601"
     inkscape:window-x="78"
     inkscape:window-y="38"
     inkscape:window-maximized="1"
     inkscape:current-layer="svg84"
     inkscape:showpageshadow="2"
     inkscape:pagecheckerboard="0"
     inkscape:deskcolor="#d1d1d1" /><path
     d="m 219.7643,531.44293 c -10.39525,7.09093 -21.02527,14.40906 -28.22342,24.67987 -7.19765,10.2709 -10.33969,24.2915 -4.55615,35.40505 l -0.14917,0.69268 a 27.055498,26.801667 0 0 0 26.12605,-4.5589 c 9.15035,-7.60833 12.0196,-20.14299 14.35374,-31.74938 l 6.90481,-34.32957 z"
     id="path2"
     inkscape:connector-curvature="0"
     style="fill:#00102e;stroke-width:3.4;stroke:#ffc06b;stroke-opacity:1;stroke-dasharray:none;fill-opacity:1" /><path
     d="m 229.77662,566.06207 c -6.93436,1.5198 -14.03957,3.10888 -19.9857,6.95659 -5.94582,3.84789 -10.57736,10.50059 -9.9341,17.50734 l -0.22565,0.32994 a 15.22405,15.08122 0 0 0 14.59657,3.09603 c 6.39564,-2.05037 10.56772,-7.98544 14.26259,-13.54857 l 10.92923,-16.45449 z"
     id="path4"
     inkscape:connector-curvature="0"
     style="fill:#00102e;stroke-width:3.4;stroke:#ffc06b;stroke-opacity:1;stroke-dasharray:none;fill-opacity:1" /><path
     d="M 808.68454,48.71171 H 216.59776 a 0.85935022,0.85128794 0 0 1 0,-1.702566 h 592.08678 a 0.85935022,0.85128794 0 0 1 0,1.702566 z"
     id="path6"
     inkscape:connector-curvature="0"
     style="fill:#00102e;stroke-width:3.4;stroke:#ffc06b;stroke-opacity:1;stroke-dasharray:none;fill-opacity:1" /><ellipse
     cx="235.93971"
     cy="27.429705"
     id="circle8"
     style="fill:#00102e;stroke-width:3.4;stroke:#ffc06b;stroke-opacity:1;stroke-dasharray:none;fill-opacity:1"
     rx="9.4527597"
     ry="9.3640757" /><ellipse
     cx="268.59473"
     cy="27.429705"
     id="circle10"
     style="fill:#00102e;stroke-width:3.4;stroke:#ffc06b;stroke-opacity:1;stroke-dasharray:none;fill-opacity:1"
     rx="9.4527597"
     ry="9.3640757" /><ellipse
     cx="301.24973"
     cy="27.429705"
     id="circle12"
     style="fill:#00102e;stroke-width:3.4;stroke:#ffc06b;stroke-opacity:1;stroke-dasharray:none;fill-opacity:1"
     rx="9.4527597"
     ry="9.3640757" /><path
     d="m 789.11928,23.793333 h -23.20223 a 1.7186799,1.7025556 0 1 1 0,-3.40511 h 23.20223 a 1.7186799,1.7025556 0 0 1 0,3.40511 z"
     id="path14"
     inkscape:connector-curvature="0"
     style="fill:#00102e;stroke-width:3.4;stroke:#ffc06b;stroke-opacity:1;stroke-dasharray:none;fill-opacity:1" /><path
     d="m 789.11928,30.177932 h -23.20223 a 1.7186799,1.7025556 0 1 1 0,-3.40511 h 23.20223 a 1.7186799,1.7025556 0 0 1 0,3.40511 z"
     id="path16"
     inkscape:connector-curvature="0"
     style="fill:#00102e;stroke-width:3.4;stroke:#ffc06b;stroke-opacity:1;stroke-dasharray:none;fill-opacity:1" /><path
     d="m 789.11928,36.562531 h -23.20223 a 1.7186799,1.7025556 0 1 1 0,-3.405111 h 23.20223 a 1.7186901,1.7025657 0 0 1 0,3.405111 z"
     id="path18"
     inkscape:connector-curvature="0"
     style="fill:#00102e;stroke-width:3.4;stroke:#ffc06b;stroke-opacity:1;stroke-dasharray:none;fill-opacity:1" /><rect
     x="226.25014"
     y="85.216202"
     width="392.71942"
     height="233.25073"
     id="rect20"
     style="fill:#00102e;stroke-width:3.4;stroke:#ffc06b;stroke-opacity:1;stroke-dasharray:none;fill-opacity:1" /><rect
     x="667.09265"
     y="85.216202"
     width="123.74528"
     height="73.496956"
     id="rect22"
     style="fill:#00102e;stroke-width:3.4;stroke:#ffc06b;stroke-opacity:1;stroke-dasharray:none;fill-opacity:1" /><path
     d="m 766.15007,192.47748 h -73.62815 a 3.4679917,3.4354555 0 0 1 0,-6.8709 h 73.62818 a 3.4679917,3.4354555 0 0 1 0,6.8709 z"
     id="path24"
     inkscape:connector-curvature="0"
     style="fill:#00102e;stroke-width:3.4;stroke:#ffc06b;stroke-opacity:1;stroke-dasharray:none;fill-opacity:1" /><path
     d="m 754.27886,180.71765 h -49.88575 a 3.4679917,3.4354555 0 0 1 0,-6.8709 h 49.88575 a 3.4679917,3.4354555 0 0 1 0,6.8709 z"
     id="path26"
     inkscape:connector-curvature="0"
     style="fill:#00102e;stroke-width:3.4;stroke:#ffc06b;stroke-opacity:1;stroke-dasharray:none;fill-opacity:1" /><rect
     x="667.09265"
     y="218.86717"
     width="123.74528"
     height="73.496956"
     id="rect28"
     style="fill:#00102e;stroke-width:3.4;stroke:#ffc06b;stroke-opacity:1;stroke-dasharray:none;fill-opacity:1" /><path
     d="m 766.15007,326.12845 h -73.62815 a 3.4679917,3.4354555 0 0 1 0,-6.87091 h 73.62818 a 3.4679917,3.4354555 0 0 1 0,6.87091 z"
     id="path30"
     inkscape:connector-curvature="0"
     style="fill:#00102e;stroke-width:3.4;stroke:#ffc06b;stroke-opacity:1;stroke-dasharray:none;fill-opacity:1" /><path
     d="m 754.27886,314.36861 h -49.88575 a 3.4679968,3.4354606 0 0 1 0,-6.87091 h 49.88575 a 3.4680019,3.4354657 0 0 1 0,6.87091 z"
     id="path32"
     inkscape:connector-curvature="0"
     style="fill:#00102e;stroke-width:3.4;stroke:#ffc06b;stroke-opacity:1;stroke-dasharray:none;fill-opacity:1" /><ellipse
     cx="429.43411"
     cy="181.66504"
     id="circle34"
     style="fill:#00102e;stroke-width:3.4;stroke:#ffc06b;stroke-opacity:1;stroke-dasharray:none;fill-opacity:1"
     rx="29.305794"
     ry="29.030853" /><polygon
     points="235.84,197.133 258.473,197.133 266.872,205.264 267.534,205.91 285.406,223.035 295.884,295.804 224.205,295.804 228.228,205.164 228.723,204.644 "
     id="polygon36"
     style="fill:#00102e;stroke-width:3.33222515;stroke:#ffc06b;stroke-opacity:1;stroke-dasharray:none;fill-opacity:1"
     transform="matrix(1.0251595,0,0,1.0155416,175.48272,18.065628)" /><path
     d="m 425.66912,318.46692 h -55.84885 c -0.36925,-35.22597 -0.6617,-61.80291 -0.6617,-61.80291 l 2.85327,-1.71959 0.0172,-0.008 31.32273,-18.83883 6.57434,-10.58141 0.0344,0.37457 1.93354,22.30354 c 0,0 10.50931,33.63409 13.77506,70.27316 z"
     id="path38"
     inkscape:connector-curvature="0"
     style="fill:#00102e;stroke-width:3.4;stroke:#ffc06b;stroke-opacity:1;stroke-dasharray:none;fill-opacity:1" /><path
     d="m 501.66092,318.46692 h -49.69585 c -2.65564,-11.93496 -4.03906,-23.29957 -3.43735,-32.77428 2.44039,-38.70766 -3.18814,-60.17699 -0.74773,-60.17699 l 1.28901,1.00451 15.33052,11.99456 20.18616,7.32951 14.0071,5.09065 2.44041,0.88536 v 1.16625 c 0.009,5.85681 0.0688,33.05513 0.62773,65.48043 z"
     id="path40"
     inkscape:connector-curvature="0"
     style="fill:#00102e;stroke-width:3.4;stroke:#ffc06b;stroke-opacity:1;stroke-dasharray:none;fill-opacity:1" /><path
     d="m 401.70918,190.74779 c 0,0 2.48992,-4.33167 1.91106,-18.80232 -0.57887,-14.47064 21.66517,-6.2862 40.25239,-7.66665 18.58722,-1.38045 14.65261,24.15912 14.65261,24.15912 0,0 1.3409,-1.51824 4.21192,-13.84432 2.87101,-12.32609 -3.64767,-24.60962 -3.64767,-24.60962 -1.91983,-12.95247 -12.26642,-8.8012 -12.26642,-8.8012 4.98279,1.92156 4.02581,6.03029 4.02581,6.03029 -4.21777,-7.32549 -14.56435,-3.17422 -14.56435,-3.17422 -13.79936,-8.57819 -27.78489,2.71821 -27.78489,2.71821 -16.67032,3.74791 -6.89381,16.88074 -6.89381,16.88074 -16.7648,8.3927 0.10335,27.10997 0.10335,27.10997 z"
     id="path42"
     inkscape:connector-curvature="0"
     style="fill:#00102e;stroke-width:3.4;stroke:#ffc06b;stroke-opacity:1;stroke-dasharray:none;fill-opacity:1" /><path
     d="m 353.63921,318.46692 c 1.42622,-28.25398 2.51761,-50.4213 2.08793,-52.13238 -1.203,-4.75868 15.769,-11.20287 16.28466,-11.39012 l 0.008,-0.008 h 0.009 l 3.23973,1.72812 2.37158,61.80291 z"
     id="path44"
     inkscape:connector-curvature="0"
     style="fill:#00102e;stroke-width:3.4;stroke:#ffc06b;stroke-opacity:1;stroke-dasharray:none;fill-opacity:1" /><path
     d="m 513.34762,318.46692 h -25.22135 l -7.2188,-70.63067 2.9733,-2.15377 c 0,0 0.25805,0.0596 0.70492,0.16175 2.31158,0.57034 9.7708,2.50277 14.0071,5.09065 a 8.4884849,8.4088473 0 0 1 2.44041,2.05161 2.4973809,2.4739509 0 0 1 0.57614,1.75362 c -0.21488,2.0005 5.28483,30.28005 11.73828,63.72681 z"
     id="path46"
     inkscape:connector-curvature="0"
     style="fill:#00102e;stroke-width:3.4;stroke:#ffc06b;stroke-opacity:1;stroke-dasharray:none;fill-opacity:1" /><path
     d="M 555.80786,346.9848 H 289.41177 a 3.8670453,3.8307653 0 0 0 0,7.66153 h 266.39609 a 3.8670453,3.8307653 0 1 0 0,-7.66153 z"
     id="path48"
     inkscape:connector-curvature="0"
     style="fill:#00102e;stroke-width:3.4;stroke:#ffc06b;stroke-opacity:1;stroke-dasharray:none;fill-opacity:1" /><path
     d="m 483.62312,346.9848 v 7.66153 H 289.41177 a 3.8670453,3.8307653 0 0 1 0,-7.66153 z"
     id="path50"
     inkscape:connector-curvature="0"
     style="fill:#00102e;stroke-width:3.4;stroke:#ffc06b;stroke-opacity:1;stroke-dasharray:none;fill-opacity:1" /><ellipse
     cx="483.62311"
     cy="350.81561"
     id="circle52"
     style="fill:#00102e;stroke-width:3.4;stroke:#ffc06b;stroke-opacity:1;stroke-dasharray:none;fill-opacity:1"
     rx="7.7340798"
     ry="7.6615205" /><path
     d="m 422.60981,414.66158 a 15.965107,15.815324 0 1 1 15.96511,-15.81534 15.983201,15.833249 0 0 1 -15.96511,15.81534 z m 0,-30.41409 a 14.737027,14.598766 0 1 0 14.73703,14.59875 14.753819,14.615401 0 0 0 -14.73703,-14.5987 z"
     id="path54"
     inkscape:connector-curvature="0"
     style="fill:#00102e;stroke-width:3.4;stroke:#ffc06b;stroke-opacity:1;stroke-dasharray:none;fill-opacity:1" /><path
     d="m 420.50134,407.36219 a 0.61407055,0.60830945 0 0 1 -0.61407,-0.6083 v -15.8153 a 0.61407055,0.60830945 0 1 1 1.22808,0 v 15.81533 a 0.61407055,0.60830945 0 0 1 -0.61401,0.60827 z"
     id="path56"
     inkscape:connector-curvature="0"
     style="fill:#00102e;stroke-width:3.4;stroke:#ffc06b;stroke-opacity:1;stroke-dasharray:none;fill-opacity:1" /><path
     d="m 424.7183,407.36219 a 0.61407055,0.60830945 0 0 1 -0.61408,-0.6083 v -15.8153 a 0.61407055,0.60830945 0 1 1 1.22809,0 v 15.81533 a 0.61407055,0.60830945 0 0 1 -0.61401,0.60827 z"
     id="path58"
     inkscape:connector-curvature="0"
     style="fill:#00102e;stroke-width:3.4;stroke:#ffc06b;stroke-opacity:1;stroke-dasharray:none;fill-opacity:1" /><path
     d="m 349.48584,398.84624 a 15.965107,15.815324 0 1 1 15.96509,15.81534 15.983201,15.833249 0 0 1 -15.96509,-15.81534 z m 1.22813,0 a 14.737027,14.598766 0 1 0 14.73696,-14.5987 14.753809,14.615391 0 0 0 -14.73701,14.5987 z"
     id="path60"
     inkscape:connector-curvature="0"
     style="fill:#00102e;stroke-width:3.4;stroke:#ffc06b;stroke-opacity:1;stroke-dasharray:none;fill-opacity:1" /><path
     d="m 372.34667,404.171 a 0.51069347,0.50590222 0 0 0 0.25581,-0.94402 l -7.6596,-4.38075 7.6596,-4.38074 a 0.51072046,0.50592897 0 0 0 -0.51063,-0.87634 l -8.42558,4.81891 a 0.51081649,0.50602409 0 0 0 0,0.87635 l 8.42558,4.8189 a 0.50847912,0.50370866 0 0 0 0.25482,0.0676 z"
     id="path62"
     inkscape:connector-curvature="0"
     style="fill:#00102e;stroke-width:3.4;stroke:#ffc06b;stroke-opacity:1;stroke-dasharray:none;fill-opacity:1" /><path
     d="m 361.04925,405.92814 a 0.51066271,0.50587176 0 0 0 0.51064,-0.50584 v -13.15211 a 0.51064221,0.50585146 0 0 0 -1.02128,0 v 13.15211 a 0.51066271,0.50587176 0 0 0 0.51064,0.50584 z"
     id="path64"
     inkscape:connector-curvature="0"
     style="fill:#00102e;stroke-width:3.4;stroke:#ffc06b;stroke-opacity:1;stroke-dasharray:none;fill-opacity:1" /><path
     d="m 479.76869,414.66158 a 15.965107,15.815324 0 1 1 15.9651,-15.81534 15.983201,15.833249 0 0 1 -15.9651,15.81534 z m 0,-30.41409 a 14.737027,14.598766 0 1 0 14.73702,14.59875 14.753809,14.615391 0 0 0 -14.73702,-14.5987 z"
     id="path66"
     inkscape:connector-curvature="0"
     style="fill:#00102e;stroke-width:3.4;stroke:#ffc06b;stroke-opacity:1;stroke-dasharray:none;fill-opacity:1" /><path
     d="m 472.87296,404.171 a 0.51070372,0.50591239 0 0 1 -0.25582,-0.94402 l 7.65962,-4.38075 -7.65962,-4.38074 a 0.51072542,0.50593389 0 0 1 0.51065,-0.87634 l 8.42557,4.81891 a 0.51081649,0.50602409 0 0 1 0,0.87635 l -8.42557,4.8189 a 0.50847912,0.50370866 0 0 1 -0.25483,0.0676 z"
     id="path68"
     inkscape:connector-curvature="0"
     style="fill:#00102e;stroke-width:3.4;stroke:#ffc06b;stroke-opacity:1;stroke-dasharray:none;fill-opacity:1" /><path
     d="m 484.17039,405.92814 a 0.51066271,0.50587176 0 0 1 -0.51064,-0.50584 v -13.15211 a 0.51064221,0.50585146 0 0 1 1.02128,0 v 13.15211 a 0.51066271,0.50587176 0 0 1 -0.51064,0.50584 z"
     id="path70"
     inkscape:connector-curvature="0"
     style="fill:#00102e;stroke-width:3.4;stroke:#ffc06b;stroke-opacity:1;stroke-dasharray:none;fill-opacity:1" /><path
     d="m 269.02181,410.76605 a 8.1705214,8.0938669 0 0 1 1.1159,-12.3617 l -7.85505,-27.69047 14.37352,4.54604 5.25567,25.59836 a 8.214839,8.1377688 0 0 1 -12.89004,9.90777 z"
     id="path72"
     inkscape:connector-curvature="0"
     style="fill:#00102e;stroke-width:3.4;stroke:#ffc06b;stroke-opacity:1;stroke-dasharray:none;fill-opacity:1" /><path
     d="m 265.18008,272.80654 -2.97737,-3.06951 c 0,0 -9.20535,6.26359 -7.25764,25.67978 1.43863,14.34148 -3.10751,20.42356 -2.59944,62.1079 l 12.83445,38.17476 14.84467,-7.70854 -10.73993,-47.10301 z"
     id="path74"
     inkscape:connector-curvature="0"
     style="fill:#00102e;stroke-width:3.4;stroke:#ffc06b;stroke-opacity:1;stroke-dasharray:none;fill-opacity:1" /><polygon
     points="98.357,515.883 98.359,555.931 108.742,555.931 113.682,515.882 "
     id="polygon76"
     style="fill:#00102e;stroke-width:3.33222515;stroke:#ffc06b;stroke-opacity:1;stroke-dasharray:none;fill-opacity:1"
     transform="matrix(1.0251595,0,0,1.0155416,175.48272,18.065628)" /><path
     d="m 273.60138,579.19411 20.9623,-8.5e-4 h 8.5e-4 a 13.35953,13.234193 0 0 1 13.35886,13.23328 v 0.43002 l -34.32132,9.8e-4 z"
     id="path78"
     inkscape:connector-curvature="0"
     style="fill:#00102e;stroke-width:3.4;stroke:#ffc06b;stroke-opacity:1;stroke-dasharray:none;fill-opacity:1" /><polygon
     points="133.513,512.503 128.639,552.254 138.945,553.517 148.723,514.368 "
     id="polygon80"
     style="fill:#00102e;stroke-width:3.33222515;stroke:#ffc06b;stroke-opacity:1;stroke-dasharray:none;fill-opacity:1"
     transform="matrix(1.0251595,0,0,1.0155416,175.48272,18.065628)" /><path
     d="m 305.08609,575.15771 20.80648,2.52726 8.3e-4,9e-5 a 13.35953,13.234193 0 0 1 11.63312,14.74594 l -0.0528,0.42684 -34.06618,-4.13796 z"
     id="path82"
     inkscape:connector-curvature="0"
     style="fill:#00102e;stroke-width:3.4;stroke:#ffc06b;stroke-opacity:1;stroke-dasharray:none;fill-opacity:1" /><path
     d="m 270.79933,374.10919 c 0,0 -20.50421,13.88174 -10.25261,51.45679 l 13.8639,145.84988 16.47116,-0.11566 6.97659,-71.96719 4.74136,-50.66546 15.8424,52.39235 -13.03051,64.28835 19.23181,2.00545 23.04187,-74.76198 -11.11176,-106.44315 z"
     id="path84"
     inkscape:connector-curvature="0"
     style="fill:#00102e;stroke-width:3.4;stroke:#ffc06b;stroke-opacity:1;stroke-dasharray:none;fill-opacity:1" /><path
     d="m 320.27352,265.79672 -10.42588,-8.30713 -27.64855,-1.12726 -19.99636,13.37469 c 0,0 -2.0641,47.62463 11.46703,90.04808 l -7.0941,17.7212 70.93079,8.81491 z"
     id="path86"
     inkscape:connector-curvature="0"
     style="fill:#00102e;stroke-width:3.4;stroke:#ffc06b;stroke-opacity:1;stroke-dasharray:none;fill-opacity:1" /><ellipse
     cx="297.91919"
     cy="222.67609"
     id="circle88"
     style="fill:#00102e;stroke-width:3.4;stroke:#ffc06b;stroke-opacity:1;stroke-dasharray:none;fill-opacity:1"
     rx="23.716061"
     ry="23.493561" /><path
     d="m 304.14024,193.63437 h -5.27046 a 24.606719,24.375863 0 0 0 -31.63528,23.35746 l -8.20829,26.8327 a 5.2276165,5.1785719 0 0 0 5.00317,6.68019 h 4.00652 a 11.794983,11.684325 0 0 0 2.05383,-8.13736 24.236565,24.009182 0 0 1 1.55476,5.59925 9.9583995,9.8649712 0 0 1 -0.0526,2.53811 h 34.85597 a 13.007511,12.885477 0 0 0 -3.15156,-9.28894 46.895276,46.455313 0 0 1 7.26371,9.28894 h 0.65474 a 5.2275857,5.1785414 0 0 0 5.22742,-5.17844 v -26.30335 h 13.32707 a 25.628988,25.388541 0 0 0 -25.62901,-25.38856 z"
     id="path90"
     inkscape:connector-curvature="0"
     style="fill:#00102e;stroke-width:3.4;stroke:#ffc06b;stroke-opacity:1;stroke-dasharray:none;fill-opacity:1" /><path
     d="m 330.53139,408.73496 a 8.1705214,8.0938669 0 0 1 1.11589,-12.3617 l -7.85504,-27.69045 14.37351,4.54602 5.25567,25.59837 a 8.214839,8.1377688 0 0 1 -12.89003,9.90776 z"
     id="path92"
     inkscape:connector-curvature="0"
     style="fill:#00102e;stroke-width:3.4;stroke:#ffc06b;stroke-opacity:1;stroke-dasharray:none;fill-opacity:1" /><path
     d="m 311.28288,271.05172 8.99065,-5.25499 c 0,0 14.14121,-2.46952 15.65071,16.19405 1.50948,18.66357 3.68367,67.1108 3.68367,67.1108 l 4.41066,40.84048 -16.36785,3.45744 -18.81244,-55.8498 z"
     id="path94"
     inkscape:connector-curvature="0"
     style="fill:#00102e;stroke-width:3.4;stroke:#ffc06b;stroke-opacity:1;stroke-dasharray:none;fill-opacity:1" /><path
     d="M 393.84169,594.77333 H 176.50788 a 1.0251629,1.015545 0 0 1 0,-2.03109 h 217.33381 a 1.0251629,1.015545 0 0 1 0,2.03109 z"
     id="path96"
     inkscape:connector-curvature="0"
     style="fill:#00102e;stroke-width:3.4;stroke:#ffc06b;stroke-opacity:1;stroke-dasharray:none;fill-opacity:1" /></svg>
