<?xml version="1.0" encoding="UTF-8" standalone="no"?>
<!-- Created with Inkscape (http://www.inkscape.org/) -->

<svg
   width="264.58334mm"
   height="158.75mm"
   viewBox="0 0 264.58334 158.75"
   version="1.1"
   id="svg2206"
   inkscape:version="1.2.2 (732a01da63, 2022-12-09, custom)"
   sodipodi:docname="helpers.svg"
   xml:space="preserve"
   xmlns:inkscape="http://www.inkscape.org/namespaces/inkscape"
   xmlns:sodipodi="http://sodipodi.sourceforge.net/DTD/sodipodi-0.dtd"
   xmlns="http://www.w3.org/2000/svg"
   xmlns:svg="http://www.w3.org/2000/svg"
   xmlns:rdf="http://www.w3.org/1999/02/22-rdf-syntax-ns#"
   xmlns:cc="http://creativecommons.org/ns#"
   xmlns:dc="http://purl.org/dc/elements/1.1/"><defs
     id="defs2200"><linearGradient
       id="linearGradient27038"
       inkscape:swatch="solid"><stop
         style="stop-color:#ffd42a;stop-opacity:1;"
         offset="0"
         id="stop27036" /></linearGradient><linearGradient
       id="linearGradient27032"
       inkscape:swatch="solid"><stop
         style="stop-color:#90781c;stop-opacity:1;"
         offset="0"
         id="stop27030" /></linearGradient></defs><sodipodi:namedview
     id="base"
     pagecolor="#ffffff"
     bordercolor="#666666"
     borderopacity="1.0"
     inkscape:pageopacity="0.0"
     inkscape:pageshadow="2"
     inkscape:zoom="0.98994949"
     inkscape:cx="250.51783"
     inkscape:cy="238.90108"
     inkscape:document-units="mm"
     inkscape:current-layer="layer1"
     showgrid="false"
     inkscape:window-width="1842"
     inkscape:window-height="1005"
     inkscape:window-x="78"
     inkscape:window-y="38"
     inkscape:window-maximized="1"
     inkscape:showpageshadow="2"
     inkscape:pagecheckerboard="0"
     inkscape:deskcolor="#d1d1d1"><inkscape:page
       x="0"
       y="0"
       width="264.58334"
       height="158.75"
       id="page2"
       margin="0"
       bleed="0" /></sodipodi:namedview><metadata
     id="metadata2203"><rdf:RDF><cc:Work
         rdf:about=""><dc:format>image/svg+xml</dc:format><dc:type
           rdf:resource="http://purl.org/dc/dcmitype/StillImage" /></cc:Work></rdf:RDF></metadata><g
     inkscape:label="Layer 1"
     inkscape:groupmode="layer"
     id="layer1"
     transform="translate(-139.3625,-31.817305)"><polygon
       points="212.177,152.902 212.179,152.903 "
       id="polygon59"
       style="mix-blend-mode:normal;fill:#00052b;fill-opacity:1;stroke:#ffc463;stroke-width:2.31005;stroke-dasharray:none;stroke-opacity:1"
       transform="matrix(0.2513349,0,0,0.27611277,237.58241,29.058273)" /><polygon
       points="212.171,152.905 212.167,152.907 212.175,152.905 "
       id="polygon63"
       style="mix-blend-mode:normal;fill:#00052b;fill-opacity:1;stroke:#ffc463;stroke-width:2.31005;stroke-dasharray:none;stroke-opacity:1"
       transform="matrix(0.2513349,0,0,0.27611277,237.58241,29.058273)" /><path
       d="m 290.91043,71.276693 2.4e-4,1e-4 z"
       id="path65"
       inkscape:connector-curvature="0"
       style="mix-blend-mode:normal;fill:#00052b;fill-opacity:1;stroke:#ffc463;stroke-width:0.608542;stroke-dasharray:none;stroke-opacity:1" /><path
       d="m 290.91051,71.277203 -9e-4,2e-4 c 0.002,1.7e-4 9e-4,-1.2e-4 9e-4,-2e-4 z"
       id="path67"
       inkscape:connector-curvature="0"
       style="mix-blend-mode:normal;fill:#00052b;fill-opacity:1;stroke:#ffc463;stroke-width:0.608542;stroke-dasharray:none;stroke-opacity:1" /><path
       d="m 290.9107,71.276793 c 9e-4,2.4e-4 5e-5,2.4e-4 -1.9e-4,2.4e-4 z"
       id="path69"
       inkscape:connector-curvature="0"
       style="mix-blend-mode:normal;fill:#00052b;fill-opacity:1;stroke:#ffc463;stroke-width:0.608542;stroke-dasharray:none;stroke-opacity:1" /><polygon
       points="275.171,121.905 275.167,121.907 275.175,121.905 "
       id="polygon73"
       style="mix-blend-mode:normal;fill:#00052b;fill-opacity:1;stroke:#ffc463;stroke-width:1.28147;stroke-dasharray:none;stroke-opacity:1"
       transform="matrix(0.2513349,0,0,0.27611277,281.58964,50.656911)" /><path
       d="m 350.75176,84.315841 2.4e-4,9e-5 z"
       id="path75"
       inkscape:connector-curvature="0"
       style="mix-blend-mode:normal;fill:#00052b;fill-opacity:1;stroke:#ffc463;stroke-width:0.337579;stroke-dasharray:none;stroke-opacity:1" /><path
       d="m 350.75184,84.316341 -9e-4,2e-4 c 0.002,1.7e-4 9e-4,-1.1e-4 9e-4,-2e-4 z"
       id="path77"
       inkscape:connector-curvature="0"
       style="mix-blend-mode:normal;fill:#00052b;fill-opacity:1;stroke:#ffc463;stroke-width:0.337579;stroke-dasharray:none;stroke-opacity:1" /><path
       d="m 350.75203,84.315931 c 9e-4,2.5e-4 5e-5,2.5e-4 -1.9e-4,2.5e-4 z"
       id="path79"
       inkscape:connector-curvature="0"
       style="mix-blend-mode:normal;fill:#00052b;fill-opacity:1;stroke:#ffc463;stroke-width:0.337579;stroke-dasharray:none;stroke-opacity:1" /><polygon
       points="275.179,121.903 275.177,121.902 "
       id="polygon81"
       style="mix-blend-mode:normal;fill:#00052b;fill-opacity:1;stroke:#ffc463;stroke-width:1.28147;stroke-dasharray:none;stroke-opacity:1"
       transform="matrix(0.2513349,0,0,0.27611277,281.58964,50.656911)" /><polygon
       points="212.179,152.903 212.177,152.902 "
       id="polygon59-9"
       style="fill:#00052b;fill-opacity:1;stroke:#ffc463;stroke-width:2.31005;stroke-dasharray:none;stroke-opacity:1"
       transform="matrix(0.2513349,0,0,0.27611277,237.46235,29.216923)" /><polygon
       points="212.171,152.905 212.167,152.907 212.175,152.905 "
       id="polygon63-7"
       style="fill:#00052b;fill-opacity:1;stroke:#ffc463;stroke-width:2.31005;stroke-dasharray:none;stroke-opacity:1"
       transform="matrix(0.2513349,0,0,0.27611277,237.46235,29.216923)" /><path
       d="m 290.79038,71.435343 2.4e-4,9e-5 z"
       id="path65-4"
       inkscape:connector-curvature="0"
       style="fill:#00052b;fill-opacity:1;stroke:#ffc463;stroke-width:0.608542;stroke-dasharray:none;stroke-opacity:1" /><path
       d="m 290.79046,71.435843 -9e-4,2.1e-4 c 0.002,1.6e-4 9e-4,-1.2e-4 9e-4,-2.1e-4 z"
       id="path67-5"
       inkscape:connector-curvature="0"
       style="fill:#00052b;fill-opacity:1;stroke:#ffc463;stroke-width:0.608542;stroke-dasharray:none;stroke-opacity:1" /><path
       d="m 290.79066,71.435433 c 8.9e-4,2.5e-4 4e-5,2.5e-4 -2e-4,2.5e-4 z"
       id="path69-2"
       inkscape:connector-curvature="0"
       style="fill:#00052b;fill-opacity:1;stroke:#ffc463;stroke-width:0.608542;stroke-dasharray:none;stroke-opacity:1" /><polygon
       points="275.171,121.905 275.167,121.907 275.175,121.905 "
       id="polygon73-4"
       style="fill:#00052b;fill-opacity:1;stroke:#ffc463;stroke-width:1.28147;stroke-dasharray:none;stroke-opacity:1"
       transform="matrix(0.2513349,0,0,0.27611277,281.46958,50.815561)" /><path
       d="m 350.63172,84.474481 2.3e-4,9e-5 z"
       id="path75-7"
       inkscape:connector-curvature="0"
       style="fill:#00052b;fill-opacity:1;stroke:#ffc463;stroke-width:0.337579;stroke-dasharray:none;stroke-opacity:1" /><path
       d="m 350.63179,84.474981 -9e-4,2e-4 c 0.002,1.8e-4 9e-4,-1.1e-4 9e-4,-2e-4 z"
       id="path77-4"
       inkscape:connector-curvature="0"
       style="fill:#00052b;fill-opacity:1;stroke:#ffc463;stroke-width:0.337579;stroke-dasharray:none;stroke-opacity:1" /><path
       d="m 350.63199,84.474571 c 8.9e-4,2.5e-4 4e-5,2.5e-4 -2e-4,2.5e-4 z"
       id="path79-4"
       inkscape:connector-curvature="0"
       style="fill:#00052b;fill-opacity:1;stroke:#ffc463;stroke-width:0.337579;stroke-dasharray:none;stroke-opacity:1" /><polygon
       points="275.177,121.902 275.179,121.903 "
       id="polygon81-3"
       style="fill:#00052b;fill-opacity:1;stroke:#ffc463;stroke-width:1.28147;stroke-dasharray:none;stroke-opacity:1"
       transform="matrix(0.2513349,0,0,0.27611277,281.46958,50.815561)" /><path
       d="m 224.43153,130.25781 8.65286,2.88386 v 8.65352 l 12.97996,12.9793 0.45244,-0.45245 c 0.7557,-0.75569 1.13343,-1.13354 1.33505,-1.51011 0.21431,-0.40038 0.28221,-0.62287 0.32721,-1.07473 0.0423,-0.42504 -0.0961,-1.12625 -0.37245,-2.52845 -0.197,-0.99851 -0.30034,-2.03085 -0.30034,-3.08713 0,-8.76145 7.10226,-15.86381 15.86382,-15.86381 2.90023,0 5.61925,0.77792 7.95846,2.13699 l -7.57945,7.57946 c -1.14222,1.14226 -1.71342,1.71314 -1.92716,2.37174 -0.18835,0.57934 -0.18835,1.20292 0,1.78223 0.21374,0.6586 0.78494,1.23013 1.92716,2.37241 l 0.68457,0.68391 c 1.14222,1.14225 1.71324,1.71381 2.37174,1.92782 0.57917,0.18821 1.20372,0.18821 1.7829,0 0.6585,-0.21401 1.22952,-0.78557 2.37173,-1.92782 l 7.08964,-7.08898 c 0.76348,1.85799 1.18488,3.89273 1.18488,6.02605 0,8.76153 -7.10293,15.86381 -15.86447,15.86381 -0.51044,0 -1.01528,-0.0238 -1.51339,-0.0707 l 13.05077,13.05013 c 2.38942,2.38939 2.38942,6.2641 0,8.65352 -2.3894,2.3894 -6.26346,2.3894 -8.65285,0 l -15.86382,-15.86382 -15.86381,15.86381 c -2.3895,2.38942 -6.26404,2.38942 -8.65353,0 -2.38951,-2.3894 -2.38951,-6.26345 0,-8.65287 l 20.1909,-20.19088 -12.97996,-12.97931 h -8.65286 l -2.88452,-8.65352 z"
       style="fill:#ffffff;fill-opacity:0;stroke:#ffc463;stroke-width:2.41796;stroke-linecap:round;stroke-linejoin:round;stroke-dasharray:none;stroke-opacity:0.358238"
       id="path17-9-8-9" /><path
       stroke="#535358"
       stroke-linejoin="round"
       stroke-width="1.95119"
       d="m 335.27427,149.71116 a 0.48779538,0.48779538 0 0 1 0.47314,-0.36975 h 3.14142 a 0.48779538,0.48779538 0 0 1 0.47315,0.36975 l 0.67219,2.6897 a 0.50242924,0.50242924 0 0 0 0.33267,0.35317 c 0.37366,0.12293 0.73659,0.26731 1.08779,0.43218 a 0.50242924,0.50242924 0 0 0 0.43803,-0.003 l 2.69946,-1.34924 a 0.48779538,0.48779538 0 0 1 0.56291,0.0908 l 2.2624,2.2624 a 0.48779538,0.48779538 0 0 1 0.0908,0.56291 l -1.34926,2.69947 a 0.50242924,0.50242924 0 0 0 -0.003,0.43804 c 0.12393,0.26438 0.23708,0.53559 0.33757,0.81266 0.0518,0.14439 0.16584,0.25854 0.31121,0.30731 l 2.86238,0.95413 a 0.48779538,0.48779538 0 0 1 0.33366,0.46242 v 3.19994 a 0.48779538,0.48779538 0 0 1 -0.33366,0.46244 l -2.86238,0.95412 a 0.50242924,0.50242924 0 0 0 -0.31218,0.30731 9.6944451,9.6944451 0 0 1 -0.3366,0.81267 0.50242924,0.50242924 0 0 0 0.003,0.43805 l 1.34926,2.69965 a 0.48779538,0.48779538 0 0 1 -0.0908,0.56291 l -2.2624,2.2624 a 0.48779538,0.48779538 0 0 1 -0.56291,0.0908 l -2.69946,-1.34924 a 0.50242924,0.50242924 0 0 0 -0.43803,-0.003 c -0.2644,0.12389 -0.53561,0.23707 -0.81269,0.33755 a 0.50242924,0.50242924 0 0 0 -0.3073,0.31121 l -0.95412,2.86239 a 0.48779538,0.48779538 0 0 1 -0.46243,0.33365 h -3.19994 a 0.48779538,0.48779538 0 0 1 -0.46241,-0.33365 l -0.95414,-2.86239 a 0.50242924,0.50242924 0 0 0 -0.30732,-0.31219 9.7071278,9.7071278 0 0 1 -1.07412,-0.4634 0.50242924,0.50242924 0 0 0 -0.48584,0.0137 l -2.37752,1.42729 a 0.48779538,0.48779538 0 0 1 -0.59609,-0.0732 l -2.22142,-2.22142 a 0.48779538,0.48779538 0 0 1 -0.0732,-0.59511 l 1.4273,-2.37849 a 0.50242924,0.50242924 0 0 0 0.0137,-0.48585 9.6954205,9.6954205 0 0 1 -0.559,-1.34924 0.50242924,0.50242924 0 0 0 -0.35318,-0.33268 l -2.68971,-0.67315 a 0.48779538,0.48779538 0 0 1 -0.36975,-0.47219 v -3.14141 a 0.48779538,0.48779538 0 0 1 0.36975,-0.47316 l 2.68971,-0.67218 a 0.50242924,0.50242924 0 0 0 0.35318,-0.33267 c 0.15313,-0.46633 0.34143,-0.91706 0.559,-1.34924 a 0.50242924,0.50242924 0 0 0 -0.0137,-0.48585 l -1.4273,-2.37751 a 0.48779538,0.48779538 0 0 1 0.0732,-0.59609 l 2.22142,-2.22142 a 0.48779538,0.48779538 0 0 1 0.5951,-0.0732 l 2.37851,1.42729 c 0.14828,0.0888 0.33172,0.0917 0.48584,0.0137 a 9.6954205,9.6954205 0 0 1 1.34827,-0.55901 0.50242924,0.50242924 0 0 0 0.33364,-0.35317 l 0.67316,-2.6897 z"
       id="path1-1-24-8"
       style="fill:none;stroke:#ffc463;stroke-width:1.08239;stroke-dasharray:none;stroke-opacity:0.36" /><circle
       cx="337.31818"
       cy="162.02408"
       r="4.8779535"
       stroke="#535358"
       stroke-linecap="round"
       stroke-linejoin="round"
       stroke-width="1.95119"
       id="circle1-5-8"
       style="fill:none;stroke:#ffc463;stroke-width:1.08239;stroke-dasharray:none;stroke-opacity:0.36" /><path
       stroke="#535358"
       stroke-linejoin="round"
       stroke-width="1.07352"
       d="m 258.84329,96.044498 a 0.26838322,0.26838322 0 0 1 0.26033,-0.203438 h 1.7284 a 0.26838322,0.26838322 0 0 1 0.26033,0.203438 l 0.36984,1.479843 a 0.2764347,0.2764347 0 0 0 0.18303,0.194331 c 0.20558,0.06771 0.40526,0.147073 0.59848,0.237773 a 0.2764347,0.2764347 0 0 0 0.24102,-9.58e-4 l 1.48523,-0.74234 a 0.26838322,0.26838322 0 0 1 0.30972,0.05 l 1.24475,1.244763 a 0.26838322,0.26838322 0 0 1 0.05,0.309713 l -0.74234,1.485227 a 0.2764347,0.2764347 0 0 0 -9.5e-4,0.24101 c 0.0681,0.14545 0.13038,0.29468 0.18573,0.44712 0.0285,0.0795 0.0913,0.14224 0.17121,0.16909 l 1.57488,0.52497 a 0.26838322,0.26838322 0 0 1 0.18357,0.2544 v 1.76062 a 0.26838322,0.26838322 0 0 1 -0.18357,0.25442 l -1.57488,0.52495 a 0.2764347,0.2764347 0 0 0 -0.17175,0.16907 5.3338476,5.3338476 0 0 1 -0.18519,0.44714 0.2764347,0.2764347 0 0 0 9.5e-4,0.24102 l 0.74234,1.48532 a 0.26838322,0.26838322 0 0 1 -0.05,0.30971 l -1.24475,1.24476 a 0.26838322,0.26838322 0 0 1 -0.30972,0.0498 l -1.48523,-0.74234 a 0.2764347,0.2764347 0 0 0 -0.24102,-9.5e-4 c -0.14545,0.0682 -0.29466,0.13038 -0.4471,0.18571 a 0.2764347,0.2764347 0 0 0 -0.16909,0.17125 l -0.52495,1.57485 a 0.26838322,0.26838322 0 0 1 -0.25445,0.18358 h -1.76059 a 0.26838322,0.26838322 0 0 1 -0.25442,-0.18359 l -0.52495,-1.57485 a 0.2764347,0.2764347 0 0 0 -0.1691,-0.17178 5.3408257,5.3408257 0 0 1 -0.59097,-0.25495 0.2764347,0.2764347 0 0 0 -0.26731,0.005 l -1.30809,0.78527 a 0.26838322,0.26838322 0 0 1 -0.32797,-0.0402 l -1.22222,-1.22222 a 0.26838322,0.26838322 0 0 1 -0.0402,-0.32741 l 0.78529,-1.30864 a 0.2764347,0.2764347 0 0 0 0.005,-0.26732 5.3343844,5.3343844 0 0 1 -0.30755,-0.74235 0.2764347,0.2764347 0 0 0 -0.19433,-0.18305 l -1.47986,-0.37036 a 0.26838322,0.26838322 0 0 1 -0.20343,-0.25979 v -1.72838 a 0.26838322,0.26838322 0 0 1 0.20343,-0.26033 l 1.47986,-0.36984 a 0.2764347,0.2764347 0 0 0 0.19433,-0.18303 c 0.0842,-0.25659 0.18786,-0.50457 0.30755,-0.74234 a 0.2764347,0.2764347 0 0 0 -0.005,-0.26687 l -0.78529,-1.307947 a 0.26838322,0.26838322 0 0 1 0.0402,-0.327965 l 1.22222,-1.222209 a 0.26838322,0.26838322 0 0 1 0.32743,-0.04023 l 1.30863,0.785286 c 0.0815,0.04875 0.1825,0.05038 0.26731,0.0067 a 5.3343844,5.3343844 0 0 1 0.7418,-0.307575 0.2764347,0.2764347 0 0 0 0.18359,-0.194312 l 0.37035,-1.479873 z"
       id="path1-1-1-5-2"
       style="fill:none;stroke:#ffc463;stroke-width:0.595519;stroke-dasharray:none;stroke-opacity:0.41" /><circle
       cx="259.9679"
       cy="102.81902"
       r="2.6838319"
       stroke="#535358"
       stroke-linecap="round"
       stroke-linejoin="round"
       stroke-width="1.07352"
       id="circle1-68-17-4"
       style="fill:none;stroke:#ffc463;stroke-width:0.595519;stroke-dasharray:none;stroke-opacity:0.41" /><path
       stroke="#535358"
       stroke-linejoin="round"
       stroke-width="1.0412"
       d="m 321.34664,110.43326 a 0.26030455,0.26030455 0 0 1 0.2525,-0.19733 h 1.67637 a 0.26030455,0.26030455 0 0 1 0.25249,0.19733 l 0.35868,1.4353 a 0.26811367,0.26811367 0 0 0 0.17753,0.18846 c 0.1994,0.0657 0.39306,0.14266 0.58047,0.23063 a 0.26811367,0.26811367 0 0 0 0.23378,-9.3e-4 l 1.44051,-0.71999 a 0.26030455,0.26030455 0 0 1 0.30041,0.0485 l 1.20728,1.20729 a 0.26030455,0.26030455 0 0 1 0.0485,0.30038 l -0.72,1.44053 a 0.26811367,0.26811367 0 0 0 -9.3e-4,0.23375 c 0.0661,0.1411 0.12643,0.28581 0.18012,0.43367 0.0276,0.0771 0.0886,0.13797 0.16607,0.164 l 1.52746,0.50915 a 0.26030455,0.26030455 0 0 1 0.17805,0.24676 v 1.70762 a 0.26030455,0.26030455 0 0 1 -0.17805,0.24675 l -1.52746,0.50916 a 0.26811367,0.26811367 0 0 0 -0.1666,0.16399 5.1732921,5.1732921 0 0 1 -0.17959,0.43367 0.26811367,0.26811367 0 0 0 9.3e-4,0.23375 l 0.72,1.44064 a 0.26030455,0.26030455 0 0 1 -0.0485,0.30037 l -1.20728,1.2073 a 0.26030455,0.26030455 0 0 1 -0.30041,0.0484 l -1.44051,-0.72 a 0.26811367,0.26811367 0 0 0 -0.23376,-9.3e-4 c -0.14108,0.066 -0.2858,0.12652 -0.43366,0.18012 a 0.26811367,0.26811367 0 0 0 -0.164,0.1661 l -0.50914,1.52745 a 0.26030455,0.26030455 0 0 1 -0.24679,0.17804 h -1.70759 a 0.26030455,0.26030455 0 0 1 -0.24676,-0.17804 l -0.50917,-1.52745 a 0.26811367,0.26811367 0 0 0 -0.164,-0.16661 5.1800602,5.1800602 0 0 1 -0.57318,-0.24728 0.26811367,0.26811367 0 0 0 -0.25926,0.006 l -1.26872,0.76165 a 0.26030455,0.26030455 0 0 1 -0.3181,-0.039 l -1.18542,-1.18542 a 0.26030455,0.26030455 0 0 1 -0.039,-0.31757 l 0.76163,-1.26925 a 0.26811367,0.26811367 0 0 0 0.005,-0.25925 5.1738127,5.1738127 0 0 1 -0.29831,-0.72002 0.26811367,0.26811367 0 0 0 -0.18847,-0.17753 l -1.43469,-0.35926 a 0.26030455,0.26030455 0 0 1 -0.19729,-0.25197 v -1.67638 a 0.26030455,0.26030455 0 0 1 0.19729,-0.25247 l 1.43533,-0.35871 a 0.26811367,0.26811367 0 0 0 0.18846,-0.17753 c 0.0817,-0.24885 0.18222,-0.48937 0.29832,-0.72 a 0.26811367,0.26811367 0 0 0 -0.005,-0.25925 l -0.76166,-1.26875 a 0.26030455,0.26030455 0 0 1 0.039,-0.31808 l 1.18544,-1.18543 a 0.26030455,0.26030455 0 0 1 0.31755,-0.039 l 1.26927,0.76164 c 0.0792,0.0474 0.17699,0.0489 0.25925,0.007 a 5.1738127,5.1738127 0 0 1 0.71949,-0.2983 0.26811367,0.26811367 0 0 0 0.17803,-0.18846 l 0.35923,-1.43532 z"
       id="path1-1-1-6-1-5"
       style="fill:#ffffff;fill-opacity:1;stroke:#ffc463;stroke-opacity:0.36" /><circle
       cx="321.34402"
       cy="117.44116"
       r="2.6030452"
       stroke="#535358"
       stroke-linecap="round"
       stroke-linejoin="round"
       stroke-width="1.0412"
       id="circle1-68-1-1-5"
       style="fill:#ffffff;fill-opacity:1;stroke:#ffc463;stroke-opacity:0.36" /><path
       stroke="#535358"
       stroke-linejoin="round"
       stroke-width="4.23698"
       d="m 264.081,32.866413 a 1.0592441,1.0592441 0 0 1 1.02744,-0.802912 H 271.93 a 1.0592441,1.0592441 0 0 1 1.02747,0.802912 l 1.45962,5.840676 a 1.0910214,1.0910214 0 0 0 0.72241,0.766886 c 0.81138,0.266943 1.59945,0.58047 2.36213,0.938488 a 1.0910214,1.0910214 0 0 0 0.95118,-0.0065 l 5.86188,-2.92986 a 1.0592441,1.0592441 0 0 1 1.22236,0.197003 l 4.91275,4.912774 a 1.0592441,1.0592441 0 0 1 0.19707,1.222375 l -2.92987,5.861848 a 1.0910214,1.0910214 0 0 0 -0.005,0.951203 c 0.26913,0.574112 0.51481,1.16305 0.73301,1.764711 0.11233,0.313525 0.36016,0.561397 0.67582,0.667315 l 6.21562,2.071879 a 1.0592441,1.0592441 0 0 1 0.72451,1.004164 v 6.948646 a 1.0592441,1.0592441 0 0 1 -0.72451,1.004152 l -6.21562,2.071889 a 1.0910214,1.0910214 0 0 0 -0.67795,0.667326 21.051416,21.051416 0 0 1 -0.73088,1.764701 1.0910214,1.0910214 0 0 0 0.005,0.951202 l 2.92987,5.862267 a 1.0592441,1.0592441 0 0 1 -0.19707,1.222375 l -4.91275,4.912774 a 1.0592441,1.0592441 0 0 1 -1.22236,0.196994 l -5.86188,-2.929841 a 1.0910214,1.0910214 0 0 0 -0.95118,-0.0046 c -0.57414,0.269024 -1.16306,0.514776 -1.76472,0.732971 a 1.0910214,1.0910214 0 0 0 -0.66734,0.675811 l -2.07183,6.215635 a 1.0592441,1.0592441 0 0 1 -1.00422,0.72454 h -6.9486 a 1.0592441,1.0592441 0 0 1 -1.00415,-0.72454 l -2.07191,-6.215635 a 1.0910214,1.0910214 0 0 0 -0.66733,-0.67793 21.078956,21.078956 0 0 1 -2.33244,-1.006263 1.0910214,1.0910214 0 0 0 -1.05502,0.02965 l -5.16274,3.099342 a 1.0592441,1.0592441 0 0 1 -1.2944,-0.158887 l -4.82381,-4.823798 a 1.0592441,1.0592441 0 0 1 -0.15884,-1.292279 l 3.09936,-5.164864 a 1.0910214,1.0910214 0 0 0 0.0298,-1.055012 21.053536,21.053536 0 0 1 -1.21388,-2.929879 1.0910214,1.0910214 0 0 0 -0.76689,-0.722394 l -5.84067,-1.46176 a 1.0592441,1.0592441 0 0 1 -0.80291,-1.025354 v -6.821546 a 1.0592441,1.0592441 0 0 1 0.80291,-1.027473 l 5.84067,-1.459642 a 1.0910214,1.0910214 0 0 0 0.76689,-0.722394 c 0.3326,-1.012638 0.74145,-1.991381 1.21388,-2.929879 a 1.0910214,1.0910214 0 0 0 -0.0298,-1.055002 l -3.09936,-5.162764 a 1.0592441,1.0592441 0 0 1 0.15884,-1.294388 l 4.82381,-4.823799 a 1.0592441,1.0592441 0 0 1 1.29227,-0.158886 l 5.16487,3.099342 c 0.32201,0.192802 0.7203,0.199159 1.05502,0.02964 a 21.053536,21.053536 0 0 1 2.92774,-1.21389 1.0910214,1.0910214 0 0 0 0.72452,-0.766895 l 1.46176,-5.840677 z"
       id="path1-1-7-5-1"
       style="fill:#ffffff;fill-opacity:1;stroke:#ffc463;stroke-width:2.3504;stroke-dasharray:none;stroke-opacity:0.36" /><circle
       cx="268.51926"
       cy="59.074669"
       r="10.59244"
       stroke="#535358"
       stroke-linecap="round"
       stroke-linejoin="round"
       stroke-width="4.23698"
       id="circle1-6-2-7"
       style="fill:#ffffff;fill-opacity:1;stroke:#ffc463;stroke-width:2.3504;stroke-dasharray:none;stroke-opacity:0.36" /><path
       stroke="#535358"
       stroke-linejoin="round"
       stroke-width="3.4023"
       d="m 220.78914,74.054786 a 0.85057583,0.85057583 0 0 1 0.82504,-0.644741 h 5.47772 a 0.85057583,0.85057583 0 0 1 0.82506,0.644741 l 1.17209,4.69007 a 0.87609312,0.87609312 0 0 0 0.58008,0.615819 c 0.65157,0.214459 1.28439,0.466121 1.89681,0.753622 a 0.87609312,0.87609312 0 0 0 0.76381,-0.0038 l 4.70708,-2.352699 a 0.85057583,0.85057583 0 0 1 0.98157,0.15825 l 3.94497,3.944955 a 0.85057583,0.85057583 0 0 1 0.15824,0.981592 l -2.35269,4.707064 a 0.87609312,0.87609312 0 0 0 -0.004,0.763821 c 0.2161,0.461012 0.41339,0.933946 0.5886,1.417051 0.0902,0.251784 0.2892,0.450841 0.54267,0.53587 l 4.99159,1.663738 a 0.85057583,0.85057583 0 0 1 0.58176,0.806341 v 5.579784 a 0.85057583,0.85057583 0 0 1 -0.58176,0.806341 l -4.99118,1.663725 a 0.87609312,0.87609312 0 0 0 -0.54438,0.53585 16.904343,16.904343 0 0 1 -0.5869,1.41705 0.87609312,0.87609312 0 0 0 0.004,0.76383 l 2.35268,4.70741 a 0.85057583,0.85057583 0 0 1 -0.15823,0.98156 l -3.94497,3.94497 a 0.85057583,0.85057583 0 0 1 -0.98158,0.15826 l -4.70707,-2.35269 a 0.87609312,0.87609312 0 0 0 -0.76381,-0.004 c -0.46103,0.21611 -0.93393,0.4134 -1.41706,0.58861 a 0.87609312,0.87609312 0 0 0 -0.53588,0.54266 l -1.66372,4.99119 a 0.85057583,0.85057583 0 0 1 -0.80636,0.58178 h -5.57977 a 0.85057583,0.85057583 0 0 1 -0.80632,-0.58178 l -1.66374,-4.99119 a 0.87609312,0.87609312 0 0 0 -0.53587,-0.54438 16.926457,16.926457 0 0 1 -1.87296,-0.808 0.87609312,0.87609312 0 0 0 -0.84719,0.0238 l -4.14569,2.48877 a 0.85057583,0.85057583 0 0 1 -1.03941,-0.12756 l -3.87354,-3.87352 a 0.85057583,0.85057583 0 0 1 -0.12757,-1.03771 l 2.4888,-4.14738 a 0.87609312,0.87609312 0 0 0 0.0238,-0.8472 16.906045,16.906045 0 0 1 -0.97475,-2.35269 0.87609312,0.87609312 0 0 0 -0.61582,-0.58007 l -4.69008,-1.17379 a 0.85057583,0.85057583 0 0 1 -0.64473,-0.823372 v -5.477725 a 0.85057583,0.85057583 0 0 1 0.64473,-0.825028 l 4.69008,-1.172106 a 0.87609312,0.87609312 0 0 0 0.61582,-0.580074 c 0.26707,-0.813162 0.5954,-1.599095 0.97475,-2.352698 a 0.87609312,0.87609312 0 0 0 -0.0238,-0.847186 l -2.4888,-4.145724 a 0.85057583,0.85057583 0 0 1 0.12757,-1.039411 l 3.87354,-3.873511 a 0.85057583,0.85057583 0 0 1 1.0377,-0.127586 l 4.1474,2.488781 c 0.25858,0.154947 0.5784,0.159897 0.84719,0.0239 a 16.906045,16.906045 0 0 1 2.35098,-0.974771 0.87609312,0.87609312 0 0 0 0.58179,-0.61581 l 1.17379,-4.690061 z"
       id="path1-1-2-7-1"
       style="fill:none;stroke:#ffc463;stroke-width:1.88738;stroke-dasharray:none;stroke-opacity:0.36" /><circle
       cx="223.82385"
       cy="95.525017"
       r="8.5057592"
       stroke="#535358"
       stroke-linecap="round"
       stroke-linejoin="round"
       stroke-width="3.4023"
       id="circle1-3-6-1"
       style="fill:none;stroke:#ffc463;stroke-width:1.88738;stroke-dasharray:none;stroke-opacity:0.36" /><path
       id="Path_94-1-5"
       data-name="Path 94"
       d="m 357.50501,63.773429 h -38.72527 a 4.4682992,4.4682992 0 0 0 -4.46831,4.468326 v 38.725265 a 4.4682992,4.4682992 0 0 0 4.46831,4.46827 h 38.72527 a 4.4682992,4.4682992 0 0 0 4.46827,-4.46827 V 68.241755 a 4.4682992,4.4682992 0 0 0 -4.46827,-4.468326 z m 0,44.683001 h -28.29925 v -1.48941 a 1.4894364,1.4894364 0 0 0 -2.97885,0 v 1.48941 h -2.97887 v -7.44718 a 1.4894412,1.4894412 0 0 0 -2.97887,0 v 7.44718 h -1.48943 a 1.4894332,1.4894332 0 0 1 -1.48943,-1.48941 V 68.241755 a 1.4894332,1.4894332 0 0 1 1.48943,-1.489436 h 13.4049 v 25.320342 a 1.4894332,1.4894332 0 0 0 1.48943,1.489426 h 4.74236 a 4.4682992,4.4682992 0 1 0 0,-2.978861 H 335.1635 V 66.752319 h 22.34151 a 1.4894332,1.4894332 0 0 1 1.48941,1.489436 v 1.489415 h -7.44716 a 1.4894333,1.4894333 0 0 0 0,2.978851 h 7.44716 v 2.978871 h -4.46829 a 1.489437,1.489437 0 0 0 0,2.978871 h 4.46829 v 2.978861 h -14.8943 V 78.3937 a 4.4682992,4.4682992 0 1 0 -2.97889,0 v 4.742369 a 1.4894332,1.4894332 0 0 0 1.48942,1.489435 h 16.38377 v 22.341516 a 1.4894332,1.4894332 0 0 1 -1.48941,1.48941 z M 341.12123,92.072661 a 1.4894332,1.4894332 0 1 1 1.48942,1.489426 1.4894332,1.4894332 0 0 1 -1.48942,-1.489426 z m 0,-17.873204 a 1.4894332,1.4894332 0 1 1 1.48942,1.489435 1.4894332,1.4894332 0 0 1 -1.48942,-1.489435 z m 10.42603,22.3415 a 4.4682992,4.4682992 0 0 0 -4.19426,2.978871 h -16.04118 l -5.08491,-5.084905 V 78.3937 a 4.4682992,4.4682992 0 1 0 -2.97887,0 v 16.657832 a 1.4894332,1.4894332 0 0 0 0.43489,1.054514 l 5.95775,5.957744 a 1.4894332,1.4894332 0 0 0 1.05453,0.43489 H 347.353 a 4.4682992,4.4682992 0 1 0 4.19426,-5.957723 z M 324.73748,72.710021 a 1.4894332,1.4894332 0 1 1 -1.48944,1.489436 1.4894332,1.4894332 0 0 1 1.48944,-1.489436 z m 26.80978,29.788659 a 1.4894332,1.4894332 0 1 1 1.48945,-1.48943 1.4894332,1.4894332 0 0 1 -1.48945,1.48943 z"
       style="fill:#ffffff;fill-opacity:1;stroke:#ffc463;stroke-width:1.11767;stroke-dasharray:none;stroke-opacity:0.36" /><path
       d="m 225.62237,132.45531 8.38141,2.79338 v 8.38204 l 12.57274,12.57212 0.43825,-0.43826 c 0.732,-0.73198 1.09787,-1.09798 1.29318,-1.46273 0.20757,-0.38783 0.27335,-0.60333 0.31692,-1.04101 0.041,-0.41171 -0.093,-1.09092 -0.36075,-2.44913 -0.19083,-0.96719 -0.29091,-1.96714 -0.29091,-2.99029 0,-8.48659 6.87945,-15.36612 15.36613,-15.36612 2.80926,0 5.44298,0.7535 7.7088,2.06994 l -7.34167,7.34168 c -1.10639,1.10642 -1.65968,1.6594 -1.8667,2.29733 -0.18245,0.56116 -0.18245,1.16519 0,1.72632 0.20702,0.63794 0.76031,1.19154 1.8667,2.29798 l 0.6631,0.66246 c 1.10638,1.10641 1.65948,1.66004 2.29732,1.86734 0.561,0.18232 1.16596,0.18232 1.72696,0 0.63785,-0.2073 1.19096,-0.76093 2.29734,-1.86734 l 6.86723,-6.86659 c 0.73953,1.7997 1.14771,3.77061 1.14771,5.837 0,8.48667 -6.8801,15.36614 -15.36679,15.36614 -0.49442,0 -0.98342,-0.023 -1.46591,-0.0686 l 12.64134,12.64072 c 2.31447,2.31443 2.31447,6.06759 0,8.38205 -2.31444,2.31444 -6.06696,2.31444 -8.3814,0 L 250.76723,168.7756 235.4011,184.14174 c -2.31453,2.31445 -6.06752,2.31445 -8.38205,0 -2.31455,-2.31444 -2.31455,-6.06696 0,-8.38141 l 19.55747,-19.55748 -12.57274,-12.57212 h -8.38141 l -2.79403,-8.38205 z"
       style="fill:#ffffff;fill-opacity:1;stroke:#ffc463;stroke-width:2.3421;stroke-linecap:round;stroke-linejoin:round;stroke-dasharray:none;stroke-opacity:1"
       id="path17-9-8-9-6" /><path
       d="m 246.59282,156.29628 -19.55683,19.55747 c -2.31454,2.31447 -2.31454,6.06697 0,8.38142 2.31453,2.31445 6.06689,2.31445 8.38141,0 l 19.99572,-19.99573 c 0.0291,-0.0291 0.0577,-0.0577 0.0859,-0.0859 l 0.70437,-0.70439 c 0.14179,-0.14177 0.29583,-0.26487 0.45986,-0.37028 0.0726,-0.0513 0.14277,-0.0953 0.21276,-0.13276 0.38779,-0.20756 0.60323,-0.27343 1.04102,-0.31694 0.0225,-0.003 0.0464,-0.004 0.0705,-0.005 0.42693,-0.0445 0.86728,-0.005 1.29191,0.10988 0.68118,0.18705 1.38168,0.32841 2.09726,0.42047 0.64815,0.0834 1.30888,0.12641 1.97974,0.12641 8.48669,0 15.36614,-6.8795 15.36614,-15.36614 0,-2.06639 -0.40755,-4.03733 -1.14708,-5.83704 l -6.86721,6.86659 c -1.10639,1.10643 -1.66013,1.66007 -2.29799,1.86734 -0.56099,0.18232 -1.16531,0.18232 -1.72631,0 -0.63785,-0.20727 -1.19159,-0.76091 -2.29795,-1.86734 l -0.66248,-0.66245 c -1.10639,-1.10644 -1.65967,-1.66004 -1.8667,-2.29797 -0.18243,-0.56114 -0.18243,-1.16517 0,-1.72632 0.20703,-0.63794 0.76031,-1.19092 1.8667,-2.29734 l 7.34104,-7.3417 c -2.26581,-1.31645 -4.8989,-2.06995 -7.70816,-2.06995 -8.48667,0 -15.36612,6.87956 -15.36612,15.36618 0,1.02313 0.10004,2.02308 0.29089,2.99025 0.26777,1.35822 0.40119,2.03744 0.36013,2.44914 -0.0437,0.43768 -0.10877,0.65318 -0.3163,1.04101 -0.19531,0.36477 -0.56118,0.73075 -1.29316,1.46274 z"
       style="fill:#000000;fill-opacity:0;stroke:#ffc463;stroke-width:2.55858;stroke-linecap:round;stroke-linejoin:round;stroke-dasharray:none;stroke-opacity:1"
       id="path16-8-4-1" /><path
       stroke="#535358"
       stroke-linejoin="round"
       stroke-width="1.89468"
       d="m 335.84243,150.32288 a 0.47366815,0.47366815 0 0 1 0.45945,-0.35903 h 3.05044 a 0.47366815,0.47366815 0 0 1 0.45945,0.35903 l 0.65272,2.61181 a 0.4878782,0.4878782 0 0 0 0.32303,0.34293 c 0.36284,0.11938 0.71526,0.25958 1.05629,0.41967 a 0.4878782,0.4878782 0 0 0 0.42535,-0.003 l 2.62128,-1.31016 a 0.47366815,0.47366815 0 0 1 0.5466,0.0881 l 2.19688,2.19687 a 0.47366815,0.47366815 0 0 1 0.0882,0.54661 l -1.31018,2.62129 a 0.4878782,0.4878782 0 0 0 -0.003,0.42535 c 0.12034,0.25673 0.23022,0.52009 0.32779,0.78913 0.0503,0.14021 0.16105,0.25106 0.30221,0.29841 l 2.77948,0.9265 a 0.47366815,0.47366815 0 0 1 0.32399,0.44903 v 3.10727 a 0.47366815,0.47366815 0 0 1 -0.32399,0.44903 l -2.77948,0.92649 a 0.4878782,0.4878782 0 0 0 -0.30315,0.29841 9.4136806,9.4136806 0 0 1 -0.32685,0.78914 0.4878782,0.4878782 0 0 0 0.003,0.42536 l 1.31018,2.62146 a 0.47366815,0.47366815 0 0 1 -0.0882,0.54661 l -2.19688,2.19688 a 0.47366815,0.47366815 0 0 1 -0.5466,0.0881 l -2.62128,-1.31016 a 0.4878782,0.4878782 0 0 0 -0.42535,-0.003 c -0.25675,0.1203 -0.5201,0.2302 -0.78915,0.32777 a 0.4878782,0.4878782 0 0 0 -0.2984,0.3022 l -0.92649,2.77949 a 0.47366815,0.47366815 0 0 1 -0.44905,0.32399 h -3.10725 a 0.47366815,0.47366815 0 0 1 -0.44902,-0.32399 l -0.92651,-2.77949 a 0.4878782,0.4878782 0 0 0 -0.29842,-0.30314 9.425996,9.425996 0 0 1 -1.04301,-0.44999 0.4878782,0.4878782 0 0 0 -0.47177,0.0133 l -2.30866,1.38596 a 0.47366815,0.47366815 0 0 1 -0.57883,-0.0711 l -2.15708,-2.15709 a 0.47366815,0.47366815 0 0 1 -0.0711,-0.57788 l 1.38596,-2.3096 a 0.4878782,0.4878782 0 0 0 0.0133,-0.47178 9.4146278,9.4146278 0 0 1 -0.54282,-1.31017 0.4878782,0.4878782 0 0 0 -0.34295,-0.32304 l -2.6118,-0.65365 a 0.47366815,0.47366815 0 0 1 -0.35904,-0.45851 v -3.05043 a 0.47366815,0.47366815 0 0 1 0.35904,-0.45946 l 2.6118,-0.65272 a 0.4878782,0.4878782 0 0 0 0.34295,-0.32303 c 0.14871,-0.45283 0.33156,-0.8905 0.54282,-1.31017 a 0.4878782,0.4878782 0 0 0 -0.0133,-0.47177 l -1.38596,-2.30866 a 0.47366815,0.47366815 0 0 1 0.0711,-0.57882 l 2.15708,-2.15709 a 0.47366815,0.47366815 0 0 1 0.57787,-0.0711 l 2.30962,1.38595 c 0.14399,0.0862 0.3221,0.089 0.47177,0.0133 a 9.4146278,9.4146278 0 0 1 1.30922,-0.54282 0.4878782,0.4878782 0 0 0 0.32398,-0.34294 l 0.65367,-2.6118 z"
       id="path1-1-24-8-4"
       style="fill:none;stroke:#ffc463;stroke-width:1.05105;stroke-dasharray:none;stroke-opacity:1" /><circle
       cx="337.82715"
       cy="162.27921"
       r="4.7366815"
       stroke="#535358"
       stroke-linecap="round"
       stroke-linejoin="round"
       stroke-width="1.89468"
       id="circle1-5-8-2"
       style="fill:none;stroke:#ffc463;stroke-width:1.05105;stroke-dasharray:none;stroke-opacity:1" /><path
       stroke="#535358"
       stroke-linejoin="round"
       stroke-width="1.01105"
       d="m 259.24081,96.643789 a 0.25276577,0.25276577 0 0 1 0.24518,-0.1916 h 1.62783 a 0.25276577,0.25276577 0 0 1 0.24518,0.1916 l 0.34831,1.39373 a 0.26034873,0.26034873 0 0 0 0.17238,0.183022 c 0.19363,0.06377 0.38169,0.138515 0.56367,0.223937 a 0.26034873,0.26034873 0 0 0 0.22699,-9.02e-4 l 1.3988,-0.699143 a 0.25276577,0.25276577 0 0 1 0.29169,0.04709 l 1.17232,1.172323 a 0.25276577,0.25276577 0 0 1 0.0471,0.29169 l -0.69915,1.398804 a 0.26034873,0.26034873 0 0 0 -9e-4,0.22699 c 0.0641,0.13699 0.1228,0.27752 0.17492,0.4211 0.0268,0.0749 0.086,0.13397 0.16126,0.15924 l 1.48324,0.49442 a 0.25276577,0.25276577 0 0 1 0.17288,0.23961 v 1.65817 a 0.25276577,0.25276577 0 0 1 -0.17288,0.2396 l -1.48324,0.49441 a 0.26034873,0.26034873 0 0 0 -0.16176,0.15923 5.0234664,5.0234664 0 0 1 -0.17442,0.42113 0.26034873,0.26034873 0 0 0 9e-4,0.22699 l 0.69915,1.39889 a 0.25276577,0.25276577 0 0 1 -0.0471,0.29168 l -1.17232,1.17233 a 0.25276577,0.25276577 0 0 1 -0.29169,0.0469 l -1.3988,-0.69914 a 0.26034873,0.26034873 0 0 0 -0.22699,-9e-4 c -0.13699,0.0642 -0.27753,0.1228 -0.42109,0.17491 a 0.26034873,0.26034873 0 0 0 -0.15926,0.16128 l -0.4944,1.48321 a 0.25276577,0.25276577 0 0 1 -0.23963,0.17289 h -1.65814 a 0.25276577,0.25276577 0 0 1 -0.23963,-0.17289 l -0.4944,-1.48321 a 0.26034873,0.26034873 0 0 0 -0.15926,-0.16178 5.0300385,5.0300385 0 0 1 -0.55658,-0.24012 0.26034873,0.26034873 0 0 0 -0.25175,0.005 l -1.23197,0.73958 a 0.25276577,0.25276577 0 0 1 -0.30888,-0.0379 l -1.15111,-1.15111 a 0.25276577,0.25276577 0 0 1 -0.0379,-0.30835 l 0.73959,-1.2325 a 0.26034873,0.26034873 0 0 0 0.005,-0.25175 5.023972,5.023972 0 0 1 -0.28967,-0.69916 0.26034873,0.26034873 0 0 0 -0.18301,-0.17239 l -1.39375,-0.34881 a 0.25276577,0.25276577 0 0 1 -0.19159,-0.24467 v -1.62782 a 0.25276577,0.25276577 0 0 1 0.19159,-0.24517 l 1.39375,-0.34833 a 0.26034873,0.26034873 0 0 0 0.18301,-0.17237 c 0.0793,-0.24166 0.17693,-0.4752 0.28967,-0.69915 a 0.26034873,0.26034873 0 0 0 -0.005,-0.25175 l -0.73959,-1.231844 a 0.25276577,0.25276577 0 0 1 0.0379,-0.30888 l 1.15111,-1.151081 a 0.25276577,0.25276577 0 0 1 0.30836,-0.03789 l 1.23249,0.73959 c 0.0768,0.04591 0.17188,0.04745 0.25175,0.0063 a 5.023972,5.023972 0 0 1 0.69863,-0.289677 0.26034873,0.26034873 0 0 0 0.17291,-0.183004 l 0.34881,-1.393758 z"
       id="path1-1-1-5-2-3"
       style="fill:none;stroke:#ffc463;stroke-width:0.560864;stroke-dasharray:none;stroke-opacity:1" /><circle
       cx="260.29996"
       cy="103.0241"
       r="2.5276575"
       stroke="#535358"
       stroke-linecap="round"
       stroke-linejoin="round"
       stroke-width="1.01105"
       id="circle1-68-17-4-2"
       style="fill:none;stroke:#ffc463;stroke-width:0.560864;stroke-dasharray:none;stroke-opacity:1" /><path
       stroke="#535358"
       stroke-linejoin="round"
       stroke-width="1.01105"
       d="m 321.71784,111.3796 a 0.25276577,0.25276577 0 0 1 0.24518,-0.19162 h 1.62783 a 0.25276577,0.25276577 0 0 1 0.24518,0.19162 l 0.34829,1.39373 a 0.26034873,0.26034873 0 0 0 0.17238,0.183 c 0.19363,0.0638 0.38169,0.13853 0.56367,0.22395 a 0.26034873,0.26034873 0 0 0 0.227,-9e-4 l 1.3988,-0.69915 a 0.25276577,0.25276577 0 0 1 0.2917,0.0471 l 1.17233,1.17233 a 0.25276577,0.25276577 0 0 1 0.0471,0.29168 l -0.69916,1.39881 a 0.26034873,0.26034873 0 0 0 -9e-4,0.22699 c 0.0642,0.137 0.12278,0.27753 0.17491,0.42111 0.0268,0.0749 0.086,0.13397 0.16126,0.15924 l 1.48323,0.49441 a 0.25276577,0.25276577 0 0 1 0.17288,0.23961 v 1.65816 a 0.25276577,0.25276577 0 0 1 -0.17288,0.23961 l -1.48323,0.49442 a 0.26034873,0.26034873 0 0 0 -0.16177,0.15923 5.0234664,5.0234664 0 0 1 -0.1744,0.42112 0.26034873,0.26034873 0 0 0 9e-4,0.22698 l 0.69916,1.39891 a 0.25276577,0.25276577 0 0 1 -0.0471,0.29168 l -1.17233,1.17233 a 0.25276577,0.25276577 0 0 1 -0.2917,0.047 l -1.3988,-0.69915 a 0.26034873,0.26034873 0 0 0 -0.22698,-9e-4 c -0.13699,0.0641 -0.27753,0.12286 -0.4211,0.17491 a 0.26034873,0.26034873 0 0 0 -0.15926,0.16128 l -0.4944,1.48322 a 0.25276577,0.25276577 0 0 1 -0.23963,0.17288 h -1.65813 a 0.25276577,0.25276577 0 0 1 -0.23963,-0.17288 l -0.49442,-1.48322 a 0.26034873,0.26034873 0 0 0 -0.15924,-0.16179 5.0300385,5.0300385 0 0 1 -0.55659,-0.24012 0.26034873,0.26034873 0 0 0 -0.25174,0.006 l -1.23198,0.73959 a 0.25276577,0.25276577 0 0 1 -0.30889,-0.0379 l -1.1511,-1.15108 a 0.25276577,0.25276577 0 0 1 -0.0379,-0.30838 l 0.73958,-1.23249 a 0.26034873,0.26034873 0 0 0 0.005,-0.25174 5.023972,5.023972 0 0 1 -0.28967,-0.69916 0.26034873,0.26034873 0 0 0 -0.183,-0.1724 l -1.39314,-0.34885 a 0.25276577,0.25276577 0 0 1 -0.19159,-0.24467 v -1.62782 a 0.25276577,0.25276577 0 0 1 0.19159,-0.24516 l 1.39375,-0.34832 a 0.26034873,0.26034873 0 0 0 0.18301,-0.17239 c 0.0793,-0.24164 0.17694,-0.4752 0.28967,-0.69915 a 0.26034873,0.26034873 0 0 0 -0.005,-0.25174 l -0.7396,-1.232 a 0.25276577,0.25276577 0 0 1 0.0379,-0.30887 l 1.15109,-1.1511 a 0.25276577,0.25276577 0 0 1 0.30837,-0.0379 l 1.2325,0.73958 c 0.0769,0.046 0.17186,0.0474 0.25175,0.006 a 5.023972,5.023972 0 0 1 0.69865,-0.28967 0.26034873,0.26034873 0 0 0 0.17288,-0.18299 l 0.34882,-1.39376 z"
       id="path1-1-1-6-1-5-2"
       style="fill:#ffffff;fill-opacity:1;stroke:#ffc463;stroke-opacity:1" /><circle
       cx="322.77692"
       cy="117.75989"
       r="2.5276575"
       stroke="#535358"
       stroke-linecap="round"
       stroke-linejoin="round"
       stroke-width="1.01105"
       id="circle1-68-1-1-5-1"
       style="fill:#ffffff;fill-opacity:1;stroke:#ffc463;stroke-opacity:1" /><path
       stroke="#535358"
       stroke-linejoin="round"
       stroke-width="1.0412"
       d="m 365.58729,47.530089 a 0.26030455,0.26030455 0 0 1 0.2525,-0.19733 h 1.67637 a 0.26030455,0.26030455 0 0 1 0.25249,0.19733 l 0.35868,1.4353 a 0.26811367,0.26811367 0 0 0 0.17753,0.18846 c 0.1994,0.0657 0.39306,0.14266 0.58047,0.23063 a 0.26811367,0.26811367 0 0 0 0.23378,-9.3e-4 l 1.44051,-0.71999 a 0.26030455,0.26030455 0 0 1 0.30041,0.0485 l 1.20728,1.20729 a 0.26030455,0.26030455 0 0 1 0.0485,0.30038 l -0.72,1.44053 a 0.26811367,0.26811367 0 0 0 -9.3e-4,0.23375 c 0.0661,0.1411 0.12643,0.28581 0.18012,0.43367 0.0276,0.0771 0.0886,0.13797 0.16607,0.164 l 1.52746,0.50915 a 0.26030455,0.26030455 0 0 1 0.17805,0.24676 v 1.70762 a 0.26030455,0.26030455 0 0 1 -0.17805,0.24675 l -1.52746,0.50916 a 0.26811367,0.26811367 0 0 0 -0.1666,0.16399 5.1732921,5.1732921 0 0 1 -0.17959,0.43367 0.26811367,0.26811367 0 0 0 9.3e-4,0.23375 l 0.72,1.44064 a 0.26030455,0.26030455 0 0 1 -0.0485,0.30037 l -1.20728,1.2073 a 0.26030455,0.26030455 0 0 1 -0.30041,0.0484 l -1.44051,-0.72 a 0.26811367,0.26811367 0 0 0 -0.23376,-9.3e-4 c -0.14108,0.066 -0.2858,0.12652 -0.43366,0.18012 a 0.26811367,0.26811367 0 0 0 -0.164,0.1661 l -0.50914,1.52745 a 0.26030455,0.26030455 0 0 1 -0.24679,0.17804 h -1.70759 a 0.26030455,0.26030455 0 0 1 -0.24676,-0.17804 l -0.50917,-1.52745 a 0.26811367,0.26811367 0 0 0 -0.164,-0.16661 5.1800602,5.1800602 0 0 1 -0.57318,-0.24728 0.26811367,0.26811367 0 0 0 -0.25926,0.006 l -1.26872,0.76165 a 0.26030455,0.26030455 0 0 1 -0.3181,-0.039 l -1.18542,-1.18542 a 0.26030455,0.26030455 0 0 1 -0.039,-0.31757 l 0.76163,-1.26925 a 0.26811367,0.26811367 0 0 0 0.005,-0.25925 5.1738127,5.1738127 0 0 1 -0.29831,-0.72002 0.26811367,0.26811367 0 0 0 -0.18847,-0.17753 l -1.43469,-0.35926 a 0.26030455,0.26030455 0 0 1 -0.19729,-0.25197 v -1.67638 a 0.26030455,0.26030455 0 0 1 0.19729,-0.25247 l 1.43533,-0.35871 a 0.26811367,0.26811367 0 0 0 0.18846,-0.17753 c 0.0817,-0.24885 0.18222,-0.48937 0.29832,-0.72 a 0.26811367,0.26811367 0 0 0 -0.005,-0.25925 l -0.76166,-1.26875 a 0.26030455,0.26030455 0 0 1 0.039,-0.31808 l 1.18544,-1.18543 a 0.26030455,0.26030455 0 0 1 0.31755,-0.039 l 1.26927,0.76164 c 0.0792,0.0474 0.17699,0.0489 0.25925,0.007 a 5.1738127,5.1738127 0 0 1 0.71949,-0.2983 0.26811367,0.26811367 0 0 0 0.17803,-0.18846 l 0.35923,-1.43532 z"
       id="path1-1-1-6-1-5-8"
       style="fill:#ffffff;fill-opacity:1;stroke:#ffc463;stroke-opacity:0.36" /><circle
       cx="365.58466"
       cy="54.538002"
       r="2.6030452"
       stroke="#535358"
       stroke-linecap="round"
       stroke-linejoin="round"
       stroke-width="1.0412"
       id="circle1-68-1-1-5-9"
       style="fill:#ffffff;fill-opacity:1;stroke:#ffc463;stroke-opacity:0.36" /><path
       stroke="#535358"
       stroke-linejoin="round"
       stroke-width="1.01105"
       d="m 365.95849,48.476429 a 0.25276577,0.25276577 0 0 1 0.24518,-0.19162 h 1.62783 a 0.25276577,0.25276577 0 0 1 0.24518,0.19162 l 0.34829,1.39373 a 0.26034873,0.26034873 0 0 0 0.17238,0.183 c 0.19363,0.0638 0.38169,0.13853 0.56367,0.22395 a 0.26034873,0.26034873 0 0 0 0.227,-9e-4 l 1.3988,-0.69915 a 0.25276577,0.25276577 0 0 1 0.2917,0.0471 l 1.17233,1.17233 a 0.25276577,0.25276577 0 0 1 0.0471,0.29168 l -0.69916,1.39881 a 0.26034873,0.26034873 0 0 0 -9e-4,0.22699 c 0.0642,0.137 0.12278,0.27753 0.17491,0.42111 0.0268,0.0749 0.086,0.13397 0.16126,0.15924 l 1.48323,0.49441 a 0.25276577,0.25276577 0 0 1 0.17288,0.23961 v 1.65816 a 0.25276577,0.25276577 0 0 1 -0.17288,0.23961 l -1.48323,0.49442 a 0.26034873,0.26034873 0 0 0 -0.16177,0.15923 5.0234664,5.0234664 0 0 1 -0.1744,0.42112 0.26034873,0.26034873 0 0 0 9e-4,0.22698 l 0.69916,1.39891 a 0.25276577,0.25276577 0 0 1 -0.0471,0.29168 l -1.17233,1.17233 a 0.25276577,0.25276577 0 0 1 -0.2917,0.047 l -1.3988,-0.69915 a 0.26034873,0.26034873 0 0 0 -0.22698,-9e-4 c -0.13699,0.0641 -0.27753,0.12286 -0.4211,0.17491 a 0.26034873,0.26034873 0 0 0 -0.15926,0.16128 l -0.4944,1.48322 a 0.25276577,0.25276577 0 0 1 -0.23963,0.17288 h -1.65813 a 0.25276577,0.25276577 0 0 1 -0.23963,-0.17288 l -0.49442,-1.48322 a 0.26034873,0.26034873 0 0 0 -0.15924,-0.16179 5.0300385,5.0300385 0 0 1 -0.55659,-0.24012 0.26034873,0.26034873 0 0 0 -0.25174,0.006 l -1.23198,0.73959 a 0.25276577,0.25276577 0 0 1 -0.30889,-0.0379 l -1.1511,-1.15108 a 0.25276577,0.25276577 0 0 1 -0.0379,-0.30838 l 0.73958,-1.23249 a 0.26034873,0.26034873 0 0 0 0.005,-0.25174 5.023972,5.023972 0 0 1 -0.28967,-0.69916 0.26034873,0.26034873 0 0 0 -0.183,-0.1724 l -1.39314,-0.34885 a 0.25276577,0.25276577 0 0 1 -0.19159,-0.24467 v -1.62782 a 0.25276577,0.25276577 0 0 1 0.19159,-0.24516 l 1.39375,-0.34832 a 0.26034873,0.26034873 0 0 0 0.18301,-0.17239 c 0.0793,-0.24164 0.17694,-0.4752 0.28967,-0.69915 a 0.26034873,0.26034873 0 0 0 -0.005,-0.25174 l -0.7396,-1.232 a 0.25276577,0.25276577 0 0 1 0.0379,-0.30887 l 1.15109,-1.1511 a 0.25276577,0.25276577 0 0 1 0.30837,-0.0379 l 1.2325,0.73958 c 0.0769,0.046 0.17186,0.0474 0.25175,0.006 a 5.023972,5.023972 0 0 1 0.69865,-0.28967 0.26034873,0.26034873 0 0 0 0.17288,-0.18299 l 0.34882,-1.39376 z"
       id="path1-1-1-6-1-5-2-2"
       style="fill:#ffffff;fill-opacity:1;stroke:#ffc463;stroke-opacity:1" /><circle
       cx="367.01755"
       cy="54.85672"
       r="2.5276575"
       stroke="#535358"
       stroke-linecap="round"
       stroke-linejoin="round"
       stroke-width="1.01105"
       id="circle1-68-1-1-5-1-7"
       style="fill:#ffffff;fill-opacity:1;stroke:#ffc463;stroke-opacity:1" /><path
       stroke="#535358"
       stroke-linejoin="round"
       stroke-width="4.11203"
       d="m 265.63729,34.64277 a 1.0280074,1.0280074 0 0 1 0.99715,-0.779234 h 6.62039 a 1.0280074,1.0280074 0 0 1 0.99716,0.779234 l 1.41659,5.668437 a 1.0588476,1.0588476 0 0 0 0.7011,0.744271 c 0.78746,0.259071 1.55229,0.563352 2.29247,0.910813 a 1.0588476,1.0588476 0 0 0 0.92314,-0.0063 l 5.689,-2.84346 a 1.0280074,1.0280074 0 0 1 1.18632,0.191194 l 4.76787,4.767898 a 1.0280074,1.0280074 0 0 1 0.19127,1.186328 l -2.84347,5.688985 a 1.0588476,1.0588476 0 0 0 -0.005,0.923152 c 0.26119,0.557182 0.49962,1.128752 0.71138,1.71267 0.10902,0.30428 0.34955,0.544842 0.65589,0.647637 l 6.03234,2.01078 a 1.0280074,1.0280074 0 0 1 0.70313,0.97455 v 6.743734 A 1.0280074,1.0280074 0 0 1 295.97089,64.938 l -6.03234,2.01079 a 1.0588476,1.0588476 0 0 0 -0.65794,0.647646 20.430619,20.430619 0 0 1 -0.70933,1.712661 1.0588476,1.0588476 0 0 0 0.005,0.923152 l 2.84347,5.689391 a 1.0280074,1.0280074 0 0 1 -0.19127,1.186328 l -4.76787,4.767898 a 1.0280074,1.0280074 0 0 1 -1.18632,0.191171 l -5.689,-2.843442 a 1.0588476,1.0588476 0 0 0 -0.92314,-0.0045 c -0.5572,0.261091 -1.12877,0.499596 -1.71267,0.711356 a 1.0588476,1.0588476 0 0 0 -0.64766,0.655882 l -2.01074,6.032334 a 1.0280074,1.0280074 0 0 1 -0.97461,0.70317 h -6.74369 a 1.0280074,1.0280074 0 0 1 -0.97454,-0.70317 l -2.01081,-6.032334 a 1.0588476,1.0588476 0 0 0 -0.64764,-0.657938 20.457347,20.457347 0 0 1 -2.26367,-0.976589 1.0588476,1.0588476 0 0 0 -1.0239,0.02877 l -5.01049,3.007944 a 1.0280074,1.0280074 0 0 1 -1.25624,-0.154201 l -4.68155,-4.681547 a 1.0280074,1.0280074 0 0 1 -0.15415,-1.25417 l 3.00796,-5.012555 a 1.0588476,1.0588476 0 0 0 0.0289,-1.023899 20.432676,20.432676 0 0 1 -1.17808,-2.843478 1.0588476,1.0588476 0 0 0 -0.74429,-0.701092 l -5.66843,-1.418653 a 1.0280074,1.0280074 0 0 1 -0.77922,-0.995117 v -6.620381 a 1.0280074,1.0280074 0 0 1 0.77922,-0.997173 l 5.66843,-1.416598 a 1.0588476,1.0588476 0 0 0 0.74429,-0.701091 c 0.32278,-0.982776 0.71957,-1.932656 1.17808,-2.843478 a 1.0588476,1.0588476 0 0 0 -0.0289,-1.02389 l -3.00796,-5.010517 a 1.0280074,1.0280074 0 0 1 0.15415,-1.256217 l 4.68155,-4.681547 a 1.0280074,1.0280074 0 0 1 1.25416,-0.154201 l 5.01257,3.007944 c 0.31251,0.187117 0.69906,0.193286 1.0239,0.02877 a 20.432676,20.432676 0 0 1 2.84141,-1.178093 1.0588476,1.0588476 0 0 0 0.70315,-0.74428 l 1.41866,-5.668437 z"
       id="path1-1-7-5-1-6"
       style="fill:#ffffff;fill-opacity:0;stroke:#ffc463;stroke-width:2.28109;stroke-dasharray:none;stroke-opacity:1" /><circle
       cx="269.94464"
       cy="60.591721"
       r="10.280073"
       stroke="#535358"
       stroke-linecap="round"
       stroke-linejoin="round"
       stroke-width="4.11203"
       id="circle1-6-2-7-8"
       style="fill:#ffffff;fill-opacity:0;stroke:#ffc463;stroke-width:2.28109;stroke-dasharray:none;stroke-opacity:1" /><path
       stroke="#535358"
       stroke-linejoin="round"
       stroke-width="3.26174"
       d="m 221.50461,75.785391 a 0.81543541,0.81543541 0 0 1 0.79095,-0.618105 h 5.25142 a 0.81543541,0.81543541 0 0 1 0.79097,0.618105 l 1.12368,4.496307 a 0.83989848,0.83989848 0 0 0 0.55611,0.590376 c 0.62465,0.205599 1.23133,0.446865 1.81845,0.722488 a 0.83989848,0.83989848 0 0 0 0.73224,-0.0036 l 4.51262,-2.255501 a 0.81543541,0.81543541 0 0 1 0.94102,0.151712 l 3.78198,3.781974 a 0.81543541,0.81543541 0 0 1 0.15171,0.94104 l -2.2555,4.512597 a 0.83989848,0.83989848 0 0 0 -0.004,0.732265 c 0.20717,0.441967 0.3963,0.895361 0.56429,1.358507 0.0865,0.241383 0.27724,0.432215 0.52025,0.513732 l 4.78497,1.595 a 0.81543541,0.81543541 0 0 1 0.55773,0.773028 v 5.349263 a 0.81543541,0.81543541 0 0 1 -0.55773,0.773028 l -4.78497,1.595003 a 0.83989848,0.83989848 0 0 0 -0.5219,0.5137 16.205962,16.205962 0 0 1 -0.56264,1.35852 0.83989848,0.83989848 0 0 0 0.004,0.73227 l 2.2555,4.51293 a 0.81543541,0.81543541 0 0 1 -0.15171,0.94101 l -3.78198,3.78199 a 0.81543541,0.81543541 0 0 1 -0.94102,0.15171 l -4.51262,-2.25548 a 0.83989848,0.83989848 0 0 0 -0.73224,-0.004 c -0.44199,0.20718 -0.89536,0.39632 -1.35853,0.56429 a 0.83989848,0.83989848 0 0 0 -0.51373,0.52024 l -1.59498,4.78499 a 0.81543541,0.81543541 0 0 1 -0.77306,0.55774 h -5.34924 a 0.81543541,0.81543541 0 0 1 -0.77301,-0.55774 l -1.595,-4.78499 a 0.83989848,0.83989848 0 0 0 -0.51373,-0.52189 16.227163,16.227163 0 0 1 -1.79559,-0.77462 0.83989848,0.83989848 0 0 0 -0.81218,0.0228 l -3.97442,2.38595 a 0.81543541,0.81543541 0 0 1 -0.99647,-0.12229 l -3.71351,-3.71349 a 0.81543541,0.81543541 0 0 1 -0.1223,-0.99483 l 2.38598,-3.97605 a 0.83989848,0.83989848 0 0 0 0.0228,-0.81218 16.207594,16.207594 0 0 1 -0.93448,-2.25551 0.83989848,0.83989848 0 0 0 -0.59038,-0.5561 l -4.49631,-1.125304 a 0.81543541,0.81543541 0 0 1 -0.6181,-0.789355 v -5.25142 a 0.81543541,0.81543541 0 0 1 0.6181,-0.790943 l 4.49631,-1.123682 a 0.83989848,0.83989848 0 0 0 0.59038,-0.556109 c 0.25604,-0.779567 0.57079,-1.53303 0.93448,-2.2555 a 0.83989848,0.83989848 0 0 0 -0.0228,-0.812185 l -2.38598,-3.974448 a 0.81543541,0.81543541 0 0 1 0.1223,-0.996469 l 3.71351,-3.713483 a 0.81543541,0.81543541 0 0 1 0.99482,-0.122315 l 3.97607,2.385961 c 0.24788,0.148546 0.5545,0.15329 0.81218,0.02291 a 16.207594,16.207594 0 0 1 2.25386,-0.9345 0.83989848,0.83989848 0 0 0 0.55775,-0.590367 l 1.1253,-4.496298 z"
       id="path1-1-2-7-1-5"
       style="fill:none;stroke:#ffc463;stroke-width:1.8094;stroke-dasharray:none;stroke-opacity:1" /><circle
       cx="224.92126"
       cy="96.368614"
       r="8.154355"
       stroke="#535358"
       stroke-linecap="round"
       stroke-linejoin="round"
       stroke-width="3.26174"
       id="circle1-3-6-1-7"
       style="fill:none;stroke:#ffc463;stroke-width:1.8094;stroke-dasharray:none;stroke-opacity:1" /><path
       id="Path_94-1-5-6"
       data-name="Path 94"
       d="m 357.52948,64.615882 h -37.87801 a 4.3705399,4.3705399 0 0 0 -4.37054,4.37055 v 37.878008 a 4.3705399,4.3705399 0 0 0 4.37054,4.37053 h 37.87801 a 4.3705399,4.3705399 0 0 0 4.37053,-4.37053 V 68.986432 a 4.3705399,4.3705399 0 0 0 -4.37053,-4.37055 z m 0,43.705398 H 329.8494 v -1.45684 a 1.4568499,1.4568499 0 0 0 -2.91369,0 v 1.45684 h -2.9137 v -7.28425 a 1.4568546,1.4568546 0 0 0 -2.9137,0 v 7.28425 h -1.45684 a 1.4568467,1.4568467 0 0 1 -1.45684,-1.45684 V 68.986432 a 1.4568467,1.4568467 0 0 1 1.45684,-1.45684 h 13.11163 v 24.76637 a 1.4568467,1.4568467 0 0 0 1.45683,1.45684 h 4.63861 a 4.3705399,4.3705399 0 1 0 0,-2.91369 h -3.18175 v -23.30952 h 21.85269 a 1.4568467,1.4568467 0 0 1 1.45684,1.45684 v 1.45684 h -7.28422 a 1.4568468,1.4568468 0 0 0 0,2.91367 h 7.28422 v 2.9137 h -4.37053 a 1.4568504,1.4568504 0 0 0 0,2.9137 h 4.37053 v 2.91369 h -14.56845 v -3.18175 a 4.3705399,4.3705399 0 1 0 -2.91371,0 v 4.6386 a 1.4568467,1.4568467 0 0 0 1.45685,1.45686 h 16.02531 v 21.852698 a 1.4568467,1.4568467 0 0 1 -1.45684,1.45684 z M 341.50416,92.295962 a 1.4568467,1.4568467 0 1 1 1.45685,1.45684 1.4568467,1.4568467 0 0 1 -1.45685,-1.45684 z m 0,-17.48216 a 1.4568467,1.4568467 0 1 1 1.45685,1.45684 1.4568467,1.4568467 0 0 1 -1.45685,-1.45684 z m 10.19794,21.85269 a 4.3705399,4.3705399 0 0 0 -4.1025,2.9137 h -15.69024 l -4.97365,-4.97365 v -15.69026 a 4.3705399,4.3705399 0 1 0 -2.9137,0 v 16.29338 a 1.4568467,1.4568467 0 0 0 0.42539,1.03145 l 5.82739,5.827388 a 1.4568467,1.4568467 0 0 0 1.03146,0.42537 h 16.29335 a 4.3705399,4.3705399 0 1 0 4.1025,-5.827378 z m -26.22323,-23.30955 a 1.4568467,1.4568467 0 1 1 -1.45686,1.45686 1.4568467,1.4568467 0 0 1 1.45686,-1.45686 z m 26.22323,29.136928 a 1.4568467,1.4568467 0 1 1 1.45685,-1.45684 1.4568467,1.4568467 0 0 1 -1.45685,1.45684 z"
       style="fill:#ffffff;fill-opacity:0;stroke:#ffc463;stroke-width:1.09321;stroke-dasharray:none;stroke-opacity:1" /><g
       id="g2"><path
         d="m 356.10677,100.42803 a 1.4983807,1.6460987 0 0 0 -1.81543,-0.738125 1.318714,1.4487195 0 0 0 -0.75125,0.768455 c -0.0144,0.0376 -0.0228,0.0771 -0.0347,0.11555 -0.0163,0.029 -0.0359,0.0552 -0.0506,0.0856 a 1.4973754,1.6449943 0 0 0 2.33512,1.96534 1.6125949,1.7715727 0 0 0 0.31683,-2.1968 z m -0.94433,0.70344 c 0.003,0.0209 0.002,0.0402 0,0 z m -0.096,-0.23978 c -0.004,-0.005 -0.004,-0.005 0,0 z m -0.42309,0.18689 c -0.005,-0.01 -0.006,-0.0112 0,0 z m 0.10029,0.0934 c 0.0239,0.009 0.0145,0.007 0,0 z m 0.0447,0.0234 0.01,-0.005 a 0.01260445,0.01384705 0 0 1 -0.007,-0.002 l 2.4e-4,-5e-5 0.008,9.2e-4 0.002,-7.2e-4 -0.004,-9.2e-4 c 0.004,-1.6e-4 0.004,4.8e-4 0.004,9.2e-4 0.0448,-0.0225 0.0145,-0.0117 -0.0115,-0.003 l -0.002,-4.9e-4 a 0.17124955,0.1881322 0 0 0 -0.0517,-0.0182 c -0.002,-9.2e-4 -0.004,-0.002 -0.005,-0.003 -0.0145,-0.0113 -0.0874,-0.0739 -0.0197,-0.008 -0.0147,-0.0143 -0.0293,-0.0283 -0.0431,-0.0437 a 0.19677261,0.21617145 0 0 1 -0.0221,-0.0299 q -0.0133,-0.0251 -0.0259,-0.0506 l -9e-4,-0.009 c -9e-4,-0.007 -0.002,-0.0108 -0.003,-0.0153 4.8e-4,-0.005 9e-4,-0.01 0.002,-0.0148 a 0.16244277,0.1784572 0 0 0 0.01,-0.0463 l 0.003,-0.004 c 0.0109,-0.0166 0.0203,-0.0359 0.0306,-0.0532 -0.0546,0.0912 0.0214,-0.0101 0.0271,-0.0229 9e-4,-0.002 -7.1e-4,-9.2e-4 -2.4e-4,-0.003 0.002,-0.002 0.002,-4.9e-4 0.005,-0.002 0.0169,-0.0109 0.033,-0.0232 0.0502,-0.0336 0.0205,-0.0125 0.10116,-0.0377 0.0175,-0.0114 0.019,-0.006 0.0373,-0.0135 0.0564,-0.019 0.004,-9.2e-4 0.0316,-0.006 0.0468,-0.008 0.0133,-2.5e-4 0.0262,-7.3e-4 0.0276,-7.3e-4 0.006,9e-5 0.0125,7.3e-4 0.0188,9.1e-4 -0.0138,0.002 0.0476,0.0166 0.0659,0.0198 0.003,0.002 0.004,0.004 0.007,0.006 0.0154,0.0124 0.0342,0.0234 0.0506,0.035 -0.073,-0.0517 9e-4,0.004 0.0149,0.0194 0.008,0.009 0.016,0.0189 0.0239,0.0285 a 0.2033048,0.22334761 0 0 1 0.0194,0.0293 c 0.0119,0.0241 0.0246,0.0484 0.0372,0.0721 l 0.004,0.006 a 0.02081807,0.02287043 0 0 0 -1.2e-4,0.002 0.59622169,0.65500023 0 0 0 0.0288,0.11259 0.08373222,0.09198697 0 0 1 0.002,0.009 c 9e-4,0.021 0.003,0.042 0.003,0.0631 l -1.7e-4,0.005 a 0.41294323,0.45365327 0 0 0 -0.37656,-0.003 z"
         id="path71"
         inkscape:connector-curvature="0"
         style="mix-blend-mode:normal;fill:#00052b;fill-opacity:1;stroke:#ffc463;stroke-width:0.608542;stroke-dasharray:none;stroke-opacity:1" /><path
         d="m 365.5647,101.14254 -11.68628,0.71356 a 0.25766102,0.28306253 0 0 1 -0.0557,-0.56201 l 11.94458,-2.135265 z"
         id="path95"
         inkscape:connector-curvature="0"
         style="mix-blend-mode:normal;fill:#00052b;fill-opacity:1;stroke:#ffc463;stroke-width:0.608542;stroke-dasharray:none;stroke-opacity:1" /><path
         d="m 380.41623,129.72469 4.40379,-8.13932 3.25493,1.68886 c 0,0 -5.60862,7.6957 -5.78731,7.9171 a 1.7234034,1.8933053 0 1 1 -1.87141,-1.46664 z"
         id="path97"
         inkscape:connector-curvature="0"
         style="mix-blend-mode:normal;fill:#00052b;fill-opacity:1;stroke:#ffc463;stroke-width:0.608542;stroke-dasharray:none;stroke-opacity:1" /><path
         d="m 382.24808,110.8177 7.13479,4.0894 a 3.949929,4.3393332 0 0 1 0.66862,6.37229 l -4.91865,6.19854 -2.14278,-3.18986 1.65158,-3.79374 -3.19794,-0.92641 z"
         id="path99"
         inkscape:connector-curvature="0"
         style="mix-blend-mode:normal;fill:#00052b;fill-opacity:1;stroke:#ffc463;stroke-width:0.608542;stroke-dasharray:none;stroke-opacity:1" /><path
         d="m 361.91588,101.27552 -0.80362,9.42735 -3.59969,0.006 c 0,0 2.06525,-9.59379 2.14032,-9.87796 a 1.7234034,1.8933053 0 1 1 2.26299,0.44402 z"
         id="path101"
         inkscape:connector-curvature="0"
         style="mix-blend-mode:normal;fill:#00052b;fill-opacity:1;stroke:#ffc463;stroke-width:0.608542;stroke-dasharray:none;stroke-opacity:1" /><path
         d="m 369.08125,120.55422 -8.28513,-1.6692 c -3.48889,-0.46091 -4.92067,-2.9828 -4.29116,-5.44262 l 2.02592,-7.91623 3.18042,1.87319 -0.0122,4.20528 4.45191,-0.66866 z"
         id="path103"
         inkscape:connector-curvature="0"
         style="mix-blend-mode:normal;fill:#00052b;fill-opacity:1;stroke:#ffc463;stroke-width:0.608542;stroke-dasharray:none;stroke-opacity:1" /><polygon
         points="305.125,459.03 318.503,459.03 318.501,493.992 309.437,493.992 "
         id="polygon105"
         style="mix-blend-mode:normal;fill:#00052b;fill-opacity:1;stroke:#ffc463;stroke-width:2.31005;stroke-dasharray:none;stroke-opacity:1"
         transform="matrix(0.2513349,0,0,0.27611277,285.63938,49.306996)" /><path
         d="m 365.7701,188.31545 -7.00556,-2.4e-4 v -0.0973 a 2.7269108,2.9957437 0 0 1 2.72676,-2.99553 h 1.7e-4 l 1.27965,-1.06652 2.38756,1.06669 0.61153,2e-5 z"
         id="path107"
         inkscape:connector-curvature="0"
         style="mix-blend-mode:normal;fill:#00052b;fill-opacity:1;stroke:#ffc463;stroke-width:0.608542;stroke-dasharray:none;stroke-opacity:1" /><polygon
         points="396.012,459.03 382.634,459.03 382.636,493.992 391.7,493.992 "
         id="polygon109"
         style="mix-blend-mode:normal;fill:#00052b;fill-opacity:1;stroke:#ffc463;stroke-width:2.31005;stroke-dasharray:none;stroke-opacity:1"
         transform="matrix(0.2513349,0,0,0.27611277,285.63938,49.306996)" /><path
         d="m 381.7289,188.31545 7.00556,-2.4e-4 v -0.0973 a 2.7269082,2.9957405 0 0 0 -2.72676,-2.99553 h -1.7e-4 l -1.27965,-1.06652 -2.38756,1.06669 -0.61154,2e-5 z"
         id="path111"
         inkscape:connector-curvature="0"
         style="mix-blend-mode:normal;fill:#00052b;fill-opacity:1;stroke:#ffc463;stroke-width:0.608542;stroke-dasharray:none;stroke-opacity:1" /><path
         d="m 362.22772,168.95714 c 0.0336,-0.55083 0.30116,-3.5971 0.30116,-3.5971 l 0.64076,-6.46037 1.12935,-17.12497 1.00665,-4.50128 4.98291,2.13252 4.04323,-2.12939 4.80573,1.68769 3.74207,1.54162 c 0,0 0.006,0.65994 0.0352,1.45715 0.0385,1.04359 0.10573,2.32298 0.26592,2.65559 0.26751,0.58779 0.20024,3.74318 0.20024,3.74318 0,0 0.26591,6.41988 0.60072,7.12382 0.3348,0.70393 0.40206,2.16988 0.30115,2.46377 -0.1009,0.29389 0.33481,8.00374 0.33481,8.00374 0,0 1.1183,13.64356 0.41667,15.70082 -0.70164,2.05726 -3.35298,0.70966 -3.35298,0.70966 0,0 0.12815,-0.54907 -0.64077,-0.80777 -0.76891,-0.2587 -3.11091,-19.60459 -3.11091,-19.60459 0,0 -0.43572,-3.96668 -0.8362,-5.10353 -0.40048,-1.13685 -0.76891,-4.33096 -0.76891,-4.33096 0,0 -2.47335,-5.28655 -2.5054,-6.46213 0,0 -0.32359,-1.09989 -0.62955,0.11088 -0.30596,1.21077 -1.20783,4.11097 -1.20783,4.11097 l -0.87946,3.5619 -1.03484,5.32175 -0.6696,4.48055 c 0,0 -1.0028,5.94648 -1.16298,6.20342 -0.16019,0.25694 0,5.68956 0,5.68956 0,0 -0.77532,4.62661 -1.87104,5.43438 -1.09572,0.80777 -3.99868,0.0128 -3.99868,0.0128 0,0 -0.17109,-11.47289 -0.13745,-12.02371 z"
         id="path113"
         inkscape:connector-curvature="0"
         style="mix-blend-mode:normal;fill:#00052b;fill-opacity:1;stroke:#ffc463;stroke-width:0.608542;stroke-dasharray:none;stroke-opacity:1" /><path
         d="m 365.95271,122.78954 -0.6367,9.06149 -0.95661,1.08761 a 0.92251723,1.0134637 0 0 0 0.0484,1.45952 v 0 l -0.52704,0.99286 -0.18659,3.12839 a 1.5477806,1.7003687 0 0 0 1.43233,2.09565 l 16.49564,0.85138 a 1.5477781,1.7003659 0 0 0 1.60693,-1.9224 l -1.40266,-11.60056 v -0.8674 l -0.62795,-1.67515 0.32274,-5.61176 0.75072,-8.90705 -4.36379,-1.2383 -2.36602,-1.78836 -4.1105,0.0719 -2.49419,2.25037 -3.32556,0.57216 -2.515,0.5492 -0.32038,0.76491 0.64076,-0.15299 2.32249,9.95146 z"
         id="path115"
         inkscape:connector-curvature="0"
         style="mix-blend-mode:normal;fill:#00052b;fill-opacity:1;stroke:#ffc463;stroke-width:0.608542;stroke-dasharray:none;stroke-opacity:1" /><ellipse
         cx="373.3949"
         cy="101.32165"
         id="circle117"
         style="mix-blend-mode:normal;fill:#00052b;fill-opacity:1;stroke:#ffc463;stroke-width:0.608542;stroke-dasharray:none;stroke-opacity:1"
         rx="4.842205"
         ry="5.3195744" /><path
         d="m 372.22744,106.29805 3.4985,-0.19603 c 0.44827,-0.0251 0.93753,-0.0687 1.26359,-0.40751 a 1.9142797,2.1029991 0 0 0 0.39657,-0.72374 c 0.32344,-0.82535 0.64688,-1.65071 0.96205,-2.47991 0.43596,-1.14695 0.86411,-2.35798 0.75283,-3.594885 a 2.0823875,2.2876799 0 0 0 -0.6053,-1.499539 1.1559973,1.2699613 0 0 0 -1.40499,-0.1564 2.3757105,2.60992 0 0 0 -1.17927,-1.88102 3.6408876,3.9998248 0 0 0 -2.07658,-0.48368 5.0118139,5.5059041 0 0 0 -2.85423,1.23584 6.1953703,6.806141 0 0 1 -0.72814,0.63389 1.143046,1.2557333 0 0 1 -0.88868,0.18064 0.64314841,0.70655324 0 0 1 -0.47213,-0.77013 1.2374298,1.3594219 0 0 0 -0.31651,1.79467 1.1418748,1.2544465 0 0 1 -1.11599,-0.14504 1.3643615,1.4988671 0 1 0 1.43081,2.537004 c 0.21232,0.32672 0.13325,0.77072 0.10559,1.17102 -0.0277,0.40029 0.0701,0.89778 0.42132,1.00841 0.47489,0.14957 0.85954,-0.55289 1.35352,-0.54541 a 0.74283286,0.81606508 0 0 1 0.58907,0.41704 2.192721,2.4088906 0 0 1 0.23581,0.7563 l 0.6322,3.1267"
         id="path119"
         inkscape:connector-curvature="0"
         style="mix-blend-mode:normal;fill:#00052b;fill-opacity:1;stroke:#ffc463;stroke-width:0.608542;stroke-dasharray:none;stroke-opacity:1" /><path
         d="m 355.98672,100.58668 a 1.4983807,1.6460987 0 0 0 -1.81542,-0.738135 1.318714,1.4487195 0 0 0 -0.75126,0.768455 c -0.0144,0.0376 -0.0228,0.0771 -0.0347,0.11556 -0.0163,0.029 -0.0359,0.0552 -0.0506,0.0855 a 1.4973754,1.6449943 0 0 0 2.33511,1.96535 1.6125949,1.7715727 0 0 0 0.31683,-2.19681 z m -0.94433,0.70343 c 0.003,0.0209 0.002,0.0402 0,0 z m -0.096,-0.23978 c -0.004,-0.005 -0.004,-0.005 0,0 z m -0.42309,0.1869 c -0.005,-0.01 -0.006,-0.0112 0,0 z m 0.10029,0.0934 c 0.0239,0.009 0.0145,0.007 0,0 z m 0.0447,0.0234 0.01,-0.005 a 0.01260445,0.01384705 0 0 1 -0.007,-0.002 l 2.4e-4,-4e-5 0.008,9.1e-4 0.002,-7.2e-4 -0.005,-9.2e-4 c 0.004,-1.6e-4 0.005,4.9e-4 0.005,9.2e-4 0.0448,-0.0225 0.0145,-0.0117 -0.0115,-0.003 l -0.002,-4.9e-4 a 0.17124955,0.1881322 0 0 0 -0.0517,-0.0182 c -0.002,-9.2e-4 -0.004,-0.002 -0.005,-0.003 -0.0145,-0.0113 -0.0874,-0.0739 -0.0197,-0.008 -0.0147,-0.0143 -0.0293,-0.0283 -0.0431,-0.0437 a 0.19677261,0.21617145 0 0 1 -0.0221,-0.0299 q -0.0133,-0.0251 -0.0259,-0.0506 l -9e-4,-0.009 c -9e-4,-0.007 -0.002,-0.0108 -0.003,-0.0153 4.7e-4,-0.005 8.9e-4,-0.01 0.002,-0.0148 a 0.16244277,0.1784572 0 0 0 0.01,-0.0463 l 0.003,-0.004 c 0.0109,-0.0166 0.0203,-0.0359 0.0306,-0.0532 -0.0546,0.0912 0.0214,-0.0101 0.0271,-0.0229 9e-4,-0.002 -7.1e-4,-9.2e-4 -2.3e-4,-0.003 0.002,-0.002 0.002,-4.9e-4 0.004,-0.002 0.0169,-0.0109 0.033,-0.0232 0.0502,-0.0336 0.0205,-0.0125 0.10116,-0.0377 0.0175,-0.0114 0.019,-0.006 0.0373,-0.0135 0.0564,-0.019 0.004,-9.2e-4 0.0316,-0.006 0.0468,-0.008 0.0133,-2.4e-4 0.0262,-7.3e-4 0.0276,-7.3e-4 0.006,9e-5 0.0125,7.3e-4 0.0188,9.2e-4 -0.0138,0.002 0.0476,0.0166 0.066,0.0198 0.003,0.002 0.004,0.004 0.007,0.006 0.0154,0.0124 0.0342,0.0234 0.0506,0.035 -0.073,-0.0517 9e-4,0.004 0.0149,0.0194 0.008,0.009 0.016,0.0189 0.0239,0.0285 a 0.2033048,0.22334761 0 0 1 0.0194,0.0293 c 0.012,0.0241 0.0246,0.0484 0.0372,0.0721 l 0.004,0.006 a 0.02081807,0.02287043 0 0 0 -1.2e-4,0.002 0.59622169,0.65500023 0 0 0 0.0288,0.1126 0.08373222,0.09198697 0 0 1 0.002,0.009 c 9e-4,0.021 0.003,0.042 0.003,0.0631 l -1.7e-4,0.005 a 0.41294323,0.45365327 0 0 0 -0.37656,-0.003 z"
         id="path71-5"
         inkscape:connector-curvature="0"
         style="fill:#00052b;fill-opacity:1;stroke:#ffc463;stroke-width:0.608542;stroke-dasharray:none;stroke-opacity:1" /><path
         d="m 365.44465,101.30119 -11.68628,0.71356 a 0.25766102,0.28306253 0 0 1 -0.0557,-0.56202 l 11.94458,-2.135265 z"
         id="path95-4"
         inkscape:connector-curvature="0"
         style="fill:#00052b;fill-opacity:1;stroke:#ffc463;stroke-width:0.608542;stroke-dasharray:none;stroke-opacity:1" /><path
         d="m 380.29619,129.88333 4.40378,-8.13931 3.25493,1.68885 c 0,0 -5.60862,7.6957 -5.78731,7.91711 a 1.7234034,1.8933053 0 1 1 -1.8714,-1.46665 z"
         id="path97-3"
         inkscape:connector-curvature="0"
         style="fill:#00052b;fill-opacity:1;stroke:#ffc463;stroke-width:0.608542;stroke-dasharray:none;stroke-opacity:1" /><path
         d="m 382.12803,110.97635 7.13479,4.08939 a 3.949929,4.3393332 0 0 1 0.66862,6.3723 l -4.91865,6.19853 -2.14277,-3.18986 1.65157,-3.79374 -3.19794,-0.92641 z"
         id="path99-1"
         inkscape:connector-curvature="0"
         style="fill:#00052b;fill-opacity:1;stroke:#ffc463;stroke-width:0.608542;stroke-dasharray:none;stroke-opacity:1" /><path
         d="m 361.79583,101.43416 -0.80361,9.42735 -3.5997,0.006 c 0,0 2.06525,-9.59379 2.14033,-9.87795 a 1.7234034,1.8933053 0 1 1 2.26298,0.44401 z"
         id="path101-4"
         inkscape:connector-curvature="0"
         style="fill:#00052b;fill-opacity:1;stroke:#ffc463;stroke-width:0.608542;stroke-dasharray:none;stroke-opacity:1" /><path
         d="m 368.9612,120.71287 -8.28513,-1.66921 c -3.48888,-0.46091 -4.92067,-2.9828 -4.29115,-5.44262 l 2.02591,-7.91623 3.18042,1.87319 -0.0122,4.20528 4.45191,-0.66865 z"
         id="path103-9"
         inkscape:connector-curvature="0"
         style="fill:#00052b;fill-opacity:1;stroke:#ffc463;stroke-width:0.608542;stroke-dasharray:none;stroke-opacity:1" /><polygon
         points="318.503,459.03 318.501,493.992 309.437,493.992 305.125,459.03 "
         id="polygon105-2"
         style="fill:#00052b;fill-opacity:1;stroke:#ffc463;stroke-width:2.31005;stroke-dasharray:none;stroke-opacity:1"
         transform="matrix(0.2513349,0,0,0.27611277,285.51932,49.465646)" /><path
         d="m 365.65005,188.47409 -7.00556,-2.4e-4 v -0.0973 a 2.7269108,2.9957437 0 0 1 2.72676,-2.99553 h 1.7e-4 l 1.27965,-1.06651 2.38756,1.06668 0.61154,2e-5 z"
         id="path107-0"
         inkscape:connector-curvature="0"
         style="fill:#00052b;fill-opacity:1;stroke:#ffc463;stroke-width:0.608542;stroke-dasharray:none;stroke-opacity:1" /><polygon
         points="382.634,459.03 382.636,493.992 391.7,493.992 396.012,459.03 "
         id="polygon109-6"
         style="fill:#00052b;fill-opacity:1;stroke:#ffc463;stroke-width:2.31005;stroke-dasharray:none;stroke-opacity:1"
         transform="matrix(0.2513349,0,0,0.27611277,285.51932,49.465646)" /><path
         d="m 381.60885,188.47409 7.00556,-2.4e-4 v -0.0973 a 2.7269082,2.9957405 0 0 0 -2.72676,-2.99553 h -1.7e-4 l -1.27965,-1.06651 -2.38755,1.06668 -0.61155,2e-5 z"
         id="path111-8"
         inkscape:connector-curvature="0"
         style="fill:#00052b;fill-opacity:1;stroke:#ffc463;stroke-width:0.608542;stroke-dasharray:none;stroke-opacity:1" /><path
         d="m 362.10767,169.11578 c 0.0336,-0.55083 0.30116,-3.5971 0.30116,-3.5971 l 0.64077,-6.46037 1.12935,-17.12497 1.00664,-4.50129 4.98291,2.13254 4.04323,-2.1294 4.80573,1.68769 3.74207,1.54162 c 0,0 0.006,0.65994 0.0352,1.45715 0.0385,1.04359 0.10573,2.32299 0.26592,2.6556 0.26752,0.58779 0.20024,3.74317 0.20024,3.74317 0,0 0.26591,6.41989 0.60072,7.12382 0.3348,0.70394 0.40206,2.16989 0.30116,2.46378 -0.10091,0.29388 0.3348,8.00374 0.3348,8.00374 0,0 1.1183,13.64355 0.41667,15.70081 -0.70164,2.05726 -3.35298,0.70967 -3.35298,0.70967 0,0 0.12815,-0.54908 -0.64076,-0.80778 -0.76892,-0.2587 -3.11092,-19.60459 -3.11092,-19.60459 0,0 -0.43572,-3.96668 -0.8362,-5.10352 -0.40048,-1.13685 -0.76891,-4.33096 -0.76891,-4.33096 0,0 -2.47335,-5.28656 -2.50539,-6.46213 0,0 -0.3236,-1.0999 -0.62955,0.11087 -0.30597,1.21077 -1.20784,4.11098 -1.20784,4.11098 l -0.87946,3.5619 -1.03484,5.32174 -0.6696,4.48056 c 0,0 -1.00279,5.94647 -1.16298,6.20342 -0.16019,0.25694 0,5.68956 0,5.68956 0,0 -0.77532,4.6266 -1.87104,5.43437 -1.09571,0.80778 -3.99867,0.0129 -3.99867,0.0129 0,0 -0.1711,-11.47288 -0.13746,-12.0237 z"
         id="path113-9"
         inkscape:connector-curvature="0"
         style="fill:#00052b;fill-opacity:1;stroke:#ffc463;stroke-width:0.608542;stroke-dasharray:none;stroke-opacity:1" /><path
         d="m 365.83266,122.94818 -0.6367,9.06149 -0.95661,1.0876 a 0.92251723,1.0134637 0 0 0 0.0484,1.45954 v 0 l -0.52704,0.99285 -0.18659,3.1284 a 1.5477806,1.7003687 0 0 0 1.43233,2.09564 l 16.49564,0.85138 a 1.5477781,1.7003659 0 0 0 1.60694,-1.92239 l -1.40267,-11.60056 v -0.86741 l -0.62795,-1.67515 0.32274,-5.61175 0.75072,-8.90705 -4.36379,-1.23831 -2.36602,-1.78836 -4.1105,0.0719 -2.49418,2.25037 -3.32557,0.57216 -2.515,0.5492 -0.32038,0.76491 0.64077,-0.15299 2.32248,9.95146 z"
         id="path115-2"
         inkscape:connector-curvature="0"
         style="fill:#00052b;fill-opacity:1;stroke:#ffc463;stroke-width:0.608542;stroke-dasharray:none;stroke-opacity:1" /><ellipse
         cx="373.27481"
         cy="101.48031"
         id="circle117-6"
         style="fill:#00052b;fill-opacity:1;stroke:#ffc463;stroke-width:0.608542;stroke-dasharray:none;stroke-opacity:1"
         rx="4.842205"
         ry="5.3195744" /><path
         d="m 372.10739,106.4567 3.4985,-0.19604 c 0.44828,-0.0251 0.93753,-0.0686 1.26359,-0.40751 a 1.9142797,2.1029991 0 0 0 0.39658,-0.72374 c 0.32343,-0.82534 0.64687,-1.65071 0.96204,-2.4799 0.43596,-1.14696 0.86411,-2.35799 0.75284,-3.594885 a 2.0823875,2.2876799 0 0 0 -0.60531,-1.499549 1.1559973,1.2699613 0 0 0 -1.40499,-0.1564 2.3757105,2.60992 0 0 0 -1.17926,-1.88102 3.6408876,3.9998248 0 0 0 -2.07659,-0.48367 5.0118139,5.5059041 0 0 0 -2.85423,1.23584 6.1953703,6.806141 0 0 1 -0.72814,0.63388 1.143046,1.2557333 0 0 1 -0.88868,0.18065 0.64314841,0.70655324 0 0 1 -0.47212,-0.77014 1.2374298,1.3594219 0 0 0 -0.31652,1.79468 1.1418748,1.2544465 0 0 1 -1.11599,-0.14504 1.3643615,1.4988671 0 1 0 1.43081,2.537004 c 0.21233,0.32672 0.13325,0.77072 0.10559,1.17101 -0.0277,0.40029 0.0701,0.89778 0.42133,1.00841 0.47488,0.14958 0.85953,-0.55289 1.35351,-0.5454 a 0.74283286,0.81606508 0 0 1 0.58908,0.41703 2.192721,2.4088906 0 0 1 0.2358,0.75631 l 0.6322,3.1267"
         id="path119-6"
         inkscape:connector-curvature="0"
         style="fill:#00052b;fill-opacity:1;stroke:#ffc463;stroke-width:0.608542;stroke-dasharray:none;stroke-opacity:1" /><path
         d="m 356.02161,100.54253 a 1.4983807,1.6460987 0 0 0 -1.81543,-0.738125 1.318714,1.4487195 0 0 0 -0.75126,0.768455 c -0.0144,0.0376 -0.0228,0.0771 -0.0347,0.11555 -0.0164,0.029 -0.0359,0.0552 -0.0506,0.0856 a 1.4973754,1.6449943 0 0 0 2.33511,1.96536 1.6125949,1.7715727 0 0 0 0.31684,-2.19681 z m -0.94433,0.70344 c 0.003,0.0209 0.002,0.0402 0,0 z m -0.096,-0.23978 c -0.004,-0.005 -0.004,-0.005 0,0 z m -0.42309,0.18689 c -0.005,-0.01 -0.006,-0.0112 0,0 z m 0.10029,0.0934 c 0.0239,0.009 0.0145,0.007 0,0 z m 0.0448,0.0234 0.01,-0.005 a 0.01260445,0.01384705 0 0 1 -0.007,-0.002 l 2.5e-4,-5e-5 0.008,9.2e-4 0.002,-7.3e-4 -0.004,-9.2e-4 c 0.004,-1.5e-4 0.004,4.9e-4 0.004,9.2e-4 0.0448,-0.0225 0.0145,-0.0117 -0.0115,-0.003 l -0.002,-4.8e-4 a 0.17124955,0.1881322 0 0 0 -0.0517,-0.0182 c -0.002,-9.2e-4 -0.004,-0.002 -0.005,-0.003 -0.0145,-0.0113 -0.0874,-0.0739 -0.0197,-0.008 -0.0147,-0.0143 -0.0293,-0.0283 -0.0431,-0.0437 a 0.19677261,0.21617145 0 0 1 -0.0221,-0.0299 q -0.0133,-0.0251 -0.0259,-0.0506 l -9e-4,-0.009 c -8.9e-4,-0.007 -0.002,-0.0108 -0.003,-0.0153 4.8e-4,-0.005 9e-4,-0.01 0.002,-0.0148 a 0.16244277,0.1784572 0 0 0 0.01,-0.0463 l 0.003,-0.004 c 0.0109,-0.0166 0.0203,-0.0359 0.0306,-0.0532 -0.0546,0.0912 0.0214,-0.0101 0.027,-0.0229 9e-4,-0.002 -7.1e-4,-9.2e-4 -2.3e-4,-0.003 0.002,-0.002 0.002,-4.8e-4 0.004,-0.002 0.0169,-0.0109 0.033,-0.0232 0.0502,-0.0336 0.0205,-0.0125 0.10116,-0.0377 0.0175,-0.0114 0.019,-0.005 0.0373,-0.0135 0.0564,-0.019 0.004,-9.2e-4 0.0316,-0.005 0.0468,-0.008 0.0133,-2.5e-4 0.0262,-7.3e-4 0.0276,-7.3e-4 0.006,9e-5 0.0125,7.3e-4 0.0188,9.2e-4 -0.0138,0.002 0.0476,0.0166 0.066,0.0198 0.003,0.002 0.004,0.004 0.007,0.006 0.0155,0.0124 0.0342,0.0234 0.0506,0.035 -0.073,-0.0517 9e-4,0.004 0.0149,0.0194 0.008,0.009 0.016,0.0189 0.0239,0.0285 a 0.2033048,0.22334761 0 0 1 0.0194,0.0293 c 0.0119,0.0241 0.0246,0.0484 0.0372,0.0721 l 0.004,0.006 a 0.02081807,0.02287043 0 0 0 -1.2e-4,0.002 0.59622169,0.65500023 0 0 0 0.0289,0.11259 0.08373222,0.09198697 0 0 1 0.002,0.009 c 8.9e-4,0.0211 0.003,0.042 0.003,0.0631 l -1.7e-4,0.005 a 0.41294323,0.45365327 0 0 0 -0.37655,-0.003 z"
         id="path71-5-5"
         inkscape:connector-curvature="0"
         style="fill:#00052b;fill-opacity:1;stroke:#ffc463;stroke-width:0.608542;stroke-dasharray:none;stroke-opacity:1" /><path
         d="m 365.47953,101.25704 -11.68628,0.71356 a 0.25766102,0.28306253 0 0 1 -0.0557,-0.56201 l 11.94458,-2.135275 z"
         id="path95-4-8"
         inkscape:connector-curvature="0"
         style="fill:#00052b;fill-opacity:1;stroke:#ffc463;stroke-width:0.608542;stroke-dasharray:none;stroke-opacity:1" /><path
         d="m 380.33107,129.8392 4.40379,-8.13931 3.25493,1.68885 c 0,0 -5.60863,7.6957 -5.78731,7.91711 a 1.7234034,1.8933053 0 1 1 -1.87141,-1.46665 z"
         id="path97-3-1"
         inkscape:connector-curvature="0"
         style="fill:#00052b;fill-opacity:1;stroke:#ffc463;stroke-width:0.608542;stroke-dasharray:none;stroke-opacity:1" /><path
         d="m 382.16291,110.93222 7.1348,4.08939 a 3.949929,4.3393332 0 0 1 0.66861,6.3723 l -4.91864,6.19853 -2.14278,-3.18985 1.65158,-3.79375 -3.19795,-0.9264 z"
         id="path99-1-2"
         inkscape:connector-curvature="0"
         style="fill:#00052b;fill-opacity:1;stroke:#ffc463;stroke-width:0.608542;stroke-dasharray:none;stroke-opacity:1" /><path
         d="m 361.83072,101.39002 -0.80362,9.42736 -3.5997,0.006 c 0,0 2.06526,-9.59381 2.14033,-9.87797 a 1.7234034,1.8933053 0 1 1 2.26299,0.44402 z"
         id="path101-4-8"
         inkscape:connector-curvature="0"
         style="fill:#00052b;fill-opacity:1;stroke:#ffc463;stroke-width:0.608542;stroke-dasharray:none;stroke-opacity:1" /><path
         d="m 368.99608,120.66874 -8.28513,-1.66921 c -3.48888,-0.46091 -4.92067,-2.9828 -4.29115,-5.44261 l 2.02591,-7.91626 3.18042,1.87319 -0.0122,4.2053 4.45192,-0.66865 z"
         id="path103-9-9"
         inkscape:connector-curvature="0"
         style="fill:#00052b;fill-opacity:1;stroke:#ffc463;stroke-width:0.608542;stroke-dasharray:none;stroke-opacity:1" /><polygon
         points="305.125,459.03 318.503,459.03 318.501,493.992 309.437,493.992 "
         id="polygon105-2-3"
         style="fill:#00052b;fill-opacity:1;stroke:#ffc463;stroke-width:2.31005;stroke-dasharray:none;stroke-opacity:1"
         transform="matrix(0.2513349,0,0,0.27611277,285.55421,49.421496)" /><path
         d="m 365.68493,188.42996 -7.00556,-2.4e-4 v -0.0973 a 2.7269108,2.9957437 0 0 1 2.72676,-2.99553 h 1.7e-4 l 1.27965,-1.06652 2.38757,1.06668 0.61153,2e-5 z"
         id="path107-0-6"
         inkscape:connector-curvature="0"
         style="fill:#00052b;fill-opacity:1;stroke:#ffc463;stroke-width:0.608542;stroke-dasharray:none;stroke-opacity:1" /><polygon
         points="396.012,459.03 382.634,459.03 382.636,493.992 391.7,493.992 "
         id="polygon109-6-8"
         style="fill:#00052b;fill-opacity:1;stroke:#ffc463;stroke-width:2.31005;stroke-dasharray:none;stroke-opacity:1"
         transform="matrix(0.2513349,0,0,0.27611277,285.55421,49.421496)" /><path
         d="m 381.64373,188.42996 7.00556,-2.4e-4 v -0.0973 a 2.7269082,2.9957405 0 0 0 -2.72676,-2.99553 h -1.7e-4 l -1.27965,-1.06652 -2.38755,1.06668 -0.61154,2e-5 z"
         id="path111-8-0"
         inkscape:connector-curvature="0"
         style="fill:#00052b;fill-opacity:1;stroke:#ffc463;stroke-width:0.608542;stroke-dasharray:none;stroke-opacity:1" /><path
         d="m 362.14256,169.07165 c 0.0336,-0.55083 0.30115,-3.5971 0.30115,-3.5971 l 0.64077,-6.46037 1.12935,-17.12497 1.00664,-4.50129 4.98291,2.13254 4.04323,-2.1294 4.80574,1.68769 3.74206,1.54162 c 0,0 0.006,0.65994 0.0352,1.45715 0.0385,1.04359 0.10572,2.32299 0.26591,2.6556 0.26752,0.58779 0.20025,3.74317 0.20025,3.74317 0,0 0.2659,6.41989 0.60071,7.12382 0.3348,0.70394 0.40207,2.16989 0.30116,2.46378 -0.10091,0.29388 0.33481,8.00373 0.33481,8.00373 0,0 1.11829,13.64356 0.41666,15.70082 -0.70164,2.05726 -3.35298,0.70967 -3.35298,0.70967 0,0 0.12815,-0.54908 -0.64076,-0.80778 -0.76892,-0.2587 -3.11092,-19.60459 -3.11092,-19.60459 0,0 -0.43572,-3.96668 -0.8362,-5.10352 -0.40047,-1.13685 -0.7689,-4.33096 -0.7689,-4.33096 0,0 -2.47336,-5.28656 -2.5054,-6.46213 0,0 -0.3236,-1.0999 -0.62955,0.11087 -0.30597,1.21077 -1.20784,4.11098 -1.20784,4.11098 l -0.87945,3.56189 -1.03484,5.32175 -0.6696,4.48056 c 0,0 -1.0028,5.94647 -1.16299,6.20342 -0.16019,0.25694 0,5.68956 0,5.68956 0,0 -0.77532,4.6266 -1.87103,5.43437 -1.09572,0.80778 -3.99868,0.0129 -3.99868,0.0129 0,0 -0.17109,-11.47289 -0.13745,-12.02371 z"
         id="path113-9-2"
         inkscape:connector-curvature="0"
         style="fill:#00052b;fill-opacity:1;stroke:#ffc463;stroke-width:0.608542;stroke-dasharray:none;stroke-opacity:1" /><path
         d="m 365.86754,122.90405 -0.6367,9.06149 -0.9566,1.0876 a 0.92251723,1.0134637 0 0 0 0.0483,1.45954 v 0 l -0.52703,0.99285 -0.1866,3.1284 a 1.5477806,1.7003687 0 0 0 1.43233,2.09564 l 16.49564,0.85138 a 1.5477781,1.7003659 0 0 0 1.60694,-1.92239 L 381.74116,128.058 v -0.8674 l -0.62795,-1.67516 0.32274,-5.61175 0.75072,-8.90705 -4.3638,-1.2383 -2.36602,-1.78838 -4.1105,0.0719 -2.49418,2.25038 -3.32557,0.57216 -2.515,0.5492 -0.32038,0.76492 0.64077,-0.15299 2.32249,9.95145 z"
         id="path115-2-1"
         inkscape:connector-curvature="0"
         style="fill:#00052b;fill-opacity:1;stroke:#ffc463;stroke-width:0.608542;stroke-dasharray:none;stroke-opacity:1" /><ellipse
         cx="373.30969"
         cy="101.43609"
         id="circle117-6-0"
         style="fill:#00052b;fill-opacity:1;stroke:#ffc463;stroke-width:0.608542;stroke-dasharray:none;stroke-opacity:1"
         rx="4.842205"
         ry="5.3195744" /><path
         d="m 372.14227,106.41256 3.4985,-0.19604 c 0.44828,-0.0251 0.93754,-0.0687 1.26359,-0.40751 a 1.9142797,2.1029991 0 0 0 0.39658,-0.72373 c 0.32343,-0.82535 0.64687,-1.65071 0.96205,-2.47992 0.43596,-1.14695 0.86411,-2.35798 0.75283,-3.594895 a 2.0823875,2.2876799 0 0 0 -0.60531,-1.499539 1.1559973,1.2699613 0 0 0 -1.40499,-0.1564 2.3757105,2.60992 0 0 0 -1.17926,-1.88102 3.6408876,3.9998248 0 0 0 -2.07658,-0.48367 5.0118139,5.5059041 0 0 0 -2.85423,1.23584 6.1953703,6.806141 0 0 1 -0.72814,0.63388 1.143046,1.2557333 0 0 1 -0.88869,0.18065 0.64314841,0.70655324 0 0 1 -0.47212,-0.77014 1.2374298,1.3594219 0 0 0 -0.31651,1.79468 1.1418748,1.2544465 0 0 1 -1.11599,-0.14504 1.3643615,1.4988671 0 1 0 1.4308,2.537004 c 0.21233,0.32672 0.13326,0.77072 0.10559,1.17102 -0.0277,0.40029 0.0701,0.89778 0.42133,1.00841 0.47488,0.14957 0.85953,-0.55289 1.35351,-0.54541 a 0.74283286,0.81606508 0 0 1 0.58908,0.41704 2.192721,2.4088906 0 0 1 0.23581,0.75631 l 0.6322,3.1267"
         id="path119-6-5"
         inkscape:connector-curvature="0"
         style="fill:#00052b;fill-opacity:1;stroke:#ffc463;stroke-width:0.608542;stroke-dasharray:none;stroke-opacity:1" /></g><g
       id="g3"
       transform="translate(131.21173)"><path
         d="m 158.74849,141.27892 a 1.6704145,1.8350924 0 0 0 -0.2323,-2.80232 l 2.65963,-14.51255 -2.93706,1.03597 -2.1289,14.03727 a 1.6794826,1.8450546 0 0 0 2.63862,2.24163 z"
         id="path267"
         inkscape:connector-curvature="0"
         style="mix-blend-mode:normal;fill:#00052b;fill-opacity:1;stroke:#ffc463;stroke-width:0.608542;stroke-dasharray:none;stroke-opacity:1" /><path
         d="m 162.67558,110.57417 -1.82231,-1.51119 c 0,0 -1.60756,-0.12505 -1.89227,3.05978 -0.28472,3.18485 -0.86933,9.39159 -0.86933,9.39159 l -2.78849,14.18846 3.86003,0.93078 2.98668,-15.31187 1.79171,-4.54704 z"
         id="path269"
         inkscape:connector-curvature="0"
         style="mix-blend-mode:normal;fill:#00052b;fill-opacity:1;stroke:#ffc463;stroke-width:0.608542;stroke-dasharray:none;stroke-opacity:1" /><polygon
         points="132.826,449.047 132.828,485.427 142.26,485.427 146.747,449.046 "
         id="polygon273"
         style="mix-blend-mode:normal;fill:#00052b;fill-opacity:1;stroke:#ffc463;stroke-width:2.31005;stroke-dasharray:none;stroke-opacity:1"
         transform="matrix(0.2513349,0,0,0.27611277,135.52884,47.147134)" /><polygon
         points="75.135,452.637 73.738,486.301 83.17,486.234 87.402,449.823 "
         id="polygon275"
         style="mix-blend-mode:normal;fill:#00052b;fill-opacity:1;stroke:#ffc463;stroke-width:2.31005;stroke-dasharray:none;stroke-opacity:1"
         transform="matrix(0.2513349,0,0,0.27611277,135.52884,47.147134)" /><ellipse
         cx="165.98615"
         cy="101.27531"
         id="circle279"
         style="mix-blend-mode:normal;fill:#00052b;fill-opacity:1;stroke:#ffc463;stroke-width:0.608542;stroke-dasharray:none;stroke-opacity:1"
         rx="3.7546747"
         ry="4.1248298" /><path
         d="m 168.32517,179.89508 3.74744,-0.24572 v 1.76385 l 3.56279,2.70318 a 1.0028966,1.1017673 0 0 1 -0.56987,2.00841 h -4.46147 l -0.76899,-1.74471 -0.30026,1.74471 h -1.68216 z"
         id="path281"
         inkscape:connector-curvature="0"
         style="mix-blend-mode:normal;fill:#00052b;fill-opacity:1;stroke:#ffc463;stroke-width:0.608542;stroke-dasharray:none;stroke-opacity:1" /><path
         d="m 153.25083,180.14238 3.74578,-0.27453 0.0112,1.7638 3.57994,2.67571 a 1.0028966,1.1017673 0 0 1 -0.55708,2.01275 l -4.46134,0.0343 -0.78011,-1.73876 -0.28913,1.74698 -1.68211,0.0129 z"
         id="path283"
         inkscape:connector-curvature="0"
         style="mix-blend-mode:normal;fill:#00052b;fill-opacity:1;stroke:#ffc463;stroke-width:0.608542;stroke-dasharray:none;stroke-opacity:1" /><path
         d="m 153.32411,173.71908 1.72619,-15.15801 2.05376,-15.98162 c -1.50401,-3.06854 1.88261,-12.59729 1.88261,-12.59729 l 0.47804,0.0252 10.81997,2.24248 -0.002,-0.0114 c 2.21304,6.63108 2.94625,9.90697 2.82497,16.96844 l -0.43599,25.38442 h 0.13677 a 0.8557371,0.9401 0 0 1 0,1.8802 h -4.27866 a 0.8557371,0.9401 0 1 1 0,-1.8802 h 0.11032 l -3.92729,-30.2253 -3.32974,12.69097 -3.76522,16.54568 c 1.36917,-0.37604 1.15657,0.49523 1.15657,0.98867 a 0.85573502,0.94009771 0 0 1 -0.85573,0.94009 h -4.27876 a 0.85484276,0.93911754 0 0 1 -0.31557,-1.81228 z"
         id="path285"
         inkscape:connector-curvature="0"
         style="mix-blend-mode:normal;fill:#00052b;fill-opacity:1;stroke:#ffc463;stroke-width:0.608542;stroke-dasharray:none;stroke-opacity:1" /><path
         d="m 158.14419,130.47575 0.3423,-3.76038 a 0.68231898,0.74958544 0 0 1 0.617,-0.56308 c 0.14262,-1.79131 0.74267,-9.51918 0.77852,-9.85621 l 0.002,-0.0142 0.27285,-6.40351 a 0.86198823,0.94696738 0 0 1 0.80482,-0.90068 l 1.44119,-0.10349 a 0.07626255,0.08378089 0 0 0 0.0737,-0.0837 1.2119545,1.3314351 0 0 1 1.21195,-1.33144 h 4.26688 a 1.1346992,1.2465635 0 0 1 1.1254,1.09123 0.07532758,0.08275375 0 0 0 0.0767,0.0744 h 4.7e-4 a 2.0271643,2.2270124 0 0 1 2.03929,1.84716 c 0.58334,3.7286 1.75239,12.19113 1.17439,16.89581 -0.20121,1.63778 0.23253,0.34061 0.30864,1.71094 a 0.91816412,1.0086813 0 0 1 -0.22859,0.73132 0.6619382,0.72719542 0 0 1 0.39844,0.92432 l 0.075,-0.0204 a 0.68457845,0.75206767 0 0 1 -0.83115,0.54542 l -11.16333,1.66173 c -0.36663,-0.10153 -2.87839,-2.0425 -2.78598,-2.44526 z"
         id="path287"
         inkscape:connector-curvature="0"
         style="mix-blend-mode:normal;fill:#00052b;fill-opacity:1;stroke:#ffc463;stroke-width:0.608542;stroke-dasharray:none;stroke-opacity:1" /><path
         d="m 187.97377,115.18683 a 1.6704145,1.8350924 0 0 1 -2.35247,1.11313 l -4.31563,4.32678 -0.57301,-3.32986 4.18875,-3.5876 a 1.6794826,1.8450546 0 0 1 3.05237,1.47755 z"
         id="path289"
         inkscape:connector-curvature="0"
         style="mix-blend-mode:normal;fill:#00052b;fill-opacity:1;stroke:#ffc463;stroke-width:0.608542;stroke-dasharray:none;stroke-opacity:1" /><path
         d="m 172.95292,111.87957 c 0,0 -1.50483,-3.73598 -3.40544,-2.99337 -1.90062,0.74262 -0.91929,4.36751 -0.91929,4.36751 l 7.14068,11.82081 c 0,0 10.29947,-7.25834 9.04705,-7.30961 -1.25241,-0.0513 -1.62705,-2.55373 -1.62705,-2.55373 l -5.44346,2.98804 -0.18417,-1.06371 -0.29521,0.32432 -0.76177,-0.65869 z"
         id="path291"
         inkscape:connector-curvature="0"
         style="mix-blend-mode:normal;fill:#00052b;fill-opacity:1;stroke:#ffc463;stroke-width:0.608542;stroke-dasharray:none;stroke-opacity:1" /><path
         d="m 166.6909,96.803104 c -1.64738,-1.42873 -2.97934,-1.18484 -4.00686,-0.29721 -0.17274,-0.2111 -0.90785,0.36971 -1.15675,0.28624 l -0.90025,1.85664 c -0.46325,0.89806 -0.6533,1.814786 -0.57842,2.330746 -0.85213,2.62522 1.16859,4.39802 3.55827,5.3341 a 4.5598888,5.0094256 0 0 0 2.95697,0.0471 l 0.0294,-0.44733 0.18095,0.36662 c 0,0 2.18464,4.9417 2.70087,5.16361 -0.31324,-0.89268 -1.1394,-5.13529 -1.37001,-6.01966 -0.31621,-1.20326 -0.1002,-3.11491 0.0856,-4.28696 a 6.0463385,6.6424172 0 0 0 0.018,-2.186016 l -0.004,-0.0317 0.51113,1.133526 1.14684,-0.792236 c -0.4383,-1.40248 -0.44706,-3.08024 -3.1711,-2.45743 z"
         id="path304"
         inkscape:connector-curvature="0"
         style="mix-blend-mode:normal;fill:#00052b;fill-opacity:1;stroke:#ffc463;stroke-width:0.608542;stroke-dasharray:none;stroke-opacity:1" /><path
         d="m 158.62844,141.43756 a 1.6704145,1.8350924 0 0 0 -0.2323,-2.80231 l 2.65963,-14.51256 -2.93705,1.03598 -2.12891,14.03727 a 1.6794826,1.8450546 0 0 0 2.63863,2.24163 z"
         id="path267-4"
         inkscape:connector-curvature="0"
         style="fill:#00052b;fill-opacity:1;stroke:#ffc463;stroke-width:0.608542;stroke-dasharray:none;stroke-opacity:1" /><path
         d="m 162.55553,110.73281 -1.82231,-1.51119 c 0,0 -1.60755,-0.12505 -1.89227,3.05979 -0.28472,3.18484 -0.86933,9.39158 -0.86933,9.39158 l -2.78849,14.18847 3.86003,0.93077 2.98668,-15.31186 1.79171,-4.54705 z"
         id="path269-7"
         inkscape:connector-curvature="0"
         style="fill:#00052b;fill-opacity:1;stroke:#ffc463;stroke-width:0.608542;stroke-dasharray:none;stroke-opacity:1" /><polygon
         points="132.828,485.427 142.26,485.427 146.747,449.046 132.826,449.047 "
         id="polygon273-3"
         style="fill:#00052b;fill-opacity:1;stroke:#ffc463;stroke-width:2.31005;stroke-dasharray:none;stroke-opacity:1"
         transform="matrix(0.2513349,0,0,0.27611277,135.40878,47.305784)" /><polygon
         points="73.738,486.301 83.17,486.234 87.402,449.823 75.135,452.637 "
         id="polygon275-1"
         style="fill:#00052b;fill-opacity:1;stroke:#ffc463;stroke-width:2.31005;stroke-dasharray:none;stroke-opacity:1"
         transform="matrix(0.2513349,0,0,0.27611277,135.40878,47.305784)" /><ellipse
         cx="165.86612"
         cy="101.43394"
         id="circle279-5"
         style="fill:#00052b;fill-opacity:1;stroke:#ffc463;stroke-width:0.608542;stroke-dasharray:none;stroke-opacity:1"
         rx="3.7546747"
         ry="4.1248298" /><path
         d="m 168.20512,180.05373 3.74744,-0.24572 v 1.76385 l 3.5628,2.70317 a 1.0028966,1.1017673 0 0 1 -0.56988,2.00842 h -4.46147 l -0.76899,-1.74472 -0.30026,1.74472 h -1.68216 z"
         id="path281-9"
         inkscape:connector-curvature="0"
         style="fill:#00052b;fill-opacity:1;stroke:#ffc463;stroke-width:0.608542;stroke-dasharray:none;stroke-opacity:1" /><path
         d="m 153.13078,180.30103 3.74578,-0.27454 0.0112,1.76381 3.57994,2.6757 a 1.0028966,1.1017673 0 0 1 -0.55707,2.01276 l -4.46135,0.0343 -0.78011,-1.73876 -0.28913,1.74698 -1.68211,0.0129 z"
         id="path283-6"
         inkscape:connector-curvature="0"
         style="fill:#00052b;fill-opacity:1;stroke:#ffc463;stroke-width:0.608542;stroke-dasharray:none;stroke-opacity:1" /><path
         d="m 153.20406,173.87772 1.72619,-15.158 2.05376,-15.98162 c -1.50401,-3.06854 1.88261,-12.5973 1.88261,-12.5973 l 0.47804,0.0252 10.81997,2.24248 -0.002,-0.0114 c 2.21303,6.63109 2.94624,9.90697 2.82496,16.96844 l -0.43598,25.38442 h 0.13676 a 0.8557371,0.9401 0 0 1 0,1.8802 h -4.27866 a 0.8557371,0.9401 0 1 1 0,-1.8802 h 0.11032 l -3.92729,-30.2253 -3.32974,12.69097 -3.76522,16.54568 c 1.36917,-0.37604 1.15657,0.49523 1.15657,0.98867 a 0.85573502,0.94009771 0 0 1 -0.85573,0.94009 h -4.27876 a 0.85484276,0.93911754 0 0 1 -0.31557,-1.81228 z"
         id="path285-2"
         inkscape:connector-curvature="0"
         style="fill:#00052b;fill-opacity:1;stroke:#ffc463;stroke-width:0.608542;stroke-dasharray:none;stroke-opacity:1" /><path
         d="m 158.02414,130.63439 0.34231,-3.76038 a 0.68231898,0.74958544 0 0 1 0.61699,-0.56308 c 0.14262,-1.79131 0.74267,-9.51917 0.77852,-9.85621 l 0.002,-0.0142 0.27285,-6.40351 a 0.86198823,0.94696738 0 0 1 0.80482,-0.90067 l 1.4412,-0.10349 a 0.07626255,0.08378089 0 0 0 0.0737,-0.0837 1.2119545,1.3314351 0 0 1 1.21195,-1.33144 h 4.26688 a 1.1346992,1.2465635 0 0 1 1.1254,1.09123 0.07532758,0.08275375 0 0 0 0.0766,0.0744 h 4.7e-4 a 2.0271643,2.2270124 0 0 1 2.0393,1.84716 c 0.58333,3.7286 1.75238,12.19113 1.17438,16.89582 -0.20121,1.63777 0.23254,0.3406 0.30864,1.71092 a 0.91816412,1.0086813 0 0 1 -0.22859,0.73132 0.6619382,0.72719542 0 0 1 0.39845,0.92434 l 0.075,-0.0204 a 0.68457845,0.75206767 0 0 1 -0.83116,0.54542 l -11.16333,1.66172 c -0.36662,-0.10153 -2.87839,-2.0425 -2.78598,-2.44526 z"
         id="path287-1"
         inkscape:connector-curvature="0"
         style="fill:#00052b;fill-opacity:1;stroke:#ffc463;stroke-width:0.608542;stroke-dasharray:none;stroke-opacity:1" /><path
         d="m 187.85372,115.34547 a 1.6704145,1.8350924 0 0 1 -2.35247,1.11313 l -4.31563,4.32679 -0.573,-3.32986 4.18874,-3.58761 a 1.6794826,1.8450546 0 0 1 3.05237,1.47755 z"
         id="path289-7"
         inkscape:connector-curvature="0"
         style="fill:#00052b;fill-opacity:1;stroke:#ffc463;stroke-width:0.608542;stroke-dasharray:none;stroke-opacity:1" /><path
         d="m 172.83287,112.03821 c 0,0 -1.50483,-3.73598 -3.40544,-2.99337 -1.90062,0.74262 -0.91929,4.36751 -0.91929,4.36751 l 7.14068,11.82081 c 0,0 10.29948,-7.25834 9.04705,-7.30961 -1.25241,-0.0513 -1.62704,-2.55373 -1.62704,-2.55373 l -5.44347,2.98804 -0.18417,-1.0637 -0.29521,0.32431 -0.76177,-0.65869 z"
         id="path291-8"
         inkscape:connector-curvature="0"
         style="fill:#00052b;fill-opacity:1;stroke:#ffc463;stroke-width:0.608542;stroke-dasharray:none;stroke-opacity:1" /><path
         d="m 160.36711,99.17833 c -0.57585,0.3036 -1.22045,-0.15315 -1.7176,-0.60574 l 0.17784,0.16873 c -0.87868,0.93916 -1.28947,2.29035 -1.49021,3.62044 -0.20092,1.32871 -0.22333,2.68754 -0.47632,4.00681 -0.25319,1.31786 -0.77839,2.64198 -1.7594,3.44916 -1.31422,1.08112 -3.12682,1.01173 -4.73964,0.68031 -0.0215,-0.005 -0.0415,-0.008 -0.063,-0.0132 a 9.846374,10.817079 0 0 0 0.51863,-4.28833 8.9526774,9.8352776 0 0 1 -2.14924,3.8701 20.551951,22.578067 0 0 1 -3.12101,-1.24937 c -0.65219,-0.32978 -1.35443,-0.78072 -1.53544,-1.54424 -0.18146,-0.75775 0.23993,-1.55255 0.80338,-2.03103 0.56346,-0.47847 1.25501,-0.72811 1.89691,-1.06897 0.64085,-0.33927 1.27502,-0.82299 1.53162,-1.55324 0.59182,-1.67986 -1.09412,-3.60749 -0.43707,-5.2588 0.324,-0.81202 1.11763,-1.25371 1.86356,-1.59425 a 27.351573,30.048029 0 0 1 3.50001,-1.296963 c 1.04635,-0.30321 2.13889,-0.53885 3.20482,-0.34008 1.06593,0.19876 2.1102,0.911013 2.49385,2.023103 0.6401,0.23767 1.31969,0.50554 1.73049,1.09746 0.41062,0.59054 0.37752,1.60716 -0.23218,1.92812 z"
         id="path302-5"
         inkscape:connector-curvature="0"
         style="fill:#00052b;fill-opacity:1;stroke:#ffc463;stroke-width:0.608542;stroke-dasharray:none;stroke-opacity:1" /><path
         d="m 166.57085,96.961744 c -1.64738,-1.42873 -2.97934,-1.18484 -4.00686,-0.2972 -0.17274,-0.21111 -0.90785,0.36971 -1.15675,0.28623 l -0.90025,1.85664 c -0.46325,0.89806 -0.6533,1.814786 -0.57842,2.330746 -0.85213,2.62522 1.16859,4.39802 3.55827,5.3341 a 4.5598888,5.0094256 0 0 0 2.95697,0.047 l 0.0294,-0.44733 0.18096,0.36663 c 0,0 2.18463,4.94169 2.70086,5.1636 -0.31324,-0.89267 -1.1394,-5.13529 -1.37001,-6.01966 -0.3162,-1.20326 -0.1002,-3.1149 0.0856,-4.28696 a 6.0463385,6.6424172 0 0 0 0.018,-2.186006 l -0.005,-0.0317 0.51113,1.133526 1.14684,-0.792226 c -0.4383,-1.40249 -0.44706,-3.08025 -3.1711,-2.45744 z"
         id="path304-9"
         inkscape:connector-curvature="0"
         style="fill:#00052b;fill-opacity:1;stroke:#ffc463;stroke-width:0.608542;stroke-dasharray:none;stroke-opacity:1" /><path
         d="m 158.66333,141.39343 a 1.6704145,1.8350924 0 0 0 -0.2323,-2.80232 l 2.65963,-14.51255 -2.93706,1.03598 -2.12891,14.03727 a 1.6794826,1.8450546 0 0 0 2.63863,2.24163 z"
         id="path267-4-1"
         inkscape:connector-curvature="0"
         style="fill:#00052b;fill-opacity:1;stroke:#ffc463;stroke-width:0.608542;stroke-dasharray:none;stroke-opacity:1" /><path
         d="m 162.59042,110.68869 -1.82231,-1.51119 c 0,0 -1.60756,-0.12506 -1.89228,3.05978 -0.28472,3.18484 -0.86932,9.39158 -0.86932,9.39158 l -2.7885,14.18846 3.86003,0.93078 2.98668,-15.31186 1.79172,-4.54705 z"
         id="path269-7-5"
         inkscape:connector-curvature="0"
         style="fill:#00052b;fill-opacity:1;stroke:#ffc463;stroke-width:0.608542;stroke-dasharray:none;stroke-opacity:1" /><polygon
         points="132.826,449.047 132.828,485.427 142.26,485.427 146.747,449.046 "
         id="polygon273-3-9"
         style="fill:#00052b;fill-opacity:1;stroke:#ffc463;stroke-width:2.31005;stroke-dasharray:none;stroke-opacity:1"
         transform="matrix(0.2513349,0,0,0.27611277,135.44367,47.261634)" /><polygon
         points="75.135,452.637 73.738,486.301 83.17,486.234 87.402,449.823 "
         id="polygon275-1-1"
         style="fill:#00052b;fill-opacity:1;stroke:#ffc463;stroke-width:2.31005;stroke-dasharray:none;stroke-opacity:1"
         transform="matrix(0.2513349,0,0,0.27611277,135.44367,47.261634)" /><ellipse
         cx="165.901"
         cy="101.38979"
         id="circle279-5-9"
         style="fill:#00052b;fill-opacity:1;stroke:#ffc463;stroke-width:0.608542;stroke-dasharray:none;stroke-opacity:1"
         rx="3.7546747"
         ry="4.1248298" /><path
         d="m 168.24001,180.0096 3.74744,-0.24572 v 1.76385 l 3.56279,2.70317 a 1.0028966,1.1017673 0 0 1 -0.56988,2.00842 h -4.46146 l -0.769,-1.74472 -0.30026,1.74472 h -1.68215 z"
         id="path281-9-1"
         inkscape:connector-curvature="0"
         style="fill:#00052b;fill-opacity:1;stroke:#ffc463;stroke-width:0.608542;stroke-dasharray:none;stroke-opacity:1" /><path
         d="m 153.16566,180.2569 3.74578,-0.27454 0.0112,1.76381 3.57993,2.6757 a 1.0028966,1.1017673 0 0 1 -0.55707,2.01275 l -4.46135,0.0343 -0.7801,-1.73875 -0.28914,1.74698 -1.68211,0.0129 z"
         id="path283-6-0"
         inkscape:connector-curvature="0"
         style="fill:#00052b;fill-opacity:1;stroke:#ffc463;stroke-width:0.608542;stroke-dasharray:none;stroke-opacity:1" /><path
         d="m 153.23894,173.83359 1.72619,-15.158 2.05376,-15.98162 c -1.50401,-3.06855 1.88262,-12.5973 1.88262,-12.5973 l 0.47803,0.0252 10.81998,2.24248 -0.002,-0.0114 c 2.21303,6.63108 2.94624,9.90697 2.82496,16.96843 l -0.43598,25.38443 h 0.13677 a 0.85573418,0.94009679 0 0 1 0,1.88019 h -4.27867 a 0.85573502,0.94009771 0 1 1 0,-1.88019 h 0.11033 l -3.9273,-30.2253 -3.32973,12.69097 -3.76523,16.54567 c 1.36917,-0.37603 1.15658,0.49523 1.15658,0.98867 a 0.85573502,0.94009771 0 0 1 -0.85573,0.94009 h -4.27877 a 0.85484276,0.93911754 0 0 1 -0.31557,-1.81228 z"
         id="path285-2-7"
         inkscape:connector-curvature="0"
         style="fill:#00052b;fill-opacity:1;stroke:#ffc463;stroke-width:0.608542;stroke-dasharray:none;stroke-opacity:1" /><path
         d="m 158.05903,130.59026 0.3423,-3.76038 a 0.68231898,0.74958544 0 0 1 0.617,-0.56308 c 0.14261,-1.7913 0.74266,-9.51917 0.77852,-9.8562 l 0.002,-0.0142 0.27286,-6.40351 a 0.86198823,0.94696738 0 0 1 0.80482,-0.90068 l 1.44119,-0.10349 a 0.07626255,0.08378089 0 0 0 0.0737,-0.0837 1.2119545,1.3314351 0 0 1 1.21195,-1.33144 h 4.26689 a 1.1346992,1.2465635 0 0 1 1.12539,1.09123 0.07532758,0.08275375 0 0 0 0.0766,0.0744 h 4.8e-4 a 2.0271643,2.2270124 0 0 1 2.03929,1.84716 c 0.58334,3.7286 1.75238,12.19113 1.17438,16.89581 -0.20121,1.63777 0.23254,0.3406 0.30865,1.71093 a 0.91816412,1.0086813 0 0 1 -0.22859,0.73131 0.6619382,0.72719542 0 0 1 0.39844,0.92434 l 0.075,-0.0204 a 0.68457845,0.75206767 0 0 1 -0.83116,0.54543 l -11.16333,1.66172 c -0.36662,-0.10152 -2.87839,-2.04251 -2.78597,-2.44527 z"
         id="path287-1-5"
         inkscape:connector-curvature="0"
         style="fill:#00052b;fill-opacity:1;stroke:#ffc463;stroke-width:0.608542;stroke-dasharray:none;stroke-opacity:1" /><path
         d="m 187.88861,115.30134 a 1.6704145,1.8350924 0 0 1 -2.35248,1.11313 l -4.31563,4.32679 -0.573,-3.32986 4.18875,-3.5876 a 1.6794826,1.8450546 0 0 1 3.05237,1.47754 z"
         id="path289-7-8"
         inkscape:connector-curvature="0"
         style="fill:#00052b;fill-opacity:1;stroke:#ffc463;stroke-width:0.608542;stroke-dasharray:none;stroke-opacity:1" /><path
         d="m 172.86776,111.99408 c 0,0 -1.50484,-3.73598 -3.40545,-2.99337 -1.90062,0.74262 -0.91929,4.36752 -0.91929,4.36752 l 7.14068,11.8208 c 0,0 10.29948,-7.25834 9.04706,-7.30961 -1.25242,-0.0513 -1.62705,-2.55372 -1.62705,-2.55372 l -5.44346,2.98804 -0.18418,-1.06371 -0.29521,0.32431 -0.76177,-0.65869 z"
         id="path291-8-7"
         inkscape:connector-curvature="0"
         style="fill:#00052b;fill-opacity:1;stroke:#ffc463;stroke-width:0.608542;stroke-dasharray:none;stroke-opacity:1" /><path
         d="m 166.60573,96.917594 c -1.64738,-1.42873 -2.97933,-1.18484 -4.00686,-0.29721 -0.17274,-0.2111 -0.90785,0.36971 -1.15674,0.28623 l -0.90025,1.85666 c -0.46326,0.89806 -0.65331,1.814786 -0.57842,2.330746 -0.85213,2.62522 1.16859,4.39802 3.55827,5.3341 a 4.5598888,5.0094256 0 0 0 2.95697,0.047 l 0.0294,-0.44733 0.18096,0.36663 c 0,0 2.18463,4.9417 2.70087,5.16361 -0.31325,-0.89267 -1.13941,-5.1353 -1.37001,-6.01967 -0.31621,-1.20326 -0.10021,-3.1149 0.0856,-4.28696 a 6.0463385,6.6424172 0 0 0 0.018,-2.186016 l -0.004,-0.0317 0.51113,1.133526 1.14683,-0.792226 c -0.4383,-1.40249 -0.44705,-3.08026 -3.17109,-2.45745 z"
         id="path304-9-9"
         inkscape:connector-curvature="0"
         style="fill:#00052b;fill-opacity:1;stroke:#ffc463;stroke-width:0.608542;stroke-dasharray:none;stroke-opacity:1" /></g></g></svg>
